<svg width="78" height="124" viewBox="0 0 78 124" fill="none" xmlns="http://www.w3.org/2000/svg">
<path d="M2.44405 111.746C4.14821 113.77 6.84201 115.805 10.3376 117.548C17.324 121.054 27.4254 123.365 38.6102 123.355C47.0002 123.357 54.7753 122.071 61.0904 119.935C67.4128 117.816 72.2291 114.792 74.776 111.746C76.4891 109.702 77.2134 107.805 77.22 105.918M2.44405 111.746L2.82726 111.425C2.82711 111.425 2.82697 111.425 2.82682 111.424M2.44405 111.746C0.731137 109.702 0.0067799 107.805 0 105.918M2.44405 111.746L2.8265 111.424C2.82661 111.424 2.82672 111.424 2.82682 111.424M2.82682 111.424C4.47499 113.381 7.1072 115.378 10.5607 117.1L10.5619 117.101C17.4647 120.565 27.4859 122.865 38.6098 122.855H38.6104C46.9518 122.857 54.6721 121.578 60.9302 119.461L60.9315 119.461C67.2051 117.359 71.9265 114.375 74.3924 111.425L74.3928 111.425C76.0491 109.449 76.7137 107.661 76.72 105.917M2.82682 111.424C1.17119 109.449 0.506608 107.661 0.500002 105.918M76.72 105.917C76.72 105.918 76.72 105.918 76.72 105.919L77.22 105.918M76.72 105.917C76.72 105.917 76.72 105.917 76.72 105.916L77.22 105.918M76.72 105.917C76.7182 105.037 76.547 104.175 76.1788 103.265L76.1801 103.268L76.6411 103.074M77.22 105.918C77.2183 104.967 77.0326 104.041 76.6411 103.074M76.6411 103.074L76.1776 103.262M76.6411 103.074L76.5698 102.904C75.8492 101.228 74.4387 99.427 72.3007 97.7019L76.1776 103.262M76.1776 103.262L76.1104 103.102C76.1102 103.101 76.1099 103.101 76.1097 103.1C75.4291 101.518 74.0791 99.7793 71.9867 98.091L71.986 98.0904C69.9005 96.4017 67.112 94.7931 63.7724 93.4314L63.7718 93.4312C57.0903 90.6979 48.2663 88.9764 38.6105 88.9812L38.6101 88.9812C31.3678 88.9799 24.5954 89.9415 18.8387 91.5828L18.8381 91.583C13.0779 93.2176 8.36351 95.5507 5.23419 98.0899L5.23315 98.0908C3.14086 99.7792 1.79159 101.518 1.11035 103.1L1.04117 103.265C0.672957 104.175 0.501797 105.037 0.500002 105.918M76.1776 103.262L0 105.918M0 105.918L0.499997 105.916C0.499998 105.917 0.5 105.917 0.500002 105.918M0 105.918L0.499999 105.919C0.5 105.918 0.500001 105.918 0.500002 105.918" fill="#FFC835" stroke="black"/>
<path d="M3.63929 91.7147L3.63886 91.7149C2.72091 92.09 1.82837 92.4834 0.956751 92.8902L38.6089 1.31486L76.2641 92.8996C73.0627 91.4135 69.5806 90.1284 65.8484 89.0612L65.8478 89.0611C57.7231 86.7483 48.4566 85.4559 38.609 85.4545H38.6087C25.478 85.4605 13.3844 87.7433 3.63929 91.7147Z" fill="#FFC835" stroke="black"/>
</svg>
