<svg width="136" height="136" viewBox="0 0 136 136" fill="none" xmlns="http://www.w3.org/2000/svg">
<g clip-path="url(#clip0_122_1124)">
<path d="M52.4026 84.0981L52.4026 83.5981L51.9026 83.5981L19.295 83.598C15.4682 83.598 12.3653 80.4951 12.3653 76.6682L12.3653 59.3313C12.3653 55.5045 15.4672 52.4024 19.2951 52.4016L51.9034 52.4022L52.4035 52.4022L52.4035 51.9022L52.4017 19.293C52.4017 15.4661 55.5046 12.3632 59.3314 12.3632L76.6675 12.364L76.6676 11.864V12.364C80.4944 12.364 83.5973 15.4669 83.5973 19.2938L83.5984 51.9024L83.5984 52.4024L84.0984 52.4024L116.706 52.4025C120.533 52.4025 123.636 55.5054 123.636 59.3323H124.136L123.636 59.3323L123.637 76.6684C123.637 80.4952 120.534 83.5981 116.707 83.5981L84.0984 83.5972L83.5984 83.5972L83.5984 84.0972L83.5992 116.706C83.5992 120.533 80.4963 123.636 76.6694 123.636L76.6694 123.636L59.3331 123.636C55.5062 123.636 52.4034 120.534 52.4034 116.707L51.9034 116.707L52.4034 116.707L52.4026 84.0981Z" fill="#FF639B" stroke="black"/>
</g>
<defs>
<clipPath id="clip0_122_1124">
<rect width="96" height="96" fill="white" transform="translate(68 135.882) rotate(-135)"/>
</clipPath>
</defs>
</svg>
