<svg width="96" height="138" viewBox="0 0 96 138" fill="none" xmlns="http://www.w3.org/2000/svg">
<path d="M0.5 20.5714C0.5 13.8133 6.24454 8.78663 15.2264 5.43124C24.1681 2.09086 36.1032 0.5 48 0.5C59.8968 0.5 71.8319 2.09086 80.7736 5.43124C89.7555 8.78663 95.5 13.8133 95.5 20.5714V116.571C95.5 123.33 89.7555 128.356 80.7736 131.712C71.8319 135.052 59.8968 136.643 48 136.643C36.1032 136.643 24.1681 135.052 15.2264 131.712C6.24454 128.356 0.5 123.33 0.5 116.571V20.5714Z" fill="#600F0F" stroke="black"/>
<path d="M95.5 20.5714C95.5 23.2427 94.2389 25.8293 91.872 28.2275C89.503 30.6279 86.0503 32.8126 81.7442 34.6581C73.1338 38.3482 61.2037 40.6429 48 40.6429C34.7963 40.6429 22.8662 38.3482 14.2558 34.6581C9.94974 32.8126 6.49695 30.6279 4.12795 28.2275C1.76107 25.8293 0.5 23.2427 0.5 20.5714C0.5 17.9002 1.76107 15.3136 4.12795 12.9153C6.49695 10.5149 9.94974 8.33027 14.2558 6.48481C22.8662 2.79463 34.7963 0.5 48 0.5C61.2037 0.5 73.1338 2.79463 81.7442 6.48481C86.0503 8.33027 89.503 10.5149 91.872 12.9153C94.2389 15.3136 95.5 17.9002 95.5 20.5714Z" fill="#FF3333" stroke="black"/>
</svg>
