<svg width="96" height="120" viewBox="0 0 96 120" fill="none" xmlns="http://www.w3.org/2000/svg">
<path d="M26.7255 80.9447L26.7261 80.9457C28.3395 83.9869 30.7515 86.5306 33.7027 88.3034C36.6538 90.0761 40.0324 91.0108 43.4751 91.0068H43.4757C45.1997 91.0068 46.8531 91.6917 48.0722 92.9107C49.2912 94.1298 49.9761 95.7832 49.9761 97.5073C49.9761 99.2313 49.2912 100.885 48.0722 102.104C46.8532 103.323 45.2 104.008 43.4761 104.008C43.476 104.008 43.4758 104.008 43.4757 104.008V103.508C37.7663 103.513 32.1633 101.964 27.2678 99.0259C22.3723 96.0882 18.369 91.8729 15.6876 86.8325C14.938 85.4272 14.7774 83.7818 15.241 82.2582C15.7046 80.7345 16.7546 79.4574 18.1598 78.7079C19.565 77.9583 21.2104 77.7977 22.7341 78.2613C24.2577 78.7249 25.5348 79.7748 26.2844 81.18L26.7255 80.9447ZM26.7255 80.9447C25.9136 79.4225 24.5302 78.2852 22.8796 77.7829C21.2291 77.2807 19.4467 77.4547 17.9245 78.2667C16.4022 79.0787 15.2649 80.4621 14.7627 82.1126C14.2605 83.7631 14.4345 85.5456 15.2464 87.0678L26.7255 80.9447ZM8.20134 55.5823L8.2014 55.5822L48 0.850184L87.7986 55.5822L87.7987 55.5823C92.1667 61.5866 94.7887 68.6823 95.3745 76.0842C95.9604 83.4862 94.4872 90.906 91.1181 97.5227C87.749 104.139 82.6152 109.695 76.2847 113.576C69.9542 117.456 62.6737 119.509 55.2486 119.509H40.7515C33.3263 119.509 26.0458 117.456 19.7153 113.576C13.3848 109.695 8.25097 104.139 4.88187 97.5227C1.51276 90.906 0.0396489 83.4862 0.625493 76.0842C1.21134 68.6823 3.8333 61.5866 8.20134 55.5823Z" fill="#3399FF" stroke="black"/>
</svg>
