<svg width="92" height="116" viewBox="0 0 92 116" fill="none" xmlns="http://www.w3.org/2000/svg">
<path d="M8.03321 53.546C3.85691 59.2868 1.35004 66.071 0.789906 73.148C0.229777 80.2251 1.63823 87.3192 4.85945 93.6455C8.08067 99.9718 12.9891 105.284 19.0418 108.994C25.0944 112.704 32.0554 114.667 39.1545 114.667H52.8452C59.9444 114.667 66.9053 112.704 72.958 108.994C79.0107 105.284 83.9191 99.9718 87.1403 93.6455C90.3615 87.3192 91.77 80.2251 91.2098 73.148C90.6497 66.071 88.1429 59.2868 83.9666 53.546L45.9999 1.33331L8.03321 53.546ZM41.7272 99.0833C36.3355 99.0883 31.0441 97.6252 26.4209 94.8508C21.7977 92.0765 18.0171 88.0958 15.4849 83.3357C14.777 82.0086 14.6253 80.4547 15.0632 79.0158C15.501 77.5769 16.4925 76.3708 17.8195 75.663C19.1466 74.9551 20.7005 74.8034 22.1394 75.2413C23.5783 75.6791 24.7843 76.6706 25.4922 77.9977C27.0561 80.9455 29.3941 83.4112 32.2547 85.1295C35.1153 86.8479 38.3902 87.7538 41.7272 87.75C43.2301 87.75 44.6714 88.347 45.7342 89.4097C46.7969 90.4724 47.3939 91.9138 47.3939 93.4167C47.3939 94.9195 46.7969 96.3609 45.7342 97.4236C44.6714 98.4863 43.2301 99.0833 41.7272 99.0833Z" fill="#3399FF" stroke="black"/>
</svg>
