<svg width="96" height="92" viewBox="0 0 96 92" fill="none" xmlns="http://www.w3.org/2000/svg">
<path d="M93.6677 32.6016L93.6753 32.6071L93.6831 32.6123C94.2923 33.0184 94.8353 33.7589 95.1679 34.6459C95.4971 35.5237 95.5988 36.4888 95.3947 37.324L78.6559 88.0186C77.7536 89.7968 75.9978 91.0618 74.3315 91.0618H21.1897C18.9883 91.0618 17.3019 89.7477 16.8873 88.0893L16.8833 88.0734L16.8783 88.0578L0.605817 37.326C0.401063 36.4903 0.502625 35.5244 0.83208 34.6459C1.16469 33.7589 1.70773 33.0184 2.31691 32.6123L2.32471 32.6071L2.3323 32.6016L45.4202 1.48254L45.4203 1.4826L45.4275 1.4772C46.3204 0.807505 47.1752 0.5 48 0.5C48.8248 0.5 49.6796 0.807505 50.5725 1.4772L50.5725 1.47726L50.5798 1.48254L93.6677 32.6016Z" fill="#FF639B" stroke="black"/>
</svg>
