<svg width="73" height="96" viewBox="0 0 73 96" fill="none" xmlns="http://www.w3.org/2000/svg">
<path d="M42.5842 90.4034L42.5819 90.4066C41.2582 92.2029 40.3068 93.4785 39.3749 94.3155C38.4734 95.1253 37.616 95.5 36.4688 95.5C35.3477 95.5 34.5021 95.1273 33.6048 94.3165C32.6779 93.479 31.726 92.2027 30.4025 90.4066L30.4002 90.4034L2.4195 53.0491C2.41889 53.0482 2.41827 53.0474 2.41766 53.0466C1.18991 51.3633 0.5 49.7316 0.5 48C0.5 46.2227 1.18884 44.6381 2.41774 42.9533C2.41833 42.9525 2.41892 42.9517 2.4195 42.9509L30.4004 5.54952L30.4006 5.54915C31.7246 3.77596 32.6763 2.51103 33.6036 1.67875C34.5013 0.872951 35.3474 0.5 36.4688 0.5C37.6162 0.5 38.4741 0.874906 39.3762 1.67973C40.3085 2.51155 41.2596 3.77579 42.5838 5.54915L42.584 5.54952L70.5649 42.9509C70.5655 42.9517 70.5661 42.9525 70.5667 42.9533C71.7956 44.638 72.4844 46.2227 72.4844 48C72.4844 49.7316 71.7944 51.3634 70.5666 53.0467C70.566 53.0475 70.5655 53.0483 70.5649 53.0491L42.5842 90.4034Z" fill="#85CC5D" stroke="black"/>
</svg>
