<svg width="96" height="92" viewBox="0 0 96 92" fill="none" xmlns="http://www.w3.org/2000/svg">
<mask id="path-1-inside-1_122_1168" fill="white">
<path fill-rule="evenodd" clip-rule="evenodd" d="M95.795 34.7234C95.2473 33.0463 93.6943 31.9169 91.9268 31.9169H61.3257L51.8726 2.81217V2.80657C51.3192 1.12939 49.7663 0 47.9988 0C46.2369 0 44.6783 1.12939 44.1305 2.81222L34.6718 31.9169H4.07071C2.30323 31.9169 0.750243 33.0463 0.202498 34.7234C-0.345247 36.4006 0.241998 38.2302 1.67638 39.2749L26.4385 57.2663L16.9797 86.3766C16.432 88.0594 17.0362 89.8891 18.4706 90.9225C19.1821 91.4363 20.0179 91.6968 20.8536 91.6968C21.6894 91.6968 22.5251 91.4363 23.2423 90.9168L47.9988 72.9311L72.7496 90.9168C74.1783 91.9558 76.1039 91.9558 77.5326 90.9225C78.967 89.8891 79.5655 88.0594 79.0178 86.371L69.5591 57.2663L94.3268 39.2749C95.7555 38.2302 96.3484 36.4006 95.795 34.7235"/>
</mask>
<path fill-rule="evenodd" clip-rule="evenodd" d="M95.795 34.7234C95.2473 33.0463 93.6943 31.9169 91.9268 31.9169H61.3257L51.8726 2.81217V2.80657C51.3192 1.12939 49.7663 0 47.9988 0C46.2369 0 44.6783 1.12939 44.1305 2.81222L34.6718 31.9169H4.07071C2.30323 31.9169 0.750243 33.0463 0.202498 34.7234C-0.345247 36.4006 0.241998 38.2302 1.67638 39.2749L26.4385 57.2663L16.9797 86.3766C16.432 88.0594 17.0362 89.8891 18.4706 90.9225C19.1821 91.4363 20.0179 91.6968 20.8536 91.6968C21.6894 91.6968 22.5251 91.4363 23.2423 90.9168L47.9988 72.9311L72.7496 90.9168C74.1783 91.9558 76.1039 91.9558 77.5326 90.9225C78.967 89.8891 79.5655 88.0594 79.0178 86.371L69.5591 57.2663L94.3268 39.2749C95.7555 38.2302 96.3484 36.4006 95.795 34.7235" fill="#FECA42"/>
<path d="M61.3257 31.9169L60.3746 32.2258L60.5991 32.9169H61.3257V31.9169ZM51.8726 2.81217H50.8726V2.9705L50.9215 3.12108L51.8726 2.81217ZM51.8726 2.80657H52.8726V2.64586L52.8223 2.49324L51.8726 2.80657ZM44.1305 2.81222L43.1796 2.50272L43.1795 2.50315L44.1305 2.81222ZM34.6718 31.9169V32.9169H35.3983L35.6229 32.226L34.6718 31.9169ZM0.202498 34.7234L-0.748089 34.413L-0.748092 34.413L0.202498 34.7234ZM1.67638 39.2749L1.08768 40.0832L1.08859 40.0839L1.67638 39.2749ZM26.4385 57.2663L27.3896 57.5753L27.6141 56.8843L27.0263 56.4573L26.4385 57.2663ZM16.9797 86.3766L17.9306 86.6861L17.9308 86.6856L16.9797 86.3766ZM18.4706 90.9225L19.0561 90.1118L19.0551 90.1111L18.4706 90.9225ZM23.2423 90.9168L23.8289 91.7267L23.8301 91.7258L23.2423 90.9168ZM47.9988 72.9311L48.5866 72.1221L47.9988 71.695L47.411 72.122L47.9988 72.9311ZM72.7496 90.9168L73.3377 90.1081L73.3374 90.1078L72.7496 90.9168ZM77.5326 90.9225L76.9481 90.1111L76.9466 90.1122L77.5326 90.9225ZM79.0178 86.371L79.969 86.0624L79.9688 86.0619L79.0178 86.371ZM69.5591 57.2663L68.9713 56.4572L68.3834 56.8843L68.608 57.5753L69.5591 57.2663ZM94.3268 39.2749L94.9145 40.084L94.9171 40.0821L94.3268 39.2749ZM96.7456 34.413C96.0637 32.3252 94.1277 30.9169 91.9268 30.9169V32.9169C93.261 32.9169 94.4308 33.7674 94.8444 35.0339L96.7456 34.413ZM91.9268 30.9169H61.3257V32.9169H91.9268V30.9169ZM62.2768 31.608L52.8237 2.50326L50.9215 3.12108L60.3746 32.2258L62.2768 31.608ZM52.8726 2.81217V2.80657H50.8726V2.81217H52.8726ZM52.8223 2.49324C52.1344 0.408497 50.2002 -1 47.9988 -1V1C49.3324 1 50.5041 1.85028 50.923 3.11991L52.8223 2.49324ZM47.9988 -1C45.8037 -1 43.8614 0.408282 43.1796 2.50272L45.0814 3.12173C45.4952 1.8505 46.6701 1 47.9988 1V-1ZM43.1795 2.50315L33.7208 31.6078L35.6229 32.226L45.0816 3.1213L43.1795 2.50315ZM34.6718 30.9169H4.07071V32.9169H34.6718V30.9169ZM4.07071 30.9169C1.86987 30.9169 -0.0662327 32.3252 -0.748089 34.413L1.15309 35.0339C1.56672 33.7674 2.73658 32.9169 4.07071 32.9169V30.9169ZM-0.748092 34.413C-1.43016 36.5015 -0.69756 38.7831 1.08768 40.0832L2.26509 38.4665C1.18156 37.6774 0.73967 36.2998 1.15309 35.0339L-0.748092 34.413ZM1.08859 40.0839L25.8507 58.0753L27.0263 56.4573L2.26418 38.4659L1.08859 40.0839ZM25.4875 56.9572L16.0287 86.0676L17.9308 86.6856L27.3896 57.5753L25.4875 56.9572ZM16.0288 86.0671C15.3457 88.166 16.101 90.4478 17.886 91.7338L19.0551 90.1111C17.9715 89.3304 17.5183 87.9529 17.9306 86.6861L16.0288 86.0671ZM17.8851 91.7331C18.7689 92.3715 19.81 92.6968 20.8536 92.6968V90.6968C20.2257 90.6968 19.5952 90.5012 19.0561 90.1118L17.8851 91.7331ZM20.8536 92.6968C21.8982 92.6968 22.9397 92.3708 23.8289 91.7267L22.6556 90.107C22.1106 90.5018 21.4805 90.6968 20.8536 90.6968V92.6968ZM23.8301 91.7258L48.5865 73.7401L47.411 72.122L22.6545 90.1078L23.8301 91.7258ZM47.4109 73.74L72.1617 91.7258L73.3374 90.1078L48.5866 72.1221L47.4109 73.74ZM72.1614 91.7255C73.9406 93.0195 76.34 93.0192 78.1187 91.7327L76.9466 90.1122C75.8678 90.8925 74.4159 90.8922 73.3377 90.1081L72.1614 91.7255ZM78.1172 91.7338C79.9051 90.4457 80.6504 88.163 79.969 86.0624L78.0666 86.6796C78.4806 87.9559 78.0288 89.3325 76.9481 90.1111L78.1172 91.7338ZM79.9688 86.0619L70.5101 56.9572L68.608 57.5753L78.0667 86.6801L79.9688 86.0619ZM70.1468 58.0753L94.9145 40.084L93.7391 38.4659L68.9713 56.4572L70.1468 58.0753ZM94.9171 40.0821C96.6931 38.7834 97.4351 36.5024 96.7446 34.4101L94.8454 35.0368C95.2618 36.2988 94.8179 37.677 93.7366 38.4677L94.9171 40.0821Z" fill="black" mask="url(#path-1-inside-1_122_1168)"/>
</svg>
