<svg width="82" height="105" viewBox="0 0 82 105" fill="none" xmlns="http://www.w3.org/2000/svg">
<g clip-path="url(#clip0_85_2002)">
<path d="M14.1397 38.1614C15.7751 37.9133 17.4386 37.9133 19.074 38.1614L18.7635 39.7474C18.2684 39.6467 6.49504 37.5321 2.51745 50.8998C-1.46015 64.2675 8.88663 68.0102 9.36495 68.1612L8.83629 69.6885C8.71041 69.6885 -3.41538 65.2494 0.998573 50.3879C3.65869 41.3838 9.75936 38.7908 14.1397 38.1614Z" fill="#A069A8"/>
<path d="M71.6471 74.3793C71.6471 92.2952 58.0108 105 38.2236 105C18.0251 105 1.71191 91.7666 1.71191 76.1163C1.71191 66.2227 8.13145 57.0004 19.502 50.7151C7.99719 44.841 2.9203 38.2788 2.9203 29.3166C2.9203 13.9433 18.1594 0.969971 36.6124 0.969971C54.7969 0.969971 69.1045 13.6748 69.1045 29.4509C69.1045 38.2788 65.8989 45.3948 54.5367 50.7151C64.0276 54.0549 71.6471 63.5458 71.6471 74.3793ZM26.7187 29.988C26.7187 34.5362 30.9984 38.9501 37.955 41.3501C42.2347 38.5473 45.1718 33.9991 45.1718 30.1222C45.1718 25.4397 41.0263 21.4286 35.9411 21.4286C30.8558 21.4286 26.7187 25.3055 26.7187 29.988ZM48.1172 74.5135C48.3857 69.0338 43.8375 64.2171 36.6124 62.3458C26.7187 66.0884 27.2558 73.9765 27.2558 74.5135C27.4078 77.1572 28.5533 79.6459 30.4628 81.4806C32.3722 83.3154 34.9045 84.3607 37.5522 84.4072C42.9312 84.4072 47.8487 79.8673 48.1172 74.5135Z" fill="#A069A8"/>
<path d="M50.3159 72.7428C50.5844 67.2631 46.0446 62.4464 38.8195 60.5751C36.6463 61.3514 34.6617 62.5782 32.9957 64.175C34.1306 63.4367 35.3435 62.8261 36.6125 62.3541C43.8376 64.2254 48.3607 69.0673 48.1173 74.5218C47.951 76.9886 46.8955 79.3113 45.1467 81.0589C46.6131 80.19 47.8485 78.9806 48.7483 77.533C49.6481 76.0854 50.1858 74.4423 50.3159 72.7428Z" fill="#883894"/>
<path d="M40.4137 39.3866C44.534 36.5671 47.3535 32.1447 47.3535 28.3517C47.3535 23.6692 43.2081 19.6581 38.1228 19.6581C36.8003 19.6601 35.4926 19.9363 34.2822 20.4693C33.0718 21.0022 31.9851 21.7804 31.0907 22.7546C32.556 21.8924 34.2241 21.4348 35.9242 21.4287C40.9592 21.4287 45.1549 25.4399 45.1549 30.1223C45.1717 33.1853 43.3256 36.6761 40.4137 39.3866Z" fill="#883894"/>
<path d="M40.4138 103.229C20.2238 103.229 3.91059 89.9959 3.91059 74.3457C3.91059 66.9527 7.50217 59.929 14.056 54.2059C6.10918 60.1891 1.70361 67.9093 1.70361 76.0911C1.70361 91.7413 18.0168 104.975 38.2153 104.975C47.8739 104.975 56.0641 101.945 61.9214 96.7595C56.2907 100.88 48.9313 103.229 40.4138 103.229Z" fill="#883894"/>
<path d="M19.0992 50.4968C19.9384 49.9681 20.7775 49.4395 21.7006 48.9444C10.2042 43.0535 5.11887 36.4829 5.11887 27.5459C5.11887 20.0523 8.74403 13.1376 14.5929 8.01038C7.46851 13.2551 2.92029 20.925 2.92029 29.3165C2.92029 38.1612 7.88809 44.6731 19.0992 50.4968Z" fill="#883894"/>
<path d="M62.0891 47.9375C66.8555 47.9375 70.6737 46.4186 73.4932 43.3892C78.3435 38.1697 78.5282 30.0635 78.1505 28.8131L76.5897 29.2327L77.3701 29.0229L76.5897 29.2243C76.7492 29.904 76.8079 37.6158 72.1506 42.4578C68.794 45.9571 63.759 47.0899 57.1633 45.8144L56.8528 47.392C58.5767 47.7411 60.3302 47.9238 62.0891 47.9375Z" fill="#A069A8"/>
<path d="M78.8555 21.8817C78.8555 18.9027 78.3268 16.4859 77.9743 16.5447C77.6219 16.6034 77.6303 18.9531 77.5967 21.8901C77.5967 22.36 77.6471 22.8048 77.689 23.2244L76.8499 23.1656C76.8044 22.6853 76.7259 22.2086 76.6149 21.7391C76.2205 20.1866 75.7758 18.8943 75.5156 17.9377C75.2555 16.9811 75.2135 16.3852 75.0373 16.3517C74.8611 16.3181 74.5842 16.981 74.6261 18.03C74.7491 19.375 75.0049 20.7046 75.3898 21.9992C75.4737 22.3433 75.5324 22.6957 75.5912 23.0397L74.4583 22.9558C73.9385 22.4356 73.3772 21.9585 72.78 21.5293C72.2681 21.16 71.9408 20.9083 71.7982 20.9922C71.6555 21.0761 71.7227 21.5461 72.1338 22.1419C72.545 22.7377 73.208 23.3922 73.8121 24.0803C73.8877 24.1726 73.9548 24.2733 74.0219 24.3656C73.787 26.2537 73.9128 29.4005 77.2862 30.0299C81.5575 30.8103 81.482 25.1376 81.3561 23.753" fill="#A069A8"/>
<path d="M39.1047 16.8888C38.6516 13.1881 38.3579 5.56018 44.1397 5.97976C49.9214 6.39934 49.2669 13.2636 49.4851 16.8133L39.1047 16.8888Z" fill="white"/>
<path d="M44.7186 5.93774C43.2049 9.43843 43.1176 13.3917 44.4753 16.9559L49.6193 16.8216C49.6193 16.8216 50.4249 6.01327 44.7186 5.93774Z" fill="#83ACDD"/>
<path d="M45.8096 11.2581C45.8096 11.5266 45.5494 11.7868 45.1047 11.9043C44.5963 12.0184 44.069 12.0184 43.5607 11.9043C43.1248 11.8338 42.7029 11.6951 42.3103 11.4931C42.2461 11.4629 42.1867 11.4233 42.1341 11.3756C42.1341 11.3336 42.0586 11.2665 41.983 11.2413C41.8512 11.1869 41.7417 11.0892 41.6726 10.9644C41.6217 10.8292 41.6217 10.6801 41.6726 10.5448C41.7262 10.4458 41.8042 10.362 41.8991 10.3015C42.001 10.2256 42.1107 10.1609 42.2264 10.1085C42.7617 9.90511 43.3439 9.85854 43.9047 9.9742C45.1047 10.2343 45.7509 10.7378 45.8096 11.2581Z" fill="white"/>
<path d="M25.2585 17.1825C24.8138 13.4818 24.5117 5.85388 30.2935 6.27346C36.0753 6.69304 35.4123 13.5573 35.6305 17.107L25.2585 17.1825Z" fill="white"/>
<path d="M30.881 6.22302C29.3601 9.72163 29.2697 13.6767 30.6292 17.2411L35.7732 17.0985C35.7732 17.0985 36.5788 6.27337 30.881 6.22302Z" fill="#83ACDD"/>
<path d="M31.9634 11.535C31.9634 11.8036 31.7033 12.0637 31.2669 12.1812C30.7586 12.2953 30.2313 12.2953 29.7229 12.1812C29.2863 12.114 28.8638 11.9751 28.4726 11.77C28.4054 11.737 28.3432 11.6946 28.2879 11.6441C28.251 11.5893 28.2022 11.5434 28.1453 11.5098C28.0066 11.4633 27.8919 11.3637 27.8264 11.2329C27.7989 11.1679 27.7848 11.098 27.7848 11.0273C27.7848 10.9567 27.7989 10.8868 27.8264 10.8217C27.8264 10.7462 27.9439 10.6623 28.0446 10.5784C28.1468 10.5031 28.2565 10.4384 28.3719 10.3854C28.9062 10.1788 29.4886 10.1293 30.0502 10.2427C31.2586 10.5196 31.9047 11.0147 31.9634 11.535Z" fill="white"/>
<path d="M59.0681 17.602C59.0681 17.7698 56.5507 18.1055 52.5479 18.5251C48.5451 18.9446 42.8892 19.1376 36.6795 19.2887C30.4697 19.1041 24.8474 18.9614 20.8195 18.4495C16.7915 17.9377 14.2908 17.7446 14.2992 17.6104C14.3076 17.4761 16.8167 17.4761 20.8782 17.6104C24.9397 17.7446 30.5201 17.8873 36.6879 18.0719C42.8557 17.9293 48.4361 17.988 52.4892 17.6607C56.5423 17.3335 59.043 17.4426 59.0681 17.602Z" fill="#3B2A3D"/>
</g>
<defs>
<clipPath id="clip0_85_2002">
<rect width="81.3309" height="104.03" fill="white" transform="translate(0 0.969971)"/>
</clipPath>
</defs>
</svg>
