<svg width="70" height="98" viewBox="0 0 70 98" fill="none" xmlns="http://www.w3.org/2000/svg">
<g clip-path="url(#clip0_85_1906)">
<path d="M69.5464 63.1757C69.5464 82.3284 54.1274 97.3603 34.5957 97.3603C21.7412 97.3603 10.177 90.675 1.82239 78.6027L20.3703 66.6514C21.5232 68.8622 23.2609 70.7141 25.3939 72.0053C27.5269 73.2965 29.9734 73.9774 32.4667 73.9738C39.0149 73.9738 44.418 69.0869 44.418 63.1757C44.418 57.2646 39.273 53.0308 32.2087 53.0308C26.9427 53.0308 22.7009 55.0792 21.1606 58.4259L4.45135 51.2244L5.54809 0.27417H64.6594V21.8865H28.5556L28.9346 32.1685C31.1868 31.7995 33.4668 31.6268 35.7489 31.6524C52.4581 31.6524 69.5464 41.2892 69.5464 63.1757Z" fill="#FDD587"/>
<path d="M33.636 73.8771C34.0312 73.8771 34.4425 73.9336 34.8296 73.9336C41.3778 73.9336 46.7809 69.0466 46.7809 63.1355C46.7809 57.2244 41.6358 52.9906 34.5715 52.9906C34.1441 52.9906 33.7651 52.9906 33.3215 52.9906C39.773 53.4341 44.3616 57.5227 44.3616 63.0952C44.3616 68.6676 39.6117 73.3046 33.636 73.8771Z" fill="#F0BA4F"/>
<path d="M21.5719 57.5308L6.81419 51.0793L7.96738 0.0403442H5.54809L4.3949 51.0793L21.1041 58.3372C21.2342 58.0542 21.3908 57.7842 21.5719 57.5308Z" fill="#F0BA4F"/>
<path d="M4.24172 78.5625L20.9832 67.7483C20.7493 67.3773 20.5235 66.9983 20.33 66.6112L1.7821 78.5625C10.1367 90.659 21.7009 97.3201 34.5554 97.3201C35.0151 97.3201 35.4828 97.3201 35.9425 97.3201C23.5477 96.941 12.3705 90.3122 4.24172 78.5625Z" fill="#F0BA4F"/>
<path d="M21.201 20.3221C22.0074 21.1769 21.6768 22.7414 20.2978 23.9591C18.5639 25.3623 17.072 24.9752 16.4511 24.0155C15.8301 23.0559 16.7817 21.4753 17.6204 20.7333C18.7736 19.7414 20.4187 19.4672 21.201 20.3221Z" fill="#FCA08B"/>
<path d="M23.4832 47.9907C18.9672 47.2568 15.1044 48.1117 11.9674 50.5551C6.55624 54.7566 5.16918 62.4177 5.30627 63.6596L6.84656 63.4983L6.04013 63.579L6.84656 63.5064C6.79817 62.8371 7.93524 55.5066 13.0964 51.6438C16.8382 48.8374 21.7978 48.5471 27.8299 50.7648L28.3702 49.3132C26.7876 48.716 25.151 48.273 23.4832 47.9907Z" fill="#FDD587"/>
<path d="M0.0967346 72.7318C0.395114 72.877 1.33864 71.5464 2.08862 69.7077C2.26603 69.2803 2.41119 68.9013 2.53215 68.4739L3.73373 68.7561C3.68535 69.2077 3.63696 69.6593 3.57245 70.119C3.08053 72.9415 3.23375 75.3205 3.57245 75.3205C3.91115 75.3205 4.26598 73.0947 4.74984 70.3126C4.80935 69.8874 4.84704 69.4594 4.86274 69.0303L5.66917 69.2239C5.63705 69.683 5.63705 70.1438 5.66917 70.6029C5.7982 72.1431 6.04819 73.4415 6.12884 74.385C6.20948 75.3285 6.12883 75.9011 6.3385 75.9576C6.54818 76.014 6.86269 75.4414 6.98365 74.4012C7.07697 73.1052 7.04185 71.8032 6.87882 70.5142C6.87882 70.1835 6.87882 69.8368 6.87882 69.5061L7.9433 69.7561C8.35204 70.3306 8.8079 70.8701 9.30617 71.369C9.73357 71.8045 9.99164 72.0948 10.161 72.0383C10.3303 71.9819 10.3142 71.5141 10.0158 70.8932C9.71745 70.2722 9.2094 69.5464 8.74973 68.7965C8.69328 68.6997 8.65296 68.5949 8.59651 68.4981C9.12069 66.7481 9.48358 63.7321 6.37883 62.6273C2.44345 61.2241 1.67734 66.6594 1.54025 67.9497C1.35477 68.3449 1.16122 68.7561 0.967681 69.2642C0.233829 71.0464 -0.201645 72.5867 0.0967346 72.7318Z" fill="#FDD587"/>
<path d="M34.4667 16.185C33.9828 12.2255 33.6602 4.08857 39.8536 4.50792C46.047 4.92726 45.3293 12.29 45.5631 16.0883L34.4667 16.185Z" fill="white"/>
<path d="M40.4746 4.46759C38.7327 8.33846 38.8617 12.2738 40.2085 16.2495L45.7083 16.1044C45.7083 16.1044 46.5712 4.54823 40.4746 4.46759Z" fill="#684F6D"/>
<path d="M41.6359 10.153C41.6359 10.4433 41.3537 10.7175 40.886 10.8465C40.3546 10.9625 39.8045 10.9625 39.2731 10.8465C38.8055 10.7734 38.3532 10.6235 37.9344 10.403C37.8654 10.3714 37.8026 10.3277 37.7489 10.274C37.7006 10.274 37.6683 10.1611 37.5877 10.1288C37.4423 10.078 37.3214 9.97437 37.249 9.83849C37.1958 9.69541 37.1958 9.53802 37.249 9.39495C37.304 9.28807 37.3878 9.19869 37.4909 9.13689C37.6003 9.05302 37.7194 8.98262 37.8457 8.92722C38.4206 8.70265 39.0488 8.65217 39.6521 8.78206C40.8779 9.07238 41.5714 9.60462 41.6359 10.153Z" fill="white"/>
<path d="M19.4913 16.0963C19.0155 12.1368 18.6849 3.99989 24.8783 4.41923C31.0717 4.83858 30.3539 12.2013 30.5878 15.9996L19.4913 16.0963Z" fill="white"/>
<path d="M25.4993 4.38702C23.7654 8.24983 23.8864 12.1852 25.2412 16.1609L30.7411 16.0157C30.7411 16.0157 31.5959 4.4596 25.4993 4.38702Z" fill="#684F6D"/>
<path d="M26.6605 10.0643C26.6605 10.3546 26.3863 10.6288 25.9105 10.7578C25.3766 10.8752 24.8235 10.8752 24.2896 10.7578C23.825 10.6871 23.3754 10.5399 22.959 10.3223C22.8875 10.2873 22.8222 10.241 22.7654 10.1852C22.7212 10.1271 22.6665 10.0779 22.6041 10.0401C22.5317 10.0167 22.4649 9.97878 22.4077 9.92859C22.3506 9.87839 22.3043 9.81701 22.2718 9.74824C22.2393 9.67946 22.2213 9.60475 22.2188 9.52873C22.2163 9.45271 22.2294 9.37698 22.2574 9.30623C22.3112 9.20108 22.3919 9.11204 22.4912 9.04817C22.6018 8.966 22.7207 8.89572 22.8461 8.83849C23.4244 8.61692 24.0543 8.56653 24.6605 8.69334C25.9024 8.98365 26.596 9.5159 26.6605 10.0643Z" fill="white"/>
<path d="M31.4425 23.4188C31.628 23.4188 31.9667 24.8139 31.8538 27.1203C31.8104 28.4887 31.5826 29.845 31.1764 31.1525C31.0413 31.5643 30.8543 31.9572 30.62 32.3218C30.4805 32.5771 30.2883 32.7997 30.0561 32.9749C29.8239 33.1501 29.557 33.2739 29.2732 33.3379C28.9802 33.3584 28.686 33.3189 28.4087 33.2218C28.1313 33.1248 27.8767 32.9722 27.6604 32.7734L27.3701 32.5073C27.2814 32.4186 27.2249 32.346 27.1523 32.2654L27.0394 32.1525C26.9911 32.096 27.0394 32.1525 26.991 32.096L26.9427 32.0234L26.7088 31.6525C25.8394 30.1748 25.3105 28.5218 25.1605 26.8139C24.9983 25.4762 24.9632 24.1261 25.0556 22.7817C25.2088 20.4673 25.7733 19.1044 25.9266 19.1609C26.0798 19.2173 25.8701 20.5721 25.9266 22.8059C25.9594 24.1026 26.0779 25.3957 26.2814 26.6768C26.4913 28.1724 26.9898 29.6131 27.7491 30.9186L27.9104 31.1444L27.9507 31.2009L28.0636 31.3218L28.2652 31.5476L28.4426 31.7089C28.6131 31.8818 28.8383 31.9901 29.0797 32.0154C29.3016 31.9433 29.4886 31.7908 29.6039 31.588C29.7951 31.3136 29.9496 31.0153 30.0636 30.7009C30.4894 29.4914 30.7841 28.2396 30.9426 26.9671C31.2974 24.822 31.2813 23.443 31.4425 23.4188Z" fill="#3B2A3D"/>
</g>
<defs>
<clipPath id="clip0_85_1906">
<rect width="69.5465" height="97.32" fill="white"/>
</clipPath>
</defs>
</svg>
