<svg width="77" height="104" viewBox="0 0 77 104" fill="none" xmlns="http://www.w3.org/2000/svg">
<g clip-path="url(#clip0_85_1894)">
<path d="M76.332 79.4547L61.6901 79.0463L61.5539 103.174L34.7118 104.025L35.3839 78.5018L1.3527 77.651L-0.00854492 1.59124L24.9363 -0.0337524V52.7146L35.9199 53.3868L36.6005 28.8502L61.8177 21.3974L61.6815 54.8841L76.3235 55.6924L76.332 79.4547Z" fill="#84CC16"/>
<path d="M37.9363 53.3443L38.5744 28.3058L36.6006 28.8843L35.9795 53.2251L37.9363 53.3443Z" fill="#E8E7E8"/>
<path d="M61.5709 77.2682L61.5454 79.1059L76.2724 79.4547V77.617L61.5709 77.2682Z" fill="#E8E7E8"/>
<path d="M36.7112 102.213L37.3918 76.7237L3.36058 75.907L2.03337 1.50623L0 1.63384L1.35274 77.6936L35.384 78.5019L34.7033 103.991L61.5455 103.174L61.5625 101.456L36.7112 102.213Z" fill="#E8E7E8"/>
<path d="M52.0763 57.9554C52.0167 57.9554 51.8466 57.6236 51.7274 56.96C51.6083 56.2964 51.5318 55.335 51.4382 54.1695C51.3786 52.8306 51.1644 51.5031 50.8001 50.2133C50.6017 49.5071 50.2404 48.8573 49.7451 48.3161C49.6771 48.248 49.626 48.1715 49.5579 48.1119L49.3367 47.9588C49.2001 47.8384 49.045 47.7407 48.8773 47.6695L48.4009 47.4483L47.7458 47.3122C47.0012 47.1693 46.2309 47.2523 45.5338 47.5504C44.9074 47.8766 44.3877 48.3756 44.0364 48.9882C43.4432 50.1627 43.0766 51.4384 42.9559 52.7487C42.6836 55.0373 42.7602 56.5091 42.573 56.5261C42.3859 56.5431 42.0881 55.0968 42.1562 52.6806C42.1774 51.2285 42.5111 49.7979 43.1346 48.4863C43.5667 47.6638 44.2368 46.9907 45.0573 46.555C45.287 46.4614 45.5167 46.3593 45.7465 46.2827L46.4781 46.1551C46.7215 46.1338 46.9664 46.1338 47.2098 46.1551H47.5841H47.6777H47.8138H47.9755L48.6306 46.2912C48.8773 46.3848 49.1241 46.4954 49.3623 46.5975C49.5956 46.7032 49.8132 46.8407 50.0089 47.0059L50.2981 47.2356C50.3869 47.3172 50.4694 47.4053 50.5449 47.4993C51.161 48.1957 51.586 49.0399 51.7785 49.9496C52.1292 51.3391 52.281 52.7713 52.2294 54.2035C52.2294 55.3946 52.1698 56.339 52.1613 56.9855C52.1528 57.6321 52.1698 57.9554 52.0763 57.9554Z" fill="#3B2A3D"/>
<path d="M20.4442 58.551C20.3761 58.551 20.206 58.2192 20.0954 57.5556C19.9514 56.6309 19.8549 55.6995 19.8061 54.765C19.7368 53.4271 19.5228 52.1007 19.168 50.8089C18.9699 50.1007 18.6053 49.4502 18.1046 48.9116C18.049 48.8376 17.9863 48.7692 17.9174 48.7074L17.6962 48.5968C17.5607 48.479 17.4088 48.3816 17.2453 48.3076L16.7603 48.0949L16.1052 47.9588C15.3645 47.8085 14.5955 47.8887 13.9017 48.1885C13.2713 48.5129 12.7505 49.016 12.4043 49.6348C11.8077 50.8055 11.4382 52.0786 11.3153 53.3867C11.0516 55.6838 11.1196 57.1557 10.941 57.1642C10.7623 57.1727 10.456 55.7349 10.5241 53.3187C10.5421 51.8662 10.876 50.4349 11.5025 49.1243C11.9293 48.298 12.6008 47.6235 13.4253 47.1931C13.6465 47.108 13.8762 47.0059 14.1144 46.9208L14.8461 46.7932C15.0893 46.7677 15.3345 46.7677 15.5777 46.7932H16.0457H16.1903H16.3519L17.007 46.9378C17.2453 47.0229 17.5005 47.1335 17.7387 47.2441C17.9694 47.3498 18.1842 47.4873 18.3768 47.6525L18.6746 47.8737C18.7682 47.9503 18.8362 48.0523 18.9213 48.1374C19.5232 48.8086 19.9499 49.6182 20.1634 50.4941C20.5073 51.8847 20.6562 53.3164 20.6058 54.748C20.6058 55.9306 20.5548 56.8749 20.5378 57.53C20.5208 58.1851 20.5293 58.534 20.4442 58.551Z" fill="#3B2A3D"/>
<path d="M33.6143 64.9914C33.6143 64.9914 34.984 71.2106 38.9146 70.6065C42.8452 70.0025 41.8243 63.9109 41.8243 63.9109L33.6143 64.9914Z" fill="#F68D6B"/>
<path d="M38.6594 68.0116C38.3446 68.0116 38.166 67.0928 37.9107 66.0633L37.5704 64.8552C37.5704 64.6936 37.4258 64.5404 37.4088 64.4213C37.3864 64.3794 37.3748 64.3327 37.3748 64.2852C37.3748 64.2377 37.3864 64.191 37.4088 64.1491C37.4441 64.1177 37.4873 64.0964 37.5337 64.0874C37.5801 64.0785 37.628 64.0821 37.6725 64.098C37.845 64.1161 38.0066 64.1909 38.1319 64.3107C38.5597 64.706 38.8566 65.2225 38.9827 65.7911C39.306 67.0332 38.9572 68.0456 38.6594 68.0116Z" fill="#C1654D"/>
<path d="M51.4892 58.6701C51.4892 58.6701 51.1659 59.2061 50.3151 59.9293C49.1166 60.9576 47.7826 61.8164 46.3505 62.4816C44.234 63.4663 42.0097 64.2001 39.7229 64.6681C36.9265 65.2616 34.0736 65.5469 31.2151 65.5189C25.1405 65.4679 19.6955 63.9875 16.2158 62.0052C14.8219 61.2563 13.5532 60.2947 12.4554 59.1551C12.1419 58.8531 11.857 58.5227 11.6046 58.1682C11.4429 57.9299 11.3664 57.7938 11.4004 57.7683C11.545 57.6152 13.0594 59.6145 16.5051 61.299C21.1027 63.3832 26.0993 64.44 31.147 64.3959C33.9227 64.4289 36.6951 64.1924 39.4251 63.6897C41.65 63.2813 43.8278 62.6485 45.9251 61.801C49.609 60.2526 51.3616 58.5085 51.4892 58.6701Z" fill="#3B2A3D"/>
<path d="M8.38869 61.5799C8.19245 61.369 8.05965 61.1071 8.00554 60.8242C7.95143 60.5413 7.97819 60.2489 8.08277 59.9805C8.18735 59.7121 8.36549 59.4787 8.59674 59.307C8.828 59.1353 9.10299 59.0323 9.39014 59.0098C9.6773 58.9873 9.96497 59.0463 10.2201 59.1799C10.4753 59.3135 10.6876 59.5164 10.8327 59.7652C10.9777 60.0141 11.0497 60.2988 11.0403 60.5866C11.0308 60.8745 10.9404 61.1539 10.7794 61.3927C10.4863 61.7332 10.0705 61.9439 9.62261 61.979C9.17474 62.0141 8.73118 61.8706 8.38869 61.5799Z" fill="#FCA08B"/>
<path d="M55.9217 58.0065C56.0655 58.2455 56.1592 58.5112 56.1971 58.7875C56.2351 59.0638 56.2165 59.345 56.1425 59.6139C56.0685 59.8828 55.9407 60.1339 55.7667 60.3519C55.5927 60.5699 55.3763 60.7503 55.1305 60.8821C54.8654 61.0794 54.5617 61.2185 54.2391 61.2903C53.9166 61.3622 53.5825 61.3651 53.2588 61.299C53.0115 61.2395 52.7808 61.1252 52.5835 60.9648C52.3862 60.8043 52.2274 60.6016 52.1187 60.3717C52.0179 60.1348 51.9702 59.8788 51.9791 59.6216C51.9879 59.3643 52.053 59.1121 52.1698 58.8828C52.3719 58.4366 52.6818 58.0478 53.0716 57.7513C53.4918 57.4279 54.0184 57.2746 54.5465 57.3219C55.0747 57.3692 55.5656 57.6136 55.9217 58.0065Z" fill="#FCA08B"/>
</g>
<defs>
<clipPath id="clip0_85_1894">
<rect width="76.3235" height="103.982" fill="white" transform="translate(0 0.00878906)"/>
</clipPath>
</defs>
</svg>
