<svg width="86" height="105" viewBox="0 0 86 105" fill="none" xmlns="http://www.w3.org/2000/svg">
<g clip-path="url(#clip0_85_2018)">
<path d="M32.4848 104.861L14.6634 86.0925C22.9681 82.1493 33.4407 73.4434 40.0981 65.1473C19.426 64.7376 5.69299 49.639 5.69299 33.866C5.69299 16.1813 23.0961 -0.00134277 42.5477 -0.00134277C60.0959 -0.00134277 78.1818 13.3305 78.1818 32.509V32.6455C79.9486 57.2608 65.9425 84.1891 32.4848 104.861ZM41.6003 45.286C48.9405 45.286 53.0203 39.7126 53.0203 33.7295C53.0203 26.1076 46.6275 22.7106 41.1906 22.7106C35.4806 22.7106 30.1717 26.5173 30.1717 33.3198C30.1717 38.6286 33.4407 45.286 41.6003 45.286Z" fill="#FB7688"/>
<path d="M43.4012 45.1581C44.0065 45.2413 44.6167 45.2841 45.2277 45.2861C52.5679 45.2861 56.6477 39.7127 56.6477 33.7295C56.6477 26.1077 50.2549 22.7107 44.818 22.7107C44.2209 22.7131 43.6247 22.7587 43.0342 22.8473C47.976 23.5301 53.0203 26.9612 53.0203 33.7295C53.0203 39.2006 49.5977 44.3216 43.4012 45.1581Z" fill="#ED3D55"/>
<path d="M18.2908 86.0925C26.5955 82.1493 37.0681 73.4434 43.7255 65.1473C23.0534 64.7376 9.3204 49.639 9.3204 33.866C9.3204 16.7446 25.6396 1.02287 44.3144 0.0498692C43.7454 0.0157287 43.1479 -0.00134277 42.522 -0.00134277C23.0705 -0.00134277 5.66736 16.2154 5.66736 33.866C5.66736 49.639 19.4004 64.7376 40.0725 65.1473C33.4407 73.4434 22.9681 82.1493 14.6634 86.0925L32.4847 104.87C33.2529 104.392 34.004 103.914 34.7465 103.436L18.2908 86.0925Z" fill="#ED3D55"/>
<path d="M70.2612 69.5941C68.5846 69.7602 66.8924 69.6709 65.2426 69.3295L65.6437 67.742C66.1473 67.87 77.9855 70.661 82.7652 57.312C87.5448 43.9631 77.2344 39.5504 76.7906 39.3883L77.4136 37.869C77.5417 37.9202 89.6189 43.0584 84.31 57.8754C81.0838 66.8884 74.7421 69.1844 70.2612 69.5941Z" fill="#FB7688"/>
<path d="M3.68712 32.0567C4.74965 30.7502 6.00779 29.6159 7.41697 28.6938L8.27048 30.1021C7.82666 30.3667 -2.51792 36.7595 3.55056 49.5793C9.61904 62.3991 20.0063 58.2254 20.4501 58.0376L21.0817 59.5569C20.9622 59.6081 8.79113 64.5158 2.06545 50.2792C-2.04848 41.616 0.810784 35.5134 3.68712 32.0567Z" fill="#FB7688"/>
<path d="M56.1099 19.4587C56.0331 19.4587 55.8282 19.0661 55.7002 18.2809C55.5297 17.1836 55.4157 16.0783 55.3588 14.9693C55.2752 13.3845 55.0205 11.8135 54.5992 10.2835C54.3579 9.45177 53.9286 8.68667 53.3445 8.04727C53.275 7.96633 53.2009 7.88939 53.1226 7.81682L52.858 7.62905C52.6978 7.4878 52.5163 7.37259 52.3203 7.28765L51.7484 7.03159L50.9718 6.86942C50.0908 6.69371 49.1773 6.78893 48.3515 7.14255C47.608 7.52608 46.9936 8.11969 46.5847 8.84957C45.8758 10.2398 45.4356 11.7514 45.2874 13.3049C44.9716 16.0276 45.0569 17.7688 44.8435 17.7859C44.6302 17.8029 44.2717 16.0788 44.3485 13.2281C44.3753 11.5055 44.7711 9.80875 45.5093 8.25212C46.0202 7.27679 46.8147 6.47925 47.7882 5.9647C48.0527 5.85375 48.3259 5.74279 48.6417 5.64037L49.4952 5.49527C49.779 5.46675 50.0649 5.46675 50.3487 5.49527H50.9035H51.0656H51.2619L52.0386 5.65744C52.3203 5.75986 52.619 5.89642 52.8922 6.02445C53.1672 6.14617 53.423 6.30716 53.6518 6.50241L54.0017 6.767C54.1053 6.86883 54.2022 6.97717 54.2919 7.09134C55.0079 7.88156 55.5154 8.83792 55.7685 9.87379C56.1726 11.5119 56.3506 13.1975 56.2977 14.8839C56.2977 16.2922 56.2294 17.4444 56.2123 18.187C56.1953 18.9296 56.2123 19.4331 56.1099 19.4587Z" fill="#3B2A3D"/>
<path d="M40.815 18.9466C40.7382 18.9466 40.5333 18.554 40.3968 17.7688C40.2602 16.9835 40.1663 15.8398 40.0554 14.4571C39.9821 12.8657 39.7273 11.2879 39.2957 9.75429C39.0659 8.9128 38.6353 8.13961 38.0411 7.50102C37.9739 7.41526 37.8997 7.33532 37.8191 7.26203L37.5631 7.07426C37.3977 6.93572 37.2139 6.82082 37.0168 6.73285L36.4535 6.4768L35.6768 6.34024C34.7948 6.17146 33.8825 6.26953 33.0566 6.6219C32.3099 7.00407 31.6924 7.59781 31.2812 8.32892C30.5893 9.71995 30.1637 11.2282 30.0266 12.7757C29.7108 15.4899 29.7961 17.2396 29.5828 17.2481C29.3694 17.2567 29.0024 15.5411 29.0877 12.6989C29.106 10.9763 29.4992 9.27826 30.24 7.72293C30.7518 6.74538 31.5498 5.94735 32.5274 5.43551C32.792 5.32456 33.0651 5.20507 33.3809 5.11118L34.2344 4.95755C34.5184 4.93293 34.8039 4.93293 35.0879 4.95755H35.5232H35.6342H35.7963H35.9926L36.7693 5.11971C37.0595 5.22214 37.3583 5.3587 37.6228 5.47819C37.896 5.60682 38.1514 5.77036 38.3825 5.96469L38.7324 6.22928C38.8348 6.32317 38.9287 6.44266 39.0226 6.54508C39.734 7.34179 40.2408 8.29969 40.4992 9.33607C40.8998 10.9748 41.0778 12.66 41.0284 14.3462C41.0284 15.7545 40.9601 16.9067 40.943 17.6493C40.9259 18.3918 40.9174 18.921 40.815 18.9466Z" fill="#3B2A3D"/>
<path d="M62.6308 14.662C62.7076 14.7132 62.4431 15.2339 61.8968 16.1301C61.6322 16.591 61.2055 17.086 60.7531 17.7005C60.4878 18.0036 60.2027 18.2888 59.8996 18.554C59.583 18.8916 59.2342 19.1974 58.8583 19.4673L57.6549 20.3208C57.1513 20.6281 56.7075 20.8329 56.2039 21.1146L55.4443 21.5072L54.5907 21.8486C54.0274 22.062 53.4726 22.3351 52.8837 22.5058C50.2854 23.3554 47.5833 23.8465 44.8522 23.9653L42.7098 24.0507H40.67C39.9701 24.0507 39.2958 23.9824 38.6301 23.9482C37.9643 23.9141 37.3327 23.7605 36.7097 23.6751C34.5235 23.2895 32.3953 22.6269 30.3766 21.7035C29.0283 21.027 27.7649 20.1933 26.6126 19.2198C25.8444 18.5114 25.4433 18.0846 25.503 18.0163C25.5628 17.9481 26.0663 18.2297 26.9369 18.8186C28.1595 19.5894 29.4376 20.2684 30.7607 20.85C32.7502 21.6394 34.8192 22.2117 36.9316 22.557C37.529 22.6253 38.1436 22.7107 38.7666 22.7704L40.6785 22.8301H42.7269L44.8009 22.7363C47.4223 22.6251 50.0197 22.1894 52.5338 21.4389C53.1142 21.2938 53.6519 21.0463 54.1896 20.8585L54.9834 20.5683L55.7259 20.2184C56.1868 19.9879 56.716 19.7575 57.0915 19.5697L58.3377 18.8016C58.7001 18.5755 59.0402 18.3154 59.3533 18.0249C59.6566 17.7966 59.9419 17.5455 60.2069 17.2738C60.6934 16.7361 61.1543 16.3178 61.4786 15.9082C62.1443 15.029 62.554 14.6108 62.6308 14.662Z" fill="#3B2A3D"/>
<path d="M27.0308 17.3677C27.0308 17.5555 26.8345 17.7347 26.6211 17.8969C26.3899 18.1014 26.1784 18.3271 25.9895 18.5711C25.7846 18.8784 25.6225 19.2027 25.4603 19.4247C25.2981 19.6466 25.1616 19.9538 24.9738 19.9368C24.786 19.9197 24.6153 19.7404 24.5214 19.3734C24.4474 18.8203 24.5846 18.2595 24.9055 17.803C25.0679 17.5572 25.2849 17.3523 25.5396 17.2043C25.7942 17.0562 26.0796 16.969 26.3736 16.9495C26.8174 17.0177 27.0478 17.1884 27.0308 17.3677Z" fill="#3B2A3D"/>
<path d="M63.3137 16.0789C63.115 16.0653 62.9289 15.9769 62.793 15.8313C62.6138 15.7118 62.4858 15.5668 62.3492 15.4814C62.213 15.3932 62.087 15.2902 61.9736 15.1741C61.7517 15.0802 61.5469 14.9778 61.5128 14.7901C61.4983 14.6811 61.5175 14.5704 61.5678 14.4727C61.6182 14.3751 61.6973 14.2952 61.7944 14.2438C62.0083 14.1543 62.2413 14.1203 62.4718 14.1451C62.7023 14.1698 62.9228 14.2525 63.1128 14.3854C63.3027 14.5183 63.456 14.6971 63.5583 14.9051C63.6605 15.1132 63.7085 15.3437 63.6977 15.5753C63.6039 15.8996 63.4588 16.0703 63.3137 16.0789Z" fill="#3B2A3D"/>
<path d="M17.9664 12.8526C17.9146 12.3546 18.015 11.8527 18.2544 11.413C18.4938 10.9733 18.8609 10.6165 19.3072 10.3898C19.7536 10.163 20.2582 10.077 20.7545 10.1429C21.2507 10.2089 21.7153 10.4238 22.0869 10.7593C22.4585 11.0948 22.7197 11.535 22.8359 12.022C22.9521 12.509 22.9179 13.0197 22.7378 13.4868C22.5578 13.954 22.2403 14.3555 21.8273 14.6385C21.4143 14.9214 20.9252 15.0725 20.4245 15.0717C19.8046 15.1019 19.198 14.8854 18.7374 14.4696C18.2767 14.0537 17.9995 13.4723 17.9664 12.8526Z" fill="#FCA08B"/>
<path d="M64.5512 12.8526C64.4995 12.3546 64.5999 11.8527 64.8393 11.413C65.0787 10.9733 65.4457 10.6165 65.8921 10.3898C66.3384 10.163 66.843 10.077 67.3393 10.1429C67.8356 10.2089 68.3002 10.4238 68.6718 10.7593C69.0434 11.0948 69.3045 11.535 69.4207 12.022C69.537 12.509 69.5028 13.0197 69.3227 13.4868C69.1426 13.954 68.8251 14.3555 68.4121 14.6385C67.9991 14.9214 67.51 15.0725 67.0094 15.0717C66.3895 15.1019 65.7829 14.8854 65.3222 14.4696C64.8616 14.0537 64.5844 13.4723 64.5512 12.8526Z" fill="#FCA08B"/>
</g>
<defs>
<clipPath id="clip0_85_2018">
<rect width="85.65" height="104.863" fill="white" transform="translate(0 -0.00134277)"/>
</clipPath>
</defs>
</svg>
