<svg width="50" height="106" viewBox="0 0 50 106" fill="none" xmlns="http://www.w3.org/2000/svg">
<g clip-path="url(#clip0_85_1732)">
<path d="M30.193 0L49.861 2.07718V105.119H19.5289V28.9501H0V0H30.193Z" fill="#9A50FD"/>
<path d="M47.384 1.77295V101.955H19.5724V105.432H49.9913V2.07714L47.384 1.77295Z" fill="#822EF2"/>
<path d="M40.1181 18.2687C40.0399 18.2687 39.8313 17.8602 39.701 17.0607C39.5272 15.9462 39.4112 14.8236 39.3533 13.6972C39.27 12.0798 39.0076 10.4767 38.5711 8.91708C38.3364 8.06491 37.9013 7.28121 37.3022 6.63132C37.2313 6.54623 37.1558 6.465 37.0762 6.38796L36.8068 6.19676C36.6436 6.05292 36.4589 5.93561 36.2593 5.84912L35.677 5.58838L34.8861 5.42325C33.9888 5.24865 33.0599 5.34548 32.2179 5.70137C31.4603 6.09426 30.8325 6.69793 30.4102 7.43959C29.6937 8.85372 29.2486 10.3896 29.0978 11.9677C28.7762 14.7401 28.8631 16.5131 28.6459 16.5305C28.4286 16.5479 28.0549 14.7923 28.1418 11.8894C28.1658 10.135 28.569 8.40652 29.3238 6.82252C29.8322 5.83472 30.6295 5.02527 31.6095 4.50199C31.879 4.3977 32.1571 4.27602 32.4786 4.18042L33.3478 4.02398C33.6367 3.99494 33.9279 3.99494 34.2169 4.02398H34.7818H34.9469H35.1381L35.929 4.18911C36.2245 4.29341 36.5287 4.43246 36.7981 4.56283C37.0786 4.68967 37.3391 4.85654 37.5716 5.05822L37.928 5.32765C38.0353 5.42639 38.1341 5.53396 38.2235 5.64922C38.9785 6.47225 39.511 7.47439 39.7705 8.56074C40.1827 10.2286 40.364 11.9452 40.3093 13.6624C40.3093 15.0965 40.2398 16.2698 40.2224 17.0172C40.2051 17.7646 40.2224 18.2426 40.1181 18.2687Z" fill="#3B2A3D"/>
<path d="M24.5437 17.7385C24.4655 17.7385 24.2569 17.3387 24.1178 16.5392C23.9788 15.7396 23.8832 14.575 23.7702 13.167C23.69 11.5528 23.4306 9.95246 22.9967 8.39559C22.7626 7.53871 22.3242 6.75139 21.7191 6.10113C21.6483 6.0159 21.5729 5.93466 21.4931 5.85778L21.2237 5.66657C21.0617 5.52344 20.8765 5.40883 20.6761 5.32762L20.0938 5.08427L19.303 4.91914C18.4077 4.74798 17.4817 4.84784 16.6435 5.20594C15.8832 5.5951 15.2544 6.19969 14.8357 6.94417C14.1153 8.35982 13.67 9.89929 13.5234 11.4809C13.2018 14.2534 13.2887 16.0264 13.0627 16.0351C12.8368 16.0438 12.4804 14.2969 12.5673 11.4027C12.5867 9.64868 12.9871 7.91982 13.7406 6.33579C14.2609 5.34264 15.07 4.53052 16.0612 4.00657C16.3393 3.89358 16.6174 3.77191 16.9303 3.67631L17.7994 3.52856C18.0884 3.49951 18.3795 3.49951 18.6685 3.52856H19.1118H19.2247H19.3899H19.5898L20.3807 3.69369C20.6675 3.79798 20.9717 3.93704 21.2498 4.06741C21.5293 4.1922 21.7898 4.35607 22.0233 4.55411L22.3709 4.82354C22.4839 4.91914 22.5708 5.04081 22.6751 5.14511C23.3995 5.95638 23.9156 6.93179 24.1787 7.9871C24.5881 9.65538 24.7665 11.372 24.7088 13.0888C24.7088 14.5228 24.6393 15.6961 24.6306 16.4523C24.6219 17.2084 24.6567 17.7125 24.5437 17.7385Z" fill="#3B2A3D"/>
<path d="M49.2874 18.2861C50.1565 19.1987 49.7915 20.8935 48.314 22.1971C46.4454 23.7094 44.8376 23.2922 44.1684 22.2667C43.4991 21.2411 44.5247 19.5203 45.4199 18.7207C46.6627 17.6517 48.4444 17.3562 49.2874 18.2861Z" fill="#FCA08B"/>
<path d="M27.1076 67.7298C22.171 67.7298 18.2079 66.1568 15.2963 63.0193C10.2729 57.6134 10.0817 49.2178 10.4728 47.9228L12.0893 48.3573L11.2811 48.1401L12.0893 48.3487C11.9242 49.0526 11.8634 57.0398 16.6869 62.0546C20.1634 65.6787 25.378 66.852 32.2093 65.531L32.5308 67.1736C30.745 67.5319 28.9289 67.7181 27.1076 67.7298Z" fill="#9A50FD"/>
<path d="M7.2745 42.404C7.2745 42.404 6.40539 50.1391 11.4636 49.2178C16.5218 48.2966 14.549 41.8825 14.549 41.8825L7.2745 42.404Z" fill="#9A50FD"/>
<path d="M6.64876 36.103C6.9964 35.9987 7.76991 37.5804 8.24793 39.6576C8.72594 41.7348 8.73462 43.4817 8.37829 43.5512C8.02195 43.6208 7.43965 41.9868 6.97033 39.9531C6.50101 37.9194 6.30111 36.2073 6.64876 36.103Z" fill="#9A50FD"/>
<path d="M10.6553 33.2349C11.003 33.287 11.0117 35.7292 11.0464 38.7624C10.9802 40.0824 10.8146 41.3956 10.551 42.6908C10.3772 43.6468 10.3424 44.2552 10.1599 44.29C9.97742 44.3247 9.69061 43.699 9.62108 42.6473C9.55155 41.5957 9.71668 40.1964 9.74275 38.7624C9.70799 35.6771 10.2903 33.174 10.6553 33.2349Z" fill="#9A50FD"/>
<path d="M13.984 32.8958C14.1491 32.8958 14.4446 33.539 14.4012 34.634C14.2722 36.0262 14.0103 37.4027 13.619 38.7449C13.4278 39.475 13.3409 40.2485 13.2018 40.9351C13.0627 41.6217 12.9324 42.2301 12.802 42.7515C12.5326 43.7771 12.2805 44.4029 12.1067 44.3768C11.9329 44.3507 11.8547 43.6815 11.8894 42.6386C11.8894 42.0997 11.9416 41.4653 12.0111 40.7613C12.0669 39.9896 12.1772 39.2229 12.3414 38.4668C12.7499 36.8503 13.2105 35.5205 13.4886 34.5297C13.7667 33.539 13.7928 32.8958 13.984 32.8958Z" fill="#9A50FD"/>
<path d="M17.8864 38.8406C18.0428 38.9188 17.9559 39.4142 17.5388 40.0313C17.1216 40.6483 16.4176 41.3262 15.8005 42.0389C15.3103 42.7256 14.8689 43.4459 14.4795 44.1943C14.1231 44.7853 13.819 45.133 13.6104 45.0634C13.4018 44.9939 13.4366 44.5507 13.6104 43.8554C13.8017 42.9063 14.2091 42.0141 14.8011 41.248C15.4032 40.5525 16.0859 39.9311 16.8348 39.3968C17.3997 38.9797 17.7039 38.7537 17.8864 38.8406Z" fill="#9A50FD"/>
<path d="M19.5289 28.9501C27.8116 29.4368 28.1418 17.1041 37.2501 20.1808C41.4392 21.5887 41.5957 26.3341 40.6049 29.8887C39.9515 31.9036 38.8619 33.7496 37.4138 35.2953C35.9657 36.8411 34.1946 38.0486 32.2267 38.8319C29.9322 39.701 22.8055 41.0829 22.0754 37.3979L22.284 29.9843L19.5289 28.9501Z" fill="white"/>
<path d="M23.2313 39.2578C23.2313 39.2578 24.1004 30.5666 30.4797 29.0022C36.859 27.4378 40.7179 29.3933 40.7179 29.3933C40.7179 29.3933 39.4316 36.1985 31.3662 39.2578C26.3949 41.1524 23.2313 39.2578 23.2313 39.2578Z" fill="#FC8F73"/>
</g>
<defs>
<clipPath id="clip0_85_1732">
<rect width="50" height="105.432" fill="white"/>
</clipPath>
</defs>
</svg>
