<svg width="74" height="103" viewBox="0 0 74 103" fill="none" xmlns="http://www.w3.org/2000/svg">
<g clip-path="url(#clip0_85_1993)">
<path d="M73.3063 23.7862C63.2372 35.9508 56.033 48.1068 48.736 62.5872C44.304 71.5028 39.6107 83.6674 33.1648 103H1.60937C5.71835 89.4184 10.6512 76.1034 16.3802 63.1301C22.6913 49.0654 29.8028 34.602 36.6532 25.0077L0 26.0511V0H72.6407L73.3063 23.7862Z" fill="#F68D6B"/>
<path d="M5.32535 101.219C10.1619 85.9493 15.5293 71.5283 20.0962 61.4929C26.4072 47.4367 33.5272 33.0411 40.3691 23.4469L3.71599 24.6006V0.271484H0.345581V26.0512L36.8302 24.9738C29.9799 34.602 22.7756 49.023 16.4308 63.0793C11.8639 73.0807 6.41231 87.6798 1.57578 102.949H33.1649C33.3334 102.949 33.4935 102.101 33.662 101.253L5.32535 101.219Z" fill="#EB673D"/>
<path d="M46.0819 76.4228C44.4208 76.4369 42.7673 76.1966 41.178 75.7102L41.7172 74.1748C42.1975 74.3445 53.5811 78.1873 59.4793 65.395C65.3775 52.6027 55.6454 47.3263 55.2663 47.1057L56.0162 45.6552C56.1257 45.7145 67.543 51.8901 60.9875 66.0821C56.9599 74.7262 50.5224 76.4228 46.0819 76.4228Z" fill="#F68D6B"/>
<path d="M26.1628 39.1234C27.8232 39.1104 29.4762 39.3477 31.0668 39.8275L30.5275 41.3714C30.0472 41.1933 18.6637 37.359 12.757 50.1428C6.8504 62.9266 16.5993 68.22 16.97 68.432L16.2286 69.8826C16.1106 69.8232 4.70176 63.6476 11.2488 49.4557C15.2764 40.82 21.7139 39.1234 26.1628 39.1234Z" fill="#F68D6B"/>
<path d="M61.1897 20.2829C61.1139 20.2829 60.9116 19.8926 60.7852 19.1122C60.6169 18.0216 60.5044 16.923 60.4482 15.8208C60.3673 14.245 60.113 12.683 59.6899 11.1637C59.4605 10.3301 59.039 9.56285 58.4597 8.92418L58.2406 8.68666L57.9794 8.50004C57.821 8.36208 57.6418 8.2504 57.4485 8.1692L56.884 7.91471L56.1172 7.75354C55.2475 7.57889 54.3457 7.67353 53.5304 8.02499C52.797 8.41005 52.1888 8.99888 51.7778 9.72158C51.0812 11.1131 50.6497 12.6237 50.5055 14.1751C50.1937 16.8812 50.278 18.6117 50.0674 18.6202C49.8567 18.6287 49.4944 16.9236 49.5786 14.0988C49.6051 12.3868 49.9959 10.7003 50.7246 9.15322C51.2241 8.1803 52.0098 7.38634 52.9743 6.87979C53.2355 6.76952 53.5052 6.65075 53.8169 6.55744L54.6595 6.41323C54.9397 6.38488 55.222 6.38488 55.5021 6.41323H55.9403H56.033H56.1931H56.3784L57.1452 6.57441C57.4317 6.6762 57.7266 6.81193 57.9878 6.93917C58.2593 7.06015 58.5119 7.22016 58.7377 7.41422L59.0832 7.67719C59.1853 7.77554 59.2809 7.88037 59.3697 7.99106C60.0835 8.78509 60.5927 9.74345 60.8527 10.782C61.2519 12.41 61.4276 14.0854 61.3751 15.7614C61.3751 17.1611 61.3077 18.3063 61.2908 19.0443C61.274 19.7824 61.2908 20.2574 61.1897 20.2829Z" fill="#3B2A3D"/>
<path d="M46.0819 19.7737C46.0145 19.7737 45.8122 19.3835 45.6774 18.5946C45.5426 17.8057 45.4499 16.6859 45.3404 15.3117C45.2627 13.7361 45.0112 12.1741 44.5905 10.6545C44.3758 9.82222 43.9654 9.05412 43.394 8.41502C43.3254 8.33184 43.2522 8.25254 43.1749 8.1775L42.9137 7.99088C42.7548 7.85146 42.5758 7.73706 42.3829 7.65156L41.8183 7.39707L41.0516 7.23589C40.1836 7.06884 39.2858 7.16631 38.4732 7.51583C37.7361 7.89567 37.1265 8.48578 36.7206 9.21242C36.021 10.5937 35.5892 12.0965 35.4483 13.6405C35.1365 16.3381 35.2208 18.0771 35.0101 18.0856C34.7995 18.0941 34.4371 16.389 34.5214 13.5642C34.5394 11.8521 34.9276 10.1644 35.6589 8.61862C36.1633 7.64925 36.9477 6.85659 37.9086 6.34518C38.1783 6.23491 38.4479 6.11614 38.7512 6.02283L39.5938 5.87014C39.874 5.84179 40.1563 5.84179 40.4364 5.87014H40.8662H40.9757H41.1358H41.3296L42.0964 6.0398C42.3829 6.14159 42.6693 6.26884 42.939 6.39608C43.2071 6.52199 43.4567 6.68472 43.6805 6.87961L44.0259 7.14258C44.1355 7.23589 44.2197 7.35466 44.3208 7.45645C45.0248 8.24711 45.5254 9.1996 45.7785 10.2304C46.1741 11.859 46.3498 13.5339 46.301 15.2099C46.301 16.6096 46.2251 17.7548 46.2167 18.4928C46.2083 19.2308 46.1914 19.7482 46.0819 19.7737Z" fill="#3B2A3D"/>
<path d="M35.8106 26.5263L66.9868 23.1925C66.9868 23.1925 59.9258 48.6414 33.4008 29.8262L35.8106 26.5263Z" fill="white"/>
<path d="M40.3774 34.0335C43.2809 31.0158 47.2439 29.2645 51.4155 29.1558C58.1563 29.1558 60.9032 32.9476 60.9032 32.9476C60.9032 32.9476 57.853 36.7225 50.6066 36.7395C45.7869 36.748 40.3774 34.0335 40.3774 34.0335Z" fill="#D34242"/>
</g>
<defs>
<clipPath id="clip0_85_1993">
<rect width="73.3063" height="103" fill="white"/>
</clipPath>
</defs>
</svg>
