<svg width="91" height="100" viewBox="0 0 91 100" fill="none" xmlns="http://www.w3.org/2000/svg">
<g clip-path="url(#clip0_85_1975)">
<path d="M19.319 43.0447C14.7323 43.0447 11.0533 41.5698 8.33858 38.6444C3.6709 33.604 3.53314 25.784 3.8816 24.5685L5.38076 24.9737L4.63523 24.7711L5.38887 24.9737C5.2349 25.6219 5.17817 33.0773 9.65947 37.7449C12.9009 41.1322 17.7631 42.2262 24.092 40.9864L24.3837 42.5099C22.7167 42.851 21.0205 43.0301 19.319 43.0447Z" fill="#FEC563"/>
<path d="M0.162136 14.7307C0.48628 14.6415 1.1994 16.1083 1.6451 18.0451C1.75044 18.507 1.83148 18.9446 1.8882 19.3497L3.11995 19.2363C3.11995 18.7825 3.16857 18.3206 3.17668 17.8587C3.17668 14.9738 3.6872 12.64 3.98704 12.6967C4.28687 12.7534 4.31929 15.0224 4.3517 17.8587C4.3517 18.3206 4.30308 18.742 4.26256 19.1471L5.07292 19.0904C5.11621 18.6291 5.19203 18.1715 5.29982 17.7209C5.67259 16.2136 6.11018 14.9738 6.36139 14.05C6.6126 13.1262 6.64502 12.5508 6.81519 12.5184C6.98537 12.486 7.25279 13.1181 7.21227 14.1391C7.09254 15.4345 6.8483 16.7154 6.48294 17.964C6.39381 18.2963 6.33708 18.6366 6.28035 18.9689L7.37434 18.8878C7.87626 18.3878 8.41831 17.9298 8.99506 17.5183C9.48938 17.1537 9.80542 16.9106 9.94318 16.9916C10.0809 17.0726 10.008 17.5345 9.61904 18.1018C9.23007 18.669 8.58178 19.3092 7.99832 19.9818C7.92539 20.071 7.86866 20.1601 7.80383 20.2492C8.03073 22.0725 7.90918 25.1114 4.65963 25.7192C0.543005 26.4728 0.656455 21.0029 0.737491 19.6577C0.615937 19.2363 0.494384 18.7663 0.380933 18.2639C0.024375 16.4243 -0.170112 14.8279 0.162136 14.7307Z" fill="#FEC563"/>
<path d="M78.8157 66.9503C78.8157 85.929 64.9099 99.4863 45.4694 99.4863C23.9705 99.462 10.1944 82.7037 9.5542 65.1351C8.39538 47.8339 15.5995 24.4631 53.4514 0.598022L70.3312 18.4259C64.2859 21.1407 55.9149 27.0806 48.573 34.5683C66.8386 36.4727 78.8157 49.3817 78.8157 66.9503ZM56.0284 66.8207C56.0284 60.7511 51.3931 55.192 44.0512 55.192C38.6461 55.192 32.2119 58.0364 31.8229 65.3944V66.302C31.9526 74.1787 38.9054 78.5709 44.6995 78.5709C51.0041 78.5709 56.0284 73.1415 56.0284 66.8207Z" fill="#FEC563"/>
<path d="M58.1758 64.7218C58.1758 58.6522 53.5405 53.1012 46.1987 53.1012C42.4953 53.1012 38.3058 54.4383 35.9071 57.6473C38.2974 56.0299 41.1249 55.1816 44.0107 55.2162C51.3526 55.2162 55.9878 60.7753 55.9878 66.8449C55.9836 69.5291 55.0791 72.1342 53.419 74.2435C54.894 73.1321 56.0912 71.6939 56.9166 70.0418C57.742 68.3896 58.173 66.5686 58.1758 64.7218Z" fill="#F0A930"/>
<path d="M47.641 97.3955C26.1421 97.3955 12.366 80.6048 11.7177 63.0443C10.8506 50.3541 14.5216 34.39 31.4338 17.3562C12.6496 35.1841 8.63025 51.9262 9.55406 65.1675C10.1942 82.7037 23.9704 99.4619 45.4692 99.4619C55.777 99.4619 64.5289 95.6451 70.4769 89.2352C64.6585 94.3972 56.7494 97.3955 47.641 97.3955Z" fill="#F0A930"/>
<path d="M32.9006 43.4824C33.3301 39.9573 33.6137 32.7046 28.1275 33.0935C22.6414 33.4825 23.2654 40.0221 23.0547 43.4013L32.9006 43.4824Z" fill="white"/>
<path d="M27.5765 33.061C29.0154 36.3933 29.0968 40.1557 27.8034 43.5471L22.9412 43.4093C22.9412 43.4093 22.1633 33.134 27.5765 33.061Z" fill="#564A3B"/>
<path d="M26.5717 38.1177C26.6284 37.6234 27.2362 37.1534 28.3707 36.9183C28.912 36.8015 29.4756 36.8466 29.9914 37.048C30.1013 37.0974 30.2047 37.16 30.2994 37.2344C30.3921 37.2855 30.4659 37.365 30.5101 37.4613C30.5366 37.5241 30.5502 37.5916 30.5502 37.6598C30.5502 37.728 30.5366 37.7955 30.5101 37.8584C30.4451 37.9785 30.3385 38.0708 30.2102 38.1177C30.1552 38.1501 30.1082 38.1944 30.0725 38.2473C30.0224 38.2943 29.9649 38.3326 29.9023 38.3608C29.5322 38.5568 29.1325 38.6909 28.7192 38.7579C28.236 38.8642 27.7355 38.8642 27.2524 38.7579C26.7905 38.6201 26.5231 38.377 26.5717 38.1177Z" fill="white"/>
<path d="M46.069 43.7497C46.4904 40.2246 46.774 32.9719 41.2879 33.3609C35.8018 33.7498 36.4257 40.2894 36.2231 43.6605L46.069 43.7497Z" fill="white"/>
<path d="M40.7368 33.3285C42.1779 36.657 42.2622 40.4167 40.9718 43.8064L36.1097 43.6768C36.1097 43.6768 35.3317 33.4014 40.7368 33.3285Z" fill="#564A3B"/>
<path d="M39.7076 38.3852C39.7643 37.8908 40.3721 37.4208 41.5147 37.1858C42.0559 37.0675 42.62 37.1127 43.1354 37.3155C43.2488 37.363 43.3551 37.4257 43.4515 37.5019C43.5404 37.5578 43.613 37.636 43.6622 37.7288C43.7115 37.8565 43.7115 37.9981 43.6622 38.1258C43.5991 38.2475 43.4918 38.3403 43.3623 38.3852C43.3091 38.4199 43.2624 38.4638 43.2246 38.5148C43.1738 38.5609 43.1164 38.5991 43.0544 38.6283C42.6843 38.8242 42.2847 38.9584 41.8713 39.0254C41.3881 39.1317 40.8877 39.1317 40.4045 39.0254C39.9588 38.8876 39.6914 38.685 39.7076 38.3852Z" fill="white"/>
<path d="M21.5232 42.8989C22.212 43.6606 21.9446 45.0787 20.7128 46.1403C19.1731 47.3883 17.8198 47.0398 17.2931 46.1889C16.7664 45.3381 17.5767 43.928 18.3222 43.2716C19.3595 42.3802 20.8182 42.1371 21.5232 42.8989Z" fill="#FF6950"/>
<path d="M52.2601 46.1241C51.9684 47.1046 50.6394 47.6232 49.0835 47.1289C47.2197 46.4644 46.8145 45.1354 47.2602 44.2359C47.7059 43.3364 49.3428 43.304 50.2909 43.5876C51.5713 44.009 52.5437 45.1678 52.2601 46.1241Z" fill="#FF6950"/>
<path d="M78.3456 51.8047C82.7621 53.0851 85.8982 55.5162 87.6972 59.098C90.809 65.2405 88.7912 72.785 88.1429 73.8546L86.8139 73.0443L87.4784 73.4494L86.8058 73.0524C87.138 72.4689 89.2369 65.3215 86.2061 59.6004C84.01 55.4513 79.6341 53.0446 73.2404 52.4692L73.37 50.9133C75.0526 51.0554 76.7184 51.3538 78.3456 51.8047Z" fill="#FEC563"/>
<path d="M88.9695 84.3083C88.6372 84.3083 88.3536 82.6875 88.4589 80.7184C88.4589 80.2483 88.5238 79.8027 88.5805 79.3975L87.373 79.1382C87.2272 79.5676 87.0732 80.0052 86.9355 80.4509C86.1737 83.2224 85.0149 85.3131 84.6989 85.1591C84.3828 85.0052 85.023 82.8415 85.7685 80.1106C85.9063 79.673 86.0603 79.3002 86.2142 78.895L85.4039 78.7168C85.2325 79.1485 85.0322 79.5681 84.8042 79.9728C83.9938 81.3099 83.2483 82.4039 82.7783 83.2143C82.3083 84.0246 82.0895 84.5757 81.9112 84.5595C81.7329 84.5433 81.66 83.8545 81.9923 82.8658C82.4608 81.6526 83.0471 80.4883 83.7426 79.3894C83.9153 79.0954 84.0722 78.7924 84.2126 78.4818L83.143 78.2549C82.5234 78.5955 81.8786 78.8881 81.2143 79.1301C80.6389 79.3326 80.2824 79.4866 80.1608 79.3651C80.0393 79.2435 80.2419 78.8302 80.7767 78.3845C81.3116 77.9388 82.1057 77.5174 82.8188 77.0312C82.9114 76.9655 83.0007 76.8952 83.0862 76.8205C83.3699 75.0134 84.3261 72.1204 87.6081 72.4527C91.7814 72.8741 90.1688 78.1252 89.715 79.357C89.715 79.8027 89.715 80.2889 89.715 80.7994C89.5934 82.7281 89.3341 84.3083 88.9695 84.3083Z" fill="#FEC563"/>
<path d="M42.471 47.5989C42.941 47.3153 42.2441 53.1418 40.2911 53.6361C38.3382 54.1304 37.2118 50.7755 37.3982 49.406C36.92 51.0915 36.993 54.3573 34.3917 54.0007C32.4387 53.7333 31.7499 50.9781 32.4874 49.4384C31.8067 50.816 31.8715 54.4788 29.2946 53.6928C27.3902 53.1012 27.9818 49.3006 27.8764 47.7853C27.8764 47.8096 37.6575 50.5162 42.471 47.5989Z" fill="white"/>
<path d="M46.6929 45.4028C46.6929 45.4676 46.4579 45.7026 45.8826 46.0754C45.6152 46.2537 45.291 46.4968 44.8858 46.7237L43.4839 47.4449C40.7203 48.7376 37.7244 49.4597 34.6753 49.568C27.3821 49.2196 22.2444 46.1807 22.4064 45.9781C22.4064 45.9052 22.7954 45.9781 23.4113 46.1969L24.5134 46.5859L25.9882 46.9911C26.515 47.1532 27.1308 47.2828 27.7872 47.4368C28.4436 47.5908 29.1324 47.7447 29.878 47.9068C30.2345 47.9797 30.6883 48.0932 30.9882 48.1337L32.1875 48.3201C32.3901 48.3201 32.6008 48.393 32.8034 48.4092H33.4111H34.6753C37.61 48.2982 40.5076 47.7154 43.257 46.6832L44.6832 46.124C45.1046 45.9619 45.445 45.7837 45.7448 45.6621C46.304 45.4433 46.6524 45.3299 46.6929 45.4028Z" fill="#3B2A3D"/>
</g>
<defs>
<clipPath id="clip0_85_1975">
<rect width="90.42" height="98.9126" fill="white" transform="translate(0 0.57373)"/>
</clipPath>
</defs>
</svg>
