<svg width="87" height="102" viewBox="0 0 87 102" fill="none" xmlns="http://www.w3.org/2000/svg">
<g clip-path="url(#clip0_85_1819)">
<path d="M80.6305 67.6496C80.6305 87.4201 63.3665 101.921 39.5096 101.921C24.3467 101.921 14.1968 96.2547 6.81799 83.863L20.525 64.2249C25.2732 72.0007 31.6014 76.0872 38.8478 76.0872C46.2266 76.0872 51.5042 71.2066 51.6366 64.3573C51.769 57.7395 46.8884 52.3626 40.2955 52.3626C35.9526 52.3626 32.5196 53.2808 27.7797 56.4491L21.013 39.1768L40.2541 23.3604L9.2831 23.7574V0.95108L76.8998 0.818726L77.4292 22.8227L59.5034 34.958C71.2334 39.3091 80.6305 53.0161 80.6305 67.6496Z" fill="#F65690"/>
<path d="M53.9859 61.9832C54.1182 55.3654 49.2459 49.9885 42.653 49.9885C38.3018 49.9885 34.8772 50.915 30.1289 54.075L23.5526 37.1088L21.0709 39.1768L27.7962 56.4491C32.5361 53.2809 35.9691 52.3626 40.312 52.3626C46.9297 52.3626 51.7855 57.7644 51.6531 64.3573C51.6352 66.832 50.8362 69.2378 49.37 71.2315C50.8102 70.1594 51.9784 68.7639 52.7801 67.1574C53.5819 65.551 53.995 63.7786 53.9859 61.9832Z" fill="#EB3677"/>
<path d="M41.8589 99.5553C26.7043 99.5553 16.5543 93.8806 9.17554 81.4889L20.8393 64.7791C20.7235 64.5889 20.5994 64.4152 20.4836 64.2249L6.77661 83.863C14.1554 96.2713 24.3053 101.921 39.4682 101.921C53.3406 101.921 64.9796 97.0075 72.3004 89.0166C64.9548 95.6178 54.3085 99.5553 41.8589 99.5553Z" fill="#EB3677"/>
<path d="M42.62 20.9863L11.6076 21.3833V0.94281L9.12598 0.951082V23.7575L39.6668 23.3687L42.62 20.9863Z" fill="#EB3677"/>
<path d="M47.3019 7.10559C47.3681 7.10559 47.5749 7.48611 47.7155 8.24715C47.8561 9.00819 47.9719 10.1084 48.096 11.4485C48.2056 12.9852 48.483 14.5053 48.9232 15.9816C49.1652 16.789 49.593 17.5285 50.1723 18.1407C50.2426 18.2192 50.3171 18.2938 50.3957 18.364L50.6521 18.546C50.8105 18.6807 50.9892 18.7896 51.1815 18.8686L51.7358 19.1085L52.4885 19.2491C53.3439 19.4027 54.2257 19.2961 55.0198 18.9431C55.719 18.5623 56.2935 17.9878 56.6743 17.2886C57.3532 15.9148 57.7631 14.4239 57.882 12.8961C58.1467 10.2573 58.0392 8.56976 58.246 8.55322C58.4528 8.53668 58.825 10.2077 58.7919 12.9623C58.8057 14.6511 58.45 16.3226 57.7496 17.8594C57.2669 18.8109 56.5088 19.595 55.5741 20.1094C55.3176 20.217 55.0529 20.3328 54.7882 20.4321L53.961 20.5892C53.6862 20.6211 53.4086 20.6211 53.1338 20.5892H52.6043H52.4472H52.2569L51.5041 20.4403C51.2229 20.3411 50.9334 20.217 50.6769 20.1012C50.4134 19.981 50.166 19.8282 49.9407 19.6462L49.5933 19.3898C49.4857 19.2988 49.403 19.1912 49.3037 19.092C48.6066 18.3285 48.1018 17.4097 47.8313 16.4118C47.4187 14.8297 47.2211 13.1992 47.244 11.5643C47.244 10.1994 47.244 9.08264 47.244 8.36296C47.244 7.64328 47.1943 7.10559 47.3019 7.10559Z" fill="#3B2A3D"/>
<path d="M62.895 6.86566C62.9612 6.86566 63.168 7.24618 63.3086 8.00722C63.4912 9.06697 63.6182 10.1355 63.6891 11.2085C63.7992 12.7425 64.0765 14.2598 64.5163 15.7334C64.7518 16.5442 65.1772 17.2872 65.7572 17.9007C65.8274 17.9793 65.902 18.0538 65.9805 18.1241L66.237 18.3061C66.3977 18.4353 66.5759 18.5412 66.7664 18.6204L67.3206 18.8603L68.0734 19.0092C68.9288 19.1627 69.8105 19.0561 70.6047 18.7031C71.3039 18.3224 71.8783 17.7479 72.2591 17.0487C72.9214 15.6907 73.3227 14.2203 73.442 12.7141C73.7067 10.0753 73.5992 8.37947 73.806 8.3712C74.0128 8.36292 74.3933 10.0256 74.3519 12.772C74.3592 14.4415 74.0035 16.0927 73.3096 17.6112C72.8321 18.5664 72.0727 19.3518 71.1341 19.8612C70.8776 19.977 70.6129 20.0929 70.3482 20.1921L69.521 20.3493C69.2458 20.3732 68.969 20.3732 68.6938 20.3493H68.1644H68.0072H67.8169L67.0642 20.2004C66.7824 20.1025 66.5063 19.9893 66.237 19.8612C65.9666 19.7494 65.7154 19.5958 65.4924 19.4063L65.145 19.1581C65.0448 19.0622 64.9509 18.96 64.8638 18.852C64.1582 18.0933 63.6498 17.173 63.383 16.1719C62.9704 14.5897 62.7729 12.9592 62.7957 11.3244C62.7957 9.95945 62.7957 8.84271 62.7957 8.13131C62.7957 7.4199 62.7957 6.89048 62.895 6.86566Z" fill="#3B2A3D"/>
<path d="M29.5334 48.6649C25.1905 50.4434 21.1289 50.4765 17.4312 48.7642C11.0616 45.811 7.90168 38.4736 7.74451 37.1831L9.32449 36.9846C9.43203 37.6547 12.2611 44.7274 18.3081 47.391C22.7006 49.335 27.7218 48.4829 33.198 44.9094L34.0748 46.2412C32.6398 47.1888 31.1194 48.0002 29.5334 48.6649Z" fill="#F65690"/>
<path d="M2.87207 33.5103C2.87207 33.5103 4.90702 40.6243 9.01829 38.002C13.1296 35.3798 9.09274 30.4247 9.09274 30.4247L2.87207 33.5103Z" fill="#F65690"/>
<path d="M0.125732 28.1665C0.390442 27.9514 1.63127 29.0599 2.80591 30.7226C3.98056 32.3853 4.61752 33.9239 4.32799 34.0976C4.03847 34.2713 2.93827 33.0636 1.78844 31.4422" fill="#F65690"/>
<path d="M2.61572 24.1959C2.93834 24.1131 3.83173 26.2639 4.95675 28.9275C5.37085 30.1146 5.69439 31.3313 5.92459 32.5673C6.12312 33.469 6.30511 34.0149 6.15621 34.1142C6.00732 34.2134 5.5358 33.7668 5.09737 32.8651C4.65895 31.9634 4.27016 30.6647 3.79865 29.399C2.66536 26.6858 2.26829 24.2703 2.61572 24.1959Z" fill="#F65690"/>
<path d="M5.42004 22.6903C5.5524 22.591 6.06527 23.0874 6.42924 24.1048C6.83538 25.3724 7.11253 26.6778 7.25646 28.001C7.364 28.7207 7.56253 29.4321 7.68661 30.0856C7.8107 30.7391 7.91823 31.3264 7.98441 31.8228C8.12504 32.8237 8.12504 33.4772 7.98441 33.4772C7.84379 33.4772 7.5129 32.9561 7.1572 32.0048C6.97521 31.525 6.78495 30.9542 6.59469 30.3503C6.36109 29.6481 6.18133 28.9291 6.057 28.1996C5.83365 26.6361 5.78401 25.2878 5.64339 24.3282C5.50276 23.3686 5.27114 22.8227 5.42004 22.6903Z" fill="#F65690"/>
<path d="M11.0036 26.5286C11.1691 26.5286 11.2766 27.0167 11.1277 27.7033C10.9788 28.3899 10.6065 29.2419 10.3501 30.0939C10.1522 30.8661 10.0085 31.6511 9.91995 32.4432C9.82069 33.0885 9.68006 33.5104 9.50635 33.5104C9.33263 33.5104 9.16719 33.1133 9.04311 32.4598C8.86489 31.5567 8.90173 30.6244 9.15065 29.7382C9.44451 28.9115 9.83608 28.1228 10.317 27.3889C10.6396 26.8595 10.8299 26.5121 11.0036 26.5286Z" fill="#F65690"/>
<path d="M74.5587 58.484L74.2857 56.9206C74.782 56.8296 86.3631 54.6457 85.3373 40.9388C84.3116 27.2318 70.861 27.389 70.3978 27.4055L70.3481 25.8172C70.4805 25.8172 85.784 25.6022 86.8925 40.8147C88.001 56.0272 74.691 58.4592 74.5587 58.484Z" fill="#F65690"/>
<path d="M65.3849 20.4486C65.5503 20.4486 65.7985 21.8549 65.906 24.2042C65.9689 25.5902 65.8661 26.9787 65.5999 28.3403C65.4374 29.2085 65.1027 30.0355 64.6155 30.7723C64.4849 30.983 64.3263 31.175 64.144 31.3431L63.8711 31.6078L63.5071 31.8477L63.1348 32.0628C63.0305 32.1097 62.9226 32.1484 62.8122 32.1786L62.4979 32.2778H62.4152H62.3159H62.2663H62.076C61.5566 32.3593 61.0254 32.3203 60.5234 32.164C60.0214 32.0077 59.5621 31.7381 59.1807 31.3762C58.5531 30.7221 58.0958 29.9239 57.8489 29.0517C57.4638 27.6934 57.2799 26.2859 57.303 24.8743C57.303 22.5167 57.5842 21.1104 57.7331 21.1021C57.882 21.0939 57.9978 22.558 58.2129 24.8329C58.3202 26.137 58.5755 27.4247 58.9739 28.6712C59.1961 29.3389 59.5633 29.9491 60.0493 30.458C60.2999 30.6833 60.5983 30.8488 60.9222 30.9419C61.246 31.0351 61.5868 31.0534 61.9188 30.9957H62.0594C62.1339 30.9957 61.9685 30.9957 61.985 30.9957H62.0594L62.3738 30.8964C62.4758 30.8721 62.5754 30.8389 62.6716 30.7971C62.7213 30.749 62.7769 30.7073 62.837 30.673L63.019 30.5655L63.201 30.3835C63.3286 30.2697 63.4399 30.1388 63.5319 29.9947C63.9282 29.3929 64.2088 28.7224 64.3591 28.0177C64.665 26.7337 64.8478 25.4236 64.9051 24.1049C65.1119 21.9045 65.1863 20.4404 65.3849 20.4486Z" fill="#3B2A3D"/>
<path d="M47.8728 12.4742C47.8728 12.648 47.4178 12.7638 46.6568 12.7638C45.6235 12.6712 44.655 12.2206 43.9187 11.4899C43.2247 10.7431 42.7596 9.81289 42.5786 8.80968C42.4876 8.09827 42.5786 7.6433 42.7109 7.59367C42.8433 7.54403 43.1494 7.93282 43.4554 8.56151C43.8306 9.2901 44.2886 9.97294 44.8203 10.5965C45.4047 11.1433 46.0865 11.5754 46.8305 11.8704C47.4757 12.0689 47.881 12.2923 47.8728 12.4742Z" fill="#3B2A3D"/>
<path d="M47.8727 10.4145C47.8727 10.5717 47.4674 10.7371 46.8221 10.6047C45.9942 10.3749 45.2882 9.83202 44.8534 9.09093C44.4155 8.38101 44.2237 7.54668 44.3074 6.71682C44.3901 6.06332 44.6217 5.78207 44.7954 5.79034C45.1511 5.85652 45.1925 7.17179 45.9536 8.41262C46.2727 8.938 46.6914 9.39601 47.1861 9.76098C47.5418 10.0588 47.8892 10.2325 47.8727 10.4145Z" fill="#3B2A3D"/>
<path d="M76.635 8.36292C76.8087 8.36292 76.999 8.57799 77.0734 9.05778C77.0879 9.37137 77.039 9.68467 76.9295 9.9789C76.8201 10.2731 76.6524 10.5422 76.4365 10.7701C75.9985 11.2203 75.4088 11.4915 74.782 11.5312C74.3436 11.5312 74.112 11.3574 74.0789 11.192C74.0458 11.0266 74.294 10.8363 74.6083 10.6378C74.9227 10.4392 75.1874 10.1911 75.51 9.87672C75.762 9.58078 75.9862 9.26235 76.18 8.92542C76.3041 8.6359 76.4944 8.38773 76.635 8.36292Z" fill="#3B2A3D"/>
<path d="M77.669 11.7049C77.8179 11.7876 77.8427 12.0854 77.669 12.5321C77.4268 13.0713 77.0141 13.516 76.4944 13.7977C75.937 14.0785 75.2988 14.1546 74.6911 14.0128C74.294 13.8722 74.0872 13.6737 74.0955 13.4999C74.1037 13.3262 74.385 13.2021 74.7572 13.1029C75.1295 13.0036 75.4852 12.8547 75.907 12.6479C76.3289 12.4411 76.6764 12.1598 76.9824 11.9613C77.2885 11.7628 77.5036 11.6222 77.669 11.7049Z" fill="#3B2A3D"/>
</g>
<defs>
<clipPath id="clip0_85_1819">
<rect width="86.8743" height="101.102" fill="white" transform="translate(0.125732 0.818726)"/>
</clipPath>
</defs>
</svg>
