<svg width="79" height="103" viewBox="0 0 79 103" fill="none" xmlns="http://www.w3.org/2000/svg">
<g clip-path="url(#clip0_85_1800)">
<path d="M77.6732 101.363L2.40321 102.025L0 79.3276C17.6428 71.4136 44.1693 50.3234 44.0698 36.2356C44.0698 31.2635 40.5644 25.9599 35.6752 26.0013C29.7335 26.0427 24.9022 33.07 24.289 40.0891L0.0911566 36.0368C1.011 15.9327 15.828 0.643333 36.8188 0.494168C57.536 0.353291 70.7288 15.046 70.8697 35.5147C70.9691 48.9809 63.6684 63.2924 49.2491 78.184L74.7314 77.6122L77.6732 101.363Z" fill="#7468F8"/>
<path d="M46.4564 33.352C46.4564 28.3798 42.951 23.0762 38.0618 23.1176C34.6973 23.1176 31.6891 25.4048 29.6008 28.6367C31.2187 27.0194 33.389 26.0749 35.6751 25.9932C40.5644 25.9517 44.0366 31.2139 44.0698 36.2275C44.0698 40.5284 41.6583 45.4674 37.7552 50.4893C43.0256 44.5061 46.4896 38.4733 46.4564 33.352Z" fill="#5446EB"/>
<path d="M4.78984 99.1501L2.56066 78.1096C1.73197 78.5405 0.836978 78.9383 0 79.3278L2.40321 102.026L77.6732 101.363L77.3169 98.512L4.78984 99.1501Z" fill="#5446EB"/>
<path d="M24.8607 36.8905L2.48598 33.1365C2.7576 25.49 5.31506 18.1005 9.82819 11.922C3.82457 18.5408 0.372874 27.0805 0.0910645 36.0121L24.2889 40.0644C24.3887 38.992 24.5799 37.9302 24.8607 36.8905Z" fill="#5446EB"/>
<path d="M51.7352 21.1619C52.1992 17.093 52.4644 8.73154 46.1166 9.20389C39.7689 9.67625 40.5395 17.2422 40.3158 21.1453L51.7352 21.1619Z" fill="white"/>
<path d="M45.4785 9.17072C47.2934 13.1319 47.1359 17.1759 45.8349 21.2779L40.1832 21.1619C40.1832 21.1619 39.2136 9.30331 45.4785 9.17072Z" fill="#4F4D87"/>
<path d="M44.3267 15.0213C44.3847 14.4495 45.0891 13.9026 46.4067 13.6208C47.0281 13.4852 47.6753 13.5313 48.2713 13.7534C48.3974 13.8172 48.5192 13.8892 48.6359 13.9689C48.738 14.0345 48.8209 14.126 48.8762 14.2341C48.9348 14.3803 48.9348 14.5436 48.8762 14.6898C48.8013 14.8278 48.6814 14.936 48.5364 14.9965C48.4704 15.0327 48.4137 15.0838 48.3707 15.1456C48.3156 15.2008 48.251 15.2457 48.1801 15.2782C47.7484 15.5032 47.2843 15.6598 46.8045 15.7423C46.258 15.8574 45.6936 15.8574 45.1471 15.7423C44.6167 15.6014 44.3018 15.3196 44.3267 15.0213Z" fill="white"/>
<path d="M36.8105 21.5928C37.2745 17.5239 37.548 9.16245 31.192 9.6348C24.8359 10.1072 25.6231 17.6731 25.3911 21.5762L36.8105 21.5928Z" fill="white"/>
<path d="M30.5539 9.60999C32.3687 13.5711 32.261 17.6151 30.9102 21.7172L25.2585 21.6012C25.2585 21.6012 24.2889 9.73429 30.5539 9.60999Z" fill="#4F4D87"/>
<path d="M29.402 15.4523C29.4683 14.8805 30.1727 14.3336 31.482 14.0518C32.1034 13.9162 32.7506 13.9622 33.3466 14.1844C33.4763 14.2413 33.5987 14.3137 33.7112 14.3998C33.8154 14.4656 33.9009 14.5569 33.9598 14.665C34.0184 14.8113 34.0184 14.9745 33.9598 15.1208C33.8861 15.2529 33.769 15.3554 33.6283 15.4108C33.5628 15.4447 33.5082 15.4964 33.4709 15.56C33.4072 15.608 33.3408 15.6523 33.272 15.6926C32.8432 15.9177 32.3819 16.0743 31.9047 16.1567C31.3582 16.2718 30.7937 16.2718 30.2473 16.1567C29.692 16.0324 29.3854 15.7506 29.402 15.4523Z" fill="white"/>
<path d="M61.0414 17.7726C61.8701 18.651 61.5386 20.2587 60.1381 21.5183C58.3647 22.9685 56.8234 22.5873 56.1853 21.6094C55.5472 20.6316 56.5085 18.9908 57.3537 18.2201C58.5387 17.1925 60.2293 16.8942 61.0414 17.7726Z" fill="#FCA08B"/>
<path d="M68.5162 37.4126C72.9166 39.0699 75.9164 41.8129 77.4661 45.5917C80.1179 52.1135 77.4661 59.6795 76.6374 60.6822L75.3446 59.7541C75.7258 59.1823 78.4688 52.0721 75.8584 45.9895C73.9607 41.5726 69.693 38.7633 63.1794 37.6529L63.4446 36.0784C65.1743 36.3582 66.8728 36.805 68.5162 37.4126Z" fill="#7468F8"/>
<path d="M77.7147 66.6985C77.7147 66.6985 81.0792 60.069 76.2645 59.2403C71.4498 58.4116 71.0437 64.7511 71.0437 64.7511L77.7147 66.6985Z" fill="#7468F8"/>
<path d="M76.107 72.5159C75.7672 72.5159 75.6098 70.8585 75.8832 68.8117C76.1567 66.7648 76.7119 65.2234 77.0765 65.2897C77.4412 65.356 77.3831 66.9968 77.0765 68.9774C76.7699 70.958 76.455 72.5408 76.107 72.5159Z" fill="#7468F8"/>
<path d="M71.5658 73.7258C71.2757 73.5601 72.0878 71.3806 73.0823 68.6542C73.5909 67.5086 74.1808 66.4009 74.8474 65.3394C75.3197 64.5107 75.5601 64.0218 75.7424 64.0467C75.9247 64.0715 75.9578 64.7262 75.6595 65.7041C75.3612 66.6819 74.7479 67.8669 74.2424 69.1348C73.2397 71.8612 71.8807 73.8998 71.5658 73.7258Z" fill="#7468F8"/>
<path d="M68.483 72.9137C68.3256 72.9137 68.2842 72.1845 68.7068 71.19C69.2886 69.9911 69.9881 68.853 70.7951 67.7924C71.2094 67.1957 71.5492 66.5411 71.8972 65.9776C72.2453 65.414 72.5768 64.9085 72.8668 64.4942C73.4469 63.6655 73.8861 63.1932 74.0353 63.276C74.1844 63.3589 74.0353 63.9804 73.6375 64.9334C73.4386 65.4058 73.19 65.9527 72.8917 66.5908C72.5837 67.2627 72.2264 67.9108 71.8227 68.5299C70.9194 69.831 70.0327 70.8586 69.4775 71.6541C68.9222 72.4496 68.6653 72.9469 68.483 72.9137Z" fill="#7468F8"/>
<path d="M67.0079 66.2925C66.9002 66.1682 67.1405 65.7455 67.7206 65.3395C68.3007 64.9334 69.1543 64.5688 69.9249 64.1213C70.5956 63.6886 71.2353 63.2095 71.8392 62.6877C72.353 62.2816 72.7425 62.0744 72.8668 62.1904C72.9911 62.3065 72.8668 62.7125 72.4939 63.2843C71.9988 64.0594 71.3362 64.7136 70.5547 65.1986C69.7789 65.6045 68.9586 65.9188 68.1101 66.135C67.5052 66.3008 67.124 66.4251 67.0079 66.2925Z" fill="#7468F8"/>
<path d="M58.0084 22.9353C58.1244 23.0596 57.5858 23.8138 56.5665 24.8993C55.2193 26.3437 53.6566 27.5709 51.9341 28.5373C50.1691 29.5403 48.1624 30.0391 46.1332 29.9792C45.5256 29.9576 44.9235 29.8544 44.3433 29.6726C43.9455 29.54 43.73 29.424 43.7466 29.3328C43.7632 29.2417 44.7328 29.2002 46.1084 29.0677C47.9324 28.8617 49.6979 28.2985 51.3043 27.4103C52.9285 26.4742 54.4773 25.413 55.9367 24.2364C57.1134 23.3248 57.8841 22.8028 58.0084 22.9353Z" fill="#3B2A3D"/>
</g>
<defs>
<clipPath id="clip0_85_1800">
<rect width="78.85" height="101.531" fill="white" transform="translate(0 0.494385)"/>
</clipPath>
</defs>
</svg>
