<svg width="112" height="109" viewBox="0 0 112 109" fill="none" xmlns="http://www.w3.org/2000/svg">
<g clip-path="url(#clip0_83_1625)">
<path d="M8.54834 54.1512C8.54834 25.8123 31.2794 0 56.9684 0C82.2173 0 103.399 25.108 103.399 54.1512C103.399 84.4534 82.6398 108.443 56.9684 108.443C31.4202 108.443 8.54834 83.3265 8.54834 54.1512ZM73.2199 54.1512C73.2199 38.155 66.7669 28.4798 56.9508 28.4798C46.1487 28.4798 38.5688 39.2819 38.5688 54.1512C38.5688 68.3163 45.6117 77.296 56.9508 77.296C66.9077 77.2784 73.2199 68.3163 73.2199 54.1512Z" fill="#75C4FF"/>
<path d="M66.5468 73.6425C72.5773 70.482 76.1604 62.7524 76.1604 52.0735C76.1604 36.0861 69.7073 26.4021 59.8913 26.4021C56.1031 26.3982 52.4483 27.8005 49.635 30.3373C51.8763 29.1069 54.3941 28.4677 56.9508 28.4798C66.7669 28.4798 73.22 38.1638 73.22 54.1512C73.22 62.9549 70.7814 69.7601 66.5468 73.6425Z" fill="#40A8F5"/>
<path d="M59.8912 106.33C34.3606 106.33 11.4712 81.2224 11.4712 52.0383C11.5556 43.3742 13.601 34.8417 17.4539 27.0809C21.3069 19.3202 26.8673 12.5327 33.718 7.22778C19.0071 16.8942 8.54834 34.9329 8.54834 54.1512C8.54834 83.3265 31.4378 108.443 56.9684 108.443C66.2272 108.398 75.2083 105.277 82.499 99.5692C75.7791 103.97 67.9236 106.319 59.8912 106.33Z" fill="#40A8F5"/>
<path d="M49.6261 21.4897C49.6261 24.4653 49.3796 27.573 52.4609 29.0872C56.8011 31.2089 58.0776 26.0412 57.9456 22.7662C57.9456 25.8211 57.9456 30.7951 63.5887 29.2545C66.1594 28.559 65.5255 23.6026 65.5431 21.7362L49.6261 21.4897Z" fill="white"/>
<path d="M82.6135 14.5172C82.6663 14.5701 82.2085 15.1775 81.1785 16.0667C79.7073 17.307 78.0757 18.3434 76.3277 19.148C73.7387 20.3374 71.0208 21.2237 68.2283 21.789C64.814 22.4911 61.3343 22.8246 57.8488 22.7839C50.4273 22.7134 43.763 20.8999 39.502 18.4789C37.7957 17.5522 36.2451 16.364 34.9065 14.9574C34.5403 14.6112 34.2046 14.2342 33.9029 13.8305C33.7004 13.5312 33.6124 13.364 33.6476 13.3375C33.8325 13.1527 35.6812 15.5913 39.9422 17.6513C44.2032 19.7114 50.6298 21.3753 57.8576 21.4369C61.2528 21.4687 64.6431 21.1739 67.9818 20.5565C70.6952 20.0538 73.3501 19.275 75.9051 18.2324C80.3157 16.4628 82.4462 14.3236 82.6135 14.5172Z" fill="#3B2A3D"/>
<path d="M59.1605 16.5949C58.6323 12.2723 58.2802 3.38939 65.0414 3.84718C71.8026 4.30497 71.019 12.3515 71.2743 16.4892L59.1605 16.5949Z" fill="white"/>
<path d="M65.7193 3.81195C63.8177 8.0289 63.9585 12.3251 65.4287 16.6741L71.4328 16.5068C71.4328 16.5068 72.3748 3.89999 65.7193 3.81195Z" fill="#5D839B"/>
<path d="M66.9869 10.0185C66.9869 10.3267 66.6788 10.6348 66.1682 10.7756C65.5735 10.9045 64.9581 10.9045 64.3634 10.7756C63.854 10.6918 63.3608 10.5284 62.902 10.2914C62.827 10.2517 62.7563 10.2045 62.6908 10.1506C62.6908 10.1066 62.6115 10.0273 62.5235 9.99212C62.3623 9.93615 62.2296 9.81919 62.1537 9.66639C62.0957 9.5102 62.0957 9.33838 62.1537 9.18219C62.2163 9.06727 62.3072 8.97028 62.4178 8.90047C62.5394 8.81206 62.6691 8.73541 62.8052 8.67158C63.4339 8.4314 64.1182 8.37641 64.7772 8.51311C66.1594 8.83004 66.9165 9.41108 66.9869 10.0185Z" fill="white"/>
<path d="M43.5869 16.5949C43.0675 12.2723 42.7065 3.38939 49.4677 3.84718C56.2289 4.30497 55.4454 12.3515 55.7007 16.4892L43.5869 16.5949Z" fill="white"/>
<path d="M50.1104 3.81195C48.2176 8.0289 48.3496 12.3251 49.8287 16.6741L55.8239 16.5332C55.8239 16.5332 56.7923 3.89999 50.1104 3.81195Z" fill="#5D839B"/>
<path d="M51.3781 10.0186C51.3781 10.3267 51.0787 10.6348 50.5593 10.7757C49.9788 10.8983 49.3791 10.8983 48.7986 10.7757C48.2922 10.6905 47.8022 10.5271 47.346 10.2915C47.2685 10.2561 47.1972 10.2085 47.1347 10.1506C47.089 10.0849 47.0287 10.0307 46.9586 9.99215C46.8013 9.93344 46.6722 9.81695 46.5977 9.66642C46.5355 9.51101 46.5355 9.33762 46.5977 9.18222C46.6564 9.06743 46.7445 8.97023 46.853 8.9005C46.9758 8.81393 47.1053 8.73739 47.2404 8.67161C47.8717 8.42972 48.5594 8.37471 49.2212 8.51314C50.5593 8.83007 51.3076 9.41111 51.3781 10.0186Z" fill="white"/>
<path d="M35.7076 12.8093C34.6951 12.0522 34.2638 10.9165 34.7392 10.2827C35.2145 9.64881 36.4207 9.74565 37.4331 10.5116C38.4455 11.2775 38.8769 12.4044 38.4015 13.0382C37.9261 13.6721 36.72 13.5752 35.7076 12.8093Z" fill="#FCA08B"/>
<path d="M81.4953 10.5115C82.3757 11.4359 82.0147 13.1526 80.5093 14.4732C78.6165 16.005 76.9878 15.5824 76.31 14.5348C75.6321 13.4872 76.6709 11.7616 77.5865 10.9517C78.8454 9.86887 80.6414 9.56954 81.4953 10.5115Z" fill="#FCA08B"/>
<path opacity="0.38" d="M57.884 25.4513C57.7608 25.4513 57.6815 24.8703 57.708 24.1484C57.7344 23.4265 57.8664 22.8455 57.9897 22.8455C58.1129 22.8455 58.201 23.4265 58.1657 24.1484C58.1305 24.8703 58.0161 25.4513 57.884 25.4513Z" fill="#B7B7B7"/>
<path d="M17.3784 44.3704C9.67518 43.3579 4.54265 40.1446 2.13045 34.8184C-0.959626 28.0044 1.60223 19.8522 2.35935 18.7341L3.82076 19.7113L3.09005 19.2271L3.82956 19.7025C3.4422 20.3276 0.827514 28.0132 3.82956 34.3342C6.02167 38.9209 10.6524 41.7116 17.5897 42.6272L17.3784 44.3704Z" fill="#75C4FF"/>
<path d="M1.04766 12.4131C1.04766 12.4131 -2.26252 19.5705 2.87881 20.3364C8.02014 21.1023 8.20502 14.2795 8.20502 14.2795L1.04766 12.4131Z" fill="#75C4FF"/>
<path d="M2.50906 6.17136C2.89642 6.17136 3.0813 7.93209 2.92284 10.1154C2.76437 12.2987 2.15692 13.8922 1.77836 13.8922C1.3998 13.8922 1.30296 12.0874 1.55827 9.96573C1.81357 7.84405 2.13051 6.16256 2.50906 6.17136Z" fill="#75C4FF"/>
<path d="M7.28064 4.70993C7.63278 4.89481 6.88447 7.21897 5.89847 10.1506C5.4058 11.3862 4.81708 12.5812 4.13774 13.7249C3.69756 14.6052 3.40703 15.2215 3.25737 15.1687C3.10771 15.1158 3.02848 14.4732 3.25737 13.4079C3.48627 12.3427 4.13774 11.0309 4.61314 9.67519C5.58154 6.76998 6.96371 4.52505 7.28064 4.70993Z" fill="#75C4FF"/>
<path d="M10.5908 5.44066C10.7581 5.44066 10.8285 6.20658 10.4324 7.28062C9.87265 8.57693 9.1824 9.81287 8.37231 10.9694L8.05538 11.4888C8.05538 11.568 7.94094 11.6824 7.92333 11.7177L7.79127 11.973L7.25425 12.9502C6.91091 13.5752 6.57637 14.1211 6.28585 14.57C5.6872 15.4504 5.23821 15.9874 5.07095 15.8994C4.90368 15.8114 5.07094 15.1423 5.41429 14.1387C5.59916 13.6281 5.84567 13.0382 6.12738 12.3779C6.28585 12.0522 6.43551 11.7089 6.59398 11.3655L6.71723 11.1014C6.78766 10.9517 6.82287 10.9165 6.87569 10.8109L7.18382 10.2827C8.11701 8.82126 9.00618 7.72961 9.5608 6.84924C10.1154 5.96888 10.3795 5.41425 10.5908 5.44066Z" fill="#75C4FF"/>
<path d="M12.422 12.4131C12.5452 12.5452 12.2987 12.9678 11.7177 13.4608C11.436 13.6632 11.031 13.9362 10.6788 14.1386L10.0802 14.4644L9.41992 14.8781C8.74599 15.3608 8.10213 15.8841 7.49192 16.4452C6.9549 16.8942 6.54993 17.1231 6.40027 16.9998C6.2506 16.8766 6.40027 16.4364 6.75241 15.8201C7.23736 14.9618 7.92307 14.2338 8.75084 13.6985L9.41992 13.3111L10.133 13.0118C10.5101 12.8568 10.8951 12.7216 11.2863 12.6068C11.8937 12.3867 12.2899 12.2635 12.422 12.4131Z" fill="#75C4FF"/>
<path d="M98.7416 67.5063L98.4423 65.7456C98.9617 65.6576 111.26 63.3334 110.169 48.7722C109.077 34.211 97.5444 34.3958 97.0602 34.4046L97.0073 32.6439C97.1394 32.6439 110.706 32.415 111.93 48.6401C113.153 64.8653 98.8825 67.4887 98.7416 67.5063Z" fill="#75C4FF"/>
</g>
<defs>
<clipPath id="clip0_83_1625">
<rect width="112" height="108.443" fill="white"/>
</clipPath>
</defs>
</svg>
