<svg width="45" height="56" viewBox="0 0 45 56" fill="none" xmlns="http://www.w3.org/2000/svg">
<path d="M22.5 19.1068C23.5042 14.9564 23.8364 5.1704 19.9724 1.87531" stroke="black" stroke-width="1.30909" stroke-linecap="round" stroke-linejoin="round"/>
<path d="M23.844 10.8671C21.8891 4.70453 34.3134 -1.71384 41.3236 3.02453C36.4096 7.04889 34.1951 16.2354 23.844 10.8671Z" fill="#49AF20" stroke="black" stroke-width="1.30909" stroke-miterlimit="10"/>
<path d="M22.5 18.8089C25.398 18.8089 26.6084 14.7654 32.1638 14.7654C37.7193 14.7654 43.8818 18.9425 43.8818 28.2436C43.8818 37.5447 35.7873 53.8484 31.74 53.8484C27.6927 53.8484 25.1384 51.6911 22.5 51.6911C19.8616 51.6911 17.3073 53.8484 13.26 53.8484C9.21271 53.8484 1.11816 37.5409 1.11816 28.2436C1.11816 18.9464 7.28071 14.7654 12.8362 14.7654C18.3916 14.7654 19.602 18.8089 22.5 18.8089Z" fill="#D83419"/>
<path d="M22.5 18.8089C25.398 18.8089 26.6084 14.7654 32.1638 14.7654C37.7193 14.7654 43.8818 18.9425 43.8818 28.2436C43.8818 37.5447 35.7873 53.8484 31.74 53.8484C27.6927 53.8484 25.1384 51.6911 22.5 51.6911C19.8616 51.6911 17.3073 53.8484 13.26 53.8484C9.21271 53.8484 1.11816 37.5409 1.11816 28.2436C1.11816 18.9464 7.28071 14.7654 12.8362 14.7654C18.3916 14.7654 19.602 18.8089 22.5 18.8089Z" stroke="black" stroke-width="1.30909" stroke-linecap="round" stroke-linejoin="round"/>
<path d="M7.8649 20.7409C11.3433 17.0678 14.8407 18.1369 15.7876 19.9277C16.7345 21.7184 14.1191 24.4484 12.2711 26.1895C10.4231 27.9306 8.22763 30.8935 6.30327 30.7713C4.3789 30.6491 3.71836 25.1242 7.8649 20.7409Z" fill="white"/>
<path d="M7.8649 20.7409C11.3433 17.0678 14.8407 18.1369 15.7876 19.9277C16.7345 21.7184 14.1191 24.4484 12.2711 26.1895C10.4231 27.9306 8.22763 30.8935 6.30327 30.7713C4.3789 30.6491 3.71836 25.1242 7.8649 20.7409Z" fill="white"/>
</svg>
