<svg width="83" height="83" viewBox="0 0 83 83" fill="none" xmlns="http://www.w3.org/2000/svg">
<path d="M39.3294 30.7298C46.637 21.1069 69.3498 42.9743 63.7886 47.2714C56.1732 53.1549 24.3285 50.4852 39.3294 30.7298Z" fill="#1C80AA"/>
<path d="M32.636 60.8387L32.2463 71.5916L26.0027 73.309H31.3357L32.8964 76.1435L33.287 73.309L36.5386 73.8024L33.4172 71.7218L34.0673 62.487L32.636 60.8387ZM42.5475 62.5537L43.3897 73.2809L37.384 75.7007L42.6817 75.0907L44.5566 77.7283L44.6201 74.8673L47.9062 74.9862L44.5678 73.2761L44.1572 64.0276L42.5475 62.5537Z" fill="#3B5174"/>
<path d="M18.4676 21.852L16.5388 25.8855C16.4052 26.1644 16.1998 26.4027 15.9437 26.5761C15.6876 26.7494 15.39 26.8515 15.0814 26.872C14.7729 26.8924 14.4644 26.8304 14.1877 26.6924C13.911 26.5544 13.6759 26.3452 13.5067 26.0864L10.9695 22.2072C10.8002 21.9484 10.7027 21.6492 10.687 21.3403C10.6714 21.0314 10.7382 20.7239 10.8806 20.4493C11.023 20.1748 11.2359 19.943 11.4974 19.7778C11.7589 19.6126 12.0596 19.52 12.3687 19.5093L16.8378 19.355C17.1373 19.3452 17.4343 19.4127 17.7001 19.551C17.9659 19.6894 18.1916 19.8939 18.3554 20.1448C18.5192 20.3957 18.6156 20.6847 18.6352 20.9837C18.6549 21.2827 18.5971 21.5817 18.4676 21.852Z" fill="#DE7B56"/>
<path d="M72.7785 51.9077C71.3078 58.8922 54.9486 68.634 34.3639 65.6935C12.499 62.5705 2.49673 23.2269 25.7223 8.89624C38.6811 0.900714 51.9783 9.29806 54.3965 19.3734C57.7076 33.1593 47.2722 43.5352 60.6465 49.516C67.6311 52.643 73.861 46.7571 72.7785 51.9077Z" fill="#FDD2BE"/>
<path d="M27.2018 21.8528C27.2018 22.1952 27.2692 22.5343 27.4003 22.8507C27.5313 23.1671 27.7234 23.4546 27.9656 23.6968C28.2078 23.939 28.4953 24.131 28.8117 24.2621C29.128 24.3932 29.4672 24.4606 29.8096 24.4606C30.1521 24.4606 30.4912 24.3932 30.8076 24.2621C31.124 24.131 31.4115 23.939 31.6537 23.6968C31.8958 23.4546 32.0879 23.1671 32.219 22.8507C32.35 22.5343 32.4175 22.1952 32.4175 21.8528C32.4175 21.1611 32.1427 20.4978 31.6537 20.0087C31.1646 19.5197 30.5013 19.2449 29.8096 19.2449C29.118 19.2449 28.4547 19.5197 27.9656 20.0087C27.4765 20.4978 27.2018 21.1611 27.2018 21.8528Z" fill="black"/>
<path d="M41.5733 29.9873C52.6219 25.0963 61.933 55.2219 54.9879 56.2916C45.4766 57.7582 18.891 40.0265 41.5733 29.9873ZM18.3526 43.1672C17.602 42.9582 16.9703 42.1385 16.4287 40.6758C16.1722 39.9682 15.967 39.2431 15.8147 38.506C15.7849 38.3536 15.817 38.1956 15.9037 38.0668C15.9904 37.938 16.1248 37.849 16.2772 37.8193C16.4296 37.7895 16.5875 37.8215 16.7163 37.9083C16.8451 37.995 16.9342 38.1294 16.9639 38.2818C17.3488 40.2507 18.1694 42.0139 18.7247 42.0533C18.8147 42.0597 19.6433 42.0131 20.913 38.3959C20.9644 38.2494 21.0718 38.1294 21.2117 38.0622C21.2809 38.0289 21.3561 38.0096 21.4328 38.0054C21.5095 38.0011 21.5863 38.012 21.6588 38.0374C21.7313 38.0629 21.7981 38.1023 21.8554 38.1536C21.9126 38.2048 21.9592 38.2669 21.9925 38.3361C22.0258 38.4054 22.0451 38.4805 22.0493 38.5572C22.0536 38.6339 22.0427 38.7107 22.0173 38.7832C20.9235 41.899 19.8474 43.3086 18.6419 43.221C18.5439 43.2128 18.447 43.1948 18.3526 43.1672ZM27.7955 48.018C27.0216 48.1096 26.1263 47.5904 25.0695 46.4404C24.5634 45.8824 24.0983 45.2885 23.6776 44.6636C23.6354 44.5993 23.6062 44.5274 23.5918 44.4519C23.5774 44.3765 23.578 44.2989 23.5935 44.2236C23.6091 44.1483 23.6393 44.0769 23.6825 44.0133C23.7257 43.9497 23.7809 43.8953 23.8452 43.8531C23.9094 43.8109 23.9813 43.7817 24.0568 43.7673C24.1323 43.7529 24.2098 43.7534 24.2851 43.769C24.3604 43.7846 24.4318 43.8148 24.4954 43.858C24.559 43.9011 24.6134 43.9564 24.6556 44.0206C25.7591 45.6962 27.1895 47.0158 27.7151 46.8431C27.8011 46.8149 28.5493 46.4573 28.3524 42.6287C28.3485 42.5519 28.3597 42.4751 28.3854 42.4027C28.4111 42.3302 28.4509 42.2636 28.5024 42.2065C28.5539 42.1494 28.6161 42.103 28.6855 42.07C28.7549 42.0369 28.8302 42.0179 28.907 42.0139C28.9837 42.01 29.0605 42.0212 29.133 42.0469C29.2054 42.0726 29.2721 42.1124 29.3292 42.1638C29.3863 42.2153 29.4327 42.2776 29.4657 42.347C29.4987 42.4164 29.5178 42.4917 29.5217 42.5684C29.6913 45.8634 29.2332 47.5776 28.0792 47.9529C27.987 47.984 27.892 48.0058 27.7955 48.018ZM21.4225 53.5913C20.6993 53.576 19.9478 52.9846 19.1273 51.7952C18.7361 51.2186 18.3869 50.6145 18.0826 49.9877C18.0243 49.8584 18.019 49.7113 18.068 49.5782C18.117 49.445 18.2163 49.3364 18.3445 49.2756C18.4727 49.2149 18.6196 49.2069 18.7537 49.2533C18.8878 49.2998 18.9983 49.397 19.0614 49.524C19.857 51.2021 20.9982 52.5948 21.5021 52.504C21.5825 52.4895 22.3162 52.2573 22.6272 48.7268C22.6334 48.6559 22.6536 48.587 22.6864 48.5239C22.7193 48.4608 22.7643 48.4048 22.8188 48.3591C22.8733 48.3134 22.9363 48.2789 23.0042 48.2575C23.072 48.2361 23.1434 48.2283 23.2143 48.2346C23.2852 48.2408 23.3541 48.2609 23.4172 48.2938C23.4803 48.3267 23.5363 48.3717 23.582 48.4262C23.6277 48.4807 23.6622 48.5437 23.6836 48.6115C23.705 48.6794 23.7128 48.7508 23.7065 48.8216C23.4381 51.8651 22.7976 53.3751 21.6918 53.5728C21.6029 53.588 21.5127 53.5941 21.4225 53.5913ZM31.6916 58.6206C30.9474 58.8496 29.9734 58.4992 28.7269 57.5581C28.1291 57.1 27.5651 56.5994 27.0393 56.0601C26.9321 55.9479 26.8738 55.7977 26.8774 55.6425C26.8809 55.4874 26.9459 55.34 27.0582 55.2328C27.1704 55.1256 27.3206 55.0673 27.4757 55.0709C27.6309 55.0744 27.7783 55.1394 27.8855 55.2517C29.2718 56.7022 30.9153 57.743 31.4015 57.4786C31.4819 57.4352 32.1529 56.949 31.2721 53.2192C31.2544 53.1445 31.2516 53.0669 31.2639 52.9911C31.2762 52.9152 31.3033 52.8425 31.3437 52.7772C31.3841 52.7118 31.4369 52.655 31.4992 52.6101C31.5615 52.5651 31.6321 52.5329 31.7069 52.5152C31.7816 52.4975 31.8592 52.4948 31.935 52.5071C32.0109 52.5193 32.0835 52.5464 32.1489 52.5868C32.2143 52.6272 32.2711 52.68 32.316 52.7423C32.361 52.8047 32.3932 52.8752 32.4109 52.95C33.1695 56.1646 33.0257 57.9326 31.9584 58.5081C31.8734 58.5543 31.784 58.592 31.6916 58.6206Z" fill="#22B0C3"/>
</svg>
