<svg width="56" height="56" viewBox="0 0 56 56" fill="none" xmlns="http://www.w3.org/2000/svg">
<path d="M8.61874 19.9806C8.60124 19.9806 8.58374 19.9806 8.56624 19.9763C8.53999 19.9719 7.88374 19.8975 6.76812 19.6963C5.55187 19.4731 4.75124 19.3813 4.74249 19.3813C4.47999 19.3506 4.28749 19.1144 4.31811 18.8475C4.34874 18.585 4.58936 18.3925 4.85186 18.4231C4.88686 18.4275 5.69186 18.5194 6.94311 18.7469C8.02374 18.9437 8.67124 19.0181 8.67562 19.0181C8.93812 19.0488 9.13061 19.285 9.09999 19.5519C9.06937 19.7969 8.85937 19.9806 8.61874 19.9806Z" fill="#888071"/>
<path d="M4.71623 21.91C4.47561 21.91 4.26561 21.7307 4.23936 21.4857C4.23205 21.4227 4.23724 21.359 4.25463 21.2981C4.27202 21.2371 4.30127 21.1802 4.3407 21.1307C4.38013 21.0811 4.42896 21.0397 4.48439 21.0091C4.53983 20.9784 4.60077 20.959 4.66373 20.9519C4.67686 20.9519 5.89311 20.8075 6.50998 20.7069C7.14873 20.6063 8.58373 20.3788 8.58373 20.3788L8.73248 21.3282L6.66311 21.6563C6.02436 21.7613 4.82561 21.9013 4.77311 21.9057C4.75123 21.9057 4.73373 21.91 4.71623 21.91Z" fill="#888071"/>
<path d="M5.47311 23.9225C5.26311 23.9225 5.07061 23.7869 5.00936 23.5725C4.93499 23.3188 5.08374 23.0519 5.34186 22.9775L8.78936 21.9931C8.91117 21.962 9.04031 21.9797 9.14926 22.0425C9.25821 22.1052 9.33834 22.208 9.37258 22.329C9.40681 22.4499 9.39245 22.5795 9.33253 22.69C9.27262 22.8006 9.17191 22.8833 9.05186 22.9206L5.60436 23.905C5.56499 23.9138 5.51686 23.9225 5.47311 23.9225Z" fill="#888071"/>
<path d="M23.3144 36.9294L18.5719 40.565C18.5719 40.565 18.7556 48.1425 18.6331 48.4488C18.5106 48.755 16.8481 50.6669 17.0319 51.7738C17.1763 52.6356 17.8325 52.9419 19.6175 53.0075C21.4025 53.0731 25.0381 52.2681 25.0381 52.2681L23.3144 36.9294Z" fill="#B85C3E"/>
<path d="M37.2356 39.8212L33.7269 41.79C33.7269 41.79 34.2213 43.2687 34.2213 45.3644C34.2213 47.46 34.0375 48.7725 33.915 49.2056C33.7925 49.6387 32.7644 50.4569 32.8694 51.6469C32.9175 52.1981 33.6088 52.6312 34.8381 52.57C36.0675 52.5087 37.8569 52.3862 37.8569 52.3862L39.6419 40.7444L37.2356 39.8212Z" fill="#B85C3E"/>
<path d="M14.5512 12.1669C14.5512 12.1669 13.9781 10.1544 14.4681 6.95186C14.9625 3.74936 15.7806 2.06498 16.5638 1.98186C17.3425 1.89873 18.8213 3.37748 19.9719 5.14498C21.1225 6.91248 22.0675 10.0319 22.0675 10.0319L14.5512 12.1669Z" fill="#FB8B02"/>
<path d="M27.9344 42.5512C27.9344 42.5512 27.9738 46.2481 28.0569 47.8887C28.14 49.5294 28.0613 53.1737 27.7288 53.5762C27.2169 54.1931 26.7007 54.2106 25.5938 54.2544C24.9332 54.2806 25.7994 50.19 25.7994 50.0237C25.7994 49.8575 25.8388 40.0444 25.8388 40.0444L27.9344 42.5512Z" fill="#FB8B02"/>
<path d="M16.9706 29.785C16.9706 29.785 15.9862 32.9044 16.2312 35.245C16.4762 37.5856 17.8325 40.5431 19.1887 41.7331C20.545 42.9231 21.7744 43.54 21.8969 43.8288C22.0194 44.1175 22.5137 48.1819 22.3475 49.0438C22.1812 49.9056 20.9912 52.1238 21.1969 52.9856C21.4025 53.8475 22.2162 54.39 24.3162 54.3419C27.0462 54.2806 26.9019 53.8694 27.1075 52.1675C27.2475 51.0213 27.0681 43.0938 27.0681 43.0938C27.0681 43.0938 28.7525 43.26 31.1325 43.0938C33.5125 42.9275 36.47 41.86 36.47 41.86C36.47 41.86 38.1544 47.1144 37.5769 48.7156C37.0037 50.3169 36.0587 51.2225 36.2206 52.3294C36.3869 53.4363 37.8219 53.9306 39.5894 53.7644C41.3569 53.5981 42.7087 52.4519 42.7919 50.9294C42.875 49.4113 42.8312 40.9938 43.0806 40.3375C43.3256 39.6813 44.2312 37.4238 44.1481 35.1619C44.065 32.9 43.9031 31.9988 43.9031 31.9988C43.9031 31.9988 46.025 31.1894 47.9894 29.7019C49.4856 28.5688 50.61 27.0769 51.2094 24.8544C52.1937 21.2013 50.8419 17.5875 48.1294 16.3538C45.5219 15.1681 42.9537 15.6144 42.875 17.5044C42.7962 19.3944 44.4762 18.9831 45.7494 19.4731C47.0225 19.9675 48.4575 22.225 46.9394 24.4431C45.4212 26.6613 42.7525 27.3569 41.93 27.44C41.1075 27.5231 39.5894 26.25 36.4262 26.1669C33.2631 26.0838 28.7087 28.385 28.5819 28.0963C28.4594 27.8075 33.0969 24.8106 33.425 20.9125C33.7312 17.2988 32.9744 15.6144 32.9744 15.6144C32.9744 15.6144 32.4012 9.49813 31.5787 6.62376C30.7562 3.74938 29.6187 1.61438 28.8794 1.65813C28.14 1.69751 25.76 4.28751 24.8981 5.56063C24.0362 6.83376 23.0912 8.88563 23.0912 8.88563C23.0912 8.88563 19.4162 8.75001 17.7931 9.33626C16.3144 9.87001 14.63 10.7713 13.5625 12.4556C12.495 14.14 12.1669 15.1244 11.6725 15.3694C11.1781 15.6144 8.8375 16.1088 8.63187 16.3975C8.42625 16.6863 7.8925 20.5056 8.015 21.0788C8.1375 21.6519 8.23375 22.9906 8.91625 23.7475C9.695 24.6094 11.8519 26.0663 13.5581 27.1556C15.2075 28.2056 16.8087 29.0456 16.9706 29.785Z" fill="#FFB800"/>
<path d="M32.1037 33.8056C33.6218 33.7837 33.5825 31.9593 33.6043 29.6975C33.6218 27.72 33.5431 26.5562 33.5431 26.5562C33.5431 26.5562 32.6725 26.6743 31.9025 26.9675C31.1412 27.2562 30.485 27.5231 30.485 27.5231V30.7037C30.4806 31.7931 30.6031 33.8275 32.1037 33.8056Z" fill="#FF9B31"/>
<path d="M34.7725 26.2719C34.7725 26.2719 34.7725 28.1794 34.7944 29.8025C34.8163 31.5482 34.65 33.4382 36.3956 33.4163C37.8963 33.3988 37.8963 31.4869 37.9138 29.33C37.9225 28.2013 37.9531 26.2719 37.9531 26.2719C37.9531 26.2719 37.2138 26.1275 36.33 26.1494C35.6344 26.1669 34.7725 26.2719 34.7725 26.2719Z" fill="#FF9B31"/>
<path d="M19.6044 17.9462C19.285 18.7206 18.5981 19.8275 17.465 19.5387C16.7387 19.355 16.6862 17.7931 17.1106 16.8656C17.6137 15.7719 18.2831 15.2775 19.0662 15.3694C19.9281 15.4744 20.0112 16.9531 19.6044 17.9462Z" fill="#2C312C"/>
<path d="M12.1056 17.71C12.0837 17.2156 10.8106 16.87 9.82625 16.4981C8.99062 16.1875 8.53125 16.17 8.30812 16.3756C8.085 16.5812 7.81375 17.115 7.69125 17.9375C7.56875 18.76 7.6125 20.1512 7.81375 21.0175C8.01937 21.9012 8.3475 23.0081 9.80437 23.5856C11.0556 24.08 11.795 23.4019 12.3287 23.03C13.0069 22.5619 12.7137 21.4506 11.7556 22.0237C11.0381 22.4569 10.5437 22.5794 9.98812 22.1681C9.22687 21.6037 9.04312 19.9325 9.10437 19.7881C9.37125 19.1625 10.4387 19.0094 10.8719 18.8431C11.305 18.6769 12.1275 18.1431 12.1056 17.71Z" fill="#2C312C"/>
<path d="M20.7113 22.0719H20.6763C20.6631 22.0719 19.2806 21.9713 18.4188 21.9494L15.9556 21.8882C15.9556 21.8882 15.4394 21.9319 15.4394 21.4244C15.4394 20.8863 15.9775 20.9694 15.9775 20.9694L18.4406 21.0307C19.3244 21.0525 20.685 21.1488 20.7419 21.1532C20.9956 21.1707 21.1838 21.3938 21.1663 21.6432C21.1488 21.8882 20.9475 22.0719 20.7113 22.0719Z" fill="#888071"/>
<path d="M19.9281 25.0688C19.8625 25.0688 19.7925 25.0556 19.7313 25.025C19.7225 25.0206 18.6331 24.5 17.6488 24.1631C16.625 23.8175 15.4788 23.4456 15.4788 23.4456C15.2381 23.3669 15.1025 23.1088 15.1813 22.8681C15.26 22.6275 15.5181 22.4919 15.7588 22.5706C15.7588 22.5706 16.9138 22.9425 17.9419 23.2925C18.9831 23.6469 20.0813 24.1719 20.1294 24.1981C20.3569 24.3075 20.4531 24.5831 20.3438 24.8106C20.265 24.9725 20.0988 25.0688 19.9281 25.0688Z" fill="#888071"/>
<path d="M17.6925 26.775C17.605 26.775 17.5131 26.7488 17.4344 26.6963C17.4256 26.6919 16.6556 26.1669 16.1394 25.8475C15.6013 25.5194 14.6344 24.8981 14.6344 24.8981C14.6344 24.8981 14.2013 24.6444 14.4813 24.2419C14.7613 23.8394 15.1288 24.1194 15.1288 24.1194C15.1288 24.1194 16.0913 24.7319 16.6206 25.06C17.1588 25.3881 17.92 25.9131 17.955 25.935C18.165 26.0794 18.2175 26.3638 18.0731 26.5738C17.9813 26.705 17.8369 26.775 17.6925 26.775Z" fill="#888071"/>
<path d="M28.1531 5.39437C27.9431 5.31999 26.5825 6.90374 25.9044 8.47437C25.2263 10.045 24.9813 10.9069 25.0425 11.1825C25.0688 11.305 25.8519 11.9831 27.0113 12.9062C28.2144 13.86 28.98 14.4462 29.3213 14.4156C29.6581 14.385 29.7544 11.7687 29.4744 9.39749C29.1944 7.02624 28.49 5.51687 28.1531 5.39437Z" fill="#FED0AB"/>
</svg>
