<svg width="56" height="56" viewBox="0 0 56 56" fill="none" xmlns="http://www.w3.org/2000/svg">
<path d="M48.2751 22.3596C53.732 21.3485 53.8549 12.5642 48.1958 12.6311C43.7671 12.684 44.2136 16.9789 43.6147 16.1342C42.4511 14.4931 42.0762 10.2713 46.5111 8.52135C50.3393 7.01091 55.6049 10.0707 55.9424 15.6629C56.1587 19.2438 53.9249 25.858 45.9044 24.7567C34.6702 23.2151 42.8198 23.3691 48.2751 22.3596Z" fill="#D99E82"/>
<path d="M16.0549 34.1211C16.0549 34.1211 17.6353 37.7798 17.1064 46.942C17.0116 48.5862 16.7813 50.2646 16.73 51.6429C13.9113 51.6429 14.1602 54.8535 14.7576 54.8535H19.2718C20.3342 54.8535 22.2164 49.5055 22.7127 42.084C23.2089 34.6609 16.0549 34.1211 16.0549 34.1211ZM34.5504 33.6062C34.5504 33.6062 35.4449 39.0942 40.2298 43.582C40.6296 45.3911 41.426 50.1651 41.706 51.6631C38.7676 51.6631 39.7118 54.8473 40.5689 54.8473H44.6849C46.1642 54.8473 46.3836 49.4931 45.0053 42.8789C43.6287 36.2662 34.5504 33.6062 34.5504 33.6062Z" fill="#C1694F"/>
<path d="M50.092 24.3507C48.1429 18.5143 38.8702 18.7071 28.3189 20.0496C23.5667 20.6547 22.6567 13.1227 22.6567 11.8269C22.6567 6.18648 17.6105 3.34137 12.5518 5.24848C11.34 5.70426 10.3709 7.31737 9.82335 8.16048C6.74802 12.8847 2.57757 8.18381 2.17468 12.5503C1.68779 17.8314 4.85179 19.6031 10.0318 20.0496C12.9749 20.3031 15.4125 21.7529 16.0534 27.8958C16.2929 30.1856 15.5945 36.6754 19.768 38.9029C20.9814 43.5058 22.624 49.1929 23.268 52.0863C19.7649 52.8267 21.182 55.4758 21.182 55.4758C21.182 55.4758 26.0836 55.4089 27.1491 55.4089C28.4153 55.4089 27.4462 46.1129 25.6947 40.1847C33.1054 40.2516 37.8716 38.1049 39.382 37.4438C40.9811 42.0482 45.8407 43.0951 46.928 45.0536C47.6016 46.2669 49.8494 50.316 50.0407 52.0474C47.5487 52.8562 48.3436 54.7416 48.6267 55.3483C50.3114 55.2814 53.6356 55.2814 54.068 55.2814C55.7947 55.2814 52.2994 44.5418 50.8278 41.7278C49.1447 38.5063 52.0427 30.1871 50.092 24.3507Z" fill="#D99E82"/>
<path d="M25.3027 38.0551C25.3711 38.6322 25.522 39.4411 25.6962 40.1847C33.1069 40.2516 37.8731 38.1049 39.3835 37.4438C39.0491 36.2305 39.0258 35.4682 39.1175 35.0514C33.838 35.9178 32.0429 38.4814 25.3027 38.0551ZM10.0318 20.0496C12.9749 20.3031 13.804 21.7125 14.4464 27.8554C14.686 30.1451 15.596 36.6754 19.768 38.9029C18.648 34.566 16.7207 19.6327 10.0318 20.0496Z" fill="#F4C7B5"/>
<path d="M4.90467 10.3678C0.560006 10.3678 1.93512 11.186 1.79045 12.9998C1.64578 14.8136 1.67534 17.6291 2.99756 19.1116C4.75067 21.0747 8.99889 21.0809 11.1098 19.5425C13.2207 18.004 10.4502 10.3678 4.90467 10.3678Z" fill="#F4C7B5"/>
<path d="M3.89357 12.9516C3.72401 14.1369 3.12512 14.8058 2.52623 14.714C1.34401 14.532 0.360901 13.0231 0.360901 11.8269C0.360901 10.6307 1.33157 10.3289 2.52623 10.3833C4.14868 10.458 4.0849 11.6091 3.89357 12.9516Z" fill="#272B2B"/>
<path d="M23.5931 14.0404C24.1345 17.9526 21.7933 18.5484 19.8862 18.5484C17.9791 18.5484 15.1356 16.604 15.6116 12.684C15.82 10.962 16.4749 9.27265 16.87 7.74509C17.3927 5.7182 18.7351 5.05087 19.8162 5.61865C22.4062 6.9782 23.2431 11.5251 23.5931 14.0404Z" fill="#662113"/>
<path d="M12.5518 11.8269C13.349 11.8269 13.9953 11.1806 13.9953 10.3833C13.9953 9.58606 13.349 8.93976 12.5518 8.93976C11.7545 8.93976 11.1082 9.58606 11.1082 10.3833C11.1082 11.1806 11.7545 11.8269 12.5518 11.8269Z" fill="#292F33"/>
<path d="M29.61 19.894C29.7235 22.2771 31.0193 24.8376 33.8613 25.592C36.8184 26.3776 40.2702 25.7896 41.1258 21.742C41.2673 21.0731 41.328 19.838 41.2393 19.3869C37.8933 19.1084 33.8815 19.3869 29.61 19.894Z" fill="#C1694F"/>
<path d="M4.7491 17.0971C5.16835 17.0971 5.50821 16.7572 5.50821 16.338C5.50821 15.9187 5.16835 15.5789 4.7491 15.5789C4.32986 15.5789 3.98999 15.9187 3.98999 16.338C3.98999 16.7572 4.32986 17.0971 4.7491 17.0971Z" fill="#D99E82"/>
<path d="M5.74779 15.6691C5.97889 15.6691 6.16623 15.4818 6.16623 15.2507C6.16623 15.0196 5.97889 14.8322 5.74779 14.8322C5.51669 14.8322 5.32935 15.0196 5.32935 15.2507C5.32935 15.4818 5.51669 15.6691 5.74779 15.6691Z" fill="#D99E82"/>
<path d="M6.37779 16.7564C6.6089 16.7564 6.79624 16.5691 6.79624 16.338C6.79624 16.1069 6.6089 15.9196 6.37779 15.9196C6.14669 15.9196 5.95935 16.1069 5.95935 16.338C5.95935 16.5691 6.14669 16.7564 6.37779 16.7564Z" fill="#D99E82"/>
</svg>
