<svg width="56" height="56" viewBox="0 0 56 56" fill="none" xmlns="http://www.w3.org/2000/svg">
<path d="M48.9672 32.0797C48.9672 43.6789 39.5664 53.0797 27.9672 53.0797C16.368 53.0797 6.96719 43.6789 6.96719 32.0797C6.96719 20.4805 16.368 3.04608 27.9672 3.04608C39.5664 3.04608 48.9672 20.4805 48.9672 32.0797Z" fill="#FAFCFC"/>
<path d="M27.9617 53.8125C25.0305 53.8125 22.1813 53.2383 19.5016 52.1063C16.9148 51.0125 14.5906 49.443 12.5945 47.4523C10.5984 45.4562 9.03437 43.132 7.94062 40.5453C6.80859 37.8656 6.23438 35.0219 6.23438 32.0852C6.23438 26.1133 8.63516 18.7305 12.507 12.8187C14.5359 9.71797 16.9039 7.14219 19.3648 5.36484C22.1594 3.34687 25.0523 2.32422 27.9672 2.32422C30.882 2.32422 33.775 3.34687 36.5695 5.36484C39.0305 7.14219 41.3984 9.71797 43.4273 12.8187C47.2937 18.7305 49.7 26.1133 49.7 32.0852C49.7 35.0164 49.1258 37.8656 47.9937 40.5453C46.9 43.132 45.3305 45.4562 43.3398 47.4523C41.3438 49.4484 39.0195 51.0125 36.4328 52.1063C33.7422 53.2383 30.8984 53.8125 27.9617 53.8125ZM27.9617 3.77344C25.3586 3.77344 22.7555 4.70312 20.2125 6.54063C17.8938 8.21406 15.6516 10.6586 13.7211 13.6117C10.0023 19.2992 7.68906 26.3758 7.68906 32.0797C7.68906 37.4937 9.8 42.5852 13.6281 46.4188C17.4563 50.2469 22.5477 52.3578 27.9672 52.3578C33.3813 52.3578 38.4727 50.2469 42.3062 46.4188C46.1344 42.5906 48.2453 37.4992 48.2453 32.0797C48.2453 26.3758 45.932 19.2992 42.2133 13.6117C40.2828 10.6586 38.0352 8.21406 35.7219 6.54063C33.1734 4.70859 30.5648 3.77344 27.9617 3.77344Z" fill="#154B8B"/>
<path d="M20.3055 15.4766C20.3055 16.0916 20.5498 16.6813 20.9846 17.1162C21.4195 17.551 22.0093 17.7953 22.6242 17.7953C23.2392 17.7953 23.829 17.551 24.2638 17.1162C24.6987 16.6813 24.943 16.0916 24.943 15.4766C24.943 14.8616 24.6987 14.2718 24.2638 13.837C23.829 13.4021 23.2392 13.1578 22.6242 13.1578C22.0093 13.1578 21.4195 13.4021 20.9846 13.837C20.5498 14.2718 20.3055 14.8616 20.3055 15.4766Z" fill="#9ED5E4"/>
<path d="M10.9102 31.3414C10.9102 32.3523 11.3117 33.3218 12.0266 34.0367C12.7414 34.7515 13.7109 35.1531 14.7219 35.1531C15.7328 35.1531 16.7023 34.7515 17.4172 34.0367C18.132 33.3218 18.5336 32.3523 18.5336 31.3414C18.5336 30.3305 18.132 29.3609 17.4172 28.6461C16.7023 27.9313 15.7328 27.5297 14.7219 27.5297C13.7109 27.5297 12.7414 27.9313 12.0266 28.6461C11.3117 29.3609 10.9102 30.3305 10.9102 31.3414Z" fill="#9ED5E4"/>
<path d="M26.7531 36.9633C26.7531 38.1009 26.9772 39.2273 27.4125 40.2783C27.8478 41.3293 28.4859 42.2842 29.2903 43.0886C30.0947 43.893 31.0496 44.5311 32.1006 44.9664C33.1516 45.4017 34.278 45.6258 35.4156 45.6258C36.5532 45.6258 37.6796 45.4017 38.7306 44.9664C39.7816 44.5311 40.7365 43.893 41.5409 43.0886C42.3453 42.2842 42.9834 41.3293 43.4187 40.2783C43.854 39.2273 44.0781 38.1009 44.0781 36.9633C44.0781 34.6658 43.1655 32.4625 41.5409 30.838C39.9164 29.2134 37.713 28.3008 35.4156 28.3008C33.1182 28.3008 30.9148 29.2134 29.2903 30.838C27.6658 32.4625 26.7531 34.6658 26.7531 36.9633Z" fill="#9ED5E4"/>
</svg>
