<svg width="56" height="56" viewBox="0 0 56 56" fill="none" xmlns="http://www.w3.org/2000/svg">
<path d="M20.0506 45.92L34.2781 47.8887L51.7081 37.2356C51.7081 37.2356 49.5513 32.06 48.4444 29.4131C47.3375 26.7662 45.5481 23.1306 45.5481 23.1306C45.5481 23.1306 46.5238 20.475 46.9656 17.2812C47.4775 13.5669 47.0269 12.6219 47.0269 12.6219L37.7475 8.39123C37.7475 8.39123 36.3738 9.39748 35.14 11.6769C33.9063 13.9562 33.4775 14.8794 33.4775 14.8794C33.4775 14.8794 30.3363 14.6344 28.9188 14.6344C27.5013 14.6344 25.1606 14.9406 25.1606 14.9406C25.1606 14.9406 22.9425 10.8762 21.7744 9.45873C20.6063 8.04123 18.7775 6.66748 18.7775 6.66748C18.7775 6.66748 10.5263 10.7756 10.1544 13.7287C9.78251 16.6819 10.1325 18.76 10.3819 20.0506C10.6269 21.3456 11.3663 23.1919 11.3663 23.1919C11.3663 23.1919 10.6269 24.2987 9.64251 26.8275C8.65813 29.3562 7.54688 32.4319 6.74626 33.7269C5.94563 35.0219 3.78876 37.975 3.78876 37.975L20.0506 45.92Z" fill="#FF6011"/>
<path d="M13.8512 3.38185C12.9675 3.62685 11.9219 5.63935 10.9769 8.96435C10.4781 10.7187 10.115 13.9344 10.115 13.9344C10.115 13.9344 13.0287 11.6769 15.6187 10.7319C18.2087 9.78685 21.49 9.1306 21.49 9.1306C21.49 9.1306 19.9806 7.40685 18.2044 5.84498C16.6687 4.4931 14.6125 3.17185 13.8512 3.38185Z" fill="#575A5B"/>
<path d="M43.9075 3.71001C43.2687 3.53939 41.0681 4.66376 39.515 6.13376C37.9619 7.60376 36.4744 9.62501 36.4744 9.62501C36.4744 9.62501 39.5937 9.74751 42.4287 11.1869C45.2637 12.6219 47.1931 13.895 47.1931 13.895C47.1931 13.895 47.1319 10.9463 46.4931 8.39126C45.8369 5.76189 44.975 3.99876 43.9075 3.71001Z" fill="#575A5B"/>
<path d="M14.7569 7.24065C14.4681 7.4069 12.9631 10.3513 13.0725 14.7569C13.1556 18.0425 13.8119 20.6675 13.9738 20.6675C14.0569 20.6675 15.6538 18.7731 17.3425 17.5875C19.0313 16.4019 21.2013 15.7544 21.2625 15.61C21.385 15.3213 20.0113 12.4556 18.165 10.0363C16.3188 7.6169 15.0413 7.07877 14.7569 7.24065Z" fill="#FF9411"/>
<path d="M37.6688 15.9469C37.5769 15.5269 38.7363 11.9656 39.9263 10.0756C41.1163 8.1856 42.8006 6.29998 43.2513 6.37873C43.7019 6.46185 45.4694 10.6094 44.8919 14.385C44.3188 18.1606 43.5794 20.3394 43.3738 20.3787C43.26 20.4006 42.0438 18.9569 40.5388 17.7931C39.2875 16.8219 37.7038 16.1131 37.6688 15.9469Z" fill="#FF9411"/>
<path d="M2.06937 38.2418C2.00374 37.9181 3.75374 37.625 4.94374 37.0518C6.13374 36.4787 8.59687 35.3675 12.3769 35.8181C16.1525 36.2687 18.0512 37.4062 20.755 39.2262C23.4631 41.055 24.6575 45.3425 24.6575 45.3425L30.8569 46.655C30.8569 46.655 33.0137 41.8293 34.5931 40.3331C35.9187 39.0731 39.4931 36.2381 44.0781 35.8181C48.5537 35.4068 50.3606 36.3912 51.8787 36.9687C52.9287 37.3668 53.8475 37.5856 53.9744 37.9137C54.0969 38.2418 52.1675 39.5543 52.1675 39.5543C52.1675 39.5543 53.9744 39.8431 54.0137 40.0881C54.075 40.4556 52.6575 41.2781 51.6731 41.895C50.6887 42.5118 43.7981 46.0381 41.2431 47.355C39.8869 48.055 34.4662 50.0631 33.6481 50.0237C32.8256 49.9843 23.2181 49.5293 22.5619 49.49C21.9056 49.4506 15.4569 47.1887 12.1319 45.9156C8.44374 44.5068 1.83312 41.1556 1.99062 40.5387C2.07374 40.2106 4.33124 39.9656 4.33124 39.9656C4.33124 39.9656 2.14812 38.6531 2.06937 38.2418Z" fill="#DFDFDF"/>
<path d="M28.0569 52.3687C35.4812 52.7318 35.7744 46.4975 34.9956 43.8287C34.2169 41.16 33.8887 41.16 33.8887 41.16C33.8887 41.16 32.3094 42.9887 31.5087 45.2681C31.2594 45.9812 24.6531 45.3512 24.6531 45.3512C24.6531 45.3512 24.325 44.0387 23.7081 42.8443C23.3012 42.0568 22.68 41.2212 22.68 41.2212C22.68 41.2212 21.5731 42.7218 21.3675 44.73C21.1619 46.7425 20.5056 51.9968 28.0569 52.3687Z" fill="#FEE9C9"/>
<path d="M23.0081 48.3219C22.68 48.6981 23.5638 49.6475 23.9925 50.0762C24.4256 50.5094 25.3488 51.1044 25.9 51.1525C26.5781 51.2137 28.21 49.7962 28.21 49.7962C28.21 49.7962 29.8813 51.345 30.8088 51.3144C31.7319 51.2837 32.8606 49.98 33.2631 49.5469C33.5081 49.28 33.9938 48.7812 33.6 48.3131C33.2631 47.9106 32.7513 48.2956 32.3356 48.6806C31.4781 49.4856 30.8481 50.0762 30.7344 50.0981C30.5506 50.1287 28.3325 48.0944 28.3325 48.0944C28.3325 48.0944 26.2063 49.6956 25.8081 49.6956C25.5675 49.6956 24.8281 49.0262 24.2375 48.4619C23.8569 48.1119 23.4413 47.8275 23.0081 48.3219Z" fill="#4A4A4C"/>
<path d="M28.3062 43.6713C26.705 43.6844 24.0887 43.7631 24.2418 45.5175C24.395 47.2719 25.2568 48.8731 28.4287 48.8425C31.6006 48.8119 32.4012 47.1494 32.4625 45.4869C32.4975 44.5025 32.1256 43.6406 28.3062 43.6713Z" fill="#2D2A25"/>
<path d="M20.0812 42.4113C19.9369 42.8444 19.1581 42.9669 18.3881 42.5644C17.6181 42.1619 16.2006 41.3307 15.0019 40.7794C13.9956 40.3157 12.8756 40.04 12.9675 39.3925C13.0594 38.745 14.3544 39.2088 15.4306 39.5457C16.5069 39.8825 18.725 40.81 19.1887 41.0857C19.6525 41.3613 20.3 41.7638 20.0812 42.4113Z" fill="white"/>
<path d="M15.8331 42.9012C14.6256 42.5206 12.4994 41.7594 12.3856 42.5337C12.2938 43.1506 14.14 43.5837 15.3431 44.2575C16.3888 44.8437 18.2525 45.85 18.6069 44.7212C18.9131 43.7325 17.0013 43.2731 15.8331 42.9012Z" fill="white"/>
<path d="M36.7413 42.5031C37.0825 43.2731 38.2288 42.4988 39.3881 41.9169C40.7444 41.2388 42.5294 40.4688 43.0544 40.3156C43.5794 40.1625 43.9775 39.9481 43.8856 39.6069C43.7938 39.27 42.9669 39.2306 42.3456 39.3619C41.4531 39.5456 40.005 39.8563 38.7406 40.4994C37.9488 40.9063 36.2819 41.4531 36.7413 42.5031Z" fill="white"/>
<path d="M38.1282 44.905C38.3994 45.8106 40.5606 44.6906 41.6063 44.2575C42.6519 43.8244 44.7169 43.1506 44.5332 42.595C44.3232 41.9694 41.6982 42.5862 40.9588 42.7787C39.9132 43.0544 37.7607 43.6712 38.1282 44.905Z" fill="white"/>
<path d="M37.4806 32.2481C37.0475 33.5431 35.8575 34.9694 34.4925 34.6806C33.1275 34.3919 32.585 32.9875 32.8606 30.9837C33.1188 29.1156 34.6369 28.385 36.0019 28.6737C37.3669 28.9625 38.08 30.4544 37.4806 32.2481Z" fill="#2D2A25"/>
<path d="M23.45 31.1719C23.7125 32.5107 23.5681 34.0857 22.2075 34.5275C20.8469 34.965 19.2238 34.3569 18.6944 32.4057C18.1081 30.2444 18.9788 29.26 20.3394 28.8225C21.7044 28.3807 23.0825 29.3169 23.45 31.1719Z" fill="#2D2A25"/>
<path d="M21.0087 29.5356C21.385 29.9119 21.1619 30.5812 20.7944 30.9225C20.5712 31.1281 19.8712 31.6006 19.4075 30.9837C19.0662 30.5287 19.3156 30.03 19.7137 29.6275C20.1119 29.2294 20.6675 29.1987 21.0087 29.5356Z" fill="#DFDFDF"/>
<path d="M35.0175 29.6275C35.4463 29.9381 35.2975 30.7037 34.9869 31.0975C34.7988 31.3381 34.1425 32.0469 33.6306 31.4737C33.355 31.1631 33.3856 30.4544 33.7138 29.995C34.0463 29.54 34.6281 29.3519 35.0175 29.6275Z" fill="#DFDFDF"/>
</svg>
