<svg width="56" height="56" viewBox="0 0 56 56" fill="none" xmlns="http://www.w3.org/2000/svg">
<path d="M34.5598 55.4011H34.5567C34.2594 55.3487 33.9753 55.2382 33.7208 55.076C33.4662 54.9138 33.2461 54.703 33.0731 54.4557C32.9 54.2084 32.7774 53.9294 32.7122 53.6347C32.647 53.3399 32.6405 53.0352 32.6931 52.738L33.6109 47.5362C33.6109 47.5362 34.6687 42.6129 31.9371 39.06C33.8955 37.2384 39.7522 39.1922 39.7522 39.1922L37.2229 53.536C37.117 54.1365 36.777 54.6703 36.2776 55.0201C35.7781 55.3698 35.1602 55.5069 34.5598 55.4011ZM14.8167 55.3684H14.8135C14.5163 55.316 14.2322 55.2056 13.9777 55.0434C13.7231 54.8811 13.503 54.6703 13.3299 54.423C13.1569 54.1757 13.0342 53.8967 12.9691 53.602C12.9039 53.3073 12.8974 53.0026 12.95 52.7053L14.9909 41.7776C14.9909 41.7776 15.7733 38.0147 15.7733 34.8724C17.5498 34.1896 20.0091 39.1611 20.0091 39.1611L17.4798 53.5049C17.3728 54.1047 17.0324 54.6376 16.5333 54.9869C16.0341 55.3362 15.4168 55.4734 14.8167 55.3684ZM47.9142 40.0882C47.5121 40.0883 47.1261 39.9303 46.8395 39.6483C46.5528 39.3663 46.3885 38.9829 46.382 38.5809C46.3633 37.4562 45.9091 31.8516 38.7209 31.8516C38.3145 31.8516 37.9248 31.6901 37.6374 31.4028C37.3501 31.1154 37.1887 30.7257 37.1887 30.3193C37.1887 29.913 37.3501 29.5232 37.6374 29.2359C37.9248 28.9485 38.3145 28.7871 38.7209 28.7871C47.0633 28.7871 49.3889 34.9129 49.448 38.5311C49.4515 38.7325 49.4153 38.9325 49.3414 39.1199C49.2675 39.3072 49.1574 39.4781 49.0174 39.6229C48.8774 39.7677 48.7103 39.8834 48.5255 39.9635C48.3408 40.0436 48.142 40.0865 47.9407 40.0898L47.9142 40.0882Z" fill="#F4900C"/>
<path d="M23.6849 26.8365L18.3027 8.20091L20.9269 6.61424C21.5009 7.56313 21.9038 9.29291 22.5664 12.2656C23.4516 16.2447 24.6649 21.6922 26.6996 24.5171C26.9371 24.8472 27.0338 25.2581 26.9685 25.6595C26.9032 26.0609 26.6811 26.4199 26.3511 26.6576C26.0789 26.8536 23.6849 26.8365 23.6849 26.8365ZM11.8456 4.21558V1.14958C11.8609 0.855038 11.9887 0.577619 12.2026 0.374558C12.4165 0.171498 12.7002 0.0582886 12.9951 0.0582886C13.29 0.0582886 13.5737 0.171498 13.7876 0.374558C14.0015 0.577619 14.1293 0.855038 14.1447 1.14958V4.21558H11.8456ZM15.4731 4.21558V1.14958C15.4884 0.855038 15.6162 0.577619 15.8301 0.374558C16.044 0.171498 16.3277 0.0582886 16.6227 0.0582886C16.9176 0.0582886 17.2013 0.171498 17.4152 0.374558C17.6291 0.577619 17.7569 0.855038 17.7722 1.14958V4.21558H15.4731Z" fill="#754C29"/>
<path d="M47.9142 44.6865C49.6075 44.6865 50.9802 42.9705 50.9802 40.8536C50.9802 38.7368 49.6075 37.0208 47.9142 37.0208C46.2209 37.0208 44.8482 38.7368 44.8482 40.8536C44.8482 42.9705 46.2209 44.6865 47.9142 44.6865Z" fill="#754C29"/>
<path d="M45.01 53.0351C45.01 53.0351 44.0035 49.1229 43.4575 46.5733C42.9411 44.1638 41.8631 40.3806 41.636 33.7789C41.6204 33.5533 41.5753 32.9824 41.4213 32.5671C41.2315 32.0538 40.5393 31.1158 40.2298 30.6958C39.0211 29.0593 37.1 28.0653 34.7449 27.8226C32.7491 27.6173 30.7424 27.5349 28.7498 27.2953C27.832 27.1849 27.0387 27.0526 26.5378 26.8722C23.9929 25.956 23.4858 22.9802 22.7827 20.7044C21.5382 16.6755 20.4369 12.5766 19.7322 8.41554L19.6902 8.15887V7.52887C22.1278 6.4182 24.0302 3.03643 22.7562 1.76398C20.5535 0.662648 18.3587 1.93509 17.2915 3.30709C17.2604 3.30554 17.2309 3.29776 17.1998 3.29776H13.1584C12.1395 3.29776 11.13 3.54665 10.2464 4.09109C9.33799 4.64954 8.71265 5.50198 7.70621 5.9422C6.48354 6.47732 5.0291 6.08687 3.94643 6.93776C2.09688 8.38909 2.97421 10.8655 5.27488 10.948C5.58754 11.8455 6.43377 12.4926 7.4371 12.4926H10.7131C10.7987 12.5098 10.8811 12.5253 10.9822 12.5378C11.9218 12.6482 12.6747 13.3544 13.2798 14.4278C14.9084 17.3149 15.2149 21.0295 15.4809 24.2651C15.6701 26.5207 15.7521 28.784 15.7267 31.0473C15.2709 33.4833 15.54 36.3004 15.54 36.3004C15.6084 36.9522 15.8293 37.5091 16.1529 38.0038L16.1373 38.0209C19.2329 42.392 19.9469 47.3075 19.9469 47.3075L21.1664 53.83C21.2723 54.4307 21.6124 54.9647 22.1119 55.3146C22.6115 55.6646 23.2296 55.8017 23.8303 55.6959C24.431 55.59 24.9651 55.2499 25.315 54.7504C25.6649 54.2508 25.802 53.6327 25.6962 53.032L23.7331 41.8958C26.8084 42.7264 30.9027 43.3455 33.7649 43.2211C33.7649 43.2304 33.7602 43.2429 33.7618 43.2522C37.45 43.0251 38.8329 45.9433 39.1347 47.2593C39.4364 48.5753 40.4849 53.8362 40.4849 53.8362C40.5281 54.1418 40.6325 54.4355 40.7917 54.6999C40.9509 54.9642 41.1617 55.1939 41.4115 55.375C41.6613 55.5562 41.9451 55.6853 42.2458 55.7545C42.5466 55.8236 42.8582 55.8316 43.1621 55.7778C43.466 55.724 43.7559 55.6095 44.0146 55.4413C44.2733 55.2731 44.4955 55.0545 44.668 54.7985C44.8404 54.5426 44.9596 54.2546 45.0183 53.9516C45.0771 53.6486 45.0743 53.3369 45.01 53.0351Z" fill="#FFCC4D"/>
<path d="M18.6278 34.3778C17.0956 35.91 16.8233 38.1235 18.0196 39.3213C19.2173 40.5191 21.4309 40.2469 22.9631 38.7131C24.4953 37.1793 24.7676 34.9673 23.5713 33.7695C22.3736 32.5717 20.16 32.844 18.6278 34.3778ZM20.3202 24.7566C20.3212 25.7437 20.6398 26.7043 21.229 27.4963C21.8181 28.2883 22.6464 28.8697 23.5915 29.1546C24.5366 29.4394 25.5483 29.4126 26.4769 29.078C27.4056 28.7435 28.2019 28.119 28.7482 27.2969C27.8305 27.1864 27.0371 27.0542 26.5362 26.8737C24.1033 25.998 23.6242 23.394 23.0316 21.5211C22.9429 21.2426 22.8636 20.9782 22.7796 20.7075C22.0398 21.0945 21.4197 21.6762 20.9863 22.3898C20.5529 23.1034 20.3226 23.9217 20.3202 24.7566ZM18.7864 17.8593C18.7864 16.8428 18.3826 15.8679 17.6638 15.149C16.945 14.4302 15.9701 14.0264 14.9536 14.0264C14.35 14.0264 13.7869 14.1789 13.2782 14.4262C14.266 16.1778 14.8571 18.914 15.2102 21.6642C16.1779 21.6022 17.0858 21.1746 17.7498 20.4681C18.4139 19.7615 18.7845 18.8289 18.7864 17.8593ZM17.0862 11.5142C17.0862 13.2533 18.4956 14.6611 20.2331 14.6611C20.5162 14.6611 20.7853 14.6113 21.0467 14.5413C20.5291 12.5176 20.0896 10.4746 19.7291 8.41708C18.9927 8.53562 18.3224 8.91228 17.8382 9.47969C17.354 10.0471 17.0875 10.7683 17.0862 11.5142ZM31.0504 30.8902C31.0504 32.1097 31.5349 33.2793 32.3972 34.1416C33.2596 35.004 34.4291 35.4884 35.6487 35.4884C36.8682 35.4884 38.0378 35.004 38.9001 34.1416C39.7624 33.2793 40.2469 32.1097 40.2469 30.8902C40.2469 30.8233 40.2298 30.7626 40.2267 30.6973C39.018 29.0609 37.0969 28.0669 34.7418 27.8242C33.9654 27.7478 33.1881 27.6814 32.41 27.6251C31.9789 28.0525 31.6369 28.5612 31.4035 29.1216C31.1701 29.682 31.0502 30.2831 31.0504 30.8902ZM18.0413 4.06464C18.8269 3.31331 20.09 2.37064 20.8071 2.73309C21.5242 3.09553 21.2085 4.71331 18.9933 6.07909C19.1691 5.3962 19.8504 4.18909 18.0413 4.06464Z" fill="#F4900C"/>
<path d="M13.6453 7.89446C14.4915 7.89446 15.1775 7.20846 15.1775 6.36224C15.1775 5.51602 14.4915 4.83002 13.6453 4.83002C12.7991 4.83002 12.1131 5.51602 12.1131 6.36224C12.1131 7.20846 12.7991 7.89446 13.6453 7.89446Z" fill="#292F33"/>
<path d="M32.7398 52.1811C32.7398 52.1811 30.9633 54.2826 31.2076 54.9515C31.4518 55.6204 35.4713 55.7153 36.2616 54.9857C37.0518 54.2562 33.2267 52.1204 32.7398 52.1811ZM13.104 52.1811C13.104 52.1811 11.3276 54.2826 11.5718 54.9515C11.8145 55.6204 15.8356 55.7153 16.6258 54.9857C17.416 54.2562 13.5909 52.1204 13.104 52.1811ZM20.1771 55.6344C20.3887 56.2426 24.4798 56.1462 25.1627 54.9173C25.8456 53.6884 20.9969 52.8686 20.9969 52.8686C20.9969 52.8686 19.9033 54.8489 20.1771 55.6344ZM39.4722 55.6344C39.6838 56.2426 43.7749 56.1462 44.4578 54.9173C45.1407 53.6884 40.292 52.8686 40.292 52.8686C40.292 52.8686 39.1985 54.8489 39.4722 55.6344Z" fill="#754C29"/>
</svg>
