<svg width="56" height="56" viewBox="0 0 56 56" fill="none" xmlns="http://www.w3.org/2000/svg">
<g clip-path="url(#clip0_65_763)">
<path d="M51.3748 26.2299C51.3748 26.2299 50.8392 26.8861 49.7796 27.9457C48.72 29.0054 29.2373 48.4873 29.2373 48.4873C28.8951 48.8294 28.448 49 28 49C27.552 49 27.1049 48.8294 26.7628 48.4873C26.7628 48.4873 7.28 29.0045 6.22038 27.9449C5.16075 26.8853 4.62525 26.229 4.62525 26.229C2.83937 24.1019 1.75 21.371 1.75 18.375C1.75 11.6095 7.2345 6.125 14 6.125C17.3827 6.125 20.4452 7.49525 22.6616 9.71337L22.6695 9.7055L26.7628 13.7979C27.4461 14.4812 28.5539 14.4812 29.2373 13.7979L33.3305 9.7055L33.3384 9.71337C35.5548 7.49525 38.6172 6.125 42 6.125C48.7655 6.125 54.25 11.6095 54.25 18.375C54.25 21.371 53.1606 24.1019 51.3748 26.2299Z" fill="#F76D57"/>
<path d="M51.3748 26.2299C51.3748 26.2299 50.8392 26.8861 49.7796 27.9457C48.72 29.0054 29.2373 48.4873 29.2373 48.4873C28.8951 48.8294 28.448 49 28 49C27.552 49 27.1049 48.8294 26.7628 48.4873C26.7628 48.4873 7.28 29.0045 6.22038 27.9449C5.16075 26.8853 4.62525 26.229 4.62525 26.229C2.83937 24.1019 1.75 21.371 1.75 18.375C1.75 11.6095 7.2345 6.125 14 6.125C17.3827 6.125 20.4452 7.49525 22.6616 9.71337L22.6695 9.7055L26.7628 13.7979C27.4461 14.4812 28.5539 14.4812 29.2373 13.7979L33.3305 9.7055L33.3384 9.71337C35.5548 7.49525 38.6172 6.125 42 6.125C48.7655 6.125 54.25 11.6095 54.25 18.375C54.25 21.371 53.1606 24.1019 51.3748 26.2299Z" fill="#F76D57"/>
<path d="M42 4.375C38.1343 4.375 34.6343 5.94213 32.1011 8.47613L28.6195 11.942C28.2774 12.2841 27.7244 12.2841 27.3822 11.942C27.3822 11.942 23.9076 8.46825 23.9006 8.47613C21.3658 5.94213 17.8657 4.375 14 4.375C6.26762 4.375 0 10.6426 0 18.375C0 21.2957 0.896 24.0065 2.42637 26.25C2.42637 26.25 3.06862 27.2685 3.82812 28.0271C4.58763 28.7857 25.5255 49.7245 25.5255 49.7245C26.2089 50.4079 27.1049 50.75 28 50.75C28.8951 50.75 29.7911 50.4079 30.4745 49.7245C30.4745 49.7245 51.4132 28.7857 52.1719 28.0271C52.9305 27.2685 53.5736 26.25 53.5736 26.25C55.104 24.0065 56 21.2957 56 18.375C56 10.6426 49.7324 4.375 42 4.375ZM51.3748 26.2299C51.3748 26.2299 50.8392 26.8861 49.7796 27.9457C48.72 29.0054 29.2373 48.4873 29.2373 48.4873C28.8951 48.8294 28.448 49 28 49C27.552 49 27.1049 48.8294 26.7628 48.4873C26.7628 48.4873 7.28 29.0045 6.22038 27.9449C5.16075 26.8853 4.62525 26.229 4.62525 26.229C2.83938 24.1019 1.75 21.371 1.75 18.375C1.75 11.6095 7.2345 6.125 14 6.125C17.3827 6.125 20.4452 7.49525 22.6616 9.71338L22.6695 9.7055L26.7628 13.7979C27.4461 14.4812 28.5539 14.4812 29.2373 13.7979L33.3305 9.7055L33.3384 9.71338C35.5548 7.49525 38.6172 6.125 42 6.125C48.7655 6.125 54.25 11.6095 54.25 18.375C54.25 21.371 53.1606 24.1019 51.3748 26.2299Z" fill="#394240"/>
<path d="M42 9.625C41.5161 9.625 41.125 10.0161 41.125 10.5C41.125 10.9839 41.5161 11.375 42 11.375C45.8658 11.375 49 14.5092 49 18.375C49 18.8589 49.3911 19.25 49.875 19.25C50.3589 19.25 50.75 18.8589 50.75 18.375C50.75 13.5433 46.8317 9.625 42 9.625Z" fill="#394240"/>
</g>
<defs>
<clipPath id="clip0_65_763">
<rect width="56" height="56" fill="white"/>
</clipPath>
</defs>
</svg>
