<svg width="56" height="56" viewBox="0 0 56 56" fill="none" xmlns="http://www.w3.org/2000/svg">
<path opacity="0.5" d="M27.5756 2.35376L7.34564 9.12188L4.46688 10.78L4.10376 21.6475L6.70688 40.6219L20.23 47.9281L28.8488 51.0344L35.2056 48.4313L50.155 41.5756C50.155 41.5756 51.6163 41.4575 50.9338 39.2219C50.2513 36.9863 51.1175 15.8856 51.1175 15.8856L51.1963 10.8194C51.1963 10.8194 51.1875 9.62501 47.2281 8.75876C43.2688 7.89251 27.5756 2.35376 27.5756 2.35376Z" fill="white"/>
<path opacity="0.7" d="M4.07312 11.2963L27.895 22.19L50.7587 11.7775C50.7587 11.7775 50.8769 39.5456 50.5181 39.6681C50.3387 39.7294 28.1356 31.0494 28.1356 31.0494L6.3525 39.6681L4.19562 15.7238L4.07312 11.2963Z" fill="#7EC8EE"/>
<path opacity="0.7" d="M28.8531 51.0344L17.7187 46.9656L6.70686 40.6219L6.34811 39.6638L27.2956 30.205L50.5181 39.6638L50.1594 41.58L40.705 46.1256L28.8531 51.0344Z" fill="#63ABDE"/>
<path opacity="0.7" d="M27.5362 2.19623L6.70687 9.25748L4.07312 11.2962L7.665 12.9719L26.9369 21.35L28.4944 21.1094L50.7587 10.4562L27.5362 2.19623Z" fill="#B0E4FF"/>
<path d="M51.1175 39.1956C50.4612 38.5394 37.2269 33.2019 34.6981 32.0906C32.1694 30.9794 31.0537 30.2706 30.5987 29.155C30.1437 28.0394 29.2337 9.11749 29.2337 7.90561C29.2337 6.69374 29.0894 3.15874 27.72 3.15436C26.5956 3.14999 26.355 6.36561 26.355 8.04999C26.355 9.73436 25.9044 27.6544 25.4887 29.2031C24.9812 31.1106 20.2212 32.69 16.1306 34.615C12.0356 36.54 6.57562 38.0406 6.34812 39.6594C6.125 41.2781 7.24937 41.6806 9.33625 43.1244C10.1894 43.715 12.9106 45.2375 16.0781 46.8081C20.6675 49.0831 26.2106 51.3669 28.4944 51.4062C31.71 51.4631 36.4525 48.8556 41.475 46.5062C46.4056 44.2006 50.8112 42.35 51.1656 41.4925C51.7125 40.1756 51.7781 39.8519 51.1175 39.1956ZM41.0725 44.7387C37.7912 46.235 30.1437 49.595 28.3719 49.7481C26.6 49.9012 20.2694 46.8956 17.4431 45.5481C14.2537 44.03 8.085 40.8406 8.435 40.0312C8.78937 39.2219 12.635 37.905 17.9462 35.7306C23.2575 33.5562 28.0131 31.7319 28.0131 31.7319C28.0131 31.7319 31.3031 32.9044 37.0694 35.3762C42.735 37.8044 49.3631 40.6875 49.3631 40.6875C49.3631 40.6875 45.0712 42.9144 41.0725 44.7387Z" fill="#37B4E2"/>
<path d="M27.8075 1.71502C26.0094 1.46565 22.26 3.40377 17.1325 5.15377C11.6594 7.0219 7.04373 8.26877 5.43373 9.07377C4.10811 9.73877 3.44311 10.8238 3.38186 12.2719C3.32498 13.7156 3.20248 17.815 4.28748 28.3063C4.61998 31.5 5.83186 39.62 5.98936 40.1931C6.79873 43.1375 8.14623 41.0288 7.84436 38.7363C7.62998 37.1175 6.93873 33.4294 6.33498 27.2169C5.73123 21.0044 5.12748 13.1688 5.66998 11.8388C6.21248 10.5088 9.69061 9.48502 12.1231 8.76315C19.6612 6.5319 26.355 3.57877 27.8031 3.57877C29.2512 3.57877 39.0775 7.13565 40.7094 7.7394C42.3369 8.34315 49.3325 10.3338 49.6956 11.2963C50.0587 12.2588 49.7569 36.925 49.8181 38.2506C49.8794 39.5763 49.5337 41.2388 50.5137 41.4181C51.4981 41.5931 51.7475 39.9394 51.7475 38.7931C51.7475 37.6469 51.6862 26.6744 51.8087 21.6694C51.9312 16.6644 52.7144 11.7819 51.3275 10.0319C49.9406 8.2819 45.6575 7.38065 38.5437 4.9044C34.1075 3.36877 29.5531 1.95565 27.8075 1.71502Z" fill="#58C4FD"/>
<path d="M6.70249 12.9894L27.685 22.5794L28.77 49.3544L26.425 49.8925L10.4387 42.7788L6.70687 40.6219L4.19562 15.7238L4.76874 12.0881L6.70249 12.9894Z" fill="url(#paint0_radial_65_785)"/>
<path d="M28.2275 22.7019L28.6519 50.5006L47.6437 42.84L50.4787 40.8494L50.3169 38.4344L51.2006 10.8194L48.3087 11.5456L28.2275 22.7019Z" fill="url(#paint1_radial_65_785)"/>
<path d="M6.94312 13.65L18.2787 18.8343L27.7769 22.6625L50.12 11.4187L50.6362 10.9331L27.4181 2.6731L6.03749 9.60747L3.86749 11.1781L3.92874 12.565L6.94312 13.65Z" fill="url(#paint2_radial_65_785)"/>
<path d="M3.41688 44.6775C3.815 45.7713 5.07938 47.0925 7.65188 47.4994C9.77813 47.8363 11.1344 47.4513 12.1581 46.8475C13.0856 46.3006 13.3569 45.0581 13.3175 44.4894C13.265 43.7763 12.5169 42.7219 11.655 42.28C10.7888 41.8338 3.14125 43.925 3.41688 44.6775Z" fill="#37B5E1"/>
<path d="M5.25 41.0987C3.8325 41.9212 2.38438 43.7719 3.67063 45.0581C4.95688 46.3444 9.71688 46.6812 11.5456 45.0144C13.3788 43.3519 11.2088 41.5625 9.73438 40.9062C8.26 40.25 6.7025 40.2544 5.25 41.0987Z" fill="#B0E3FD"/>
<path d="M4.78626 42.5731C4.25251 42.6081 3.43439 43.8244 4.72501 44.7213C6.32626 45.8369 8.55751 45.1631 8.40876 44.4894C8.26001 43.8156 6.70251 43.8594 6.07251 43.5006C5.43814 43.1419 5.39439 42.5294 4.78626 42.5731Z" fill="#FDFEFE"/>
<path d="M12.5606 51.7912C12.1188 52.7844 12.5825 53.9306 14.5994 54.4294C17.7581 55.2081 19.775 54.0794 20.4488 53.4275C21.1225 52.7756 21.2056 51.7431 20.8469 51.4062C20.4881 51.0737 12.5606 51.7912 12.5606 51.7912Z" fill="#37B5E1"/>
<path d="M16.3887 49.7963C13.8425 49.9275 12.6875 51.1744 12.5825 51.765C12.4775 52.3556 13.7112 53.4931 16.5156 53.3575C20.3262 53.1738 20.9387 51.5244 20.9387 51.5244C20.9387 51.5244 20.0331 49.6081 16.3887 49.7963Z" fill="#B0E4FF"/>
<path d="M15.6538 50.89C15.12 50.5444 14.3281 50.7631 13.8425 51.1C13.4531 51.3713 13.2563 52.0056 13.5275 52.3425C13.9694 52.8894 14.8531 52.7231 15.3825 52.3863C15.9031 52.0494 16.24 51.2706 15.6538 50.89Z" fill="white"/>
<path d="M11.5544 9.51564C10.7931 8.39564 7.73938 9.61189 6.56688 10.255C5.39438 10.8981 4.7075 11.7119 4.82563 12.6175C4.94375 13.5231 6.47063 13.9781 8.14188 14.7175C9.81313 15.4569 22.5225 21.2363 23.4806 21.7525C24.8456 22.4919 26.3113 23.4413 26.7488 26.3069C27.0331 28.1925 27.8163 46.2963 27.8469 46.9175C27.9169 48.3875 27.79 50.5181 28.6781 50.4831C29.4569 50.4525 29.2994 48.5144 29.2775 46.8913C29.2556 45.2681 29.4131 27.6194 29.4175 26.425C29.4263 24.9331 29.9075 23.2531 30.9094 22.3694C31.9113 21.4856 33.8144 20.3656 36.0719 19.215C38.7756 17.8413 44.8088 14.875 47.0969 13.8513C49.385 12.8275 50.6975 12.5169 50.6975 11.3925C50.6975 10.2681 45.4956 8.71939 44.8787 8.67127C44.2575 8.62314 43.5925 8.83752 43.7325 9.60314C43.8769 10.3644 44.4587 11.6638 43.2906 12.6875C42.1225 13.7113 39.5938 15.1025 38.15 15.8288C35.6606 17.0756 29.6581 20.2431 27.6063 20.0988C25.5544 19.9544 24.2681 19.5956 21.1881 18.3094C18.1125 17.0231 14.4113 15.1594 12.6 14.1838C11.3138 13.4881 10.43 12.4644 10.5 11.3925C10.5788 10.325 12.215 10.4825 11.5544 9.51564Z" fill="white"/>
<path d="M19.1406 6.93876C19.4338 7.69564 22.0763 6.91689 23.3406 6.53189C24.605 6.15127 26.775 5.46002 28.0656 5.38564C29.3519 5.31564 33.67 6.62814 34.7681 6.84252C35.8663 7.05689 36.82 7.10501 37.0563 6.72439C37.2925 6.34377 35.7438 5.50814 33.5738 4.76876C31.4038 4.02939 28.875 2.86126 27.7988 3.00126C26.6875 3.15001 24.3031 4.23939 22.4088 4.90877C21.2625 5.31564 18.7819 6.00689 19.1406 6.93876Z" fill="white"/>
<defs>
<radialGradient id="paint0_radial_65_785" cx="0" cy="0" r="1" gradientUnits="userSpaceOnUse" gradientTransform="translate(27.0558 25.6688) rotate(140.604) scale(20.1996 26.9332)">
<stop offset="0.1" stop-color="white" stop-opacity="0.9"/>
<stop offset="1" stop-color="#FCFCFC" stop-opacity="0"/>
</radialGradient>
<radialGradient id="paint1_radial_65_785" cx="0" cy="0" r="1" gradientUnits="userSpaceOnUse" gradientTransform="translate(30.3902 23.5573) rotate(34.3686) scale(23.9017 28.3026)">
<stop offset="0.152" stop-color="#32AFE0" stop-opacity="0.9"/>
<stop offset="0.963" stop-color="#32AFE0" stop-opacity="0"/>
</radialGradient>
<radialGradient id="paint2_radial_65_785" cx="0" cy="0" r="1" gradientUnits="userSpaceOnUse" gradientTransform="translate(27.8461 21.648) rotate(-90.1146) scale(20.6273 42.2674)">
<stop offset="0.256" stop-color="#67CCF9" stop-opacity="0.9"/>
<stop offset="0.416" stop-color="#6CCDF9" stop-opacity="0.674"/>
<stop offset="0.616" stop-color="#7CD1F9" stop-opacity="0.392"/>
<stop offset="0.837" stop-color="#95D8F9" stop-opacity="0.081"/>
<stop offset="0.895" stop-color="#9DDAF9" stop-opacity="0"/>
</radialGradient>
</defs>
</svg>
