<svg width="56" height="56" viewBox="0 0 56 56" fill="none" xmlns="http://www.w3.org/2000/svg">
<path d="M48.3537 4.79155V4.79068L39.0176 0.12441L39.0158 0.125285C38.8586 0.0466445 38.6843 0.000488281 38.4963 0.000488281C37.9306 0.000488281 37.4591 0.402988 37.3514 0.936957L34.5128 14.9349L36.7993 15.3988L39.3371 2.89182L47.3111 6.87722C47.4683 6.95499 47.646 7.00027 47.834 7.00027C48.4766 7.00027 48.9994 6.47822 48.9994 5.83389C48.9996 5.37769 48.7365 4.98296 48.3537 4.79155Z" fill="#424953"/>
<path d="M38.4964 12.8337H33.8344C33.831 12.8337 33.831 12.8337 33.8293 12.8337C33.1849 12.8337 32.662 13.3558 32.662 14.0009C32.662 14.6443 33.1849 15.1673 33.8293 15.1673C33.831 15.1673 33.831 15.1673 33.8344 15.1673H38.4964C39.139 15.1673 39.6619 14.6443 39.6619 14.0009C39.6619 13.3559 39.139 12.8337 38.4964 12.8337Z" fill="#8AC054"/>
<path d="M7.00045 54.834C7.00045 55.4765 7.52249 55.9995 8.16682 55.9995H33.8344C34.477 55.9995 34.9999 55.4765 34.9999 54.834V15.1675C34.9999 14.5231 34.477 14.0011 33.8344 14.0011H8.16671C7.52238 14.0011 7.00034 14.5231 7.00034 15.1675L7.00045 54.834Z" fill="#8AC054"/>
<path opacity="0.1" d="M7.00043 15.1674V15.6946L10.7388 20.5626C10.9566 20.8463 11.2924 21.0138 11.6496 21.0189C11.6548 21.0189 11.6599 21.0189 11.6642 21.0189C12.0163 21.0189 12.3495 20.86 12.5717 20.5857L16.3629 15.9015C16.7679 15.4007 16.6911 14.6658 16.1903 14.2608C15.6896 13.855 14.9548 13.9327 14.5489 14.4334L11.6881 17.9675L8.64182 14.0011H8.16669C7.52247 14.0011 7.00043 14.5231 7.00043 15.1674Z" fill="black"/>
<path d="M14.0002 54.834C14.0002 55.4765 14.5223 55.9995 15.1666 55.9995H43.1652C43.8111 55.9995 44.3342 55.4765 44.3342 54.834V15.1675C44.3342 14.5231 43.8112 14.0011 43.1652 14.0011H15.1667C14.5224 14.0011 14.0003 14.5231 14.0003 15.1675V54.834H14.0002Z" fill="#9ED36A"/>
<g opacity="0.2">
<path d="M43.1652 14.0011H40.8342C41.4767 14.0011 41.9997 14.5231 41.9997 15.1675V54.834C41.9997 55.4765 41.4767 55.9995 40.8342 55.9995H43.1652C43.8111 55.9995 44.3342 55.4765 44.3342 54.834V15.1675C44.3342 14.5231 43.8112 14.0011 43.1652 14.0011Z" fill="white"/>
</g>
<path d="M32.6757 25.7356C32.6757 25.0914 32.1528 24.5692 31.5067 24.5692C31.2435 24.5692 30.9974 24.6589 30.8025 24.8085L30.8008 24.8077C30.4846 25.0486 27.7171 27.2386 28.0067 29.8901L30.3274 29.6363C30.201 28.4913 31.6878 27.0703 32.2175 26.6627L32.2158 26.6618C32.4946 26.4482 32.6757 26.1133 32.6757 25.7356Z" fill="#424953"/>
<path d="M29.1664 28.9825C23.6721 26.5669 19.9449 30.3616 19.9449 35.7345C19.9449 41.1058 25.0161 45.8583 29.1664 43.987C33.3165 45.8582 38.387 41.1058 38.387 35.7345C38.387 30.3617 34.6615 26.5669 29.1664 28.9825Z" fill="#EC5564"/>
<g opacity="0.2">
<path d="M31.194 28.3494C34.2069 28.951 36.056 31.951 36.056 35.7345C36.056 39.7951 33.1558 43.5018 29.9481 44.2589C33.9266 45.2655 38.3869 40.7727 38.3869 35.7345C38.387 31.0538 35.5571 27.5701 31.194 28.3494Z" fill="white"/>
</g>
</svg>
