<svg width="56" height="56" viewBox="0 0 56 56" fill="none" xmlns="http://www.w3.org/2000/svg">
<g clip-path="url(#clip0_70_835)">
<path d="M23.9219 11.383L27.9999 4.31982L32.0778 11.383H23.9219Z" fill="#F4CA60"/>
<path d="M39.6263 2.61609L33.2402 17.0458L31.8755 12.9465L28.0001 17.0458L24.1249 12.9465L22.7602 17.0458L16.3741 2.61609L12.1599 22.1342H43.8399L39.6263 2.61609Z" fill="#F4CA60"/>
<path d="M16.9742 29.1446C16.9742 32.1505 14.535 34.5897 11.5291 34.5897C10.5647 34.5897 9.65969 34.3375 8.8763 33.8983C7.21163 32.9695 6.08401 31.1862 6.08401 29.1446C6.08401 27.3642 6.93861 25.7825 8.26509 24.7886C9.17306 24.106 10.3036 23.6995 11.5291 23.6995C14.535 23.6995 16.9742 26.1387 16.9742 29.1446Z" fill="#E5CF98"/>
<path d="M49.916 29.1446C49.916 32.1505 47.4768 34.5897 44.4709 34.5897C44.2483 34.5897 44.0288 34.5749 43.8122 34.5481C41.1178 34.2247 39.0259 31.928 39.0259 29.1446C39.0259 26.1387 41.4651 23.6995 44.471 23.6995C44.5214 23.6995 44.5689 23.6995 44.6164 23.7024C47.557 23.7795 49.916 26.1891 49.916 29.1446Z" fill="#E5CF98"/>
<path d="M32.0564 43.2316V46.3614C32.0564 46.5877 32.038 46.8103 32.0023 47.0268C31.931 47.4646 31.7883 47.879 31.5854 48.2578C30.909 49.5368 29.5611 50.4112 28.0091 50.4112C26.4546 50.4112 25.1092 49.5368 24.4304 48.2578C24.2287 47.8803 24.086 47.4683 24.0135 47.0317C23.9778 46.814 23.9594 46.5902 23.9594 46.3614V43.2316H32.0564Z" fill="#FCE7A7"/>
<path d="M32.0564 43.2316V46.3614C32.0564 46.5877 32.038 46.8103 32.0023 47.0268C30.7209 47.3453 29.3804 47.5138 28.0005 47.5138C26.6256 47.5138 25.2912 47.3465 24.0135 47.0317C23.9778 46.814 23.9594 46.5902 23.9594 46.3614V43.2316H32.0564Z" fill="#E5CF98"/>
<path d="M44.5735 24.1043V29.7123C44.5735 32.6122 43.827 35.3387 42.5184 37.7098C39.6973 42.8209 34.2541 46.284 28.0005 46.284C21.7457 46.284 16.3025 42.8209 13.4813 37.7098C12.1728 35.3387 11.4263 32.6122 11.4263 29.7123V24.1043C11.4263 22.342 11.7018 21.3898 12.211 19.7972C13.0398 17.2084 14.4861 15.8273 16.3788 13.9679C17.3134 13.048 18.3551 12.2387 19.4853 11.5599C21.2329 10.5121 23.1895 9.77666 25.2789 9.43231C26.1644 9.28596 27.0732 9.20972 28.0005 9.20972C28.961 9.20972 29.9018 9.29088 30.818 9.4483C32.9235 9.80864 34.8936 10.5662 36.6473 11.6423C37.7578 12.3211 38.781 13.1291 39.6973 14.0417L39.7194 14.0638C41.6428 15.9872 43.0965 17.4495 43.8909 20.128C44.3349 21.6234 44.5735 22.4638 44.5735 24.1043Z" fill="#FCE7A7"/>
<path d="M27.9995 38.8506C26.5766 38.8506 25.3289 37.9399 24.8949 36.5846C24.8328 36.3906 24.9396 36.1829 25.1337 36.1207C25.328 36.0585 25.5355 36.1654 25.5976 36.3596C25.9333 37.4081 26.8986 38.1127 27.9994 38.1127C29.1002 38.1127 30.0655 37.4081 30.4012 36.3596C30.4635 36.1655 30.6713 36.0585 30.8651 36.1207C31.0592 36.1829 31.166 36.3906 31.1039 36.5846C30.6702 37.9399 29.4225 38.8506 27.9995 38.8506Z" fill="#EA535E"/>
<path d="M24.1983 33.205L28 31.6062L31.8017 33.205H24.1983Z" fill="#E5CF98"/>
<path d="M20.3152 32.6785C18.5817 32.6785 17.1714 31.2682 17.1714 29.5348C17.1714 27.8013 18.5817 26.391 20.3152 26.391C22.0486 26.391 23.4589 27.8013 23.4589 29.5348C23.4588 31.2682 22.0486 32.6785 20.3152 32.6785Z" fill="white"/>
<path d="M35.6844 32.6785C33.9509 32.6785 32.5406 31.2682 32.5406 29.5348C32.5406 27.8013 33.9509 26.391 35.6844 26.391C37.4178 26.391 38.8281 27.8013 38.8281 29.5348C38.8281 31.2682 37.4178 32.6785 35.6844 32.6785Z" fill="white"/>
<path d="M21.391 29.5348C20.7967 29.5348 20.3151 29.0531 20.3151 28.4589C20.3151 28.0877 20.5032 27.7603 20.7894 27.567C20.637 27.5303 20.4787 27.5089 20.3151 27.5089C19.1963 27.5089 18.2892 28.4159 18.2892 29.5349C18.2892 30.6539 19.1963 31.5609 20.3151 31.5609C21.434 31.5609 22.3411 30.6539 22.3411 29.5349C22.3411 29.3713 22.3196 29.2131 22.2831 29.0607C22.0896 29.3467 21.7623 29.5348 21.391 29.5348Z" fill="#4D4D4D"/>
<path d="M36.7602 29.5348C36.166 29.5348 35.6844 29.0531 35.6844 28.4589C35.6844 28.0877 35.8724 27.7603 36.1586 27.567C36.0062 27.5303 35.8479 27.5089 35.6844 27.5089C34.5655 27.5089 33.6584 28.4159 33.6584 29.5349C33.6584 30.6539 34.5655 31.5609 35.6844 31.5609C36.8033 31.5609 37.7104 30.6539 37.7104 29.5349C37.7104 29.3713 37.6888 29.2131 37.6523 29.0607C37.4589 29.3467 37.1316 29.5348 36.7602 29.5348Z" fill="#4D4D4D"/>
<path d="M35.972 54.1031C41.9354 51.0943 45.6964 44.984 45.6964 38.3047V32.4205C45.6964 31.2603 44.4053 30.5664 43.4377 31.2066L40.5857 33.0933C37.8781 34.8844 34.4896 35.3087 31.4241 34.2403C29.2075 33.4677 26.7947 33.4677 24.5781 34.2403C21.5125 35.3087 18.124 34.8844 15.4165 33.0933L12.5644 31.2066C11.5968 30.5664 10.3057 31.2603 10.3057 32.4205V38.3047C10.3057 44.984 14.0667 51.0943 20.0301 54.1031C25.0429 56.6324 30.9589 56.6324 35.972 54.1031Z" fill="#FBB03B"/>
<path d="M28.001 36.1565C25.7174 36.1565 23.866 38.0077 23.866 40.2915C23.866 40.9963 24.4374 41.5677 25.1422 41.5677H30.8597C31.5645 41.5677 32.1359 40.9963 32.1359 40.2915C32.1359 38.0077 30.2846 36.1565 28.001 36.1565Z" fill="#FCE7A7"/>
<path d="M28.1117 39.583C27.5983 39.583 27.085 39.4635 26.5965 39.2245C26.4135 39.135 26.3378 38.914 26.4272 38.731C26.5168 38.548 26.7376 38.4723 26.9208 38.5618C27.7 38.9429 28.5235 38.9429 29.3025 38.5618C29.4854 38.4723 29.7065 38.548 29.796 38.731C29.8857 38.914 29.8098 39.135 29.6268 39.2245C29.1382 39.4635 28.6249 39.583 28.1117 39.583Z" fill="#EA535E"/>
<path d="M43.6963 19.3831V20.4199H12.4056V19.0523C13.2243 16.4636 14.6528 14.1503 16.5223 12.2908L17.6216 15.3321L19.5907 9.88282C21.3167 8.83502 23.2494 8.0996 25.3131 7.75525L28.051 15.3321L30.7842 7.77124C32.8638 8.13157 34.8097 8.88914 36.5419 9.96522L38.4818 15.3321L39.5543 12.3646L39.5762 12.3867C41.4758 14.3101 42.9116 16.7046 43.6963 19.3831Z" fill="#E5CF98"/>
<path d="M12.2112 19.5181L9.41175 23.4792C8.65541 24.5494 8.51054 25.9596 9.10725 27.1264C9.58318 28.0571 10.4619 28.7818 11.5942 29.0083C12.2851 29.1465 12.9507 28.6778 13.0519 27.9805C13.4366 25.3307 14.6843 19.5181 18.2291 19.5181" fill="#E29A3B"/>
<path d="M43.8913 19.5181L46.6907 23.4792C47.447 24.5494 47.5919 25.9596 46.9952 27.1264C46.5193 28.0571 45.6406 28.7818 44.5083 29.0083C43.8174 29.1465 43.1518 28.6778 43.0506 27.9805C42.6659 25.3307 41.4181 19.5181 37.8733 19.5181" fill="#E29A3B"/>
<path d="M43.8399 19.3831V19.5183H12.1599V19.0522C14.2961 12.3707 20.5571 7.53259 27.9495 7.53259C32.5268 7.53259 36.6688 9.38838 39.6684 12.3867C41.5918 14.3101 43.0454 16.7045 43.8399 19.3831Z" fill="#E29A3B"/>
<path d="M43.84 0L38.5599 14.4298L33.28 0L27.9999 14.4298L22.7198 0L17.4399 14.4298L12.1598 0V19.5181H43.84V0Z" fill="#FCD983"/>
<path d="M24.054 29.5997H16.7541C16.1428 29.5997 15.6473 29.1042 15.6473 28.4929V26.9329C15.6473 26.3215 16.1428 25.826 16.7541 25.826H24.054C24.6654 25.826 25.1609 26.3215 25.1609 26.9329V28.4929C25.1609 29.1042 24.6654 29.5997 24.054 29.5997Z" fill="#E29A3B"/>
<path d="M39.2456 29.5997H31.9457C31.3344 29.5997 30.8389 29.1042 30.8389 28.4929V26.9329C30.8389 26.3215 31.3344 25.826 31.9457 25.826H39.2456C39.857 25.826 40.3525 26.3215 40.3525 26.9329V28.4929C40.3524 29.1042 39.8569 29.5997 39.2456 29.5997Z" fill="#E29A3B"/>
</g>
<defs>
<clipPath id="clip0_70_835">
<rect width="56" height="56" fill="white"/>
</clipPath>
</defs>
</svg>
