<svg width="56" height="56" viewBox="0 0 56 56" fill="none" xmlns="http://www.w3.org/2000/svg">
<path d="M50.75 18.55C54.1625 16.275 54.25 12.95 54.25 12.95C50.8375 12.775 50.925 9.275 47.775 6.125C43.575 1.925 38.2375 4.55 38.2375 4.55C38.5 3.2375 37.8 2.45 38.325 1.75C31.15 1.75 28 4.8125 28 4.8125C28 4.8125 24.85 1.75 17.675 1.75C18.1125 2.45 17.5 3.2375 17.7625 4.55C17.7625 4.55 12.3375 1.8375 8.225 6.125C5.075 9.3625 5.1625 12.8625 1.75 12.95C1.75 12.95 1.8375 16.275 5.25 18.55C5.25 18.55 1.6625 21.9625 2.275 29.1375C2.275 29.1375 3.675 27.3875 7.0875 26.775C3.15 30.1 5.425 35 2.5375 38.325C2.5375 38.325 6.5625 39.2 8.225 38.0625C7.6125 43.225 10.7625 45.2375 10.7625 47.775C14.35 46.6375 14.875 43.05 14.875 43.05C14.875 49.6125 17.15 49.35 17.15 52.85C17.15 52.85 21.0875 52.2375 22.75 48.9125C23.3625 51.975 26.5125 52.325 28.175 54.25C29.8375 52.325 32.9 51.975 33.6 48.9125C35.2625 52.15 39.2 52.85 39.2 52.85C39.2 49.35 41.475 49.6125 41.475 43.05C41.475 43.05 42 46.55 45.5875 47.775C45.5875 45.2375 48.7375 43.225 48.125 38.0625C49.7875 39.2 53.8125 38.325 53.8125 38.325C50.925 34.9125 53.2 30.0125 49.2625 26.775C52.5875 27.475 54.075 29.1375 54.075 29.1375C54.3375 21.875 50.75 18.55 50.75 18.55Z" fill="#8F6B51"/>
<path d="M48.7375 6.21256C46.4625 4.37506 39.9 6.38756 37.3625 9.53756C40.425 10.5876 44.0125 13.2126 46.725 19.5126C52.4125 16.7126 51.1 8.13756 48.7375 6.21256Z" fill="#E5BC5E"/>
<path d="M45.5 17.0626C48.825 15.6626 48.125 10.9376 46.8125 9.88756C45.675 8.92506 42.35 9.88756 40.95 11.4626C42.525 12.6876 44.1 14.5251 45.5 17.0626Z" fill="#3E4347"/>
<path d="M18.6375 9.53756C16.1 6.38756 9.53751 4.37506 7.26251 6.21256C4.90001 8.13756 3.50001 16.7126 9.27501 19.5126C12.075 13.3001 15.575 10.5876 18.6375 9.53756Z" fill="#E5BC5E"/>
<path d="M10.5 17.0626C11.9 14.5251 13.475 12.6876 15.05 11.4626C13.5625 9.88756 10.325 8.92506 9.18751 9.88756C7.87501 10.9376 7.17501 15.6626 10.5 17.0626Z" fill="#3E4347"/>
<path d="M42.7875 25.1125C43.225 23.1875 41.3875 18.725 39.725 17.85C39.4625 17.675 38.4125 17.85 38.4125 17.85C38.0625 17.4125 36.4 12.6 32.025 11.725C29.4 11.2875 28 13.475 28 13.475C28 13.475 26.6 11.2 23.975 11.725C19.6 12.5125 17.85 17.4125 17.5875 17.85C17.5875 17.85 16.5375 17.675 16.275 17.85C14.6125 18.8125 12.8625 23.1875 13.2125 25.1125C13.7375 27.475 17.85 29.8375 17.85 33.8625H38.325C38.2375 29.8375 42.35 27.475 42.7875 25.1125Z" fill="#E5BC5E"/>
<path d="M28 14.35L26.8625 16.625L28 23.7125L29.1375 16.625L28 14.35Z" fill="white"/>
<path d="M37.5375 22.75C37.5375 24.2375 36.575 25.375 35.4375 25.375C34.3 25.375 33.3375 24.2375 33.3375 22.75C33.3375 21.2625 34.3 20.125 35.4375 20.125C36.575 20.125 37.5375 21.35 37.5375 22.75Z" fill="#3E4347"/>
<path d="M18.4625 22.75C18.4625 24.2375 19.425 25.375 20.5625 25.375C21.7 25.375 22.6625 24.2375 22.6625 22.75C22.6625 21.2625 21.7 20.125 20.5625 20.125C19.425 20.125 18.4625 21.35 18.4625 22.75Z" fill="#3E4347"/>
<path d="M17.9375 36.575C17.9375 42.175 24.675 46.4625 24.675 46.4625C24.5875 45.325 24.9375 44.45 24.9375 44.45C25.2 46.1125 25.9875 47.3375 25.9875 47.3375C25.9875 45.9375 26.6875 45.325 26.6875 45.325C27.3875 47.25 28.0875 48.0375 28.0875 48.0375C28.0875 48.0375 28.7875 47.25 29.4875 45.325C29.4875 45.325 30.1875 45.9375 30.1875 47.3375C30.1875 47.3375 30.975 46.1125 31.2375 44.45C31.2375 44.45 31.5875 45.4125 31.5 46.4625C31.5 46.4625 38.2375 42.175 38.2375 36.575H17.9375Z" fill="white"/>
<path d="M37.8875 31.9375C37.625 31.4125 33.1625 27.825 33.1625 27.825H22.8375C22.8375 27.825 18.4625 31.325 18.1125 31.9375C17.675 32.8125 17.5875 35.6125 17.9375 36.4875C17.9375 36.4875 22.225 42.9625 28 37.3625C33.775 42.9625 38.0625 36.4875 38.0625 36.4875C38.4125 35.6125 38.325 32.8125 37.8875 31.9375Z" fill="#FFDA87"/>
<path d="M28.875 37.3625V32.2L32.2 30.8C32.725 30.5375 33.1625 29.925 33.1625 29.4V27.9125H22.8375V29.4C22.8375 29.925 23.275 30.5375 23.8 30.8L27.125 32.2V37.3625C22.75 41.3875 18.4625 37.0125 18.025 36.575C18.55 37.3625 22.75 44.3625 28.0875 38.85C33.3375 44.3625 37.625 37.275 38.15 36.575C37.625 37.1 33.25 41.475 28.875 37.3625Z" fill="#3E4347"/>
<path d="M33.1625 27.9125C31.7625 25.375 31.5875 25.2 30.3625 24.5875C29.3125 24.15 26.775 24.15 25.725 24.5875C24.5 25.1125 24.325 25.375 22.925 27.9125H33.1625Z" fill="#FFDA87"/>
<path d="M28 26.5125C24.675 26.5125 22.8375 27.9125 22.8375 27.9125C22.8375 27.9125 23.0125 27.825 24.85 29.1375C25.9875 30.0125 26.95 32.2875 28 32.2875C29.05 32.2875 30.0125 30.0125 31.15 29.1375C32.9875 27.7375 33.1625 27.9125 33.1625 27.9125C33.1625 27.9125 31.325 26.5125 28 26.5125Z" fill="#AF7751"/>
</svg>
