<svg width="56" height="56" viewBox="0 0 56 56" fill="none" xmlns="http://www.w3.org/2000/svg">
<path d="M19.8564 4.66664H36.1433C36.6858 4.6665 37.1016 4.66641 37.4652 4.70197C40.05 4.95483 42.1659 6.50897 43.0631 8.60244H12.9366C13.8338 6.50897 15.9496 4.95483 18.5345 4.70197C18.8981 4.66641 19.3139 4.6665 19.8564 4.66664Z" fill="#5D04D9"/>
<path d="M14.7246 11.0206C11.4798 11.0206 8.81915 12.98 7.93124 15.5795C7.91274 15.6337 7.89498 15.6881 7.87802 15.7429C8.80704 15.4615 9.7739 15.2777 10.7526 15.1523C13.2735 14.8291 16.4593 14.8292 20.1601 14.8294H36.2416C39.9422 14.8292 43.1282 14.8291 45.6491 15.1523C46.6277 15.2777 47.5946 15.4615 48.5235 15.7429C48.5067 15.6881 48.489 15.6337 48.4703 15.5795C47.5825 12.98 44.9218 11.0206 41.6771 11.0206H14.7246Z" fill="#5D04D9"/>
<path d="M26.25 39.6666C26.25 38.7002 25.4665 37.9166 24.5 37.9166C23.5335 37.9166 22.75 38.7002 22.75 39.6666C22.75 40.6331 23.5335 41.4166 24.5 41.4166C25.4665 41.4166 26.25 40.6331 26.25 39.6666Z" fill="#5D04D9"/>
<path fill-rule="evenodd" clip-rule="evenodd" d="M20.2356 17.5981H35.7644C43.6389 17.5981 47.5762 17.5981 49.788 19.9007C51.9995 22.2033 51.4792 25.761 50.4385 32.8758L49.4515 39.6226C48.6353 45.2023 48.2274 47.9921 46.134 49.6627C44.0405 51.3334 40.9528 51.3334 34.7774 51.3334H21.2225C15.0472 51.3334 11.9596 51.3334 9.86612 49.6627C7.77267 47.9921 7.3646 45.2023 6.54844 39.6226L5.56151 32.8758C4.52078 25.7607 4.00042 22.2034 6.21207 19.9007C8.42372 17.5981 12.361 17.5981 20.2356 17.5981ZM29.75 24.5001C29.75 23.5336 28.9665 22.7501 28 22.7501C27.0335 22.7501 26.25 23.5336 26.25 24.5001V34.7154C25.7026 34.5219 25.1137 34.4167 24.5 34.4167C21.6005 34.4167 19.25 36.7673 19.25 39.6667C19.25 42.5661 21.6005 44.9167 24.5 44.9167C27.3994 44.9167 29.75 42.5661 29.75 39.6667V31.0794C31.3138 32.348 33.2773 33.25 35 33.25C35.9665 33.25 36.75 32.4665 36.75 31.5C36.75 30.5336 35.9665 29.75 35 29.75C34.2874 29.75 32.9338 29.24 31.6948 28.1407C30.4859 27.0681 29.75 25.7568 29.75 24.5001Z" fill="#5D04D9"/>
</svg>
