<svg width="56" height="56" viewBox="0 0 56 56" fill="none" xmlns="http://www.w3.org/2000/svg">
<path d="M26.1252 9.02881C22.0873 10.1418 18.0705 12.3958 14.6557 15.7535C7.51682 22.7745 5.22666 32.3808 8.39182 39.3563C8.39649 39.3703 8.39416 39.3808 8.39999 39.3948C9.63549 42.5763 7.99749 45.2153 8.83049 46.0331C9.66232 46.851 12.9908 45.2153 15.4968 46.4193C15.5237 46.4333 15.5423 46.4286 15.5692 46.4391C22.666 49.5868 32.4613 47.3433 39.6165 40.306C43.0302 36.9448 45.3215 32.9933 46.452 29.0231L26.1252 9.02881Z" fill="#E65100"/>
<path d="M29.9938 25.2257L29.9845 25.2152C23.5702 18.9082 20.342 14.2065 20.3863 11.2467C20.4038 10.1745 20.8483 9.64954 21.0397 9.47221C26.0272 4.56637 32.8452 5.61287 39.7192 12.3737C40.2673 12.9111 40.7928 13.4712 41.2942 14.0525C41.6523 14.315 42.6662 15.0827 43.8468 16.2435C49.8458 22.1445 50.645 28.6079 46.0437 33.9757C45.8605 34.1822 45.3553 34.6255 44.3112 34.6617C41.377 34.7655 36.5622 31.591 29.9962 25.2257H29.9938Z" fill="#FFA726"/>
<path d="M42.6218 36.813C43.134 36.1083 43.5937 35.385 44.023 34.6535C41.0678 34.5555 36.3568 31.3926 29.9962 25.228L29.9938 25.2256L29.9845 25.2151C23.6915 19.026 20.475 14.3896 20.3957 11.4216C19.6537 11.844 18.9187 12.2955 18.2023 12.7983C18.942 16.3158 22.2075 20.8413 28.3197 26.8543C35.8412 34.1436 40.0365 36.2763 42.6218 36.813Z" fill="#AA3304"/>
<path d="M13.8238 41.1238C11.6807 39.0156 9.401 37.4651 7.47366 36.6753C7.7 37.6016 8.00333 38.5 8.39183 39.3563C8.3965 39.3703 8.39416 39.3808 8.4 39.3948C9.6355 42.5763 7.9975 45.2153 8.8305 46.0331C9.66233 46.851 12.9908 45.2153 15.4968 46.4193C15.5237 46.4333 15.5423 46.4286 15.5692 46.4391C16.457 46.8323 17.3857 47.1426 18.3458 47.3678C17.5408 45.4755 15.9658 43.232 13.8238 41.1238Z" fill="#FB8C00"/>
<path d="M45.0252 6.34195C44.6912 6.01642 44.2432 5.83423 43.7768 5.83423C43.3104 5.83423 42.8625 6.01642 42.5285 6.34195C42.3651 6.50187 42.2353 6.69281 42.1467 6.90356C42.058 7.11432 42.0124 7.34065 42.0124 7.56928C42.0124 7.79792 42.058 8.02425 42.1467 8.235C42.2353 8.44576 42.3651 8.6367 42.5285 8.79662C43.1585 9.41728 42.8505 11.2233 42.273 12.0551C41.2172 13.3454 39.7355 14.3639 39.0437 14.7431C38.8855 14.8286 38.7496 14.9501 38.6469 15.0977C38.5442 15.2453 38.4775 15.415 38.4523 15.593C38.4272 15.7711 38.4441 15.9526 38.5018 16.1229C38.5595 16.2932 38.6564 16.4476 38.7847 16.5736C39.1463 16.9295 39.718 17.0228 40.187 16.7649C40.327 16.6891 42.8517 15.2879 44.4675 13.0549H44.4687C46.676 10.6773 45.7147 7.01978 45.0252 6.34195Z" fill="#BF360C"/>
</svg>
