<svg width="56" height="56" viewBox="0 0 56 56" fill="none" xmlns="http://www.w3.org/2000/svg">
<path d="M11.382 17.1111C2.47957 31.2402 12.8722 45.1111 12.8722 45.1111C12.8722 45.1111 17.3429 44.4235 23.5667 37.0222C29.7889 29.6209 11.382 17.1111 11.382 17.1111ZM44.5807 17.1111C53.4831 31.2402 43.0905 45.1111 43.0905 45.1111C43.0905 45.1111 38.6198 44.4235 32.396 37.0222C26.1722 29.6209 44.5807 17.1111 44.5807 17.1111Z" fill="#662113"/>
<path d="M23.6491 49.0887C23.4585 48.7535 23.1704 48.4844 22.8231 48.3171C19.6622 44.9384 21.9069 40.9796 21.9069 40.9796C21.9069 39.886 23.884 37.0222 21.9069 37.0222L19.9282 39.0009C17.9496 40.978 17.9496 46.9171 17.9496 46.9171H13.9922C13.4677 46.9171 12.9646 47.1255 12.5937 47.4964C12.2227 47.8673 12.0143 48.3704 12.0143 48.895C12.0143 49.4196 12.2227 49.9226 12.5937 50.2936C12.9646 50.6645 13.4677 50.8729 13.9922 50.8729H16.1825L15.7438 51.1109C15.3037 51.3721 14.9818 51.7934 14.8453 52.2866C14.7089 52.7798 14.7685 53.3067 15.0117 53.7569C15.2549 54.2072 15.6629 54.5459 16.1502 54.7021C16.6375 54.8584 17.1663 54.8201 17.626 54.5953L22.848 51.7704C23.3093 51.5205 23.6527 51.0979 23.8029 50.5951C23.9531 50.0924 23.8978 49.5507 23.6491 49.0887ZM32.354 49.0887C32.5453 48.7324 32.8471 48.4913 33.1785 48.3171C36.3409 44.9384 34.0947 40.9796 34.0947 40.9796C34.0947 39.886 32.1176 37.0222 34.0947 37.0222L36.0733 39.0009C38.0536 40.978 38.0536 46.9171 38.0536 46.9171H42.0109C42.2707 46.9169 42.528 46.968 42.7681 47.0673C43.0082 47.1667 43.2263 47.3125 43.4099 47.4963C43.5936 47.6801 43.7392 47.8983 43.8384 48.1384C43.9376 48.3786 43.9884 48.6359 43.988 48.8958C43.9882 49.1555 43.9372 49.4127 43.8379 49.6526C43.7386 49.8926 43.593 50.1106 43.4094 50.2943C43.2257 50.4779 43.0077 50.6235 42.7677 50.7228C42.5278 50.8221 42.2706 50.8731 42.0109 50.8729H39.8207L40.2578 51.1109C40.4866 51.2346 40.6888 51.4021 40.8528 51.6039C41.0168 51.8058 41.1395 52.0379 41.2139 52.2872C41.2882 52.5364 41.3127 52.7979 41.2859 53.0566C41.2592 53.3153 41.1818 53.5662 41.0581 53.795C40.9344 54.0238 40.7669 54.226 40.5651 54.39C40.3632 54.5541 40.1311 54.6767 39.8818 54.7511C39.6326 54.8254 39.3711 54.8499 39.1124 54.8232C38.8537 54.7964 38.6028 54.719 38.374 54.5953L33.1536 51.7704C32.925 51.6469 32.7229 51.4795 32.559 51.2778C32.3951 51.0762 32.2726 50.8442 32.1983 50.5952C32.1241 50.3461 32.0996 50.0849 32.1263 49.8264C32.153 49.5679 32.2304 49.3172 32.354 49.0887Z" fill="#FFAC33"/>
<path d="M43.988 17.5653C48.4851 8.08885 43.988 1.16663 43.988 1.16663C43.988 1.16663 34.9953 2.6584 33.4973 5.63885C31.6011 9.40951 43.988 17.5653 43.988 17.5653Z" fill="#662113"/>
<path d="M45.9853 19.8147C45.9853 35.8322 41.0822 51.8513 28 51.8513C14.9193 51.8513 10.0131 35.8322 10.0131 19.8147C10.0131 3.79557 18.0662 3.24023 28 3.24023C37.9353 3.24023 45.9853 3.79557 45.9853 19.8147Z" fill="#662113"/>
<path d="M43.036 27.5925C43.036 43.61 30.9431 50.2958 28 50.2958C25.0569 50.2958 12.964 43.61 12.964 27.5925C12.964 11.5733 43.036 11.5733 43.036 27.5925Z" fill="#C1694F"/>
<path d="M12.012 17.5653C7.51488 8.08885 12.012 1.16663 12.012 1.16663C12.012 1.16663 21.0062 2.6584 22.5058 5.63885C24.4004 9.40951 12.012 17.5653 12.012 17.5653Z" fill="#662113"/>
<path d="M23.2229 6.8024C16.6475 4.3384 12.012 1.16663 12.012 1.16663C12.012 1.16663 8.78266 6.17707 10.5684 13.496C11.2622 16.8202 13.5862 20.0215 16.6413 20.748C20.7433 21.7233 28 20.6717 28 14.5833C28 10.3911 26.3293 7.96907 23.2229 6.8024ZM32.7771 6.8024C39.3524 4.3384 43.9864 1.16663 43.9864 1.16663C43.9864 1.16663 47.2158 6.17707 45.43 13.496C44.7378 16.8202 42.4138 20.0215 39.3602 20.748C35.2567 21.7233 28 20.6717 28 14.5833C28 10.3911 29.6707 7.96907 32.7771 6.8024Z" fill="#C1694F"/>
<path d="M25.018 13.0931C25.018 14.6744 24.3898 16.191 23.2716 17.3091C22.1535 18.4273 20.6369 19.0555 19.0556 19.0555C17.4742 19.0555 15.9576 18.4273 14.8395 17.3091C13.7213 16.191 13.0931 14.6744 13.0931 13.0931C13.0931 11.5117 13.7213 9.99515 14.8395 8.87697C15.9576 7.7588 17.4742 7.13062 19.0556 7.13062C20.6369 7.13062 22.1535 7.7588 23.2716 8.87697C24.3898 9.99515 25.018 11.5117 25.018 13.0931ZM42.9069 13.0931C42.9069 14.6744 42.2787 16.191 41.1605 17.3091C40.0424 18.4273 38.5258 19.0555 36.9444 19.0555C35.3631 19.0555 33.8465 18.4273 32.7284 17.3091C31.6102 16.191 30.982 14.6744 30.982 13.0931C30.982 11.5117 31.6102 9.99515 32.7284 8.87697C33.8465 7.7588 35.3631 7.13062 36.9444 7.13062C38.5258 7.13062 40.0424 7.7588 41.1605 8.87697C42.2787 9.99515 42.9069 11.5117 42.9069 13.0931Z" fill="#FFD983"/>
<path d="M22.0376 13.0931C22.0466 13.4903 21.9762 13.8854 21.8305 14.255C21.6847 14.6246 21.4666 14.9614 21.1889 15.2456C20.9111 15.5297 20.5794 15.7555 20.2132 15.9096C19.847 16.0638 19.4537 16.1432 19.0563 16.1432C18.659 16.1432 18.2657 16.0638 17.8995 15.9096C17.5333 15.7555 17.2015 15.5297 16.9238 15.2456C16.6461 14.9614 16.4279 14.6246 16.2822 14.255C16.1364 13.8854 16.066 13.4903 16.0751 13.0931C16.0929 12.3142 16.4148 11.5732 16.972 11.0287C17.5291 10.4841 18.2773 10.1792 19.0563 10.1792C19.8354 10.1792 20.5836 10.4841 21.1407 11.0287C21.6979 11.5732 22.0198 12.3142 22.0376 13.0931ZM39.9265 13.0931C39.9355 13.4903 39.8651 13.8854 39.7194 14.255C39.5736 14.6246 39.3555 14.9614 39.0778 15.2456C38.8 15.5297 38.4683 15.7555 38.1021 15.9096C37.7359 16.0638 37.3426 16.1432 36.9452 16.1432C36.5479 16.1432 36.1546 16.0638 35.7884 15.9096C35.4221 15.7555 35.0904 15.5297 34.8127 15.2456C34.535 14.9614 34.3168 14.6246 34.1711 14.255C34.0253 13.8854 33.9549 13.4903 33.964 13.0931C33.9818 12.3142 34.3037 11.5732 34.8609 11.0287C35.418 10.4841 36.1661 10.1792 36.9452 10.1792C37.7243 10.1792 38.4725 10.4841 39.0296 11.0287C39.5868 11.5732 39.9087 12.3142 39.9265 13.0931Z" fill="#292F33"/>
<path d="M32.4722 19.8007C32.4722 23.506 28 25.018 28 25.018C28 25.018 23.5278 23.5045 23.5278 19.8007C23.5278 16.0969 28 14.5834 28 14.5834C28 14.5834 32.4722 16.0954 32.4722 19.8007Z" fill="#FFCC4D"/>
<path d="M32.4722 19.8007C32.4722 23.506 28 25.018 28 25.018C28 25.018 23.5278 23.5044 23.5278 19.8007C25.3913 21.6642 28 22.0375 28 22.0375C28 22.0375 30.6087 21.6642 32.4722 19.8007Z" fill="#F4900C"/>
</svg>
