<svg width="56" height="56" viewBox="0 0 56 56" fill="none" xmlns="http://www.w3.org/2000/svg">
<path d="M50.1303 14.9512L46.482 18.5995L37.2654 9.3829L40.9137 5.73459C43.7924 2.85589 48.1792 2.59946 50.7159 5.1362C51.9907 6.41091 52.5634 8.15216 52.4494 9.92196C52.3508 11.7073 51.563 13.5185 50.1303 14.9512Z" fill="#FF3B30"/>
<path d="M41.6909 8.92615C41.5709 8.92615 41.4488 8.89935 41.3336 8.84314C40.9283 8.64555 40.7597 8.15653 40.9575 7.75092C42.1245 5.35856 44.8349 4.27148 46.9975 5.32602C47.4027 5.52388 47.5714 6.01278 47.3735 6.41829C47.1754 6.82342 46.6872 6.99164 46.2811 6.79449C44.9283 6.13468 43.1977 6.88483 42.426 8.46727C42.2844 8.75739 41.9936 8.92615 41.6909 8.92615Z" fill="white"/>
<path d="M7.8306 38.7272L38.1697 8.51233L47.4108 17.7535L16.6777 48.3208M8.81006 50.3144L3.46353 52.4011L5.33417 46.8385L8.81006 50.3144Z" fill="#152B3C"/>
<path d="M13.1638 38.76L9.74357 38.7601L7.8306 38.7272L5.33417 46.8384L8.80989 50.3142L16.6777 48.3207L16.9455 45.848L16.9469 42.5457L13.087 43.0779L13.1638 38.76Z" fill="#FCB814"/>
<path d="M47.1176 3.4397C47.5199 3.68092 47.8988 3.96836 48.2419 4.31153C49.5166 5.58618 50.0893 7.32749 49.9753 9.09717C49.8768 10.8827 49.089 12.6936 47.6562 14.1265L45.6573 16.1254L47.3066 17.7748L50.1302 14.9512C51.563 13.5183 52.3508 11.7074 52.4493 9.92186C52.5634 8.15223 51.9906 6.41087 50.7159 5.13621C49.7304 4.15058 48.4646 3.59206 47.1176 3.4397Z" fill="black"/>
<path d="M37.5569 9.00091L42.5591 15.4177C43.45 16.5606 43.3515 18.1879 42.3292 19.2149L16.9519 44.7099L16.6777 48.3208L47.4108 17.7535L38.1697 8.51233L37.5569 9.00091Z" fill="black"/>
<path d="M14.7168 47.2627L7.63898 49.1433L8.80989 50.3143L16.6777 48.3208L16.9455 45.848L16.9469 42.5458L16.1135 42.6607L14.7168 47.2627Z" fill="black"/>
<path d="M17.3889 33.9853C17.2816 33.9854 17.1754 33.9643 17.0763 33.9233C16.9772 33.8822 16.8871 33.822 16.8114 33.746C16.4923 33.4271 16.4923 32.9098 16.8114 32.591L35.0913 14.3111C35.4105 13.992 35.9273 13.992 36.2464 14.3111C36.5654 14.6299 36.5654 15.1472 36.2464 15.4661L17.9664 33.7461C17.8907 33.822 17.8007 33.8823 17.7015 33.9233C17.6024 33.9644 17.4962 33.9854 17.3889 33.9853Z" fill="white"/>
</svg>
