<svg width="56" height="56" viewBox="0 0 56 56" fill="none" xmlns="http://www.w3.org/2000/svg">
<path d="M36.3125 38.5C46.7024 38.5 55.125 30.0774 55.125 19.6875C55.125 9.29764 46.7024 0.875 36.3125 0.875C25.9226 0.875 17.5 9.29764 17.5 19.6875C17.5 30.0774 25.9226 38.5 36.3125 38.5Z" fill="#EAEAEA"/>
<path d="M50.75 35.875C51.7165 35.875 52.5 35.0915 52.5 34.125C52.5 33.1585 51.7165 32.375 50.75 32.375C49.7835 32.375 49 33.1585 49 34.125C49 35.0915 49.7835 35.875 50.75 35.875Z" stroke="#4C241D" stroke-width="1.75" stroke-linecap="round" stroke-linejoin="round"/>
<path d="M6.23789 48.125L3.65839 50.7045" stroke="#4C241D" stroke-width="1.75" stroke-linecap="round" stroke-linejoin="round"/>
<path d="M3.65839 48.125L6.23789 50.7045" stroke="#4C241D" stroke-width="1.75" stroke-linecap="round" stroke-linejoin="round"/>
<path d="M49 10.5C49.4832 10.5 49.875 10.1082 49.875 9.625C49.875 9.14175 49.4832 8.75 49 8.75C48.5168 8.75 48.125 9.14175 48.125 9.625C48.125 10.1082 48.5168 10.5 49 10.5Z" fill="#4C241D"/>
<path d="M40.25 31.5H41.1871C41.65 31.4999 42.1084 31.591 42.5362 31.768C42.9639 31.9451 43.3525 32.2047 43.6799 32.532C44.0073 32.8593 44.267 33.2479 44.4441 33.6755C44.6213 34.1032 44.7125 34.5616 44.7125 35.0245C44.7125 35.9593 44.3412 36.8557 43.6802 37.5167C43.0192 38.1777 42.1228 38.549 41.188 38.549H40.25V31.5Z" fill="#FFDED5" stroke="#4C241D" stroke-width="1.75" stroke-linecap="round" stroke-linejoin="round"/>
<path d="M21.875 55.125V47.25H32.375V55.125" fill="#FFDED5"/>
<path d="M21.875 55.125V47.25H32.375V55.125" stroke="#4C241D" stroke-width="1.75" stroke-linecap="round" stroke-linejoin="round"/>
<path d="M14.0866 38.5491H13.1495C12.6866 38.5492 12.2282 38.4581 11.8005 38.281C11.3728 38.104 10.9841 37.8444 10.6568 37.5171C10.3294 37.1898 10.0697 36.8012 9.89251 36.3735C9.71533 35.9459 9.62414 35.4875 9.62414 35.0246C9.62414 34.0898 9.99547 33.1933 10.6564 32.5324C11.3174 31.8714 12.2139 31.5001 13.1486 31.5001H14.0866V38.5491Z" fill="#FFDED5" stroke="#4C241D" stroke-width="1.75" stroke-linecap="round" stroke-linejoin="round"/>
<path d="M45.5 19.25C45.5014 18.2495 45.1594 17.2788 44.5311 16.5002C43.9028 15.7215 43.0264 15.182 42.0482 14.9718C41.07 14.7617 40.0494 14.8935 39.1567 15.3454C38.2641 15.7973 37.5535 16.5418 37.1438 17.4545C33.9308 16.3 30.539 15.7229 27.125 15.75C23.711 15.7229 20.3192 16.3 17.1063 17.4545C16.843 16.868 16.4536 16.3468 15.9658 15.928C15.478 15.5093 14.9038 15.2033 14.2842 15.0319C13.6645 14.8605 13.0147 14.8279 12.381 14.9364C11.7474 15.0449 11.1454 15.2919 10.6182 15.6598C10.0909 16.0276 9.65129 16.5072 9.33065 17.0645C9.01 17.6217 8.81624 18.2428 8.76318 18.8835C8.71011 19.5242 8.79904 20.1687 9.02363 20.7711C9.24823 21.3735 9.60295 21.919 10.0625 22.3685C9.23354 23.4952 8.77492 24.8515 8.75001 26.25C8.75001 32.0487 16.975 36.75 27.125 36.75C37.275 36.75 45.5 32.0487 45.5 26.25C45.4751 24.8515 45.0165 23.4952 44.1875 22.3685C44.6032 21.9626 44.9335 21.4775 45.1589 20.9419C45.3843 20.4064 45.5003 19.8311 45.5 19.25Z" fill="#D6D6D6" stroke="#4C241D" stroke-width="1.75" stroke-linecap="round" stroke-linejoin="round"/>
<path d="M38.5 28C36.0841 28 34.125 26.8249 34.125 25.375C34.125 25.3566 34.1329 25.3409 34.1337 25.3225C30.1359 25.0801 27.125 24.0205 27.125 22.75C27.125 24.0205 24.1141 25.0801 20.1163 25.3225C20.1163 25.3409 20.125 25.3566 20.125 25.375C20.125 26.8249 18.1659 28 15.75 28C15.1596 28.0012 14.5715 27.9268 14 27.7786V36.6625C14 38.2827 14.3191 39.887 14.9391 41.3839C15.5592 42.8807 16.4679 44.2408 17.6136 45.3864C19.9273 47.7002 23.0654 49 26.3375 49H27.9125C29.5327 49 31.137 48.6809 32.6339 48.0609C34.1307 47.4408 35.4908 46.5321 36.6364 45.3864C37.7821 44.2408 38.6908 42.8807 39.3109 41.3839C39.9309 39.887 40.25 38.2827 40.25 36.6625V27.7786C39.6785 27.9268 39.0904 28.0012 38.5 28Z" fill="#FFDED5" stroke="#4C241D" stroke-width="1.75" stroke-linecap="round" stroke-linejoin="round"/>
<path d="M21.8163 33.4364C21.5874 33.7182 21.299 33.946 20.9717 34.1032C20.6444 34.2605 20.2864 34.3435 19.9233 34.3461C19.5602 34.3488 19.201 34.2711 18.8715 34.1187C18.5419 33.9663 18.2502 33.7428 18.0171 33.4644" stroke="#4C241D" stroke-width="1.75" stroke-linecap="round" stroke-linejoin="round"/>
<path d="M35.8163 33.4364C35.5874 33.7182 35.299 33.946 34.9717 34.1032C34.6444 34.2605 34.2864 34.3435 33.9233 34.3461C33.5602 34.3488 33.201 34.2711 32.8715 34.1187C32.5419 33.9663 32.2502 33.7428 32.0171 33.4644" stroke="#4C241D" stroke-width="1.75" stroke-linecap="round" stroke-linejoin="round"/>
<path d="M28.8163 39.5614C28.5874 39.8432 28.299 40.071 27.9717 40.2282C27.6444 40.3855 27.2864 40.4685 26.9233 40.4711C26.5602 40.4738 26.201 40.3961 25.8715 40.2437C25.5419 40.0913 25.2502 39.8678 25.0171 39.5894" stroke="#E66353" stroke-width="1.75" stroke-linecap="round" stroke-linejoin="round"/>
<path d="M14 42.875C14 40.9421 13.2169 38.5 12.25 38.5C11.2831 38.5 10.5 40.9421 10.5 42.875C10.5 44.8079 11.2831 45.5 12.25 45.5C13.2169 45.5 14 44.8079 14 42.875Z" fill="#FFCE56" stroke="#4C241D" stroke-width="1.75" stroke-linecap="round" stroke-linejoin="round"/>
<path d="M43.75 42.875C43.75 40.9421 42.9625 38.5 42 38.5C41.0375 38.5 40.25 40.9421 40.25 42.875C40.25 44.8079 41.0375 45.5 42 45.5C42.9625 45.5 43.75 44.8079 43.75 42.875Z" fill="#FFCE56" stroke="#4C241D" stroke-width="1.75" stroke-linecap="round" stroke-linejoin="round"/>
<path d="M16.3625 9.625H37.8875C38.5141 9.625 39.115 9.87391 39.558 10.317C40.0011 10.76 40.25 11.3609 40.25 11.9875V13.125H14V11.9875C14 11.3609 14.2489 10.76 14.692 10.317C15.135 9.87391 15.7359 9.625 16.3625 9.625Z" fill="#FC8C29" stroke="#4C241D" stroke-width="1.75" stroke-linecap="round" stroke-linejoin="round"/>
<path d="M18.375 13.125H14V5.25H15.75L18.375 13.125Z" fill="#FFCE56" stroke="#4C241D" stroke-width="1.75" stroke-linecap="round" stroke-linejoin="round"/>
<path d="M25.375 13.125H21L22.75 5.25L25.375 13.125Z" fill="#FFCE56" stroke="#4C241D" stroke-width="1.75" stroke-linecap="round" stroke-linejoin="round"/>
<path d="M28.875 13.125H33.25L31.5 5.25L28.875 13.125Z" fill="#FFCE56" stroke="#4C241D" stroke-width="1.75" stroke-linecap="round" stroke-linejoin="round"/>
<path d="M35.875 13.125H40.25V5.25H38.5L35.875 13.125Z" fill="#FFCE56" stroke="#4C241D" stroke-width="1.75" stroke-linecap="round" stroke-linejoin="round"/>
<path d="M14.875 5.25C15.8415 5.25 16.625 4.4665 16.625 3.5C16.625 2.5335 15.8415 1.75 14.875 1.75C13.9085 1.75 13.125 2.5335 13.125 3.5C13.125 4.4665 13.9085 5.25 14.875 5.25Z" fill="#FFCE56" stroke="#4C241D" stroke-width="1.75" stroke-linecap="round" stroke-linejoin="round"/>
<path d="M39.375 5.25C40.3415 5.25 41.125 4.4665 41.125 3.5C41.125 2.5335 40.3415 1.75 39.375 1.75C38.4085 1.75 37.625 2.5335 37.625 3.5C37.625 4.4665 38.4085 5.25 39.375 5.25Z" fill="#FFCE56" stroke="#4C241D" stroke-width="1.75" stroke-linecap="round" stroke-linejoin="round"/>
<path d="M31.5 5.25C32.4665 5.25 33.25 4.4665 33.25 3.5C33.25 2.5335 32.4665 1.75 31.5 1.75C30.5335 1.75 29.75 2.5335 29.75 3.5C29.75 4.4665 30.5335 5.25 31.5 5.25Z" fill="#FFCE56" stroke="#4C241D" stroke-width="1.75" stroke-linecap="round" stroke-linejoin="round"/>
<path d="M22.75 5.25C23.7165 5.25 24.5 4.4665 24.5 3.5C24.5 2.5335 23.7165 1.75 22.75 1.75C21.7835 1.75 21 2.5335 21 3.5C21 4.4665 21.7835 5.25 22.75 5.25Z" fill="#FFCE56" stroke="#4C241D" stroke-width="1.75" stroke-linecap="round" stroke-linejoin="round"/>
<path d="M27.125 19.25C33.5877 19.25 38.1981 19.9789 40.25 20.9947L41.125 13.125H13.125L14 20.9947C16.0519 19.9789 20.6623 19.25 27.125 19.25Z" fill="#FFCE56" stroke="#4C241D" stroke-width="1.75" stroke-linecap="round" stroke-linejoin="round"/>
</svg>
