<svg width="56" height="56" viewBox="0 0 56 56" fill="none" xmlns="http://www.w3.org/2000/svg">
<g clip-path="url(#clip0_71_1058)">
<path d="M56 0H0V56H56V0Z" fill="white" fill-opacity="0.01"/>
<path d="M43.1667 21H12.8333C11.5447 21 10.5 22.0447 10.5 23.3333V46.6667C10.5 47.9553 11.5447 49 12.8333 49H43.1667C44.4553 49 45.5 47.9553 45.5 46.6667V23.3333C45.5 22.0447 44.4553 21 43.1667 21Z" fill="#2F88FF" stroke="black" stroke-width="4.66667"/>
<path d="M19.8333 32.6667C21.122 32.6667 22.1667 31.622 22.1667 30.3333C22.1667 29.0447 21.122 28 19.8333 28C18.5447 28 17.5 29.0447 17.5 30.3333C17.5 31.622 18.5447 32.6667 19.8333 32.6667Z" fill="white"/>
<path d="M36.1666 32.6667C37.4553 32.6667 38.5 31.622 38.5 30.3333C38.5 29.0447 37.4553 28 36.1666 28C34.878 28 33.8333 29.0447 33.8333 30.3333C33.8333 31.622 34.878 32.6667 36.1666 32.6667Z" fill="white"/>
<path d="M23.3333 37.3334C22.0446 37.3334 21 38.378 21 39.6667C21 40.9554 22.0446 42 23.3333 42V37.3334ZM32.6667 42C33.9554 42 35 40.9554 35 39.6667C35 38.378 33.9554 37.3334 32.6667 37.3334V42ZM23.3333 42H32.6667V37.3334H23.3333V42Z" fill="white"/>
<path d="M28 11.6666V21" stroke="black" stroke-width="4.66667" stroke-linecap="round" stroke-linejoin="round"/>
<path d="M4.66666 30.3334V39.6667" stroke="black" stroke-width="4.66667" stroke-linecap="round" stroke-linejoin="round"/>
<path d="M51.3333 30.3334V39.6667" stroke="black" stroke-width="4.66667" stroke-linecap="round" stroke-linejoin="round"/>
<path d="M28 11.6667C29.2887 11.6667 30.3334 10.622 30.3334 9.33333C30.3334 8.04467 29.2887 7 28 7C26.7114 7 25.6667 8.04467 25.6667 9.33333C25.6667 10.622 26.7114 11.6667 28 11.6667Z" stroke="black" stroke-width="4.66667"/>
</g>
<defs>
<clipPath id="clip0_71_1058">
<rect width="56" height="56" fill="white"/>
</clipPath>
</defs>
</svg>
