<svg width="56" height="56" viewBox="0 0 56 56" fill="none" xmlns="http://www.w3.org/2000/svg">
<path d="M51.5375 41.5624H16.1C16.1 35.0874 21.0875 25.1999 21.0875 25.1999C21 24.7624 21.525 24.1499 22.05 24.1499L33.1625 18.9874C33.425 18.6374 34.3 18.7249 34.475 18.9874L45.5875 24.1499C46.1125 24.1499 46.6375 24.7624 46.55 25.1999C46.55 25.1999 51.5375 35.1749 51.5375 41.5624Z" fill="#7D593E"/>
<path d="M31.2375 50.4C31.2375 50.4 25.2875 51.45 23.8875 50.4C21.9625 48.9125 25.025 42 26.95 40.5125C26.95 40.5125 30.975 40.1625 32.2875 41.3875C32.2 41.3 30.1875 46.9875 31.2375 50.4Z" fill="#64892F"/>
<path d="M42.2625 50.8375C42.2625 50.8375 37.5375 50.575 36.6625 49.4375C35.4375 47.95 38.85 43.225 40.6 42.4375C40.6 42.4375 43.75 42.9625 44.5375 44.1C44.5375 44.1 42.0875 48.0375 42.2625 50.8375Z" fill="#64892F"/>
<path d="M4.98749 17.5875C4.98749 17.5875 12.425 10.15 13.9125 16.1C14 16.0125 7.52499 23.625 4.98749 17.5875Z" fill="#4B662B"/>
<path d="M21.525 7.52506C16.3625 1.92506 -4.2 7.43755 3.4125 16.1876C3.4125 16.1876 6.7375 14.4376 12.95 14.5251C8.05 18.9001 4.9875 17.5001 4.9875 17.5001C4.9875 20.3001 6.3 22.5751 11.4625 22.5751C17.85 22.5751 10.9375 39.9001 16.625 39.9001C19.95 39.9001 20.65 26.1626 20.9125 25.3751C22.225 21.0001 24.9375 11.2876 21.525 7.52506Z" fill="#83BF4F"/>
<path d="M53.2875 38.85C54.3375 40.25 54.425 43.75 54.075 44.5375C53.725 45.2375 53.2 43.575 52.5 42C51.275 39.2875 48.9125 38.7625 50.575 37.7125C51.275 37.1875 52.7625 38.15 53.2875 38.85Z" fill="#83BF4F"/>
<path d="M33.775 25.2875L25.55 28.7L23.975 37.5375H43.6625L42.0875 28.7L33.775 25.2875Z" fill="#C1875D"/>
<path d="M45.5875 24.15C42.4375 21 38.7625 19.075 34.475 18.9875V24.325L42.525 27.3875L45.5875 24.15Z" fill="#C1875D"/>
<path d="M33.1625 24.2375V18.9C28.875 18.9875 25.2 20.9125 22.05 24.0625L25.1125 27.3L33.1625 24.2375Z" fill="#C1875D"/>
<path d="M46.55 25.2001L43.1375 28.7001L44.8875 37.5376H52.325C51.45 32.7251 49.35 28.4376 46.55 25.2001Z" fill="#C1875D"/>
<path d="M24.5 28.7001L21.0875 25.2001C19.6875 26.7751 18.4625 29.4876 16.625 30.1001C14.525 30.8001 15.75 37.6251 22.75 37.6251L24.5 28.7001Z" fill="#C1875D"/>
<path d="M15.3125 39.4625H52.325C52.325 44.3625 48.125 46.2875 33.775 46.2875C19.425 46.2875 15.3125 44.3625 15.3125 39.4625Z" fill="#FFD93B"/>
<path d="M26.3375 39.4625C26.425 40.1625 26.6 40.775 26.775 41.3875C26.95 42 27.2125 42.6125 27.5625 43.1375C27.9125 43.6625 28.2625 44.1875 28.7 44.7125C29.1375 45.2375 29.6625 45.675 30.1 46.2C29.4 46.025 28.7875 45.5875 28.175 45.15C27.65 44.7125 27.125 44.1 26.775 43.4875C26.425 42.875 26.1625 42.175 26.075 41.475C26.075 40.8625 26.075 40.1625 26.3375 39.4625Z" fill="#AF921B"/>
<path d="M41.3 39.4625C41.5625 40.075 41.5625 40.8625 41.475 41.5625C41.3875 42.2625 41.125 42.9625 40.775 43.575C40.425 44.1875 39.9 44.8 39.375 45.2375C38.85 45.675 38.15 46.025 37.45 46.2875C37.975 45.7625 38.4125 45.325 38.85 44.8C39.2875 44.275 39.6375 43.75 39.9875 43.225C40.3375 42.7 40.6 42.0875 40.775 41.475C41.0375 40.775 41.2125 40.1625 41.3 39.4625Z" fill="#AF921B"/>
<path d="M12.8625 12.25C14.1189 12.25 15.1375 11.2314 15.1375 9.97495C15.1375 8.7185 14.1189 7.69995 12.8625 7.69995C11.606 7.69995 10.5875 8.7185 10.5875 9.97495C10.5875 11.2314 11.606 12.25 12.8625 12.25Z" fill="#3E4347"/>
<path d="M4.02501 10.5L3.41251 10.7625L3.67501 10.0625L4.28751 9.71252L4.02501 10.5Z" fill="#4B662B"/>
<path d="M26.075 53.2875C26.075 53.2875 18.2875 54.95 16.3625 53.2875C13.825 51.0125 17.85 40.425 20.3875 38.15C20.3875 38.15 25.725 37.625 27.475 39.4625C27.3875 39.4625 24.7625 48.125 26.075 53.2875Z" fill="#83BF4F"/>
<path d="M18.8125 53.2875C17.85 50.8375 16.275 49.175 15.8375 49.175C15.3125 49.175 14.2625 50.6625 14.2625 53.55C14.35 54.5125 19.3375 54.5125 18.8125 53.2875Z" fill="#6EA03F"/>
<path d="M53.8125 45.5C53.8125 45.5 49.7875 52.4125 47.775 52.325C45.0625 52.15 39.2 45.7625 41.475 38.5C41.475 38.5 46.375 37.8 48.3875 38.15C48.3875 38.0625 46.9875 44.275 53.8125 45.5Z" fill="#83BF4F"/>
<path d="M49.525 50.925C47.775 49.7875 45.9375 49.4375 45.675 49.7C45.325 49.9625 45.2375 51.5375 46.55 53.55C46.9875 54.1625 50.4 51.5375 49.525 50.925Z" fill="#6EA03F"/>
</svg>
