<svg width="56" height="56" viewBox="0 0 56 56" fill="none" xmlns="http://www.w3.org/2000/svg">
<path d="M1.75 1.75L5.6 6.9125C5.8625 6.3875 6.2125 5.8625 6.475 5.25L1.75 1.75Z" fill="#FF9C70"/>
<path d="M7.9625 10.0625C8.575 9.27502 9.1875 8.48752 9.7125 7.70002L6.5625 5.33752C6.3 5.86252 5.95 6.38752 5.6875 7.00002L7.9625 10.0625Z" fill="#FFE76E"/>
<path d="M10.15 13.0375L13.0375 10.15L9.71249 7.69995C9.09999 8.48745 8.48749 9.27495 7.96249 10.0625L10.15 13.0375Z" fill="#D3FF75"/>
<path d="M12.3375 15.925L16.5375 12.775L13.125 10.2375L10.2375 13.125L12.3375 15.925Z" fill="#59FFBA"/>
<path d="M14.35 18.6375C16.275 17.5875 18.2 16.45 20.0375 15.4L16.45 12.6875L12.25 15.8375L14.35 18.6375Z" fill="#73DEFF"/>
<path d="M20.125 15.4C18.2 16.45 16.275 17.5875 14.4375 18.6375L17.85 23.1875L22.1375 18.9L23.3625 17.675L20.125 15.4Z" fill="#8387F7"/>
<path d="M28.2625 15.575C28.2625 15.575 31.9375 9.36255 47.6875 7.87505C31.675 6.12505 27.125 11.9 27.125 11.9C27.125 11.9 27.7375 14.2625 28.2625 15.575Z" fill="#FF639B"/>
<path d="M27.2125 16.45C27.2125 16.45 35.0875 10.9376 49.175 11.9001L36.3125 18.1126C36.3125 18.1126 43.6625 19.1626 53.6375 19.7751L43.225 23.1876C43.225 23.1876 46.9 25.4626 53.55 27.6501L46.55 28.7001C46.55 28.7001 52.0625 29.0501 54.1625 34.1251L49.35 33.7751C49.35 33.7751 51.5375 38.9376 54.1625 41.9126L49.6125 39.2876C49.6125 39.2876 52.2375 43.7501 54.1625 48.1251L49.4375 46.7251C51.625 51.8876 53.6375 54.0751 53.6375 54.0751C41.825 50.5751 27.2125 16.45 27.2125 16.45Z" fill="#FF639B"/>
<path d="M25.725 17.85C25.725 17.85 36.1375 13.125 50.8375 16.45L34.9125 19.6C34.9125 19.6 45.5875 20.125 52.0625 24.675H41.825C41.825 24.675 48.2125 26.1625 51.1 30.8875L45.0625 30.275C45.0625 30.275 51.625 33.075 54.25 38.675L47.8625 35.35C47.8625 35.35 52.9375 38.0625 52.2375 47.075L48.5625 39.375C48.5625 39.375 49.9625 48.7375 52.7625 50.925L48.9125 50.8375C50.6625 52.7625 51.5375 54.25 51.5375 54.25H42.0875L25.725 17.85Z" fill="#FCA9C9"/>
<path d="M24.675 16.625C24.675 16.625 24.15 12.775 26.95 7.08752C26.95 7.08752 30.5375 11.55 31.4125 19.5125L24.675 16.625Z" fill="#B2C1C0"/>
<path d="M9.10001 47.1625C10.4125 48.0375 13.475 44.5375 16.975 43.925C30.1 41.475 27.65 36.4 27.65 36.4C31.2375 40.8625 25.725 51.3625 22.575 54.25H49.175C49 19.25 27.2125 16.45 27.2125 16.45C26.5125 10.15 21.0875 7 21.0875 7C19.425 10.9375 20.2125 17.9375 20.2125 17.9375C17.5 22.6625 3.67501 35.7 2.10001 37.625C0.525012 39.55 5.42501 45.325 5.42501 45.325C6.73751 45.5 8.40001 46.6375 9.10001 47.1625Z" fill="#EFF6F7"/>
<path d="M13.2125 45.5C13.9125 44.975 15.575 43.925 18.1125 43.4C19.8625 43.05 21.525 42.525 23.1 41.825C24.675 41.125 26.075 40.1625 26.95 38.675C27.7375 37.275 27.7375 35.4375 27.125 33.8625C28.0875 35.2625 28.4375 37.275 27.5625 39.025C26.775 40.775 25.1125 41.9125 23.45 42.6125C21.7875 43.4 20.0375 43.8375 18.2 44.1C16.1 44.3625 14.0875 45.15 13.2125 45.5Z" fill="#B2C1C0"/>
<path d="M5.42501 40.075C4.98751 40.425 3.85001 40.6 3.50001 40.1625C3.15001 39.725 3.76251 38.7625 4.20001 38.5C4.63751 38.15 5.25001 38.2375 5.60001 38.675C5.95001 39.2 5.86251 39.8125 5.42501 40.075Z" fill="#B2C1C0"/>
<path d="M13.9125 37.7125C13.825 39.725 12.775 41.7375 11.2 43.1375C10.4125 43.8375 9.45002 44.45 8.48752 44.8C7.52502 45.15 6.38752 45.325 5.33752 45.325C7.35002 44.7125 9.18753 43.8375 10.5875 42.525C11.2875 41.9125 11.9 41.125 12.5125 40.3375C13.0375 39.55 13.5625 38.675 13.9125 37.7125Z" fill="#B2C1C0"/>
<path d="M14.35 30.8C14.35 30.8 15.1375 30.1875 15.8375 30.3625C15.8375 30.3625 14.875 31.325 15.575 32.9C15.575 32.9 16.3625 31.0625 17.7625 30.975C17.7625 30.975 16.8 32.2875 18.025 33.5125C18.025 33.5125 18.2875 31.675 20.0375 31.0625C20.0375 31.0625 19.775 32.025 20.65 33.25C20.65 33.25 20.3875 31.5875 21.6125 30.7125C22.8375 29.925 24.2375 29.4 24.85 27.3875C24.85 27.3875 21.875 30.45 17.7625 29.575C16.8 29.225 15.225 28.9625 14.35 30.8Z" fill="#3E4347"/>
<path d="M22.225 18.9001C20.7375 16.9751 21.7 11.5501 21.875 10.7626C22.05 9.88756 26.95 13.2126 25.6375 19.0751C25.55 19.6001 25.2875 20.1251 24.7625 20.1251C24.2375 20.1251 24.2375 18.6376 24.5 17.6751C24.7625 16.7126 24.15 17.6751 23.975 18.2876C23.7125 18.9876 23.5375 18.4626 23.625 17.7626C23.7125 17.0626 23.1 18.4626 23.275 19.2501C23.3625 20.0376 23.275 20.2126 22.225 18.9001Z" fill="#B2C1C0"/>
<path d="M4.37501 36.8376C3.93751 37.1001 4.02501 37.2751 4.37501 37.1001C4.81251 36.9251 6.73751 36.4876 6.91252 38.5001C6.91252 38.5001 7.00002 39.4626 7.26252 38.5001C7.52502 37.6251 7.00002 35.2626 4.37501 36.8376Z" fill="#B2C1C0"/>
<path d="M20.125 15.75C20.125 15.75 22.4875 25.375 31.9375 30.275C31.9375 30.275 8.66251 25.2 20.125 15.75Z" fill="#FF639B"/>
<path d="M27.2125 16.45C27.2125 16.45 33.1625 32.2 45.4125 36.575C33.3375 25.025 36.3125 18.55 26.6875 14C26.6875 14 26.6875 15.1375 27.2125 16.45Z" fill="#FF639B"/>
<path d="M27.7375 36.4C27.7375 36.4 33.25 39.9875 29.225 54.25H22.6625C22.6625 54.25 30.8 44.45 27.7375 36.4Z" fill="#B2C1C0"/>
</svg>
