<svg width="56" height="56" viewBox="0 0 56 56" fill="none" xmlns="http://www.w3.org/2000/svg">
<path d="M23.3817 49.3097C23.6206 46.8361 24.8255 46.1195 25.6226 46.0057C28.4917 45.5953 27.8889 44.646 27.2807 44.3476C23.9496 42.7175 26.6157 39.2078 27.1889 38.4378C29.2512 35.6772 32.7329 37.5716 32.7329 37.5716C32.4441 33.5107 35.8225 33.7207 37.5279 32.7731C45.2935 28.4646 38.6575 22.036 36.3405 19.719C34.0252 17.402 27.5957 10.7651 23.2872 18.5316C22.3405 20.2352 22.547 23.618 18.4905 23.3283C18.4905 23.3283 20.3857 26.8091 17.6242 28.8706C16.8551 29.4463 13.3464 32.1098 11.7162 28.7796C11.4179 28.1715 10.4711 27.5677 10.0581 30.4377C9.94262 31.2348 9.24612 32.5088 6.75587 32.6777C0.785745 33.0793 -0.68338 41.3087 7.03499 49.0297C14.8435 56.8391 22.8331 55.0042 23.3817 49.3097Z" fill="#DE7F11"/>
<path d="M26.7277 32.6944L23.3117 29.2775L47.2745 7.02013L48.9807 8.729L26.7277 32.6944ZM51.0562 6.10925L53.9192 8.97313L53.1956 9.69675L50.3326 6.83288L51.0562 6.10925Z" fill="#333333"/>
<path d="M47.1275 3.43604L49.5364 5.84579L48.8128 6.56941L46.403 4.15966L47.1275 3.43604Z" fill="#333333"/>
<path d="M46.6839 5.44069L45.9384 3.81494L46.781 2.97144L48.4059 3.71869L46.6839 5.44069Z" fill="#333333"/>
<path d="M49.1636 7.4585L52.0275 10.3232L51.303 11.0477L48.4383 8.183L49.1636 7.4585Z" fill="#333333"/>
<path d="M51.6101 8.91101L52.3574 10.5359L51.5148 11.3794L49.8899 10.633L51.6101 8.91101Z" fill="#333333"/>
<path d="M44.632 5.11963L47.4968 7.98525L46.7723 8.70888L43.9084 5.84413L44.632 5.11963Z" fill="#333333"/>
<path d="M53.0653 6.06113L49.9371 2.93387L51.6513 1.75L54.2509 4.3505L53.0653 6.06113Z" fill="#B3660D"/>
<path d="M48.5275 10.0064L50.9066 6.42594L52.031 6.22731L54.2491 2.88131L53.1195 1.75256L49.7735 3.96719L49.5749 5.09419L45.9944 7.47156L48.5275 10.0064Z" fill="#DE7F11"/>
<path d="M21.1768 30.856C21.2756 30.5681 21.3474 30.1359 21.0368 29.8244C18.6988 27.4864 14.8724 35.3071 13.3254 33.7601C12.985 33.4189 13.0725 33.1196 13.167 32.9551C13.2639 32.9703 13.3631 32.9626 13.4565 32.9327C13.5499 32.9027 13.635 32.8514 13.7051 32.7828C13.7651 32.7231 13.8127 32.6523 13.8452 32.5742C13.8777 32.4961 13.8945 32.4123 13.8945 32.3278C13.8945 32.2432 13.8777 32.1594 13.8452 32.0813C13.8127 32.0033 13.7651 31.9324 13.7051 31.8728C13.6455 31.813 13.5746 31.7656 13.4966 31.7332C13.4186 31.7009 13.335 31.6842 13.2506 31.6842C13.1661 31.6842 13.0825 31.7009 13.0045 31.7332C12.9265 31.7656 12.8557 31.813 12.796 31.8728C12.6952 31.975 12.6321 32.1084 12.6171 32.2512C12.6022 32.394 12.6363 32.5376 12.7138 32.6585C12.5274 32.9306 12.1678 33.6263 12.8135 34.272C15.0211 36.4814 19.1494 28.8969 20.5555 30.3039C20.6465 30.3949 20.6544 30.5296 20.6413 30.6469C20.4918 30.6574 20.3508 30.7203 20.2431 30.8245C20.1226 30.9453 20.0549 31.109 20.0551 31.2797C20.0553 31.4504 20.1232 31.614 20.244 31.7345C20.3648 31.8551 20.5285 31.9227 20.6992 31.9225C20.8698 31.9224 21.0334 31.8544 21.154 31.7336C21.2692 31.618 21.3358 31.4626 21.34 31.2994C21.3443 31.1361 21.2858 30.9775 21.1768 30.856ZM25.1484 34.8303C25.4371 34.7296 25.8694 34.6588 26.1809 34.9694C28.5189 37.3083 20.6999 41.1364 22.2469 42.6825C22.5873 43.0246 22.8856 42.9354 23.0501 42.84C23.0355 42.7431 23.0435 42.6441 23.0734 42.5508C23.1033 42.4575 23.1543 42.3723 23.2225 42.3019C23.2822 42.2421 23.353 42.1947 23.431 42.1624C23.509 42.13 23.5926 42.1134 23.6771 42.1134C23.7615 42.1134 23.8451 42.13 23.9231 42.1624C24.0011 42.1947 24.072 42.2421 24.1316 42.3019C24.1917 42.3614 24.2394 42.4323 24.272 42.5104C24.3046 42.5885 24.3213 42.6723 24.3213 42.7569C24.3213 42.8415 24.3046 42.9253 24.272 43.0034C24.2394 43.0815 24.1917 43.1523 24.1316 43.2119C24.0299 43.3129 23.8968 43.3761 23.7542 43.3912C23.6117 43.4064 23.4683 43.3724 23.3476 43.295C23.0755 43.4814 22.379 43.8401 21.7341 43.1961C19.5265 40.9868 27.1093 36.8568 25.7005 35.4489C25.6095 35.3596 25.4748 35.3509 25.3584 35.3649C25.3486 35.5139 25.2862 35.6547 25.1825 35.7621C25.0618 35.8829 24.8981 35.9508 24.7274 35.9509C24.5566 35.951 24.3929 35.8832 24.2721 35.7626C24.1513 35.6419 24.0834 35.4782 24.0833 35.3074C24.0832 35.1367 24.151 34.9729 24.2716 34.8521C24.3875 34.7375 24.5427 34.6713 24.7057 34.6673C24.8686 34.6632 25.027 34.7215 25.1484 34.8303Z" fill="#333333"/>
<path d="M14.0298 37.527C14.0298 37.527 12.9299 39.3654 12.6796 40.0304C12.4548 40.628 12.4189 41.9597 12.1118 42.518C11.1195 44.3109 6.31839 48.3131 6.31839 48.3131L7.69651 49.6921C7.69651 49.6921 11.697 44.8901 13.489 43.8987C14.0481 43.589 15.3799 43.5531 15.9766 43.3282C16.6434 43.0789 18.48 41.9781 18.48 41.9781L14.0298 37.527Z" fill="#333333"/>
<path d="M23.681 29.0194L24.0126 29.3502L14.3386 39.0487L14.007 38.7179L23.681 29.0194ZM26.6429 31.9822L26.9736 32.3129L17.3005 42.0105L16.9697 41.6798L26.6429 31.9822ZM25.662 30.9995L25.9936 31.332L16.3074 41.0183L15.9757 40.6858L25.662 30.9995ZM24.675 30.0125L25.0075 30.3433L15.3212 40.0295L14.9887 39.6979L24.675 30.0125Z" fill="#333333"/>
<path d="M6.10576 9.20581L46.7933 49.8933L45.8728 50.8121L5.18701 10.1254L6.10576 9.20581Z" fill="#B3660D"/>
<path d="M3.94801 11.3645L44.6355 52.052L43.7159 52.9708L3.02838 12.2833L3.94801 11.3645Z" fill="#E2D8C7"/>
<path d="M4.82738 14.0822L1.75 11.0039L6.10663 9.20581L7.90475 11.0039L4.82738 14.0822ZM41.9169 51.1717L44.9951 54.2499L46.7941 49.8933L44.9951 48.0952L41.9169 51.1717Z" fill="#333333"/>
<path d="M40.8389 48.2545L44.6364 52.052L43.7168 52.9708L39.9193 49.1733L40.8389 48.2545Z" fill="#333333"/>
</svg>
