<svg width="56" height="56" viewBox="0 0 56 56" fill="none" xmlns="http://www.w3.org/2000/svg">
<path d="M39.6667 42.7933V49C39.6667 49.6188 39.4208 50.2123 38.9832 50.6499C38.5456 51.0875 37.9522 51.3333 37.3333 51.3333H18.6667C18.0478 51.3333 17.4543 51.0875 17.0167 50.6499C16.5792 50.2123 16.3333 49.6188 16.3333 49V42.7933C16.3325 42.3764 16.4434 41.9669 16.6544 41.6073C16.8655 41.2478 17.169 40.9514 17.5335 40.7489C17.8979 40.5464 18.31 40.4453 18.7267 40.4561C19.1435 40.4668 19.5498 40.589 19.9033 40.81C22.3344 42.3189 25.1387 43.1184 28 43.1184C30.8613 43.1184 33.6656 42.3189 36.0967 40.81C36.4514 40.6052 36.8537 40.4974 37.2633 40.4974C37.6729 40.4974 38.0753 40.6052 38.43 40.81C38.7923 41.0026 39.0974 41.2874 39.3146 41.6356C39.5317 41.9838 39.6531 42.3832 39.6667 42.7933ZM37.3333 4.66663H18.6667C18.0478 4.66663 17.4543 4.91246 17.0167 5.35004C16.5792 5.78763 16.3333 6.38112 16.3333 6.99996V13.2066C16.3325 13.6235 16.4434 14.0331 16.6544 14.3926C16.8655 14.7521 17.169 15.0485 17.5335 15.251C17.8979 15.4535 18.31 15.5546 18.7267 15.5439C19.1435 15.5331 19.5498 15.4109 19.9033 15.19C22.3344 13.6811 25.1387 12.8815 28 12.8815C30.8613 12.8815 33.6656 13.6811 36.0967 15.19C36.468 15.4201 36.8965 15.5414 37.3333 15.54C37.6397 15.54 37.9431 15.4796 38.2262 15.3623C38.5093 15.2451 38.7666 15.0732 38.9832 14.8565C39.1999 14.6399 39.3718 14.3826 39.489 14.0996C39.6063 13.8165 39.6667 13.513 39.6667 13.2066V6.99996C39.6667 6.38112 39.4208 5.78763 38.9832 5.35004C38.5456 4.91246 37.9522 4.66663 37.3333 4.66663Z" fill="#FF639B"/>
<path d="M28 47.8333C38.9536 47.8333 47.8333 38.9536 47.8333 28C47.8333 17.0463 38.9536 8.16663 28 8.16663C17.0463 8.16663 8.16666 17.0463 8.16666 28C8.16666 38.9536 17.0463 47.8333 28 47.8333Z" fill="black"/>
<path d="M28 18.6666C27.3812 18.6666 26.7877 18.9125 26.3501 19.35C25.9125 19.7876 25.6667 20.3811 25.6667 21V28H23.3333C22.7145 28 22.121 28.2458 21.6834 28.6834C21.2458 29.121 21 29.7145 21 30.3333C21 30.9521 21.2458 31.5456 21.6834 31.9832C22.121 32.4208 22.7145 32.6666 23.3333 32.6666H28C28.6188 32.6666 29.2123 32.4208 29.6499 31.9832C30.0875 31.5456 30.3333 30.9521 30.3333 30.3333V21C30.3333 20.3811 30.0875 19.7876 29.6499 19.35C29.2123 18.9125 28.6188 18.6666 28 18.6666Z" fill="#FF639B"/>
</svg>
