<svg width="56" height="56" viewBox="0 0 56 56" fill="none" xmlns="http://www.w3.org/2000/svg">
<path d="M21.5705 32.3338C21.65 32.5612 21.7408 32.7744 21.4345 32.8813C21.3819 32.891 21.3368 32.9133 21.3076 32.9001C20.9487 32.739 20.7064 32.911 20.4606 33.1539C20.4023 33.2122 20.1646 33.1922 20.1052 33.123C20.0029 33.0076 19.8343 32.8098 19.9326 32.6835C20.5389 31.6188 20.2892 29.1242 20.2177 28.1126C20.1474 27.0936 20.0006 26.078 19.8377 25.0682C19.7731 24.6692 19.6108 24.2726 19.4245 23.9091C19.2039 23.4754 19.2793 23.2839 19.7537 23.2142C19.9234 23.189 20.0789 23.0656 20.2423 22.9867C20.3846 22.9181 20.5349 22.7804 20.6664 22.7964C20.8275 22.817 21.0419 22.9353 21.1007 23.0702C21.1476 23.1719 21.0281 23.4428 20.911 23.5045C20.4561 23.7451 20.4498 24.1149 20.5058 24.5412C20.7144 26.1689 20.895 27.8011 21.1293 29.4248C21.1979 29.8917 21.4139 31.884 21.5705 32.3338ZM35.8657 22.2786C35.9874 22.3838 35.8588 22.6112 35.7817 22.7444C35.7377 22.8221 35.5079 22.8878 35.4393 22.8421C35.1513 22.6518 34.8798 22.5306 34.5587 22.7587C34.5318 22.7764 34.4838 22.7627 34.4301 22.765C34.1094 22.7192 34.1563 22.4924 34.1912 22.2535C34.2575 21.7814 34.3781 21.3042 34.3535 20.835C34.2683 19.1965 34.1272 17.5608 34.0157 15.9234C33.9866 15.4948 33.9083 15.1319 33.4173 14.9844C33.3213 14.9564 33.203 14.8118 33.1596 14.697L32.5469 15.3862L32.2755 15.808C32.3961 16.0451 32.4269 16.2875 32.3469 16.5121C32.3309 16.5561 32.3109 16.5984 32.2875 16.6389C33.135 17.227 33.5362 17.9706 33.3145 18.5884C33.235 18.8095 33.0853 18.9924 32.8761 19.133C33.3362 19.6211 33.5111 20.1509 33.3459 20.6104C33.2625 20.843 33.0996 21.0344 32.8738 21.179C33.3316 21.666 33.5111 22.1992 33.3459 22.6575C33.1819 23.1153 32.7184 23.4148 32.0451 23.5005C32.0423 23.5005 32.0389 23.5005 32.0354 23.5011C32.3092 24.0177 32.3423 24.5121 32.1126 24.8898C31.8863 25.2625 31.4502 25.4625 30.8736 25.4625C30.8067 25.4625 30.7387 25.4602 30.669 25.4545C30.194 25.4179 29.6682 25.259 29.1562 25.0019C29.1207 25.1813 29.0264 25.3402 28.8984 25.4596C28.9887 25.5871 29.043 25.7425 29.043 25.9111V26.0414C29.043 26.282 28.9327 26.4969 28.7618 26.6409C28.8075 26.7324 28.8361 26.8353 28.8361 26.945V27.0473C28.8361 27.2759 28.7235 27.4771 28.5504 27.6017C28.5698 27.6428 28.5818 27.6891 28.5818 27.7377V28.0337C28.5818 28.3452 28.3303 28.5984 28.0177 28.5984H27.4668C27.2879 28.5984 27.1433 28.4538 27.1433 28.276C27.1433 28.0972 27.2879 27.9526 27.4668 27.9526H27.9348V27.7388C27.9348 27.7371 27.936 27.7354 27.936 27.7325H27.3302C27.1513 27.7325 27.0079 27.5874 27.0079 27.4091C27.0079 27.2302 27.1519 27.0862 27.3302 27.0862H28.152C28.1726 27.0862 28.1886 27.0696 28.1886 27.0484V26.9461C28.1886 26.9256 28.1726 26.9084 28.152 26.9084H27.3302C27.2296 26.9084 27.1416 26.8621 27.0822 26.7913C26.9736 26.7387 26.8976 26.6284 26.8976 26.4998C26.8976 26.3209 27.0416 26.1763 27.2193 26.1763H28.2612C28.3349 26.1763 28.3938 26.1163 28.3938 26.0426V25.9128C28.3938 25.8391 28.3343 25.7791 28.2612 25.7791H27.2193C27.0896 25.7791 26.9804 25.7025 26.9284 25.5928C26.8667 25.5339 26.8278 25.4516 26.8278 25.3596C26.8278 25.1807 26.9724 25.0361 27.1507 25.0361H28.3298C28.4372 25.0361 28.5235 24.9498 28.5235 24.8424V24.695C28.5235 24.6698 28.5178 24.6452 28.5098 24.6229C28.4532 24.5841 28.4006 24.5435 28.3458 24.5029C28.3406 24.5029 28.3355 24.5018 28.3303 24.5018H27.1513C27.1473 24.5018 27.1422 24.5006 27.1382 24.5001C27.0027 24.6029 26.861 24.7024 26.7107 24.7933C26.0797 25.1762 25.4071 25.4122 24.8127 25.4573C24.743 25.4631 24.6755 25.4654 24.6081 25.4654C24.0314 25.4654 23.5948 25.2653 23.3691 24.8927C23.1393 24.5144 23.1719 24.0206 23.4456 23.5039C23.4433 23.5034 23.4399 23.5034 23.4371 23.5034C22.7615 23.4176 22.2998 23.1182 22.1352 22.6604C21.9706 22.202 22.1494 21.6682 22.6084 21.1819C22.3815 21.0373 22.2192 20.8464 22.1352 20.6132C21.9706 20.1532 22.146 19.6239 22.6055 19.1359C22.3975 18.9953 22.2466 18.8124 22.1683 18.5912C21.946 17.9734 22.3472 17.2299 23.1942 16.6418C23.1719 16.6012 23.1502 16.5584 23.1347 16.5149C23.0999 16.4155 23.0879 16.3126 23.0936 16.2092L22.5678 15.3891L21.8557 14.5878C21.8568 14.5912 21.8591 14.5947 21.8597 14.5987C21.8837 14.7078 21.714 14.9501 21.5877 14.9879C21.095 15.1353 21.0184 15.4982 20.9881 15.9268C20.8761 17.5642 20.7361 19.1999 20.6509 20.8384C20.6269 21.3076 20.7464 21.7854 20.8133 22.2569C20.8481 22.4958 20.8956 22.7221 20.5738 22.7684C20.5201 22.7667 20.4721 22.7804 20.4452 22.7621C20.1246 22.5341 19.8543 22.6552 19.5662 22.8455C19.4976 22.8913 19.2679 22.8255 19.2227 22.7478C19.1444 22.6147 19.017 22.3866 19.1387 22.282C19.9394 21.3556 19.8846 20.3812 20.0109 19.3736C20.1394 18.3603 20.1932 17.3356 20.2297 16.3143C20.2446 15.9097 20.1623 15.4885 20.0503 15.0964C19.9183 14.6278 20.0297 14.4541 20.5081 14.4786C20.6801 14.4872 20.8567 14.3963 21.0321 14.3506C21.1859 14.3106 21.3596 14.2055 21.4859 14.2472C21.5259 14.2609 21.5694 14.2815 21.6105 14.3078C21.5997 14.29 21.5899 14.2723 21.5831 14.254C21.4111 13.7894 21.4248 13.4099 21.6208 13.1264C21.8946 12.7332 22.4249 12.6744 22.7164 12.6744C22.8073 12.6744 22.8667 12.6801 22.8667 12.6801C22.877 12.6812 22.889 12.6835 22.901 12.6858C23.0913 12.7304 24.7733 13.1407 25.1733 14.0049C25.2379 14.146 25.2613 14.3186 25.255 14.5095C25.4751 14.4638 25.6911 14.4381 25.8968 14.4381C26.2009 14.4381 26.4598 14.4895 26.6684 14.5844V14.342C26.6684 14.0283 26.8667 13.7625 27.1427 13.6602C27.1873 13.5351 27.3062 13.4442 27.4462 13.4442H27.9143V13.2305C27.9143 13.2287 27.9154 13.2265 27.9154 13.2242H27.3102C27.1319 13.2242 26.9879 13.0796 26.9879 12.9007C26.9879 12.7218 27.1324 12.5772 27.3102 12.5772H28.132C28.1526 12.5772 28.1692 12.5612 28.1692 12.5406V12.3406C28.1692 12.3206 28.1526 12.304 28.132 12.304C28.132 12.304 27.1227 12.3549 27.0633 12.2829C26.9541 12.2309 26.8781 12.12 26.8781 11.9914C26.8781 11.8125 27.0227 11.668 27.2005 11.668C27.2005 11.668 27.8 11.668 28.2423 11.668C28.8578 11.7142 28.8155 12.3275 28.8155 12.4383V12.5406C28.8155 12.7687 28.7041 12.9699 28.5309 13.095C28.5504 13.1362 28.5624 13.1825 28.5624 13.231V13.5265C28.5624 13.6151 28.5401 13.698 28.5029 13.7734C28.6698 13.9066 28.7784 14.1117 28.7784 14.3432V14.5998C28.9904 14.4935 29.2648 14.4375 29.5854 14.4375C29.6745 14.4375 29.7654 14.4421 29.8591 14.4501C29.8591 14.2826 29.8837 14.1306 29.9426 14.0037C30.342 13.1396 32.0251 12.7298 32.2149 12.6847C32.2269 12.6824 32.2377 12.6807 32.2492 12.679C32.2492 12.679 32.3086 12.6732 32.4012 12.6732C32.6921 12.6732 33.2219 12.7321 33.4951 13.1253C33.6905 13.4071 33.7048 13.7831 33.5374 14.2426C33.6625 14.214 33.8277 14.3112 33.9757 14.3495C34.1517 14.3952 34.3266 14.4861 34.4992 14.4775C34.9776 14.4535 35.089 14.6267 34.9559 15.0953C34.845 15.4874 34.7633 15.908 34.777 16.3132C34.813 17.3345 34.8673 18.3592 34.997 19.3725C35.1204 20.3778 35.0644 21.3528 35.8657 22.2786ZM24.5641 16.6229C24.8235 16.6035 25.1013 16.5458 25.3779 16.4464C25.8048 16.2926 26.1883 16.0577 26.4306 15.8017C26.6272 15.5931 26.7141 15.3851 26.6644 15.2462C26.6004 15.0673 26.2986 14.9524 25.8951 14.9524C25.6682 14.9524 25.4225 14.9879 25.1727 15.0553C25.0424 15.5937 24.7853 16.1812 24.5641 16.6229ZM22.8301 18.3512C22.8981 18.5415 23.1696 18.6844 23.5571 18.7324C24.0331 18.793 24.6401 18.7078 25.2225 18.4992C26.4083 18.0734 27.1256 17.2848 26.9747 16.8647C26.9176 16.7047 26.6964 16.5561 26.4192 16.4881C26.1689 16.6652 25.8734 16.8178 25.5511 16.9333C25.1567 17.0744 24.755 17.1493 24.3886 17.1493C24.3538 17.1493 24.3212 17.147 24.2869 17.1459C24.2629 17.1899 24.2417 17.227 24.2252 17.255C24.1795 17.3356 24.0943 17.3859 24.0006 17.3882C23.9994 17.3882 23.9971 17.3882 23.9949 17.3882C23.904 17.3882 23.8183 17.3419 23.7708 17.2653L23.6942 17.1493C23.0113 17.5917 22.7364 18.0894 22.8301 18.3512ZM22.797 20.3732C22.8656 20.5624 23.137 20.7058 23.5239 20.755C24.0011 20.8155 24.6081 20.7304 25.1905 20.5212C26.3758 20.0949 27.0936 19.3068 26.9427 18.8861C26.8901 18.7392 26.7541 18.6467 26.6021 18.5884C26.2786 18.8113 25.8928 19.0067 25.4596 19.1622C24.9201 19.3559 24.3721 19.4565 23.8777 19.4565C23.736 19.4565 23.5988 19.4479 23.4662 19.4319C23.4228 19.4256 23.3816 19.4176 23.3376 19.4096C22.9261 19.7548 22.7112 20.1309 22.797 20.3732ZM25.191 22.5689C26.3763 22.1432 27.0942 21.3551 26.9433 20.9344C26.897 20.8053 26.7558 20.6972 26.5478 20.6264C26.2289 20.8418 25.8517 21.0327 25.4288 21.1847C24.8887 21.3779 24.3418 21.4791 23.8451 21.4791C23.7057 21.4791 23.5679 21.4711 23.4365 21.4545C23.4096 21.4511 23.3856 21.4448 23.3599 21.4413C22.9353 21.7894 22.7095 22.1729 22.7975 22.4215C22.8661 22.6118 23.1376 22.7541 23.5245 22.8027C24.0017 22.8627 24.6087 22.7775 25.191 22.5689ZM27.3016 23.3999C27.065 23.0124 26.9656 22.6404 27.001 22.3118C26.6141 22.6747 26.0757 22.9999 25.4288 23.2313C25.0441 23.3691 24.6561 23.4588 24.2863 23.4999C23.9646 23.9143 23.8383 24.308 23.9691 24.5246C24.0749 24.6967 24.3686 24.7818 24.7595 24.7527C25.2373 24.7167 25.8145 24.5115 26.3432 24.1903C26.7175 23.9629 27.0496 23.6868 27.3016 23.3999ZM29.0504 15.8017C29.2933 16.0577 29.6762 16.2926 30.1037 16.4464C30.2426 16.4961 30.3821 16.5338 30.5204 16.5647C30.2952 16.108 30.0409 15.5142 29.9243 14.9787C29.8077 14.9633 29.6934 14.953 29.5842 14.953C29.1813 14.953 28.8807 15.0684 28.8161 15.2467C28.767 15.3851 28.8544 15.5937 29.0504 15.8017ZM31.1947 23.4999C30.8255 23.4588 30.4375 23.3691 30.0534 23.2313C29.4048 22.9993 28.867 22.6741 28.4795 22.3118C28.5149 22.6404 28.4172 23.0124 28.1789 23.3999C28.4315 23.6862 28.7641 23.9623 29.1379 24.1903C29.6677 24.5115 30.2437 24.7167 30.7227 24.7527C31.1113 24.7818 31.4051 24.6967 31.5108 24.5246C31.6422 24.3086 31.5176 23.9143 31.1947 23.4999ZM32.1217 21.4408C32.0954 21.4442 32.0714 21.4505 32.0451 21.4539C31.9143 21.4705 31.7765 21.4785 31.6348 21.4785C31.1404 21.4785 30.5918 21.3773 30.0523 21.1842C29.6277 21.0321 29.2527 20.8418 28.9338 20.6258C28.7247 20.6972 28.5841 20.8047 28.5361 20.9338C28.3863 21.3545 29.103 22.1426 30.29 22.5684C30.8724 22.7775 31.4794 22.8621 31.9554 22.8021C32.3423 22.7535 32.6144 22.6112 32.6824 22.4209C32.7727 22.1723 32.5452 21.7888 32.1217 21.4408ZM32.1429 19.4096C32.0989 19.4176 32.0583 19.4256 32.012 19.4319C31.8811 19.4485 31.7428 19.4565 31.6022 19.4565C31.1067 19.4565 30.5598 19.3559 30.0186 19.1622C29.5848 19.0067 29.1996 18.8107 28.8773 18.5884C28.7252 18.6472 28.5892 18.7398 28.5355 18.8861C28.3852 19.3068 29.1024 20.0949 30.2889 20.5212C30.8718 20.7298 31.4782 20.8155 31.9543 20.755C32.3418 20.7058 32.6132 20.5624 32.6807 20.3732C32.7704 20.1309 32.5549 19.7548 32.1429 19.4096ZM31.6617 17.0739C31.5902 17.0933 31.5131 17.1099 31.4353 17.1224L31.3428 17.2659C31.2936 17.343 31.2096 17.3888 31.1176 17.3888C31.1153 17.3888 31.1124 17.3888 31.1113 17.3888C31.0176 17.3865 30.9324 17.3362 30.8861 17.2556C30.869 17.2253 30.8455 17.1842 30.8187 17.1362C30.5289 17.1093 30.2272 17.0407 29.9277 16.9338C29.6065 16.8184 29.3099 16.6652 29.059 16.4886C28.783 16.5567 28.5612 16.7052 28.5035 16.8653C28.352 17.2853 29.0704 18.074 30.2557 18.4998C30.8393 18.7078 31.4451 18.7935 31.9206 18.733C32.3092 18.6844 32.5789 18.5415 32.6475 18.3518C32.7504 18.074 32.4366 17.5328 31.6617 17.0739ZM35.2508 23.2147C35.081 23.1896 34.9256 23.0662 34.7627 22.9873C34.6198 22.9187 34.4684 22.781 34.338 22.797C34.1763 22.8175 33.9631 22.9358 33.9026 23.0707C33.8586 23.1725 33.9763 23.4433 34.0934 23.5051C34.5472 23.7457 34.5541 24.1154 34.4998 24.5418C34.29 26.1695 34.1152 29.3499 33.8786 30.9736C33.8117 31.4382 33.6008 31.8834 33.4425 32.3338C33.3631 32.5612 33.2728 32.7744 33.5785 32.8813C33.6322 32.891 33.6768 32.9133 33.706 32.9001C34.0654 32.739 34.3066 32.911 34.5524 33.1539C34.6112 33.2122 34.8478 33.1922 34.9078 33.123C35.0107 33.0076 35.1793 32.8098 35.081 32.6835C34.4746 31.6188 34.7141 29.1242 34.7861 28.1126C34.8581 27.0936 35.0027 26.078 35.1662 25.0682C35.229 24.6692 35.3925 24.2726 35.5782 23.9091C35.8 23.4759 35.7251 23.2845 35.2508 23.2147ZM40.1697 11.2365V33.4219C40.1697 34.0146 39.6862 34.4986 39.093 34.4986H32.9201L32.919 53.5528C32.919 54.9038 31.8228 56 30.4701 56C29.1196 56 28.024 54.9038 28.024 53.5528V34.4986H27.676L27.6765 53.5528C27.6765 54.9038 26.5804 56 25.2293 56C23.8771 56.0006 22.781 54.9044 22.781 53.5528L22.7798 34.4986H16.9076C16.3132 34.4986 15.8303 34.0146 15.8303 33.4219V11.2365C15.8303 10.6427 16.3132 10.1592 16.9076 10.1592H25.4979C23.6862 9.30647 22.4301 7.46964 22.4301 5.33448C22.4301 2.38777 24.8173 0 27.764 0C30.7112 0 33.0996 2.38777 33.0996 5.33448C33.0996 7.46964 31.8428 9.30647 30.0311 10.1592H39.093C39.6862 10.1592 40.1697 10.6427 40.1697 11.2365ZM30.1283 32.8767C29.8357 32.7098 29.8448 32.5435 29.5882 32.5789C29.3328 32.6161 29.1973 32.9093 29.0064 33.0836C29.1196 33.1739 29.2688 33.3619 29.3413 33.3373C29.5722 33.255 29.7745 33.0939 30.1283 32.8767ZM29.8334 30.8324C29.8311 30.6415 29.5162 30.3923 29.2876 30.2958C29.1796 30.2489 28.9213 30.4689 28.7755 30.6135C28.5058 30.8793 28.2909 31.2022 28.0074 31.4491C27.9114 31.5325 27.6119 31.5308 27.5171 31.4445C27.2245 31.1765 26.9478 30.8764 26.7387 30.5404C26.4935 30.1472 26.2369 30.1969 25.9397 30.4175C25.5305 30.7204 25.4916 31.2713 25.8677 31.7331C26.3581 32.4321 28.6064 32.9487 29.5111 31.8583C29.7488 31.6639 29.838 31.1822 29.8334 30.8324ZM25.6042 32.9093C25.8174 33.0584 26.0237 33.227 26.2552 33.3408C26.306 33.3665 26.4523 33.199 26.6724 33.031C26.3443 32.8321 26.1003 32.5807 25.8934 32.5829C25.686 32.5841 25.702 32.7938 25.6042 32.9093ZM39.0936 33.4219L39.093 11.2365H16.9076V33.4219H25.1922C25.1042 33.2722 25.0299 33.0927 24.9756 32.8836C24.8573 32.4286 24.7087 31.896 23.9354 31.3696C23.7577 31.0816 23.6211 30.7547 23.3976 30.5078C22.6764 29.7168 22.5844 29.0201 23.1364 28.1229C23.8268 27.001 25.0756 26.781 26.0557 27.6251C26.3992 27.9217 26.7198 28.2463 27.0244 28.5824C27.5645 29.1785 27.9669 29.1762 28.5098 28.5738C28.8121 28.2372 29.1362 27.9137 29.4785 27.6165C30.4203 26.7998 31.6154 26.9627 32.3132 28.0349C32.5509 28.3995 32.6544 28.8527 32.7664 29.1333C33.0104 30.0289 31.912 30.9278 31.1753 31.5622C30.681 31.7565 30.6455 32.5858 30.5478 32.9013C30.4866 33.103 30.4118 33.2756 30.322 33.4219H39.0936Z" fill="black"/>
</svg>
