<svg width="56" height="56" viewBox="0 0 56 56" fill="none" xmlns="http://www.w3.org/2000/svg">
<path d="M28.9391 30.3142C27.7531 30.3142 26.5669 30.178 25.4137 29.9093L11.5853 26.691V50.9516C11.5853 53.3174 17.7696 55.2343 25.3981 55.2343C33.03 55.2343 39.2143 53.3174 39.2143 50.9516V27.6975L33.9458 29.4866C32.3302 30.0357 30.6457 30.3142 28.9391 30.3142Z" fill="#FF639B"/>
<path d="M44.9623 21.1344C44.941 20.6829 44.6216 20.3015 44.1817 20.1994L35.5662 18.1936L36.8689 14.7666L40.8996 4.16298C41.4018 2.84391 40.738 1.36877 39.4201 0.867617C38.7868 0.626335 38.0843 0.646679 37.4652 0.924492C36.8477 1.20209 36.3652 1.71385 36.1239 2.34724L31.8475 13.5973L30.5446 17.0246L24.5677 15.633C23.6772 15.4259 22.7701 15.3226 21.8645 15.3226C20.5645 15.3226 19.2668 15.535 18.025 15.9568L6.524 19.8633C6.09645 20.0088 5.81602 20.4195 5.83909 20.8701C5.86217 21.3216 6.1798 21.7021 6.61981 21.8051L26.2371 26.3706C27.1269 26.5777 28.0334 26.681 28.939 26.681C30.2385 26.681 31.5352 26.4686 32.7763 26.0467L44.2773 22.1412C44.7051 21.9957 44.9854 21.585 44.9623 21.1344ZM25.3998 23.2677C19.8063 23.2677 15.2701 22.2529 15.2701 21.0031C15.2701 19.7514 19.8064 18.7366 25.3998 18.7366C26.9801 18.7366 28.4756 18.8176 29.8084 18.962L28.2052 23.1796C27.3142 23.237 26.3733 23.2677 25.3998 23.2677ZM34.0502 22.1816L34.8164 20.1663C35.2764 20.4252 35.5296 20.7076 35.5296 21.0031C35.5296 21.4347 34.9886 21.8382 34.0502 22.1816Z" fill="#FF639B"/>
</svg>
