<svg width="56" height="56" viewBox="0 0 56 56" fill="none" xmlns="http://www.w3.org/2000/svg">
<g clip-path="url(#clip0_72_1215)">
<path d="M20.2884 12.7637C19.809 8.12282 18.1318 4.65575 15.303 2.45906C11.3587 -0.603879 6.66674 0.0501837 6.4691 0.0794962L5.33707 0.247496L5.05817 1.35732C5.02514 1.48825 4.25896 4.60882 4.90537 8.38259C5.51568 11.9461 7.52282 16.7825 13.6193 19.5866L20.2884 12.7637Z" fill="#D8D9DD"/>
<path d="M15.0519 16.4716C11.2835 14.7383 9.01316 11.8596 8.30408 7.91527C7.98317 6.13005 8.05908 4.49905 8.1807 3.43921C9.44442 3.49094 11.4779 3.81535 13.2308 5.19118C15.2731 6.79418 16.5001 9.46041 16.8778 13.1161L15.0519 16.4716Z" fill="#D37B93"/>
<path d="M35.7116 12.7638C36.191 8.12276 37.8683 4.65568 40.6971 2.45899C44.6413 -0.60384 49.3333 0.0502229 49.5309 0.0794261L50.6631 0.247317L50.942 1.35725C50.975 1.48818 51.7412 4.60875 51.0947 8.38241C50.4845 11.9458 48.4772 16.7823 42.3807 19.5865L35.7116 12.7638Z" fill="#A0A1A5"/>
<path d="M40.9479 16.4715C44.7163 14.7383 46.9866 11.8595 47.6957 7.91525C48.0166 6.13003 47.9407 4.49914 47.8193 3.43896C46.5556 3.49081 44.522 3.81511 42.7691 5.19104C40.7266 6.79404 39.4997 9.46039 39.122 13.1159L40.9479 16.4715Z" fill="#9D5B6E"/>
<path d="M35.2461 10.025C40.0223 11.6598 45.4163 15.9947 44.185 27.3478C43.7261 31.5793 42.7266 34.0987 41.5691 37.0159C41.1192 38.1497 40.6541 39.3222 40.1817 40.6954C39.9089 41.489 39.8676 43.7605 39.9255 45.1202L39.9271 45.1935C39.9271 50.3384 37.3869 52.9369 35.2557 54.2109C32.7816 55.6897 29.9445 56 27.9999 56C26.0555 56 23.2183 55.6896 20.7444 54.2109C18.6133 52.937 16.073 50.3386 16.073 45.1935L16.0746 45.1198C16.1324 43.7605 16.091 41.4889 15.8182 40.6954C15.346 39.3223 14.8808 38.1498 14.431 37.0159C13.2735 34.0987 12.2741 31.5793 11.8151 27.3478C10.5838 15.9945 15.9779 11.6597 20.7543 10.0248C21.1178 9.87123 24.0621 9.13098 28.0003 9.13098C31.9383 9.13098 34.8515 9.85789 35.2461 10.025Z" fill="#D8D9DD"/>
<path d="M16.0965 44.1664C16.0942 44.5097 16.0865 44.8349 16.0744 45.12L16.0728 45.1936C16.0728 50.3386 18.613 52.937 20.7442 54.211C23.2183 55.6898 26.0555 56.0001 27.9999 56.0001C29.9445 56.0001 32.7816 55.6896 35.2555 54.2109C37.3867 52.937 39.9269 50.3386 39.9269 45.1935L39.9253 45.1202C39.9131 44.8351 39.9053 44.5096 39.9032 44.1662C37.0146 42.6085 32.6319 41.6724 27.9997 41.6724C23.3675 41.6726 18.9851 42.6087 16.0965 44.1664Z" fill="#AEADB3"/>
<path d="M32.1542 16H23.8457L21.4367 0H34.5632L32.1542 16Z" fill="#333333"/>
<path d="M20.0448 29.0915C20.0448 27.8322 21.0543 26.8126 22.2946 26.8126C23.5365 26.8126 24.5457 27.8324 24.5457 29.0915C24.5457 30.3505 23.5366 31.3712 22.2946 31.3712C21.0541 31.3709 20.0448 30.3504 20.0448 29.0915Z" fill="#333333"/>
<path d="M35.9549 29.0915C35.9549 27.823 34.9391 26.7948 33.6883 26.7948C32.4359 26.7948 31.42 27.823 31.42 29.0915C31.42 30.3598 32.4359 31.388 33.6883 31.388C34.9392 31.388 35.9549 30.3598 35.9549 29.0915Z" fill="#333333"/>
<path d="M22.1041 47.4286C22.1041 46.3417 22.9754 45.4614 24.0462 45.4614C25.1183 45.4614 25.9895 46.3417 25.9895 47.4286C25.9895 48.5155 25.1183 49.3965 24.0462 49.3965C22.9754 49.3965 22.1041 48.5155 22.1041 47.4286Z" fill="#333333"/>
<path d="M33.8956 47.4286C33.8956 46.3336 33.0187 45.446 31.9389 45.446C30.8579 45.446 29.9809 46.3336 29.9809 47.4286C29.9809 48.5235 30.8578 49.4111 31.9389 49.4111C33.0188 49.411 33.8956 48.5235 33.8956 47.4286Z" fill="#333333"/>
<path d="M34.857 20.3917V23.8203H44.3594C44.3405 22.5759 44.2284 21.436 44.0381 20.3917H34.857Z" fill="#262626"/>
<path d="M33.7045 34.3624V37.791H41.2625C41.3652 37.5296 41.4675 37.2716 41.5689 37.0159C41.9267 36.1142 42.2693 35.2503 42.5856 34.3623H33.7044" fill="#262626"/>
<path d="M21.1427 20.3917H11.9619C11.7716 21.436 11.6595 22.5758 11.6404 23.8203H21.1427V20.3917Z" fill="#333333"/>
<path d="M14.431 37.016C14.5324 37.2715 14.6347 37.5296 14.7375 37.7909H22.2952V34.3623H13.4143C13.7305 35.2503 14.0732 36.1143 14.431 37.016Z" fill="#333333"/>
<path d="M35.246 10.0249C35.5268 10.1211 35.8095 10.2264 36.0931 10.3421C35.8096 10.2265 35.5267 10.1211 35.246 10.0249Z" fill="#BDBDBF"/>
<path d="M39.9195 44.9662C39.9212 45.0152 39.923 45.0634 39.925 45.1105C39.9231 45.0634 39.9213 45.0154 39.9195 44.9662ZM33.6884 31.388C32.436 31.388 31.4202 30.3597 31.4202 29.0914C31.4202 27.823 32.436 26.7948 33.6884 26.7948C34.9392 26.7948 35.9551 27.823 35.9551 29.0914C35.955 30.3597 34.9392 31.388 33.6884 31.388ZM34.857 23.8203V20.3917H44.0381C44.2284 21.4361 44.3405 22.5759 44.3594 23.8203H34.857ZM33.1262 9.54382L32.1542 15.9999H28.0001C28.0001 23.0262 28.0001 33.2796 28 41.6725C32.6324 41.6725 37.0149 42.6087 39.9035 44.1664C39.903 44.1004 39.9027 44.0339 39.9027 43.967C39.9027 42.7173 39.977 41.2908 40.1818 40.6956C40.5476 39.6321 40.9091 38.6891 41.2625 37.7911H33.7047V34.3625H42.5858C42.2695 35.2507 41.9268 36.1144 41.5692 37.0161C42.7266 34.0988 43.7262 31.5795 44.1851 27.348C44.3066 26.2282 44.3636 25.1767 44.363 24.1892C44.3612 20.5702 43.587 17.8131 42.3824 15.7133C41.5173 14.2056 40.4301 13.0363 39.2482 12.1311C38.2397 11.3587 37.1618 10.778 36.0934 10.3423C35.8099 10.2267 35.5271 10.1212 35.2463 10.0251C35.2455 10.0247 35.2448 10.0244 35.244 10.0241C35.2436 10.0239 35.2431 10.0238 35.2426 10.0235C35.2424 10.0234 35.242 10.0233 35.2418 10.0232C35.2411 10.0229 35.2403 10.0227 35.2395 10.0223C35.04 9.94042 34.2832 9.73632 33.1262 9.54382Z" fill="#A0A1A5"/>
<path d="M31.939 49.411C30.858 49.411 29.981 48.5234 29.981 47.4285C29.981 46.3335 30.8578 45.4459 31.939 45.4459C33.0188 45.4459 33.8957 46.3335 33.8957 47.4285C33.8957 48.5234 33.0188 49.411 31.939 49.411ZM28 41.6725C27.9999 48.9643 27.9999 54.8513 27.9999 56C29.9445 56 32.7816 55.6895 35.2555 54.2108C37.3867 52.9369 39.9269 50.3385 39.9269 45.1934L39.9253 45.1201C39.9251 45.1169 39.925 45.1135 39.9249 45.1104C39.9228 45.0634 39.921 45.0153 39.9193 44.9661C39.9107 44.7199 39.905 44.4492 39.9033 44.1661H39.9034C37.0149 42.6085 32.6323 41.6725 28 41.6725Z" fill="#818186"/>
<path d="M34.5631 0H28.0001L27.9999 16H28.0001H32.1542L33.1262 9.54384L34.5631 0Z" fill="#262626"/>
<path d="M41.5691 37.016C41.561 37.0364 41.5529 37.0569 41.5447 37.0774C41.5528 37.0569 41.561 37.0363 41.5691 37.016Z" fill="#A0A1A5"/>
</g>
<defs>
<clipPath id="clip0_72_1215">
<rect width="56" height="56" fill="white"/>
</clipPath>
</defs>
</svg>
