<svg width="272" height="237" viewBox="0 0 272 237" fill="none" xmlns="http://www.w3.org/2000/svg">
<path d="M0 28C0 19.1634 7.16344 12 16 12H256C264.837 12 272 19.1634 272 28V237H0V28Z" fill="#D96A93"/>
<g clip-path="url(#clip0_256_170)">
<path d="M130.75 0H75.0245V58.0873H130.75V0Z" fill="#E0E0E0"/>
<path d="M126.978 0H71.2523V58.0873H126.978V0Z" fill="#EBEBEB"/>
<path d="M119.486 7.80882H78.7439V50.2785H119.486V7.80882Z" fill="#FAFAFA"/>
<path d="M78.7439 50.5605C78.4447 50.9849 78.1042 51.3786 77.7274 51.7357C77.0693 52.4173 76.1527 53.3456 75.1303 54.3563C74.1079 55.3669 73.1619 56.2659 72.4745 56.9122C72.1162 57.2808 71.7226 57.6134 71.2993 57.9052C71.5968 57.4813 71.9353 57.0877 72.3099 56.7301C72.9621 56.0485 73.8846 55.1201 74.9129 54.1095C75.9411 53.0989 76.8812 52.194 77.5746 51.5477C77.927 51.1768 78.3191 50.8457 78.7439 50.5605Z" fill="#E0E0E0"/>
<path d="M119.486 50.4548C119.911 50.753 120.305 51.0936 120.661 51.4713C121.343 52.1294 122.271 53.046 123.276 54.0683C124.281 55.0907 125.191 56.0367 125.832 56.7242C126.201 57.0825 126.533 57.4761 126.825 57.8993C126.41 57.6012 126.027 57.2627 125.679 56.8887C124.992 56.2365 124.063 55.314 123.053 54.2857C122.042 53.2575 121.137 52.3174 120.497 51.624C120.119 51.2714 119.78 50.8794 119.486 50.4548Z" fill="#E0E0E0"/>
<path d="M119.374 7.92047C119.673 7.49537 120.013 7.10164 120.391 6.74532C121.049 6.06374 121.966 5.13538 122.988 4.12475C124.01 3.11413 124.956 2.21514 125.644 1.57469C126 1.20384 126.394 0.871052 126.819 0.581696C126.522 1.00639 126.184 1.4001 125.808 1.75684C125.156 2.43842 124.234 3.37266 123.205 4.38329C122.177 5.39391 121.237 6.29877 120.544 6.93922C120.19 7.30653 119.798 7.63544 119.374 7.92047Z" fill="#E0E0E0"/>
<path d="M78.644 8.02623C78.2219 7.73294 77.8284 7.40047 77.4688 7.03323C76.7814 6.38102 75.8589 5.46441 74.8482 4.44204C73.8376 3.41966 72.9328 2.47367 72.2923 1.78034C71.922 1.42365 71.5892 1.02987 71.2993 0.605194C71.7146 0.904439 72.0985 1.24501 72.4451 1.62169C73.1325 2.2739 74.0609 3.19051 75.0715 4.21876C76.0821 5.24701 76.987 6.193 77.6275 6.88046C78.0069 7.22434 78.3477 7.60853 78.644 8.02623Z" fill="#E0E0E0"/>
<path d="M119.374 50.2785C119.374 50.2785 119.374 50.208 119.374 50.0729C119.374 49.9377 119.374 49.7321 119.374 49.4853C119.374 48.9565 119.374 48.1926 119.374 47.1938C119.374 45.1902 119.374 42.264 119.339 38.5447C119.339 31.1061 119.298 20.5063 119.269 7.81471L119.404 7.94398H78.7791L78.9319 7.79121C78.9319 23.3795 78.9319 37.963 78.9319 50.2609L78.8026 50.1258L108.228 50.1963L116.489 50.2315H118.675H119.263H119.457H118.728H116.566L108.34 50.2668L78.832 50.3314H78.644V50.2021C78.644 37.9043 78.644 23.3207 78.644 7.73245V7.57968H78.8026H119.427H119.562V7.71482C119.533 20.4416 119.51 31.0708 119.492 38.5271C119.492 42.2347 119.492 45.149 119.457 47.1526C119.457 48.1339 119.457 48.9154 119.457 49.4148C119.457 49.6616 119.457 49.8555 119.457 50.0024C119.457 50.1493 119.374 50.2785 119.374 50.2785Z" fill="#E0E0E0"/>
<path d="M100.392 29.0117L99.8702 29.8775L107.189 34.284L107.711 33.4182L100.392 29.0117Z" fill="#E0E0E0"/>
<path d="M100.384 28.0624C100.675 28.2392 100.884 28.5233 100.966 28.8533C101.049 29.1833 100.998 29.5324 100.825 29.8251C100.648 30.1157 100.364 30.3249 100.034 30.4074C99.704 30.4899 99.3548 30.439 99.0621 30.2658L98.6743 30.0367C98.3849 29.8589 98.1767 29.5747 98.0943 29.2452C98.0119 28.9157 98.0619 28.567 98.2336 28.274C98.4104 27.9834 98.6945 27.7742 99.0245 27.6917C99.3545 27.6092 99.7036 27.6601 99.9963 27.8333L100.384 28.0624Z" fill="#EBEBEB"/>
<path d="M96.8587 18.9492C98.0948 19.691 99.0831 20.7829 99.6985 22.0866C100.314 23.3903 100.529 24.8473 100.315 26.2731C100.102 27.6989 99.4712 29.0295 98.5017 30.0964C97.5321 31.1633 96.2678 31.9187 94.8689 32.2668C93.4699 32.6149 91.9991 32.5401 90.6426 32.052C89.2861 31.5638 88.1049 30.6842 87.2485 29.5245C86.3921 28.3648 85.899 26.9771 85.8317 25.537C85.7643 24.0969 86.1256 22.6692 86.87 21.4346C87.8674 19.7832 89.4787 18.5943 91.3509 18.1285C93.2231 17.6627 95.2036 17.9578 96.8587 18.9492Z" fill="#EBEBEB"/>
<path d="M97.0937 19.1137L96.8411 18.9492C95.9697 18.4266 94.9993 18.0904 93.9914 17.9621C92.9514 22.2396 90.1545 26.3173 87.105 29.361C87.688 30.2015 88.4431 30.9086 89.3202 31.4351L89.7138 31.6525C93.3333 28.4326 96.4121 23.9435 97.0937 19.1137Z" fill="#FAFAFA"/>
<path d="M107.223 33.7031C106.937 34.179 106.798 34.7292 106.824 35.2841C106.85 35.839 107.04 36.3737 107.371 36.8205C107.701 37.2673 108.156 37.6062 108.678 37.7944C109.201 37.9825 109.768 38.0114 110.307 37.8775C110.846 37.7435 111.333 37.4527 111.707 37.0418C112.081 36.6309 112.325 36.1184 112.407 35.569C112.49 35.0197 112.407 34.4582 112.171 33.9556C111.934 33.453 111.554 33.0318 111.078 32.7454C110.762 32.5536 110.412 32.4263 110.047 32.3707C109.682 32.315 109.31 32.3322 108.951 32.4213C108.593 32.5103 108.256 32.6694 107.959 32.8894C107.663 33.1094 107.413 33.386 107.223 33.7031ZM111.295 36.1592C111.097 36.4902 110.804 36.7549 110.455 36.9196C110.106 37.0844 109.716 37.1418 109.334 37.0847C108.952 37.0275 108.596 36.8584 108.31 36.5987C108.025 36.3389 107.822 36.0003 107.729 35.6256C107.636 35.2509 107.657 34.857 107.788 34.4939C107.918 34.1307 108.154 33.8145 108.465 33.5854C108.776 33.3562 109.147 33.2245 109.533 33.2067C109.919 33.189 110.301 33.2861 110.631 33.4857C111.073 33.7527 111.391 34.1841 111.516 34.6852C111.64 35.1864 111.561 35.7164 111.295 36.1592Z" fill="#E0E0E0"/>
<path d="M91.5706 24.3901C91.6469 24.2608 92.6458 24.4782 92.6458 24.4782C92.6458 24.4782 93.2334 23.638 93.3333 23.6439C93.4332 23.6498 93.5801 24.6956 93.5801 24.6956C93.9291 24.7849 94.2663 24.915 94.5848 25.0834C94.5848 25.1892 93.6623 25.671 93.6623 25.671C93.6623 25.671 93.7093 26.6993 93.5977 26.7463C93.486 26.7933 92.781 26.0412 92.781 26.0412C92.4445 26.1743 92.0934 26.267 91.7351 26.3173C91.6293 26.2527 92.1523 25.3185 92.1523 25.3185C92.1523 25.3185 91.4765 24.5135 91.5706 24.3901Z" fill="#E0E0E0"/>
<path d="M93.4332 20.5121C93.4802 20.377 94.5026 20.3711 94.5026 20.3711C94.5026 20.3711 94.8727 19.4251 94.9902 19.4075C95.1078 19.3899 95.4603 20.377 95.4603 20.377C95.8201 20.3888 96.1772 20.444 96.5238 20.5415C96.5708 20.6355 95.7482 21.2877 95.7482 21.2877C95.7482 21.2877 96.0185 22.2807 95.9186 22.3571C95.8187 22.4335 94.9667 21.8459 94.9667 21.8459C94.6692 22.048 94.3474 22.2119 94.009 22.3336C93.8856 22.2983 94.2029 21.276 94.2029 21.276C94.2029 21.276 93.3862 20.6531 93.4332 20.5121Z" fill="#E0E0E0"/>
<path d="M88.8912 27.8979C88.7913 28.0037 89.2673 28.9085 89.2673 28.9085C89.2673 28.9085 88.6033 29.6783 88.6386 29.7899C88.6738 29.9015 89.7197 29.7488 89.7197 29.7488C89.7197 29.7488 90.2603 30.6242 90.366 30.6125C90.4718 30.6007 90.6598 29.5784 90.6598 29.5784C90.6598 29.5784 91.6646 29.3551 91.6822 29.2317C91.6998 29.1083 90.7832 28.6441 90.7832 28.6441C90.8269 28.2851 90.8269 27.9221 90.7832 27.563C90.6951 27.4749 89.9312 28.227 89.9312 28.227C89.9312 28.227 88.9911 27.7922 88.8912 27.8979Z" fill="#E0E0E0"/>
<path d="M143.353 79.8921C143.353 79.8921 149.963 80.5091 146.92 95.0515C143.876 109.594 141.085 117.144 141.085 117.144C141.085 117.144 140.739 120.423 143.359 120.205C145.98 119.988 151.238 117.614 153.177 120.364C155.193 123.22 153.706 126.827 149.758 130.723C145.809 134.619 137.46 143.456 136.708 144.237C135.956 145.019 135.456 146.652 137.295 146.787C139.134 146.922 151.814 144.848 152.437 150.941C153.06 157.034 140.274 166.06 138.894 167.076C137.513 168.093 137.325 168.839 137.683 169.65C138.042 170.46 142.243 169.362 145.909 168.921C149.576 168.48 153.789 168.615 153.853 172.141C153.918 175.666 147.39 184.938 127.53 192.494L118.094 195.391L110.725 188.757C95.8187 173.604 93.7622 162.475 95.2957 159.279C96.8293 156.083 100.795 157.763 103.915 159.684C107.035 161.606 110.379 164.385 111.066 163.768C111.754 163.151 111.871 162.417 111.037 160.918C110.202 159.42 102.352 145.882 105.461 140.606C108.569 135.33 119.251 142.521 120.955 143.15C122.659 143.779 122.865 142.092 122.524 141.07C122.183 140.048 118.282 128.508 116.313 123.325C114.345 118.143 114.498 114.236 117.524 112.485C120.461 110.793 124.222 115.141 126.513 116.433C128.805 117.726 129.857 114.6 129.857 114.6C129.857 114.6 130.444 106.574 133.77 92.0901C137.096 77.6065 143.488 79.8921 143.488 79.8921" fill="#F5F5F5"/>
<path d="M140.656 92.8892C140.648 92.9801 140.635 93.0704 140.615 93.1595C140.574 93.3534 140.521 93.6119 140.457 93.941L139.81 96.9317L137.401 107.913C135.392 117.215 132.624 130.024 129.569 144.178C126.513 158.333 123.74 171.171 121.631 180.432C120.567 185.044 119.703 188.781 119.098 191.39C118.793 192.665 118.552 193.664 118.381 194.363C118.299 194.686 118.235 194.95 118.188 195.133C118.171 195.222 118.143 195.309 118.105 195.391C118.114 195.302 118.128 195.214 118.146 195.127C118.188 194.933 118.24 194.674 118.305 194.345L118.951 191.354L121.36 180.367C123.399 171.095 126.161 158.268 129.193 144.096C132.225 129.924 135.021 117.109 137.131 107.849C138.194 103.236 139.058 99.4994 139.663 96.8906C139.969 95.6156 140.21 94.6167 140.38 93.9175L140.574 93.1419C140.594 93.0554 140.622 92.9709 140.656 92.8892Z" fill="#E0E0E0"/>
<path d="M145.962 123.96C145.304 124.555 144.612 125.11 143.888 125.623L138.829 129.542C136.855 131.076 135.057 132.48 133.723 133.414C133.059 133.89 132.507 134.266 132.125 134.513C131.934 134.659 131.722 134.776 131.496 134.859C131.496 134.818 132.278 134.207 133.564 133.197L138.576 129.248C140.551 127.715 142.372 126.357 143.712 125.417C144.382 124.947 144.934 124.571 145.322 124.324C145.515 124.171 145.731 124.048 145.962 123.96Z" fill="#E0E0E0"/>
<path d="M130.679 134.425C130.591 134.483 127.83 130.711 124.51 125.993C121.19 121.275 118.569 117.403 118.634 117.344C118.699 117.285 121.484 121.057 124.809 125.776C128.135 130.494 130.767 134.366 130.679 134.425Z" fill="#E0E0E0"/>
<path d="M126.513 159.679C126.288 159.582 126.076 159.456 125.885 159.302C125.491 159.044 124.945 158.65 124.269 158.127C122.923 157.128 121.096 155.707 119.163 154.014C117.23 152.322 115.561 150.73 114.386 149.537C113.798 148.949 113.334 148.444 113.017 148.097C112.838 147.923 112.684 147.726 112.559 147.51C113.267 148.073 113.94 148.68 114.574 149.326C115.796 150.465 117.512 152.034 119.416 153.709C121.319 155.383 123.135 156.835 124.433 157.886C125.164 158.439 125.859 159.038 126.513 159.679Z" fill="#E0E0E0"/>
<path d="M142.413 153.245C141.683 153.651 140.92 153.997 140.133 154.279C138.706 154.866 136.72 155.671 134.522 156.529C132.325 157.387 130.327 158.139 128.875 158.668C128.101 158.989 127.304 159.25 126.49 159.449C127.225 159.048 127.989 158.703 128.776 158.415C130.203 157.828 132.184 157.029 134.387 156.171C136.59 155.313 138.582 154.555 140.033 154.026C140.806 153.707 141.602 153.446 142.413 153.245Z" fill="#E0E0E0"/>
<path d="M141.567 176.007C141.324 176.162 141.064 176.288 140.791 176.383L138.617 177.27C136.772 178.005 134.222 178.992 131.396 180.061C128.57 181.131 125.996 182.083 124.128 182.752L121.913 183.528C121.647 183.638 121.369 183.717 121.084 183.763C121.326 183.606 121.587 183.48 121.86 183.387L124.034 182.5C125.879 181.765 128.429 180.778 131.255 179.709C134.081 178.639 136.655 177.688 138.518 177.018L140.739 176.242C141.004 176.131 141.283 176.053 141.567 176.007Z" fill="#E0E0E0"/>
<path d="M121.537 183.44C121.267 183.291 121.013 183.116 120.779 182.917C120.303 182.559 119.604 182.024 118.799 181.36C117.148 180.02 114.909 178.122 112.517 175.931C110.126 173.739 108.04 171.671 106.565 170.143C105.831 169.373 105.243 168.745 104.844 168.304C104.625 168.087 104.428 167.849 104.256 167.593C104.512 167.76 104.747 167.957 104.955 168.181L106.759 169.943C108.281 171.424 110.39 173.469 112.776 175.643C115.162 177.817 117.371 179.756 118.975 181.148L120.873 182.794C121.117 182.984 121.34 183.201 121.537 183.44Z" fill="#E0E0E0"/>
<path d="M222.163 164.267L201.057 191.486L228.471 212.743L249.577 185.524L222.163 164.267Z" fill="#E0E0E0"/>
<path d="M233.347 173.037L212.336 200.247L239.742 221.408L260.752 194.198L233.347 173.037Z" fill="#EBEBEB"/>
<path d="M238.152 204.869L236.478 207.025L227.488 200.051L236.489 188.44L245.268 195.244L243.599 197.406L237.488 192.671L235.526 195.185L240.914 199.369L239.298 201.461L233.904 197.277L231.818 199.968L238.152 204.869Z" fill="white"/>
<path d="M219.802 191.783C219.802 191.866 215.601 191.872 210.43 191.783C205.26 191.695 201.029 191.566 201.029 191.484C201.029 191.402 205.225 191.396 210.43 191.484C215.636 191.572 219.802 191.695 219.802 191.783Z" fill="#EBEBEB"/>
<path d="M225.878 183.945C225.878 184.027 221.682 184.033 216.506 183.945C211.329 183.857 207.134 183.728 207.134 183.646C207.134 183.563 211.335 183.557 216.535 183.646C221.735 183.734 225.878 183.892 225.878 183.945Z" fill="#EBEBEB"/>
<path d="M231.953 176.107C231.953 176.195 227.758 176.195 222.581 176.107C217.405 176.019 213.18 175.89 213.18 175.807C213.18 175.725 217.381 175.719 222.581 175.807C227.781 175.895 231.959 176.025 231.953 176.107Z" fill="#EBEBEB"/>
<path d="M227.112 168.098C225.812 168.235 224.503 168.267 223.198 168.192C221.89 168.224 220.582 168.151 219.285 167.975C220.587 167.846 221.898 167.816 223.204 167.887C224.51 167.859 225.816 167.93 227.112 168.098Z" fill="#EBEBEB"/>
<path d="M197.151 120.352H162.461V154.796H197.151V120.352Z" fill="#EBEBEB"/>
<path d="M212.299 120.352H177.609V154.796H212.299V120.352Z" fill="#F5F5F5"/>
<path d="M187.674 138.021C187.674 133.59 191.076 130.423 195.653 130.423C196.792 130.375 197.926 130.584 198.973 131.035C200.02 131.485 200.952 132.166 201.699 133.026L199.513 135.042C199.066 134.496 198.502 134.057 197.862 133.759C197.222 133.461 196.523 133.311 195.818 133.32C194.571 133.32 193.375 133.815 192.494 134.697C191.612 135.578 191.117 136.774 191.117 138.021C191.117 139.267 191.612 140.463 192.494 141.344C193.375 142.226 194.571 142.721 195.818 142.721C196.527 142.725 197.227 142.569 197.867 142.263C198.507 141.958 199.07 141.512 199.513 140.958L201.699 142.974C200.312 144.678 198.174 145.6 195.629 145.6C191.076 145.624 187.674 142.451 187.674 138.021Z" fill="white"/>
<path d="M177.456 143.544C177.509 143.614 174.195 146.188 170.053 149.29C165.91 152.393 162.514 154.866 162.467 154.796C162.42 154.725 165.728 152.158 169.87 149.049C174.013 145.941 177.409 143.479 177.456 143.544Z" fill="#E0E0E0"/>
<path d="M177.456 133.626C177.509 133.696 174.195 136.27 170.053 139.378C165.91 142.486 162.514 144.948 162.467 144.878C162.42 144.807 165.728 142.239 169.87 139.131C174.013 136.023 177.409 133.561 177.456 133.626Z" fill="#E0E0E0"/>
<path d="M177.456 123.713C177.509 123.778 174.195 126.351 170.053 129.46C165.91 132.568 162.514 135.03 162.467 134.965C162.42 134.901 165.728 132.321 169.87 129.213C174.013 126.105 177.409 123.643 177.456 123.713Z" fill="#E0E0E0"/>
<path d="M168.719 120.352C167.773 121.252 166.76 122.077 165.687 122.82C164.672 123.643 163.595 124.388 162.467 125.047C163.41 124.143 164.424 123.315 165.499 122.573C166.513 121.751 167.59 121.008 168.719 120.352Z" fill="#E0E0E0"/>
<path d="M237.7 28.8557V88.4413H160.734L157.96 29.2728L237.7 28.8557Z" fill="#E0E0E0"/>
<path d="M157.96 29.2023V88.4413H234.926V29.2023L157.96 29.2023Z" fill="white"/>
<path d="M235.22 88.7351H157.661V28.9026H235.22V88.7351ZM158.248 88.1475H234.633V29.4902H158.248V88.1475Z" fill="#E0E0E0"/>
<path d="M226.589 35.2896H166.298V80.6442H226.589V35.2896Z" fill="white"/>
<path d="M226.589 35.2837H226.301H225.449H222.164L209.825 35.3189L166.345 35.3894L166.486 35.2484C166.486 48.8566 166.486 64.298 166.486 80.6031L166.333 80.4503L226.624 80.4797L226.501 80.6031C226.53 66.9009 226.548 55.5784 226.565 47.6697C226.565 43.7153 226.565 40.6188 226.6 38.5036C226.6 37.4459 226.6 36.641 226.6 36.0887C226.6 35.5363 226.6 35.2484 226.6 35.2484C226.6 35.2484 226.6 35.5187 226.6 36.0593C226.6 36.5998 226.6 37.4048 226.6 38.4507C226.6 40.5601 226.6 43.6507 226.636 47.5933C226.636 55.5197 226.671 66.8657 226.7 80.6031V80.7324H226.571H166.28H166.128V80.5796C166.128 64.2745 166.128 48.8507 166.128 35.2249V35.0898H166.263L209.855 35.1544L222.194 35.1955H225.449H226.559L226.589 35.2837Z" fill="#E0E0E0"/>
<path d="M157.966 29.0613C158.429 29.2793 158.866 29.5473 159.271 29.8604C160.052 30.3833 161.121 31.1296 162.273 31.9815C163.425 32.8335 164.453 33.6444 165.176 34.2496C165.587 34.5541 165.965 34.9007 166.304 35.2837C165.855 35.0409 165.434 34.7514 165.046 34.42L162.109 32.2283L159.171 30.0367C158.739 29.7507 158.336 29.4241 157.966 29.0613Z" fill="#E0E0E0"/>
<path d="M234.938 29.1964C233.643 30.3322 232.281 31.3897 230.86 32.3635C229.501 33.4274 228.078 34.4085 226.6 35.3013C227.897 34.1677 229.259 33.1103 230.678 32.1343C232.038 31.0703 233.46 30.0892 234.938 29.1964Z" fill="#E0E0E0"/>
<path d="M226.283 80.6384C227.823 81.8236 229.3 83.0886 230.708 84.4282C232.185 85.6892 233.593 87.0289 234.926 88.4413C233.386 87.2561 231.91 85.9911 230.502 84.6515C229.026 83.3886 227.618 82.0491 226.283 80.6384Z" fill="#E0E0E0"/>
<path d="M157.966 88.4413C159.235 87.0883 160.579 85.8074 161.991 84.6045C163.333 83.3228 164.746 82.1164 166.222 80.9909C164.951 82.3421 163.607 83.623 162.197 84.8277C160.852 86.1074 159.44 87.3137 157.966 88.4413Z" fill="#E0E0E0"/>
<path d="M194.049 59.7972C193.983 59.1669 193.967 58.5322 194.002 57.8993C194.043 57.1531 194.002 56.3893 194.002 55.6431C193.973 52.9814 192.198 51.342 189.583 51.3714C188.353 51.497 187.181 51.9561 186.193 52.6993C181.551 55.8781 183.255 62.8702 186.193 66.4896C187.155 67.6382 188.308 68.6121 189.601 69.3687C191.217 70.2618 193.89 70.3265 195.007 68.7812C195.438 68.1768 195.704 67.47 195.779 66.731C195.853 65.992 195.733 65.2464 195.43 64.5683C194.729 63.0576 194.263 61.4487 194.049 59.7972Z" fill="#EBEBEB"/>
<path d="M194.983 49.2855C194.525 50.731 193.22 51.6358 192.098 51.2539C190.976 50.872 190.418 49.4265 190.882 47.9752C191.346 46.5239 192.645 45.625 193.767 46.0069C194.889 46.3888 195.471 47.8342 194.983 49.2855Z" fill="#EBEBEB"/>
<path d="M189.695 49.027C189.695 50.0905 188.996 50.9425 188.161 50.9307C187.327 50.919 186.669 50.0494 186.681 48.9858C186.693 47.9223 187.38 47.0704 188.214 47.0821C189.049 47.0939 189.695 47.9635 189.695 49.027Z" fill="#EBEBEB"/>
<path d="M185.993 49.8555C186.405 50.7133 186.199 51.671 185.529 51.9942C184.859 52.3174 183.978 51.8885 183.561 51.0306C183.144 50.1727 183.355 49.215 184.025 48.8918C184.695 48.5687 185.582 48.9976 185.993 49.8555Z" fill="#EBEBEB"/>
<path d="M183.296 52.0706C183.45 52.2583 183.548 52.4853 183.578 52.7259C183.609 52.9664 183.571 53.2108 183.47 53.4309C183.368 53.6511 183.207 53.8383 183.004 53.971C182.801 54.1038 182.565 54.1768 182.322 54.1817C182.08 54.1866 181.841 54.1232 181.633 53.9988C181.425 53.8743 181.256 53.6939 181.145 53.478C181.035 53.2621 180.987 53.0195 181.008 52.7779C181.029 52.5363 181.118 52.3055 181.263 52.1117C181.675 51.5594 182.585 51.5418 183.296 52.0706Z" fill="#EBEBEB"/>
<path d="M182.057 54.9673C182.236 55.0741 182.383 55.2292 182.479 55.415C182.575 55.6008 182.617 55.8099 182.6 56.0184C182.583 56.2268 182.507 56.4263 182.382 56.5941C182.258 56.7619 182.088 56.8912 181.893 56.9673C181.698 57.0434 181.486 57.0632 181.281 57.0246C181.075 56.9859 180.884 56.8903 180.731 56.7486C180.577 56.6069 180.466 56.4248 180.41 56.2231C180.355 56.0214 180.357 55.8082 180.417 55.6078C180.554 55.3088 180.801 55.0747 181.107 54.9551C181.413 54.8355 181.754 54.8399 182.057 54.9673Z" fill="#EBEBEB"/>
<path d="M201.611 59.7972C201.677 59.1669 201.693 58.5322 201.658 57.8993C201.623 57.1531 201.658 56.3893 201.658 55.6431C201.687 52.9814 203.468 51.342 206.082 51.3714C207.31 51.498 208.48 51.9571 209.467 52.6993C214.115 55.8781 212.405 62.8702 209.467 66.4896C208.506 67.6396 207.353 68.6138 206.059 69.3687C204.443 70.2618 201.77 70.3265 200.653 68.7812C200.223 68.1763 199.957 67.4696 199.883 66.7308C199.809 65.9921 199.928 65.2467 200.23 64.5683C200.934 63.0586 201.399 61.4492 201.611 59.7972Z" fill="#EBEBEB"/>
<path d="M200.653 49.2855C201.117 50.731 202.416 51.6358 203.544 51.2539C204.672 50.872 205.219 49.4265 204.76 47.9752C204.302 46.5239 202.998 45.625 201.87 46.0069C200.741 46.3888 200.195 47.8342 200.653 49.2855Z" fill="#EBEBEB"/>
<path d="M205.965 49.027C205.965 50.0905 206.664 50.9425 207.498 50.9307C208.333 50.919 208.997 50.0494 208.979 48.9858C208.961 47.9223 208.28 47.0704 207.446 47.0821C206.611 47.0939 205.953 47.9635 205.965 49.027Z" fill="#EBEBEB"/>
<path d="M209.672 49.8555C209.255 50.7133 209.461 51.671 210.131 51.9942C210.801 52.3174 211.682 51.8885 212.099 51.0306C212.516 50.1727 212.311 49.215 211.635 48.8918C210.959 48.5687 210.084 48.9976 209.672 49.8555Z" fill="#EBEBEB"/>
<path d="M212.364 52.0706C212.038 52.2665 211.801 52.5815 211.703 52.9489C211.606 53.3163 211.655 53.7072 211.841 54.039C212.252 54.5913 213.163 54.6266 213.874 54.0801C214.053 54.0025 214.212 53.8852 214.34 53.737C214.467 53.5889 214.56 53.4138 214.61 53.2248C214.66 53.0359 214.666 52.838 214.629 52.6462C214.592 52.4543 214.511 52.2735 214.394 52.1172C214.276 51.9609 214.125 51.8333 213.951 51.744C213.777 51.6547 213.585 51.6059 213.39 51.6014C213.194 51.597 213.001 51.6369 212.823 51.7181C212.645 51.7994 212.488 51.9199 212.364 52.0706Z" fill="#EBEBEB"/>
<path d="M213.627 54.9673C213.307 55.0276 213.022 55.2092 212.833 55.4741C212.644 55.7391 212.564 56.0669 212.61 56.3893C212.624 56.6876 212.731 56.9741 212.916 57.2087C213.101 57.4434 213.354 57.6145 213.641 57.6981C213.928 57.7818 214.233 57.7738 214.515 57.6753C214.797 57.5768 215.041 57.3928 215.214 57.1488C215.386 56.9048 215.478 56.6132 215.476 56.3145C215.475 56.0159 215.38 55.7251 215.205 55.4829C215.03 55.2408 214.784 55.0592 214.501 54.9636C214.218 54.868 213.913 54.8631 213.627 54.9497V54.9673Z" fill="#EBEBEB"/>
<path d="M269.452 223.847C269.452 223.929 209.796 224 136.232 224C62.6679 224 3 223.929 3 223.847C3 223.765 62.6385 223.694 136.232 223.694C209.825 223.694 269.452 223.765 269.452 223.847Z" fill="#263238"/>
<path d="M27.6839 163.85C28.6475 168.992 23.1831 174.967 22.6837 177.188C22.1842 179.409 22.4134 181.889 23.8588 183.693C25.1586 185.178 26.9766 186.111 28.9413 186.301C30.887 186.482 32.8478 186.413 34.7759 186.096L52.7908 183.892" fill="#583BBF"/>
<path d="M75.9646 116.745L89.9018 126.069L89.755 160.384C89.755 160.384 90.7186 177.94 89.514 180.825C88.3095 183.71 27.6897 188.287 27.6897 188.287C27.6897 188.287 26.9729 165.672 27.6897 154.367C28.4066 143.062 47.8728 111.474 47.8728 111.474L75.9646 116.745Z" fill="#583BBF"/>
<path d="M87.0874 187.048C87.0874 187.048 108.293 173.622 113.939 175.76C119.586 177.899 133.394 199.692 133.394 199.692L125.415 214.481L107.517 201.055C107.517 201.055 107.905 215.457 94.8727 218.177C81.8404 220.898 87.0874 187.048 87.0874 187.048Z" fill="#EB996E"/>
<path d="M91.9231 128.114L92.3168 128.625C93.6976 130.388 98.2571 136.428 99.779 140.148C101.577 144.554 105.185 152.763 107.182 155.765C109.18 158.768 119.95 168.615 122.8 177.787C124.98 184.797 126.408 191.008 126.408 191.008L111.789 197.406C111.789 197.406 95.5719 177.787 93.7681 173.786C91.9642 169.785 89.9841 166.148 89.9841 166.148L88.3624 143.544" fill="#FFBE9D"/>
<path d="M27.3725 185.385C27.3725 185.385 24.0468 188.728 24.37 192.13C24.6931 195.532 24.37 203.141 24.37 203.141C24.37 203.141 25.692 226.297 48.0374 223.542L69.2957 221.591C69.2957 221.591 81.0471 221.92 87.0639 217.067C93.0806 212.213 94.8316 187.688 92.5694 185.385L90.8067 183.928C90.8067 183.928 90.7421 181.93 89.5611 181.278C88.38 180.625 27.3725 185.385 27.3725 185.385Z" fill="#F5F5F5"/>
<path d="M27.3725 185.385L27.6839 185.35L28.6064 185.267L32.1964 184.968L45.6694 183.892L66.305 182.382L78.8026 181.542C80.9943 181.407 83.2388 181.278 85.5362 181.172C86.7113 181.125 87.8395 181.066 89.0205 181.084C89.18 181.084 89.3392 181.098 89.4964 181.125C89.5793 181.152 89.6569 181.194 89.7256 181.248C89.7931 181.291 89.8561 181.34 89.9136 181.395C90.1437 181.606 90.3312 181.86 90.4659 182.141C90.7234 182.696 90.873 183.294 90.9066 183.904L90.8537 183.798L92.6164 185.256C92.9733 185.754 93.1995 186.334 93.2745 186.942C93.3825 187.525 93.4609 188.113 93.5095 188.705C93.6035 189.88 93.6212 191.09 93.6036 192.3C93.5616 194.76 93.387 197.216 93.0806 199.657C92.7827 202.175 92.3433 204.674 91.7645 207.143C91.2109 209.69 90.3383 212.158 89.1674 214.487C88.7189 215.334 88.1532 216.113 87.4869 216.802C87.1386 217.129 86.7631 217.426 86.3647 217.689C85.9913 217.966 85.5986 218.215 85.1895 218.436C83.5504 219.326 81.8052 220.005 79.9954 220.457C76.4814 221.346 72.8672 221.776 69.2428 221.738L52.5088 223.26L48.5427 223.618C47.2324 223.73 45.9397 223.888 44.6588 223.877C42.1563 223.926 39.665 223.528 37.3024 222.701C35.0901 221.91 33.0642 220.672 31.3503 219.064C29.7707 217.568 28.4468 215.824 27.4312 213.9C26.4948 212.15 25.7558 210.301 25.2278 208.388C24.74 206.66 24.4154 204.889 24.2583 203.1C24.3876 200.162 24.4464 197.524 24.4346 195.232C24.4346 194.087 24.3935 193.023 24.3112 192.054C24.2567 191.159 24.395 190.264 24.7166 189.427C25.1553 188.29 25.77 187.23 26.5381 186.284C26.7937 185.953 27.0725 185.641 27.3725 185.35L27.1668 185.59C27.0258 185.749 26.826 185.99 26.5792 186.313C25.8345 187.265 25.24 188.325 24.8165 189.457C24.5078 190.282 24.3776 191.163 24.4346 192.042C24.5227 193.017 24.5639 194.081 24.5815 195.232C24.6109 197.53 24.5815 200.162 24.4405 203.106C24.7859 206.845 25.8704 210.478 27.631 213.794C28.6448 215.689 29.9561 217.409 31.5148 218.888C33.2122 220.463 35.2109 221.679 37.3906 222.461C39.7278 223.262 42.1885 223.644 44.6588 223.589C45.9339 223.589 47.2148 223.442 48.5192 223.33L52.4853 222.96L69.2428 221.438C72.8304 221.48 76.4086 221.062 79.8896 220.193C81.6729 219.748 83.3925 219.078 85.0074 218.201C85.4175 217.987 85.8104 217.741 86.1825 217.466C86.5702 217.216 86.9324 216.929 87.2636 216.608C87.9107 215.943 88.4606 215.189 88.8971 214.37C90.0512 212.061 90.9137 209.617 91.4648 207.096C92.0399 204.638 92.4773 202.151 92.7751 199.645C93.0785 197.216 93.2531 194.772 93.298 192.324C93.298 191.149 93.298 189.933 93.2099 188.757C93.1511 188.17 93.0924 187.582 92.9807 187.03C92.9067 186.476 92.7056 185.948 92.3931 185.485L90.6304 184.027L90.5834 183.986V183.916C90.5562 183.343 90.4185 182.78 90.178 182.259C90.0564 182.01 89.8913 181.785 89.6903 181.595C89.6415 181.549 89.5884 181.507 89.5317 181.472C89.4788 181.472 89.4083 181.378 89.3789 181.389C89.2449 181.367 89.1093 181.355 88.9735 181.354C87.7983 181.354 86.6526 181.395 85.5127 181.436C83.2212 181.542 80.9766 181.671 78.7791 181.801L66.305 182.623L45.6812 184.08L32.2258 185.067L28.6357 185.32L27.7074 185.379L27.3725 185.385Z" fill="#263238"/>
<path d="M41.533 219.834C41.533 219.834 36.1919 213.018 37.9723 205.568C39.7526 198.117 46.8446 185.161 58.4374 183.058C70.0302 180.954 75.0774 182.57 79.9249 186.213C84.7724 189.856 87.7455 193.293 93.3803 195.056C99.0151 196.819 115.073 203.788 115.073 203.788L112.97 219.834C112.97 219.834 89.9606 219.793 84.5432 218.659C81.3297 218 78.1741 217.084 75.1068 215.921C74.2582 217.783 72.9503 219.399 71.3058 220.617C69.6613 221.835 67.7343 222.615 65.7057 222.884C58.9192 223.771 46.7153 225.51 41.533 219.834Z" fill="#FFBE9D"/>
<path d="M89.9019 126.069C93.1193 128.883 95.9558 132.105 98.3394 135.653C101.659 140.894 105.496 150.988 105.496 150.988C105.496 150.988 89.0088 163.022 87.7278 162.74C86.4469 162.458 82.757 141 82.757 141L89.9019 126.069Z" fill="#583BBF"/>
<path d="M89.6316 172.629C89.6041 172.509 89.5903 172.387 89.5905 172.264C89.5905 171.994 89.5552 171.677 89.5317 171.224C89.4847 170.284 89.4201 168.986 89.3378 167.393C89.1733 164.162 88.9148 159.696 88.527 154.772C88.1392 149.848 87.6867 145.371 87.3518 142.175C87.1755 140.594 87.0345 139.302 86.9346 138.367C86.8935 137.938 86.8583 137.598 86.8289 137.327C86.821 137.206 86.821 137.084 86.8289 136.963C86.8707 137.078 86.8964 137.199 86.9053 137.321C86.9523 137.586 87.0051 137.909 87.0698 138.35C87.2049 139.243 87.3812 140.547 87.581 142.151C87.9864 145.365 88.4682 149.819 88.8619 154.749C89.2555 159.679 89.4494 164.15 89.5846 167.387C89.6375 169.003 89.6668 170.325 89.6786 171.224V172.264C89.6786 172.387 89.6628 172.51 89.6316 172.629Z" fill="#263238"/>
<path d="M49.1302 223.442C48.4464 223.479 47.7607 223.412 47.0972 223.242C45.2797 222.776 43.6189 221.835 42.285 220.516C41.3637 219.616 40.5726 218.591 39.9347 217.472C39.2056 216.176 38.6392 214.794 38.2484 213.359C37.7771 211.801 37.4814 210.194 37.3671 208.57C37.313 207.7 37.3762 206.827 37.5551 205.973L37.8195 204.681C37.9311 204.252 38.0486 203.817 38.1662 203.382C38.6493 201.7 39.2948 200.069 40.0934 198.511C40.4518 197.741 40.916 197.042 41.3155 196.331C41.7151 195.62 42.1851 194.974 42.6728 194.363C44.322 192.154 46.2185 190.141 48.3253 188.364C50.2592 186.71 52.3445 185.243 54.5535 183.98C54.5535 183.98 54.4125 184.092 54.1246 184.292L52.879 185.138C51.8155 185.902 50.2643 187.001 48.4957 188.534C46.4222 190.321 44.554 192.333 42.9255 194.533C42.4496 195.121 42.0441 195.826 41.5917 196.496C41.1393 197.166 40.7456 197.888 40.4166 198.652C39.6269 200.195 38.9893 201.81 38.5128 203.476C38.4012 203.905 38.2837 204.334 38.1662 204.757C38.0486 205.18 37.9958 205.615 37.9076 206.038C37.7318 206.866 37.6685 207.714 37.7196 208.559C37.8183 210.167 38.0982 211.76 38.554 213.306C38.9357 214.712 39.4841 216.067 40.1874 217.343C40.8088 218.451 41.5843 219.466 42.4907 220.357C43.79 221.673 45.4102 222.627 47.1913 223.125C47.8287 223.279 48.4769 223.385 49.1302 223.442Z" fill="#263238"/>
<path d="M43.043 195.091C42.8092 195.173 42.5666 195.226 42.3203 195.25C41.8502 195.338 41.1451 195.426 40.3225 195.503C35.885 195.899 31.4128 195.428 27.1551 194.116C26.3442 193.863 25.692 193.634 25.2513 193.452C25.0174 193.371 24.7913 193.268 24.5756 193.147C24.8219 193.18 25.0628 193.245 25.2925 193.34C25.7449 193.487 26.3971 193.681 27.2138 193.928C31.471 195.11 35.8949 195.577 40.3049 195.309C41.151 195.256 41.8326 195.197 42.3027 195.15C42.5468 195.106 42.7949 195.086 43.043 195.091Z" fill="#263238"/>
<path d="M32.2258 219.282C32.2258 219.282 32.1494 219.235 32.0261 219.111C31.8475 218.939 31.6788 218.756 31.5207 218.565C30.9233 217.864 30.4142 217.093 30.0048 216.268C28.681 213.509 28.1268 210.443 28.4007 207.395C28.6969 204.379 29.3904 201.416 30.4631 198.582C30.8509 197.495 31.1858 196.619 31.4267 196.02C31.5337 195.702 31.6674 195.393 31.8263 195.097C31.7549 195.425 31.6586 195.748 31.5384 196.061L30.6629 198.652C29.6622 201.492 29.0034 204.441 28.7004 207.436C28.4329 210.428 28.9429 213.437 30.1811 216.174C30.7426 217.284 31.4286 218.327 32.2258 219.282Z" fill="#263238"/>
<path d="M142.913 188.898H107.882V223.683H142.913V188.898Z" fill="#583BBF"/>
<g opacity="0.3">
<path d="M142.913 188.898H107.882V223.683H142.913V188.898Z" fill="black"/>
</g>
<path d="M158.207 188.898H123.176V223.683H158.207V188.898Z" fill="#583BBF"/>
<path d="M144.047 210.985H137.154L135.844 214.164H132.319L138.935 199.322H142.331L148.965 214.164H145.363L144.047 210.985ZM142.965 208.376L140.615 202.695L138.265 208.376H142.965Z" fill="white"/>
<path d="M123.023 212.319C123.076 212.384 119.727 214.987 115.543 218.118C111.36 221.25 107.905 223.747 107.905 223.683C107.905 223.618 111.201 221.015 115.385 217.878C119.568 214.74 122.97 212.249 123.023 212.319Z" fill="#263238"/>
<path d="M123.023 202.301C123.076 202.371 119.727 204.969 115.543 208.106C111.36 211.244 107.905 213.735 107.905 213.665C107.905 213.594 111.201 211.003 115.385 207.859C119.568 204.716 122.97 202.236 123.023 202.301Z" fill="#263238"/>
<path d="M123.023 192.289C123.076 192.359 119.727 194.956 115.543 198.094C111.36 201.232 107.905 203.717 107.905 203.652C107.905 203.588 111.201 200.985 115.385 197.847C119.568 194.71 122.97 192.224 123.023 192.289Z" fill="#263238"/>
<path d="M114.204 188.893C113.246 189.801 112.221 190.636 111.137 191.39C110.11 192.221 109.022 192.973 107.882 193.64C108.838 192.73 109.863 191.895 110.949 191.143C111.974 190.31 113.063 189.558 114.204 188.893Z" fill="#263238"/>
<path d="M102.734 198.582C102.734 198.582 124.251 204.457 125.65 203.741C127.048 203.024 138.741 196.584 140.339 197.406C141.238 197.877 142.225 197.154 140.339 201.061C139.011 203.811 133.67 213.947 130.632 219.705C130.001 220.904 129.02 221.883 127.82 222.513C126.619 223.142 125.256 223.392 123.911 223.23L92.6165 219.411L102.734 198.582Z" fill="#FFBE9D"/>
<path d="M66.4989 202.319C66.5576 202.319 66.6164 203.218 66.9513 204.634C67.1467 205.46 67.402 206.271 67.7152 207.06C68.1067 208.022 68.5743 208.952 69.1136 209.84C69.6791 210.717 70.3116 211.55 71.0056 212.331C71.5723 212.963 72.1851 213.552 72.8388 214.094C73.9552 215.016 74.7425 215.474 74.7131 215.521C74.5052 215.452 74.3076 215.355 74.1256 215.233C73.9045 215.118 73.6924 214.987 73.491 214.84C73.2128 214.658 72.9442 214.462 72.686 214.252C72.0025 213.718 71.3638 213.128 70.7764 212.489C70.0619 211.708 69.4189 210.865 68.8551 209.969C68.3167 209.074 67.8567 208.134 67.4801 207.16C67.1758 206.354 66.9381 205.525 66.7692 204.681C66.6972 204.357 66.6423 204.029 66.6046 203.699C66.5646 203.454 66.541 203.207 66.5341 202.959C66.4981 202.748 66.4862 202.533 66.4989 202.319Z" fill="#EB996E"/>
<path d="M75.0363 215.739C74.8056 215.732 74.5767 215.696 74.3547 215.633C73.9199 215.545 73.2853 215.41 72.5156 215.21C70.474 214.741 68.5425 213.881 66.8279 212.677C65.888 211.989 65.0899 211.125 64.4776 210.133C63.9946 209.317 63.6585 208.422 63.4846 207.489C63.3697 206.864 63.3342 206.226 63.3789 205.591C63.3817 205.358 63.4194 205.126 63.4905 204.904C63.4752 205.757 63.5461 206.609 63.702 207.448C63.896 208.345 64.2397 209.203 64.7185 209.986C65.3207 210.935 66.0937 211.764 66.9983 212.431C68.6864 213.609 70.5704 214.479 72.5626 214.998L74.3723 215.521C74.6005 215.571 74.8229 215.644 75.0363 215.739Z" fill="#EB996E"/>
<path d="M47.8729 111.486C47.8729 111.486 32.643 115.663 30.2457 125.294C27.8484 134.924 20.9679 163.486 28.906 172.382C36.8441 181.278 59.9416 182.482 59.9416 182.482L75.0951 176.706L46.9151 159.631C46.9151 159.631 49.853 144.942 50.2995 142.069C50.7461 139.196 47.8729 111.486 47.8729 111.486Z" fill="#FFBE9D"/>
<path d="M48.9892 111.268C48.9892 111.268 31.1388 113.971 27.3725 129.624C23.6061 145.277 24.6579 148.127 25.175 148.585C25.692 149.043 28.3243 146.347 34.4292 147.71C40.5341 149.073 46.0455 158.709 50.1291 155.73C54.2128 152.751 53.7603 128.114 53.7603 128.114L48.9892 111.268Z" fill="#583BBF"/>
<path d="M47.5791 156.823C47.5791 156.823 47.679 156.876 47.8729 156.94C48.1527 157.024 48.4509 157.024 48.7307 156.94C49.1774 156.816 49.5753 156.558 49.8706 156.2C50.2439 155.707 50.4498 155.108 50.4582 154.49C50.4569 153.732 50.4098 152.975 50.3172 152.222C50.2466 151.4 50.182 150.524 50.1174 149.602C49.994 147.751 49.8941 145.718 49.8471 143.579C49.7603 139.927 49.8603 136.274 50.1468 132.633C50.2584 131.234 50.3818 130.106 50.4817 129.33L50.6109 128.437C50.6168 128.331 50.6385 128.226 50.6756 128.126C50.6885 128.231 50.6885 128.338 50.6756 128.443C50.6756 128.684 50.6344 128.978 50.6051 129.342C50.5463 130.124 50.4523 131.252 50.3642 132.644C50.1938 135.435 50.0586 139.302 50.1585 143.573C50.2055 145.706 50.2937 147.733 50.4053 149.584C50.4641 150.501 50.5228 151.376 50.5757 152.205C50.6585 152.967 50.6938 153.735 50.6815 154.502C50.6671 155.157 50.4403 155.79 50.0351 156.306C49.7144 156.683 49.279 156.945 48.7953 157.052C48.4913 157.123 48.1725 157.097 47.8846 156.976C47.7733 156.946 47.6693 156.894 47.5791 156.823Z" fill="#263238"/>
<path d="M62.3917 178.069C62.3917 178.069 57.5031 183.845 60.9111 189.38C60.9111 189.38 59.9239 202.377 62.3917 202.847C64.6598 203.282 65.9994 198.276 65.9994 198.276C65.9994 198.276 64.319 208.623 68.4085 206.937C68.4085 206.937 72.9798 207.901 74.8718 199.722C74.8718 199.722 78.4795 198.276 79.2022 196.114C79.9249 193.952 79.2022 189.38 79.2022 189.38L77.651 184.68L80.8885 187.67C81.3512 186.493 81.4609 185.207 81.2042 183.968C80.9475 182.729 80.3355 181.592 79.4431 180.696C76.3172 177.329 74.2254 176.248 74.2254 176.248L62.3917 178.069Z" fill="#FFBE9D"/>
<path d="M74.343 176.254C74.425 176.285 74.5037 176.325 74.578 176.371C74.7249 176.454 74.9364 176.589 75.2067 176.777C75.9997 177.336 76.7554 177.946 77.4688 178.604C77.933 179.027 78.4325 179.503 78.9613 180.044C79.5538 180.617 80.0818 181.253 80.536 181.942C81.063 182.805 81.3833 183.779 81.472 184.787C81.5607 185.795 81.4153 186.81 81.0471 187.753L80.9884 187.905L80.8591 187.788L77.6157 184.803L77.8273 184.668C78.3267 186.154 78.8496 187.717 79.3902 189.339C79.5312 190.303 79.6311 191.284 79.684 192.277C79.7586 193.318 79.7192 194.364 79.5665 195.397C79.4876 195.944 79.2868 196.466 78.9789 196.925C78.6567 197.377 78.273 197.783 77.839 198.129C76.9667 198.824 76.0016 199.394 74.9717 199.821L75.0598 199.716L74.7308 200.932C74.6191 201.349 74.4428 201.755 74.3018 202.172C73.8308 203.488 73.0858 204.69 72.1161 205.697C71.6319 206.184 71.0469 206.559 70.4023 206.795C69.7577 207.032 69.0691 207.124 68.385 207.066H68.4731C68.2441 207.178 67.9943 207.242 67.7395 207.253C67.4847 207.264 67.2304 207.223 66.9924 207.131C66.544 206.899 66.1997 206.507 66.0288 206.032C65.7186 205.166 65.5557 204.255 65.547 203.335C65.5006 201.632 65.6128 199.929 65.8819 198.247L66.1405 198.305C65.7184 199.709 65.0324 201.019 64.1192 202.166C63.8846 202.432 63.6015 202.652 63.2849 202.812C63.1252 202.899 62.9493 202.952 62.7682 202.967C62.5872 202.982 62.4049 202.959 62.2331 202.9C61.9155 202.749 61.6631 202.488 61.5221 202.166C61.383 201.877 61.2709 201.576 61.1872 201.267C60.919 200.145 60.7616 199 60.7172 197.847C60.6525 196.784 60.6408 195.802 60.6467 194.909C60.6467 193.147 60.7348 191.748 60.7936 190.796C60.8288 190.338 60.8523 189.98 60.8758 189.715C60.8758 189.604 60.8758 189.515 60.9052 189.439C60.9346 189.363 60.9052 189.351 60.9052 189.351V189.768C60.9052 190.032 60.9052 190.391 60.8641 190.849C60.8288 191.795 60.7818 193.199 60.7936 194.962C60.7936 195.844 60.7936 196.819 60.8934 197.9C60.9509 199.037 61.1161 200.167 61.387 201.273C61.4675 201.566 61.5757 201.852 61.7102 202.125C61.8288 202.394 62.0362 202.613 62.2977 202.748C62.44 202.792 62.5896 202.807 62.7379 202.793C62.8862 202.779 63.0302 202.736 63.1615 202.665C63.448 202.518 63.705 202.318 63.9194 202.078C64.8001 200.954 65.46 199.674 65.8643 198.305L66.1287 198.364C65.8716 200.03 65.7654 201.715 65.8114 203.4C65.8235 204.285 65.9823 205.163 66.2815 205.997C66.4288 206.398 66.717 206.732 67.0923 206.937C67.2948 207.011 67.5102 207.043 67.7253 207.031C67.9405 207.018 68.151 206.963 68.3439 206.866H68.3791H68.432C69.0565 206.939 69.6893 206.852 70.2711 206.614C70.8668 206.362 71.4137 206.008 71.8869 205.568C72.822 204.599 73.5427 203.444 74.0022 202.178C74.1373 201.772 74.3077 201.373 74.4193 200.961L74.7484 199.786V199.71L74.8189 199.68C75.8221 199.263 76.7632 198.709 77.6157 198.035C78.0272 197.709 78.3911 197.328 78.6969 196.901C78.9765 196.474 79.1591 195.991 79.2316 195.485C79.3808 194.476 79.4221 193.454 79.3549 192.436C79.3021 191.431 79.2081 190.45 79.067 189.498C78.5323 187.876 78.0153 186.313 77.5276 184.797L77.369 184.315L77.7391 184.662L80.9649 187.659L80.7769 187.7C81.1352 186.791 81.2802 185.812 81.2008 184.838C81.1213 183.864 80.8195 182.921 80.3186 182.083C79.8781 181.403 79.3659 180.773 78.7909 180.202C78.2679 179.662 77.7802 179.174 77.3278 178.751C76.6336 178.094 75.9018 177.478 75.1362 176.906C74.8718 176.712 74.6661 176.565 74.5486 176.471C74.475 176.404 74.4063 176.331 74.343 176.254Z" fill="#EB996E"/>
<path d="M75.0422 188.558C75.1778 189.088 75.2566 189.632 75.2772 190.179C75.3712 191.19 75.4535 192.588 75.4535 194.134C75.4535 195.679 75.3712 197.072 75.2772 198.088C75.2536 198.635 75.1749 199.179 75.0422 199.71C74.9931 199.164 74.9931 198.616 75.0422 198.07C75.0833 197.066 75.1244 195.673 75.1303 194.134C75.1362 192.594 75.0833 191.196 75.0422 190.197C75.0006 189.651 75.0006 189.103 75.0422 188.558Z" fill="#EB996E"/>
<path d="M71.0056 189.621C71.0884 189.843 71.1474 190.074 71.1818 190.309C71.3138 190.941 71.4119 191.581 71.4756 192.224C71.938 196.483 71.3739 200.79 69.8304 204.786C69.5999 205.387 69.3391 205.975 69.0489 206.549C68.9556 206.768 68.8394 206.977 68.7023 207.172C68.6494 207.172 69.0842 206.238 69.6248 204.704C71.0469 200.711 71.6057 196.461 71.2641 192.236C71.1466 190.626 70.9585 189.633 71.0056 189.621Z" fill="#EB996E"/>
<path d="M66.4166 192.583C66.6415 193.595 66.6892 194.639 66.5576 195.667C66.5247 196.705 66.3099 197.729 65.9231 198.693C65.8349 198.693 66.117 197.33 66.2521 195.644C66.3872 193.957 66.305 192.588 66.4166 192.583Z" fill="#EB996E"/>
<path d="M62.6327 180.044C62.2144 180.316 61.8212 180.625 61.4575 180.966C60.6241 181.848 60.1091 182.984 59.9945 184.192C59.9047 185.406 60.0791 186.625 60.5056 187.764C60.8171 188.652 61.0932 189.175 61.0403 189.198C60.723 188.788 60.473 188.33 60.3 187.841C59.8062 186.679 59.6044 185.414 59.7124 184.157C59.8294 182.881 60.4056 181.691 61.3341 180.808C61.6155 180.548 61.9344 180.332 62.2801 180.167C62.4799 180.061 62.6268 180.026 62.6327 180.044Z" fill="#EB996E"/>
<path d="M47.6966 159.996C47.6966 160.049 47.0268 159.673 45.8986 159.332C45.2352 159.136 44.5544 159.004 43.8656 158.938C43.024 158.866 42.177 158.884 41.3391 158.991C40.5044 159.117 39.6851 159.329 38.8948 159.626C38.2496 159.875 37.6298 160.186 37.0439 160.554C36.0509 161.189 35.5339 161.729 35.4927 161.676C35.4516 161.623 35.5985 161.523 35.8335 161.283C35.97 161.131 36.1194 160.991 36.2801 160.865C36.4867 160.695 36.7025 160.536 36.9264 160.389C37.5093 159.987 38.1337 159.648 38.789 159.379C40.4063 158.724 42.1609 158.482 43.895 158.674C44.5994 158.755 45.2929 158.913 45.9633 159.144C46.2205 159.226 46.4718 159.326 46.7153 159.443C46.9034 159.523 47.0859 159.616 47.2618 159.72C47.5556 159.872 47.7083 159.972 47.6966 159.996Z" fill="#EB996E"/>
<path d="M74.9129 118.948L74.9775 112.849C82.8686 111.827 87.5105 105.404 88.0334 96.2971C88.3154 91.4497 88.5093 90.8621 88.1685 80.3916C87.8768 73.8302 86.6481 67.3443 84.5197 61.131C84.5197 61.131 78.1328 53.1282 66.0406 54.039C53.9484 54.9497 47.7083 71.1373 47.7083 71.1373C47.7083 71.1373 47.7906 95.8153 48.5016 100.769C49.2125 105.722 49.0891 107.531 49.0891 107.531L49.5886 115.546C49.4945 119.19 50.8374 122.725 53.3274 125.388C55.8174 128.051 59.2547 129.627 62.8971 129.777C70.2711 130.059 74.343 125.024 74.9129 118.948Z" fill="#FFBE9D"/>
<path d="M48.3077 86.6022C48.0961 86.5082 39.829 84.0286 40.0347 92.4779C40.2403 100.927 48.6778 98.9882 48.6778 98.7473C48.6778 98.5064 48.3077 86.6022 48.3077 86.6022Z" fill="#FFBE9D"/>
<path d="M46.0396 95.6038C45.9985 95.6038 45.8927 95.7096 45.646 95.833C45.2995 95.9897 44.9058 96.0065 44.5472 95.88C43.6423 95.5744 42.855 94.176 42.7845 92.6542C42.7454 91.9288 42.8699 91.2039 43.1488 90.5331C43.2178 90.264 43.352 90.016 43.5395 89.8111C43.727 89.6061 43.9621 89.4505 44.224 89.3579C44.3924 89.3076 44.5731 89.3183 44.7343 89.3882C44.8956 89.4581 45.027 89.5826 45.1054 89.7398C45.2229 89.9749 45.1759 90.1453 45.2229 90.157C45.2699 90.1688 45.3992 90.0101 45.3228 89.6634C45.271 89.4544 45.1485 89.2696 44.9761 89.1405C44.7397 88.9715 44.4465 88.9019 44.1594 88.9466C43.8136 89.0228 43.4931 89.1866 43.2287 89.4222C42.9643 89.6578 42.7648 89.9573 42.6493 90.2921C42.3118 91.0278 42.1566 91.834 42.1969 92.6424C42.2909 94.3405 43.2017 95.9152 44.4356 96.2384C44.6635 96.2993 44.9023 96.3083 45.1342 96.2645C45.366 96.2208 45.5851 96.1255 45.7752 95.9857C46.0279 95.8094 46.069 95.6214 46.0396 95.6038Z" fill="#EB996E"/>
<path d="M81.3997 87.6481C81.3999 88.1284 81.2128 88.5898 80.8781 88.9343C80.5435 89.2788 80.0877 89.4793 79.6076 89.4931C79.3732 89.5098 79.1378 89.4794 78.9153 89.4039C78.6928 89.3283 78.4876 89.209 78.3119 89.053C78.1362 88.8969 77.9934 88.7073 77.892 88.4953C77.7906 88.2833 77.7326 88.0532 77.7215 87.8185C77.7195 87.3421 77.9019 86.8834 78.2304 86.5384C78.559 86.1934 79.0083 85.9889 79.4842 85.9676C79.7214 85.9468 79.9604 85.9742 80.1867 86.0482C80.4131 86.1223 80.6221 86.2415 80.8011 86.3985C80.9801 86.5555 81.1254 86.7472 81.2283 86.962C81.3312 87.1768 81.3895 87.4102 81.3997 87.6481Z" fill="#263238"/>
<path d="M81.4584 84.3694C81.2234 84.6103 79.8367 83.5645 77.8566 83.5527C75.8765 83.541 74.4135 84.5281 74.2019 84.2813C74.0962 84.1755 74.3312 83.7407 74.9716 83.2883C75.8353 82.6958 76.8623 82.3877 77.9095 82.4069C78.9395 82.411 79.9415 82.7423 80.771 83.3529C81.3644 83.8289 81.5818 84.2637 81.4584 84.3694Z" fill="#263238"/>
<path d="M61.6044 87.6481C61.6049 88.1235 61.4218 88.5807 61.0934 88.9244C60.765 89.2682 60.3166 89.4718 59.8417 89.493C59.6073 89.5098 59.3719 89.4794 59.1494 89.4039C58.9269 89.3283 58.7217 89.209 58.546 89.0529C58.3703 88.8969 58.2275 88.7073 58.1261 88.4953C58.0247 88.2833 57.9667 88.0532 57.9556 87.8185C57.9521 87.3416 58.134 86.8821 58.4629 86.5368C58.7917 86.1915 59.2419 85.9874 59.7183 85.9676C59.9532 85.9509 60.189 85.9814 60.4119 86.0574C60.6348 86.1333 60.8402 86.2531 61.016 86.4098C61.1918 86.5664 61.3345 86.7567 61.4355 86.9694C61.5366 87.1821 61.594 87.4128 61.6044 87.6481Z" fill="#263238"/>
<path d="M61.9746 84.5927C61.7454 84.8336 60.3529 83.7877 58.3727 83.7818C56.3926 83.776 54.9355 84.7513 54.718 84.5046C54.6182 84.3988 54.8473 83.964 55.4878 83.5116C56.3519 82.9201 57.3786 82.6121 58.4256 82.6302C59.4574 82.6343 60.4613 82.9655 61.293 83.5762C61.8806 84.0521 62.0862 84.4869 61.9746 84.5927Z" fill="#263238"/>
<path d="M60.4293 77.5419C60.3176 77.959 59.1248 78.006 57.8087 78.4291C56.4925 78.8521 55.4584 79.4456 55.147 79.1577C55.0001 79.0167 55.0882 78.6289 55.4584 78.1764C55.9771 77.62 56.6357 77.213 57.3654 76.998C58.0951 76.783 58.8691 76.7679 59.6067 76.9543C60.1707 77.0894 60.4586 77.3597 60.4293 77.5419Z" fill="#263238"/>
<path d="M81.905 77.5771C81.7287 77.959 81.053 78.0178 80.4067 77.7122C79.7604 77.4067 79.3785 76.8485 79.5606 76.4666C79.7427 76.0847 80.4126 76.02 81.0589 76.3314C81.7052 76.6429 82.0872 77.1952 81.905 77.5771Z" fill="#263238"/>
<path d="M67.1922 99.0352C67.2216 99.1527 66.9572 99.3642 66.4284 99.4289C65.7279 99.503 65.0255 99.3072 64.4643 98.8815C63.9032 98.4557 63.5255 97.8319 63.4083 97.1374C63.3319 96.6144 63.4611 96.2971 63.5845 96.2971C63.8313 96.2971 64.037 97.4135 65.0241 98.148C66.0112 98.8824 67.1335 98.7884 67.1922 99.0352Z" fill="#263238"/>
<path d="M74.9775 112.849C74.9775 112.849 64.8419 113.014 62.4505 111.263C62.4505 111.263 64.2132 116.092 74.9482 115.575L74.9775 112.849Z" fill="#EB996E"/>
<path d="M45.0407 86.2085C44.7523 87.3223 44.7362 88.4892 44.9937 89.6106C45.3404 90.6976 46.4215 91.6494 47.5438 91.4379C49.001 91.1676 49.5063 89.3697 49.6826 87.9125C50.1879 83.7995 50.4993 79.6453 50.6168 75.4912C50.6168 74.3161 50.8988 72.853 52.0328 72.5886C52.6909 72.43 53.349 72.7884 54.0071 72.9647C54.6698 73.1281 55.3648 73.1048 56.0151 72.8974C56.6654 72.6899 57.2455 72.3065 57.6912 71.7895C57.8263 73.376 59.9768 74.0869 61.4222 73.4171C62.8677 72.7473 63.7196 71.2607 64.4835 69.8917C64.3652 70.7718 64.4353 71.6671 64.6891 72.5181C64.8241 72.9405 65.085 73.3115 65.4368 73.5815C65.7886 73.8514 66.2146 74.0072 66.6575 74.0282C67.6858 73.9812 68.385 72.994 68.8609 72.0833C70.0157 69.8875 70.8263 67.5273 71.2641 65.0853C72.0023 68.8734 74.2016 72.2188 77.3866 74.3983L78.4618 71.2196C78.842 71.8785 79.3422 72.4605 79.9366 72.9353C80.2368 73.1687 80.5937 73.3178 80.9707 73.3674C81.3476 73.417 81.731 73.3652 82.0813 73.2173C82.2486 73.1332 82.3961 73.0144 82.5141 72.8689C82.6321 72.7234 82.7178 72.5546 82.7656 72.3734C82.8134 72.1923 82.8221 72.0031 82.7913 71.8184C82.7604 71.6336 82.6906 71.4576 82.5866 71.3018C82.8451 72.7296 84.7782 73.4288 86.0239 72.6885C86.6203 72.2726 87.057 71.6658 87.2621 70.9683C87.4672 70.2708 87.4284 69.5241 87.152 68.8517C86.7192 75.7764 87.1674 82.7282 88.4858 89.5401C90.4894 86.0146 92.54 82.3247 92.7163 78.2704C92.8456 75.362 91.9877 72.4711 92.1699 69.5685C92.2933 67.5825 92.8985 65.6376 92.9043 63.6458C92.8791 62.1592 92.5448 60.694 91.9227 59.3436C91.3006 57.9932 90.4043 56.787 89.2908 55.8017C87.0315 53.8368 84.1525 52.7301 81.1588 52.6758C78.9319 52.6229 76.6932 53.093 74.4898 52.7698C72.6155 52.4937 70.8763 51.6593 69.0431 51.201C67.1408 50.7409 65.1627 50.6884 63.2386 51.0469C61.3146 51.4054 59.4882 52.1667 57.8792 53.281C57.8792 53.281 54.0012 55.5373 49.2243 61.0898C49.2243 61.0898 40.5634 61.3484 40.9512 73.4935C41.339 85.6386 42.2145 87.084 42.2145 87.084L45.0407 86.2085Z" fill="#263238"/>
<path d="M49.8118 62.6939C49.7531 62.6939 49.6532 62.1357 49.2243 61.3543C48.6515 60.3244 47.7491 59.5171 46.6621 59.0621C45.5751 58.607 44.3666 58.5307 43.231 58.8453C42.3555 59.0745 41.8796 59.3976 41.8502 59.3506C41.8209 59.3036 41.9442 59.239 42.1675 59.098C42.4817 58.9018 42.8192 58.7459 43.1723 58.6338C44.3531 58.2485 45.633 58.3006 46.7786 58.7806C47.9241 59.2606 48.8589 60.1365 49.4123 61.2485C49.5823 61.5779 49.7106 61.9273 49.7942 62.2885C49.8286 62.4209 49.8346 62.559 49.8118 62.6939Z" fill="#263238"/>
<path d="M50.8812 62.4413C50.7444 62.3792 50.6207 62.2914 50.5169 62.1827C50.207 61.9142 49.9273 61.6128 49.6826 61.2837C48.8531 60.1933 48.3699 58.879 48.2955 57.511C48.2211 56.1429 48.559 54.784 49.2654 53.6101C49.4735 53.2571 49.7198 52.928 49.9999 52.6288C50.1996 52.4173 50.323 52.3174 50.3348 52.3291C50.3465 52.3409 49.9293 52.8227 49.4534 53.7158C48.825 54.8715 48.5302 56.1791 48.6018 57.4926C48.6734 58.8061 49.1086 60.0739 49.8588 61.1545C50.4405 61.9888 50.9223 62.4001 50.8812 62.4413Z" fill="#263238"/>
<path d="M71.0056 88.6176C71.129 88.5823 71.364 89.023 71.646 89.7516C71.787 90.1217 71.9339 90.5566 72.0926 91.0501L72.3217 91.8257C72.4366 92.1312 72.5059 92.4519 72.5274 92.7776C72.543 92.9826 72.5161 93.1886 72.4484 93.3828C72.3806 93.5769 72.2735 93.7549 72.1337 93.9057C71.8738 94.163 71.538 94.3299 71.176 94.3816C70.8705 94.4256 70.5591 94.3995 70.2652 94.3053C70.0343 94.2212 69.8166 94.1045 69.6189 93.9586C68.9432 93.4122 68.7375 92.9656 68.808 92.8833C68.8786 92.8011 69.3192 93.089 69.9832 93.4004C70.3089 93.5744 70.686 93.6265 71.0467 93.5473C71.2211 93.5104 71.3807 93.4224 71.505 93.2946C71.5587 93.2275 71.5984 93.1502 71.6216 93.0675C71.6448 92.9847 71.6511 92.8981 71.6401 92.8128C71.617 92.5611 71.5657 92.3128 71.4874 92.0725C71.4286 91.7963 71.364 91.5378 71.3052 91.2793C71.1936 90.774 71.1113 90.3098 71.0467 89.922C70.9174 89.1464 70.8998 88.6469 71.0056 88.6176Z" fill="#263238"/>
<path d="M45.2817 75.503C45.2189 75.3128 45.1813 75.1153 45.17 74.9154C45.123 74.5335 45.0643 73.9753 45.0114 73.2761C44.8334 71.4605 44.9285 69.6284 45.2934 67.841C45.684 66.0336 46.6094 64.3855 47.9492 63.1111C48.361 62.7372 48.8215 62.4209 49.3183 62.171C49.4996 62.064 49.6986 61.9904 49.9059 61.9536C49.2745 62.3303 48.6837 62.7714 48.1431 63.2697C46.8877 64.55 46.02 66.1592 45.6401 67.9115C45.2866 69.6724 45.1621 71.4716 45.2699 73.2643C45.3139 74.0098 45.3178 74.7571 45.2817 75.503Z" fill="#455A64"/>
<path d="M52.6028 72.3536C52.2093 72.005 51.8758 71.5941 51.6157 71.1373C50.2249 68.9807 49.6037 66.4173 49.853 63.8632C49.8801 63.3377 49.9912 62.82 50.182 62.3296C50.2349 62.3296 50.1174 62.9172 50.0704 63.8808C50.0225 65.1162 50.147 66.3522 50.4406 67.5531C50.7389 68.7612 51.2036 69.922 51.8214 71.0022C52.2738 71.8542 52.644 72.3242 52.6028 72.3536Z" fill="#455A64"/>
<path d="M70.8704 64.8738C70.8445 64.7802 70.8346 64.6828 70.841 64.5859C70.841 64.3626 70.841 64.0864 70.8117 63.7515C70.7983 62.7369 70.7198 61.7242 70.5766 60.7196C70.3824 59.2342 69.821 57.8206 68.9432 56.6066C68.4114 55.9116 67.7282 55.347 66.9454 54.9556C66.0994 54.5392 65.1824 54.286 64.2426 54.2094C62.4109 54.0653 60.5731 54.3973 58.9075 55.173C58.1839 55.5137 57.4934 55.9209 56.8451 56.3892C56.2876 56.8064 55.7667 57.2703 55.288 57.7759C54.5896 58.5091 53.9964 59.3357 53.5253 60.232C53.1786 60.8607 53.0376 61.2367 53.0082 61.225C53.0204 61.1272 53.0482 61.0319 53.0905 60.9429C53.184 60.6797 53.2939 60.4227 53.4195 60.1732C53.8624 59.2435 54.4428 58.3858 55.1411 57.629C55.6188 57.1024 56.1418 56.6188 56.7041 56.1836C57.36 55.6928 58.0626 55.2677 58.8017 54.9144C60.5074 54.0979 62.3987 53.7472 64.2837 53.8979C65.2612 53.981 66.2141 54.2481 67.0923 54.6853C67.9145 55.1038 68.6285 55.7072 69.1782 56.448C70.0764 57.703 70.6369 59.1679 70.8058 60.702C70.9292 61.7195 70.9763 62.7447 70.9468 63.7691C70.9468 64.1334 70.9468 64.4155 70.9115 64.6035C70.9089 64.6949 70.8951 64.7857 70.8704 64.8738Z" fill="#455A64"/>
<path d="M80.5712 66.7364C80.5351 66.6431 80.5076 66.5468 80.489 66.4485C80.4361 66.2193 80.3714 65.9432 80.2951 65.6024C80.1305 64.8738 79.9014 63.8103 79.5253 62.5235C79.125 61.0145 78.5326 59.5631 77.7626 58.2049C76.8008 56.5491 75.3695 55.2158 73.6496 54.3739C71.9106 53.5797 70.0142 53.19 68.1029 53.234C66.5375 53.2676 64.9798 53.4646 63.4553 53.8216C62.1508 54.1095 61.105 54.4091 60.3764 54.5972L59.542 54.8146C59.4442 54.8435 59.3439 54.8632 59.2424 54.8733C59.3292 54.8188 59.4245 54.7791 59.5244 54.7558L60.3411 54.4797C61.058 54.2564 62.1038 53.9273 63.4083 53.61C64.9464 53.2205 66.5228 53.0017 68.1088 52.9578C70.0659 52.8953 72.0108 53.2875 73.7906 54.1036C75.5567 54.975 77.0203 56.3567 77.9918 58.0697C78.7715 59.4522 79.3643 60.9321 79.7545 62.4706C80.1012 63.775 80.3009 64.8209 80.4302 65.5848C80.4948 65.9549 80.536 66.2428 80.5653 66.4426C80.5835 66.5395 80.5855 66.6388 80.5712 66.7364Z" fill="#455A64"/>
<path d="M85.3364 68.3287C85.2836 68.3287 85.4011 67.3945 85.5245 65.8962C85.7461 63.9554 85.5293 61.9896 84.8899 60.1438C84.5159 59.1527 83.9117 58.2645 83.1272 57.5526C82.4704 56.9834 81.6865 56.5804 80.8415 56.3775C80.0525 56.215 79.237 56.2331 78.456 56.4304C78.456 56.4304 78.503 56.3892 78.6029 56.3481C78.7553 56.285 78.9125 56.2339 79.0729 56.1953C79.6672 56.0571 80.2842 56.0471 80.8826 56.166C81.7768 56.3493 82.611 56.7533 83.3093 57.3411C84.151 58.0683 84.799 58.9929 85.1954 60.0322C85.8554 61.9165 86.047 63.9331 85.7536 65.9079C85.6714 66.66 85.5715 67.2652 85.501 67.6706C85.4717 67.8956 85.4165 68.1164 85.3364 68.3287Z" fill="#455A64"/>
<path d="M58.1319 93.6183C58.0496 93.6183 58.0202 93.4066 58.0672 93.1774C58.1143 92.9481 58.2142 92.7835 58.2965 92.7952C58.3788 92.807 58.4141 93.0127 58.3671 93.242C58.3201 93.4713 58.2201 93.6359 58.1319 93.6183Z" fill="#EB996E"/>
<path d="M61.6692 92.8837C61.5928 92.8837 61.4869 92.819 61.4399 92.6838C61.3929 92.5485 61.4399 92.4133 61.5046 92.3898C61.5692 92.3663 61.6868 92.4486 61.7339 92.5838C61.7809 92.719 61.7515 92.8543 61.6692 92.8837Z" fill="#EB996E"/>
<path d="M59.8771 95.0167C59.7948 95.0167 59.7066 94.8521 59.6831 94.6228C59.6596 94.3935 59.6831 94.2054 59.7948 94.1936C59.9065 94.1819 59.9653 94.3641 59.9888 94.5934C60.0123 94.8227 59.9594 95.0108 59.8771 95.0167Z" fill="#EB996E"/>
<path d="M55.4173 94.6113C55.335 94.6113 55.3233 94.382 55.4173 94.1527C55.5114 93.9234 55.6055 93.7588 55.6878 93.7882C55.7701 93.8176 55.7818 94.0116 55.6878 94.2409C55.5937 94.4702 55.4996 94.6348 55.4173 94.6113Z" fill="#EB996E"/>
<path d="M78.9555 92.8192C78.8673 92.8192 78.785 92.6663 78.7615 92.4605C78.738 92.2548 78.7615 92.0843 78.8732 92.0725C78.9849 92.0607 79.0437 92.2254 79.0672 92.4311C79.0907 92.6369 79.0378 92.8192 78.9555 92.8192Z" fill="#EB996E"/>
<path d="M82.2635 92.7135C82.1753 92.7135 82.1107 92.5312 82.1107 92.3019C82.1107 92.0726 82.1753 91.8904 82.2635 91.8904C82.3517 91.8904 82.4164 92.0785 82.4164 92.3019C82.4164 92.5253 82.3458 92.7135 82.2635 92.7135Z" fill="#EB996E"/>
<path d="M85.0017 92.5489C84.9135 92.5489 84.8135 92.3902 84.7665 92.1668C84.7195 91.9434 84.7665 91.7376 84.8312 91.72C84.8958 91.7023 85.0193 91.8787 85.0663 92.1021C85.1134 92.3255 85.1075 92.5313 85.0017 92.5489Z" fill="#EB996E"/>
<path d="M80.6947 95.5162C80.6182 95.5162 80.6065 95.2869 80.6947 95.0576C80.7828 94.8283 80.8887 94.6696 80.9651 94.6931C81.0415 94.7166 81.0592 94.9224 80.9651 95.1458C80.871 95.3692 80.777 95.5397 80.6947 95.5162Z" fill="#EB996E"/>
<path d="M83.8089 95.1048C83.7266 95.1048 83.6384 94.9754 83.6149 94.7932C83.5913 94.6109 83.6149 94.4581 83.7266 94.4463C83.8383 94.4345 83.8971 94.5756 83.9206 94.7579C83.9441 94.9402 83.8912 95.093 83.8089 95.1048Z" fill="#EB996E"/>
<path d="M75.1891 118.337C75.2218 118.492 75.2415 118.649 75.2478 118.807C75.2848 119.26 75.2946 119.716 75.2772 120.17C75.2111 121.854 74.8116 123.507 74.1021 125.035C73.0579 127.336 71.2497 129.205 68.9843 130.323C67.6517 130.979 66.186 131.319 64.7009 131.316C63.1133 131.295 61.5426 130.987 60.065 130.406C57.2115 129.298 54.6447 127.561 52.5558 125.323C50.8455 123.507 49.6314 121.281 49.0304 118.86C48.628 117.227 48.5699 115.528 48.86 113.871C48.9433 113.425 49.0571 112.986 49.2008 112.555C49.3065 112.261 49.3653 112.109 49.3712 112.109C49.3484 112.267 49.311 112.422 49.2595 112.573C48.7055 114.616 48.7055 116.77 49.2595 118.813C49.8796 121.192 51.0925 123.375 52.785 125.159C54.856 127.347 57.3865 129.049 60.1942 130.141C61.6381 130.71 63.1726 131.015 64.7244 131.04C66.1649 131.045 67.5875 130.721 68.8844 130.094C71.0986 129.013 72.8787 127.21 73.9317 124.982C74.6355 123.481 75.0482 121.86 75.1479 120.205C75.1891 119.618 75.1832 119.165 75.1832 118.854C75.1669 118.682 75.1688 118.509 75.1891 118.337Z" fill="#263238"/>
<g opacity="0.7">
<path d="M73.3147 158.733L69.5542 156.752L62.9793 160.213L64.2367 152.892L58.9192 147.704L66.2697 146.634L69.5542 139.977L72.8446 146.634L80.1952 147.704L74.8776 152.892L75.5005 156.523" fill="white"/>
</g>
<g opacity="0.7">
<path d="M71.505 159.855L74.7249 160.977L74.4017 157.886L71.505 159.855Z" fill="white"/>
</g>
<path d="M78.0564 152.81C77.9833 153.083 77.8788 153.348 77.745 153.597C77.4152 154.294 77.0218 154.959 76.5698 155.583C75.0819 157.674 73.0467 159.315 70.6877 160.325C68.3287 161.336 65.7369 161.677 63.1967 161.312C62.434 161.21 61.6825 161.037 60.9522 160.795C60.6815 160.716 60.4196 160.61 60.1707 160.478C61.176 160.745 62.1962 160.953 63.2261 161.1C65.7236 161.4 68.2558 161.035 70.5675 160.044C72.8793 159.053 74.8888 157.469 76.3936 155.454C77 154.606 77.5553 153.723 78.0564 152.81Z" fill="#263238"/>
<g opacity="0.4">
<path d="M89.4377 161.488C89.3731 163.016 92.1229 159.937 92.3755 158.427C92.6282 156.917 92.1346 155.401 91.6763 153.944L87.0757 139.454C87.0757 139.454 89.567 158.55 89.4377 161.488Z" fill="black"/>
</g>
<path d="M248.916 186.437C249.767 186.842 250.526 187.416 251.149 188.123C251.772 188.829 252.246 189.655 252.542 190.55C253.124 192.343 253.289 194.247 253.023 196.114C252.618 199.727 250.562 203.376 248.352 206.261C245.309 203.605 244.609 198.975 244.404 196.602C244.075 192.853 245.761 185.878 248.916 186.442" fill="#583BBF"/>
<path d="M251.889 212.219C251.682 211.186 251.752 210.117 252.09 209.119C252.428 208.122 253.024 207.231 253.817 206.537C254.626 205.858 255.562 205.347 256.571 205.033C257.58 204.719 258.641 204.61 259.692 204.71C260.656 204.786 261.702 205.068 262.26 205.885C262.497 206.274 262.624 206.718 262.631 207.173C262.637 207.628 262.521 208.076 262.295 208.47C261.836 209.258 261.175 209.909 260.38 210.357C257.748 212.014 254.892 213.13 251.913 212.237" fill="#583BBF"/>
<path d="M247.988 223.295C248.002 223.044 248.038 222.794 248.094 222.549C248.194 222.032 248.317 221.374 248.464 220.545C248.805 218.311 249.503 216.147 250.532 214.135C251.605 212.128 253.193 210.443 255.133 209.252C255.723 208.902 256.352 208.622 257.007 208.418C257.185 208.363 257.365 208.318 257.548 208.282C257.671 208.282 257.742 208.247 257.742 208.282C256.237 208.769 254.845 209.551 253.647 210.582C252.448 211.613 251.467 212.873 250.761 214.287C249.749 216.277 249.037 218.406 248.646 220.604C248.464 221.45 248.311 222.126 248.194 222.596C248.148 222.835 248.079 223.069 247.988 223.295Z" fill="#263238"/>
<path d="M248.1 191.86C248.127 191.965 248.141 192.074 248.141 192.183C248.141 192.424 248.141 192.729 248.194 193.111C248.235 193.922 248.288 195.091 248.329 196.537C248.423 199.434 248.499 203.435 248.482 207.854C248.464 212.272 248.352 216.273 248.235 219.17C248.176 220.616 248.117 221.785 248.064 222.596C248.064 222.978 248.017 223.283 248.006 223.524C248.002 223.633 247.988 223.741 247.965 223.847C247.952 223.74 247.952 223.631 247.965 223.524C247.965 223.283 247.965 222.972 247.965 222.59C247.965 221.75 248.012 220.586 248.047 219.164C248.117 216.268 248.2 212.272 248.217 207.854C248.235 203.435 248.217 199.439 248.147 196.543C248.147 195.121 248.106 193.957 248.094 193.117C248.094 192.735 248.094 192.424 248.094 192.183C248.087 192.075 248.089 191.967 248.1 191.86Z" fill="#263238"/>
<path d="M246.625 214.446C246.256 212.256 245.371 210.185 244.042 208.405C242.714 206.625 240.981 205.188 238.986 204.211C237.97 203.723 236.636 203.406 235.808 204.164C234.979 204.922 235.155 206.279 235.567 207.331C236.46 209.512 237.979 211.38 239.932 212.698C241.885 214.017 244.186 214.727 246.543 214.74" fill="#583BBF"/>
<path d="M239.492 207.607C239.715 207.682 239.931 207.776 240.138 207.889C240.338 207.989 240.59 208.106 240.867 208.277C241.143 208.447 241.454 208.617 241.795 208.864C242.162 209.113 242.515 209.382 242.853 209.669C243.249 209.988 243.628 210.33 243.987 210.691C244.802 211.529 245.521 212.456 246.131 213.453C246.726 214.462 247.201 215.537 247.547 216.655C247.698 217.143 247.818 217.639 247.906 218.142C247.994 218.576 248.055 219.016 248.088 219.458C248.127 219.821 248.145 220.186 248.141 220.551C248.157 220.827 248.157 221.103 248.141 221.379C248.136 221.615 248.109 221.849 248.059 222.079C248 222.079 248.106 221.074 247.929 219.476C247.883 219.041 247.812 218.61 247.718 218.183C247.618 217.691 247.492 217.205 247.342 216.726C246.987 215.632 246.514 214.58 245.931 213.588C245.331 212.608 244.627 211.694 243.834 210.862C243.488 210.501 243.123 210.157 242.741 209.834C242.388 209.516 242.03 209.246 241.707 209.017C240.379 208.077 239.462 207.66 239.492 207.607Z" fill="#263238"/>
<path d="M204.925 154.79H170.235V189.233H204.925V154.79Z" fill="#583BBF"/>
<g opacity="0.3">
<path d="M204.925 154.79H170.235V189.233H204.925V154.79Z" fill="black"/>
</g>
<path d="M220.073 154.79H185.382V189.233H220.073V154.79Z" fill="#583BBF"/>
<path d="M209.849 175.801C209.849 178.34 207.833 179.809 203.973 179.809H196.37V165.09H203.55C207.222 165.09 209.114 166.624 209.114 168.909C209.129 169.579 208.954 170.239 208.607 170.813C208.26 171.386 207.758 171.849 207.158 172.147C207.955 172.359 208.657 172.836 209.146 173.501C209.635 174.165 209.883 174.977 209.849 175.801ZM199.748 167.675V171.142H203.127C204.79 171.142 205.689 170.554 205.689 169.379C205.689 168.204 204.79 167.658 203.127 167.658L199.748 167.675ZM206.423 175.443C206.423 174.203 205.477 173.616 203.715 173.616H199.748V177.247H203.715C205.477 177.247 206.423 176.7 206.423 175.443Z" fill="white"/>
<path d="M185.23 177.981C185.277 178.052 181.963 180.625 177.826 183.734C173.69 186.842 170.288 189.304 170.235 189.233C170.182 189.163 173.496 186.595 177.638 183.487C181.78 180.379 185.177 177.917 185.23 177.981Z" fill="#263238"/>
<path d="M185.23 168.063C185.277 168.134 181.963 170.707 177.826 173.815C173.69 176.924 170.288 179.386 170.235 179.321C170.182 179.256 173.496 176.677 177.638 173.569C181.78 170.46 185.177 168.028 185.23 168.063Z" fill="#263238"/>
<path d="M185.23 158.151C185.277 158.215 181.963 160.789 177.826 163.897C173.69 167.006 170.288 169.467 170.235 169.403C170.182 169.338 173.496 166.759 177.638 163.65C181.78 160.542 185.177 158.08 185.23 158.151Z" fill="#263238"/>
<path d="M176.492 154.79C175.546 155.691 174.53 156.516 173.455 157.258C172.442 158.085 171.366 158.829 170.235 159.485C171.181 158.584 172.197 157.759 173.272 157.017C174.285 156.19 175.361 155.445 176.492 154.79Z" fill="#263238"/>
<path d="M197.68 189.239H162.99V223.683H197.68V189.239Z" fill="#263238"/>
<path d="M212.828 189.239H178.138V223.683H212.828V189.239Z" fill="#455A64"/>
<path d="M189.107 199.557H195.806C200.612 199.557 203.908 202.454 203.908 206.908C203.908 211.361 200.612 214.258 195.806 214.258H189.107V199.557ZM195.618 211.467C198.556 211.467 200.448 209.704 200.448 206.908C200.448 204.111 198.538 202.354 195.618 202.354H192.51V211.467H195.618Z" fill="white"/>
<path d="M177.985 212.431C178.038 212.495 174.724 215.069 170.581 218.177C166.439 221.285 163.043 223.747 162.996 223.683C162.949 223.618 166.257 221.039 170.399 217.93C174.542 214.822 177.944 212.36 177.985 212.431Z" fill="#455A64"/>
<path d="M177.985 202.512C178.038 202.577 174.724 205.151 170.581 208.259C166.439 211.367 163.043 213.829 162.996 213.764C162.949 213.7 166.257 211.12 170.399 208.018C174.542 204.916 177.944 202.442 177.985 202.512Z" fill="#455A64"/>
<path d="M177.985 192.594C178.038 192.665 174.724 195.238 170.581 198.341C166.439 201.443 163.043 203.917 162.996 203.846C162.949 203.776 166.257 201.208 170.399 198.1C174.542 194.992 177.944 192.53 177.985 192.594Z" fill="#455A64"/>
<path d="M169.253 189.233C167.296 190.964 165.203 192.536 162.996 193.934C164.958 192.208 167.05 190.637 169.253 189.233Z" fill="#455A64"/>
</g>
<defs>
<clipPath id="clip0_256_170">
<rect width="266.446" height="224" fill="white" transform="translate(3)"/>
</clipPath>
</defs>
</svg>
