<svg width="320" height="162" viewBox="0 0 320 162" fill="none" xmlns="http://www.w3.org/2000/svg">
<path d="M31.3964 28.3903C31.9207 27.3322 31.2841 26.1431 31.2841 24.8837C31.2866 23.0352 30.6434 21.2437 29.4654 19.8191C28.2874 18.3944 26.6488 17.426 24.8326 17.0812C23.0165 16.7364 21.1369 17.0369 19.5188 17.9307C17.9007 18.8246 16.6456 20.2556 15.9705 21.9765C14.7027 20.8951 13.1559 20.1928 11.5073 19.9502C9.85867 19.7076 8.17507 19.9345 6.64948 20.6048C5.95661 15.7406 2.72161 12 -2.33452 12C-7.87285 12 -13.3035 16.4896 -13.3035 22.0327C-13.8274 22.0299 -14.3439 22.1566 -14.8071 22.4017C-15.2702 22.6467 -15.6655 23.0024 -15.958 23.4371C-17.1503 22.5188 -18.6149 22.0245 -20.1199 22.0327C-23.8652 22.0327 -26 25.0851 -26 28.8491C-26 30.6569 -25.2818 32.3907 -24.0035 33.669C-22.7252 34.9473 -20.9914 35.6655 -19.1836 35.6655H30.9563C31.8846 35.6625 32.7769 35.306 33.4518 34.6687C34.1266 34.0313 34.5334 33.1609 34.5895 32.2343C34.6455 31.3077 34.3466 30.3946 33.7535 29.6806C33.1603 28.9665 32.3175 28.5052 31.3964 28.3903Z" fill="white"/>
<path d="M199.396 16.3903C199.921 15.3322 199.284 14.1431 199.284 12.8837C199.287 11.0352 198.643 9.24375 197.465 7.81908C196.287 6.3944 194.649 5.42598 192.833 5.08118C191.016 4.73638 189.137 5.03689 187.519 5.93072C185.901 6.82455 184.646 8.25557 183.971 9.97649C182.703 8.8951 181.156 8.19284 179.507 7.95023C177.859 7.70762 176.175 7.93447 174.649 8.60478C173.957 3.7406 170.722 0 165.665 0C160.127 0 154.696 4.48965 154.696 10.0327C154.173 10.0299 153.656 10.1566 153.193 10.4017C152.73 10.6467 152.334 11.0024 152.042 11.4371C150.85 10.5188 149.385 10.0245 147.88 10.0327C144.135 10.0327 142 13.0851 142 16.8491C142 18.6569 142.718 20.3907 143.996 21.669C145.275 22.9473 147.009 23.6655 148.816 23.6655H198.956C199.885 23.6625 200.777 23.306 201.452 22.6687C202.127 22.0313 202.533 21.1609 202.589 20.2343C202.646 19.3077 202.347 18.3946 201.753 17.6806C201.16 16.9665 200.318 16.5052 199.396 16.3903Z" fill="white"/>
<path d="M29.3964 91.3903C29.9207 90.3322 29.2841 89.1431 29.2841 87.8837C29.2866 86.0352 28.6434 84.2437 27.4654 82.8191C26.2874 81.3944 24.6488 80.426 22.8326 80.0812C21.0165 79.7364 19.1369 80.0369 17.5188 80.9307C15.9007 81.8246 14.6456 83.2556 13.9705 84.9765C12.7027 83.8951 11.1559 83.1928 9.50727 82.9502C7.85867 82.7076 6.17507 82.9345 4.64948 83.6048C3.95661 78.7406 0.721605 75 -4.33452 75C-9.87285 75 -15.3035 79.4896 -15.3035 85.0327C-15.8274 85.0299 -16.3439 85.1566 -16.8071 85.4017C-17.2702 85.6467 -17.6655 86.0024 -17.958 86.4371C-19.1503 85.5188 -20.6149 85.0245 -22.1199 85.0327C-25.8652 85.0327 -28 88.0851 -28 91.8491C-28 93.6569 -27.2818 95.3907 -26.0035 96.669C-24.7252 97.9473 -22.9914 98.6655 -21.1836 98.6655H28.9563C29.8846 98.6625 30.7769 98.306 31.4518 97.6687C32.1266 97.0313 32.5334 96.1609 32.5895 95.2343C32.6455 94.3077 32.3466 93.3946 31.7535 92.6806C31.1603 91.9665 30.3175 91.5052 29.3964 91.3903Z" fill="white"/>
<path d="M340.396 91.3903C340.921 90.3322 340.284 89.1431 340.284 87.8837C340.287 86.0352 339.643 84.2437 338.465 82.8191C337.287 81.3944 335.649 80.426 333.833 80.0812C332.016 79.7364 330.137 80.0369 328.519 80.9307C326.901 81.8246 325.646 83.2556 324.971 84.9765C323.703 83.8951 322.156 83.1928 320.507 82.9502C318.859 82.7076 317.175 82.9345 315.649 83.6048C314.957 78.7406 311.722 75 306.665 75C301.127 75 295.696 79.4896 295.696 85.0327C295.173 85.0299 294.656 85.1566 294.193 85.4017C293.73 85.6467 293.334 86.0024 293.042 86.4371C291.85 85.5188 290.385 85.0245 288.88 85.0327C285.135 85.0327 283 88.0851 283 91.8491C283 93.6569 283.718 95.3907 284.996 96.669C286.275 97.9473 288.009 98.6655 289.816 98.6655H339.956C340.885 98.6625 341.777 98.306 342.452 97.6687C343.127 97.0313 343.533 96.1609 343.589 95.2343C343.646 94.3077 343.347 93.3946 342.753 92.6806C342.16 91.9665 341.318 91.5052 340.396 91.3903Z" fill="white"/>
<path d="M70.3964 154.39C70.9207 153.332 70.2841 152.143 70.2841 150.884C70.2866 149.035 69.6434 147.244 68.4654 145.819C67.2874 144.394 65.6488 143.426 63.8326 143.081C62.0165 142.736 60.1369 143.037 58.5188 143.931C56.9007 144.825 55.6456 146.256 54.9705 147.976C53.7027 146.895 52.1559 146.193 50.5073 145.95C48.8587 145.708 47.1751 145.934 45.6495 146.605C44.9566 141.741 41.7216 138 36.6655 138C31.1271 138 25.6965 142.49 25.6965 148.033C25.1726 148.03 24.6561 148.157 24.1929 148.402C23.7298 148.647 23.3345 149.002 23.042 149.437C21.8497 148.519 20.3851 148.024 18.8801 148.033C15.1348 148.033 13 151.085 13 154.849C13 156.657 13.7182 158.391 14.9965 159.669C16.2748 160.947 18.0086 161.665 19.8164 161.665H69.9563C70.8846 161.662 71.7769 161.306 72.4518 160.669C73.1266 160.031 73.5334 159.161 73.5895 158.234C73.6455 157.308 73.3466 156.395 72.7535 155.681C72.1603 154.966 71.3175 154.505 70.3964 154.39Z" fill="white"/>
<path d="M302.396 154.39C302.921 153.332 302.284 152.143 302.284 150.884C302.287 149.035 301.643 147.244 300.465 145.819C299.287 144.394 297.649 143.426 295.833 143.081C294.016 142.736 292.137 143.037 290.519 143.931C288.901 144.825 287.646 146.256 286.971 147.976C285.703 146.895 284.156 146.193 282.507 145.95C280.859 145.708 279.175 145.934 277.649 146.605C276.957 141.741 273.722 138 268.665 138C263.127 138 257.696 142.49 257.696 148.033C257.173 148.03 256.656 148.157 256.193 148.402C255.73 148.647 255.334 149.002 255.042 149.437C253.85 148.519 252.385 148.024 250.88 148.033C247.135 148.033 245 151.085 245 154.849C245 156.657 245.718 158.391 246.996 159.669C248.275 160.947 250.009 161.665 251.816 161.665H301.956C302.885 161.662 303.777 161.306 304.452 160.669C305.127 160.031 305.533 159.161 305.589 158.234C305.646 157.308 305.347 156.395 304.753 155.681C304.16 154.966 303.318 154.505 302.396 154.39Z" fill="white"/>
<path d="M349.396 34.3903C349.921 33.3322 349.284 32.1431 349.284 30.8837C349.287 29.0352 348.643 27.2437 347.465 25.8191C346.287 24.3944 344.649 23.426 342.833 23.0812C341.016 22.7364 339.137 23.0369 337.519 23.9307C335.901 24.8246 334.646 26.2556 333.971 27.9765C332.703 26.8951 331.156 26.1928 329.507 25.9502C327.859 25.7076 326.175 25.9345 324.649 26.6048C323.957 21.7406 320.722 18 315.665 18C310.127 18 304.696 22.4896 304.696 28.0327C304.173 28.0299 303.656 28.1566 303.193 28.4017C302.73 28.6467 302.334 29.0024 302.042 29.4371C300.85 28.5188 299.385 28.0245 297.88 28.0327C294.135 28.0327 292 31.0851 292 34.8491C292 36.6569 292.718 38.3907 293.996 39.669C295.275 40.9473 297.009 41.6655 298.816 41.6655H348.956C349.885 41.6625 350.777 41.306 351.452 40.6687C352.127 40.0313 352.533 39.1609 352.589 38.2343C352.646 37.3077 352.347 36.3946 351.753 35.6806C351.16 34.9665 350.318 34.5052 349.396 34.3903Z" fill="white"/>
</svg>
