<svg width="1280" height="488" viewBox="0 0 1280 488" fill="none" xmlns="http://www.w3.org/2000/svg">
<path d="M195.03 103.097C196.446 100.267 194.727 97.0861 194.727 93.7175C194.734 88.7728 192.996 83.981 189.814 80.1702C186.633 76.3594 182.207 73.769 177.301 72.8467C172.396 71.9244 167.319 72.7282 162.948 75.1191C158.578 77.51 155.188 81.3378 153.364 85.941C149.94 83.0484 145.762 81.17 141.309 80.521C136.856 79.8721 132.308 80.4789 128.188 82.2719C126.316 69.2608 117.578 59.2552 103.921 59.2552C88.9622 59.2552 74.2938 71.2644 74.2938 86.0912C72.8786 86.0838 71.4835 86.4229 70.2326 87.0783C68.9818 87.7337 67.9138 88.6852 67.1239 89.848C63.9035 87.3915 59.9474 86.0694 55.8824 86.0912C45.7662 86.0912 40 94.256 40 104.324C40 109.16 41.9398 113.797 45.3926 117.217C48.8454 120.636 53.5284 122.557 58.4114 122.557H193.842C196.349 122.549 198.759 121.596 200.582 119.891C202.405 118.186 203.503 115.858 203.655 113.379C203.806 110.901 202.999 108.458 201.397 106.548C199.795 104.638 197.518 103.404 195.03 103.097Z" fill="white"/>
<path d="M663.03 44.6689C664.446 41.8388 662.727 38.658 662.727 35.2894C662.734 30.3447 660.996 25.5529 657.814 21.7421C654.633 17.9313 650.207 15.3409 645.301 14.4186C640.396 13.4963 635.319 14.3001 630.948 16.691C626.578 19.0819 623.188 22.9097 621.364 27.5129C617.94 24.6203 613.762 22.7419 609.309 22.0929C604.856 21.444 600.308 22.0508 596.188 23.8438C594.316 10.8327 585.578 0.827148 571.921 0.827148C556.962 0.827148 542.294 12.8363 542.294 27.6631C540.879 27.6557 539.484 27.9948 538.233 28.6502C536.982 29.3056 535.914 30.2571 535.124 31.4199C531.903 28.9634 527.947 27.6413 523.882 27.6631C513.766 27.6631 508 35.8279 508 45.8961C508 50.7318 509.94 55.3694 513.393 58.7887C516.845 62.2081 521.528 64.129 526.411 64.129H661.842C664.349 64.121 666.759 63.1676 668.582 61.4628C670.405 59.7579 671.503 57.4296 671.655 54.9511C671.806 52.4727 670.999 50.0302 669.397 48.1202C667.795 46.2102 665.518 44.9762 663.03 44.6689Z" fill="white"/>
<path d="M100.03 377.412C101.446 374.582 99.7267 371.401 99.7267 368.033C99.7337 363.088 97.9962 358.296 94.8144 354.485C91.6327 350.674 87.2066 348.084 82.3011 347.162C77.3956 346.239 72.3189 347.043 67.9482 349.434C63.5776 351.825 60.1877 355.653 58.3642 360.256C54.9398 357.363 50.7617 355.485 46.3088 354.836C41.8558 354.187 37.3084 354.794 33.1877 356.587C31.3162 343.576 22.5783 333.57 8.92149 333.57C-6.03779 333.57 -20.7062 345.579 -20.7062 360.406C-22.1214 360.399 -23.5165 360.738 -24.7674 361.393C-26.0182 362.049 -27.0862 363 -27.8761 364.163C-31.0965 361.707 -35.0526 360.384 -39.1176 360.406C-49.2338 360.406 -55 368.571 -55 378.639C-55 383.475 -53.0602 388.113 -49.6074 391.532C-46.1546 394.951 -41.4716 396.872 -36.5886 396.872H98.8415C101.349 396.864 103.759 395.911 105.582 394.206C107.405 392.501 108.503 390.173 108.655 387.694C108.806 385.216 107.999 382.773 106.397 380.863C104.795 378.953 102.518 377.719 100.03 377.412Z" fill="white"/>
<path d="M439.03 468.52C440.446 465.69 438.727 462.509 438.727 459.141C438.734 454.196 436.996 449.404 433.814 445.593C430.633 441.783 426.207 439.192 421.301 438.27C416.396 437.348 411.319 438.152 406.948 440.542C402.578 442.933 399.188 446.761 397.364 451.364C393.94 448.472 389.762 446.593 385.309 445.944C380.856 445.295 376.308 445.902 372.188 447.695C370.316 434.684 361.578 424.679 347.921 424.679C332.962 424.679 318.294 436.688 318.294 451.515C316.879 451.507 315.484 451.846 314.233 452.502C312.982 453.157 311.914 454.108 311.124 455.271C307.903 452.815 303.947 451.493 299.882 451.515C289.766 451.515 284 459.679 284 469.747C284 474.583 285.94 479.221 289.393 482.64C292.845 486.059 297.528 487.98 302.411 487.98H437.842C440.349 487.972 442.759 487.019 444.582 485.314C446.405 483.609 447.503 481.281 447.655 478.803C447.806 476.324 446.999 473.882 445.397 471.972C443.795 470.062 441.518 468.828 439.03 468.52Z" fill="white"/>
<path d="M1333.03 89.2327C1334.45 86.4026 1332.73 83.2218 1332.73 79.8532C1332.73 74.9085 1331 70.1167 1327.81 66.3059C1324.63 62.4951 1320.21 59.9047 1315.3 58.9824C1310.4 58.0601 1305.32 58.8639 1300.95 61.2548C1296.58 63.6457 1293.19 67.4735 1291.36 72.0767C1287.94 69.1841 1283.76 67.3057 1279.31 66.6567C1274.86 66.0078 1270.31 66.6146 1266.19 68.4076C1264.32 55.3965 1255.58 45.391 1241.92 45.391C1226.96 45.391 1212.29 57.4002 1212.29 72.2269C1210.88 72.2195 1209.48 72.5586 1208.23 73.214C1206.98 73.8694 1205.91 74.8209 1205.12 75.9837C1201.9 73.5272 1197.95 72.2051 1193.88 72.2269C1183.77 72.2269 1178 80.3917 1178 90.4599C1178 95.2956 1179.94 99.9332 1183.39 103.353C1186.85 106.772 1191.53 108.693 1196.41 108.693H1331.84C1334.35 108.685 1336.76 107.731 1338.58 106.027C1340.4 104.322 1341.5 101.993 1341.65 99.515C1341.81 97.0365 1341 94.594 1339.4 92.684C1337.79 90.774 1335.52 89.54 1333.03 89.2327Z" fill="white"/>
</svg>
