<?xml version="1.0" encoding="UTF-8"?>
<svg id="Camada_1" data-name="Camada 1" xmlns="http://www.w3.org/2000/svg" viewBox="0 0 69.559 91.888">
  <defs>
    <style>
      .cls-1 {
        fill: #bfb7bf;
      }

      .cls-1, .cls-2, .cls-3, .cls-4, .cls-5, .cls-6, .cls-7, .cls-8, .cls-9 {
        stroke: #1f1c23;
        stroke-miterlimit: 10;
        stroke-width: .25px;
      }

      .cls-2 {
        fill: #0e1730;
      }

      .cls-3 {
        fill: #cec9cd;
      }

      .cls-4 {
        fill: #340773;
      }

      .cls-5 {
        fill: #c5bdc4;
      }

      .cls-6 {
        fill: #e8e7e7;
      }

      .cls-7 {
        fill: #5d04d9;
      }

      .cls-8 {
        fill: #d96a93;
      }

      .cls-9 {
        fill: #5f348a;
      }
    </style>
  </defs>
  <path class="cls-2" d="M32.044,4.16c4.462-.34,8.529.19,12.851,1.252,1.36.334.917.59,2.306-.198.647-.367,1.376-.884,1.983-1.324.236-.03.306-.111.405-.135.394-.094.855-.122,1.08-.54,3.826-1.265,6.672-2.546,10.865-2.968,2.265-.228,3.943-.404,4.796,2.086,1.765,5.158,1.414,14.068-.275,19.237-.583,1.785-1.489,3.442-2.426,5.06.542,1.422.555,2.997.698,4.496,1.396.941,3.265,1.449,3.953,3.131.861,2.104.402,4.121-1.427,5.453-.567.412-.999.592-1.687.744-.058.592.149,1.028.046,1.665-.472,2.934-5.177,7.699-7.536,9.467-2.759,2.067-6.023,3.292-9.175,4.618.377,1.743,1.136,3.406,1.59,5.149.471,1.808.756,3.676,1.103,5.512.072.381-.167.749.355.858.284.059.216-.136.205-.338-.174-3.211-.483-4.955.633-8.131,1.812-5.157,7.952-8.055,12.711-4.675,2.632,1.869,3.499,5.91.958,8.223-.543.495-1.54.935-1.965,1.409-.977,1.088-.275,4.573-.197,6.013.143,2.641-.437,5.504-2.102,7.613-.563.713-1.792,1.568-2.196,2.258-.764,1.305-.926,2.669-2.044,4.097-2.088,2.665-6.021,4.289-9.386,4.189-.823-.024-1.993-.48-2.694-.417-.523.047-1.018.471-1.514.651-1.266.457-3.237.466-4.488-.039-.347-.14-1.429-.875-1.554-.874-.17.002-.354.216-.548.262-1.013.243-2.963.219-4.04.14-.517-.038-1.114-.322-1.622-.28-.394.033-1.099.582-1.552.753-1.223.462-2.924.466-4.187.141-.576-.148-1.377-.702-1.831-.747-.385-.037-1.204.353-1.743.403-3.97.369-7.656-1.184-10.188-4.182-.139-.164-.33-.311-.405-.405-.056-.07-.078-.195-.135-.27-.293-.387-.5-.84-.81-1.215-.043-.137-.092-.27-.135-.405l-.135-.27c-.114-.395-.324-.86-.405-1.215-.054-.235-.27-1.286-.27-1.417v-2.699c0-1.067.671-2.852,1.191-3.802,1.54-2.816,4.424-4.807,7.717-4.632l.438-4.353c.515-2.482,1.329-4.849,2.125-7.252-1.548-.509-3.195-1.17-4.679-1.868-4.466-2.1-9.303-5.63-11.703-10.025-.582-1.065-.953-2.282-.685-3.502-2.473-.957-3.978-3.888-3.105-6.467.527-1.559,2.6-2.398,3.957-3.128.003-.823.07-1.643.174-2.458.07-.55.396-1.468.391-1.911-.004-.349-1.637-3.315-1.918-4.021-.232-.582-.463-1.248-.65-1.846-1.683-5.376-1.726-13.225-.07-18.627.299-.974.749-1.795,1.795-2.119,1.244-.385,4.091.046,5.46.268,4.762.773,9.191,2.726,13.269,5.226,2.788-.775,5.532-1.397,8.428-1.618ZM64.03,3.62c-.046-.264-.062-1.013-.262-1.155-1.735-.199-3.474.168-5.162.522-3.466.726-6.831,1.981-9.826,3.874-.076.106.634.58.766.652.231.127.504.112.583.155,1.7.928,3.684,2.163,5.137,3.435.194.17.334.779.676.392.167-.189.436-.728.53-.993.151-.046.303-.044.412-.191.423-.62.898-1.288,1.407-1.837.545-.589,1.619-1.642,2.23-2.156.949-.799,2.411-1.857,3.642-2.027.123-.276-.109-.535-.133-.672ZM5.457,3.62c-.025.132-.358.683-.271.808,1.323.102,2.301.855,3.363,1.566.662.443.646.711,1.496.866-.054.31.103.412.265.612.214.264,2.009,2.23,2.164,2.222.253.522.747,1.212,1.145,1.622.561.579.379.121.736-.212,1.534-1.429,3.267-2.616,5.137-3.57.346-.176.916-.199,1.212-.607.009-.409-3.35-1.924-3.916-2.155-2.274-.932-5.334-1.773-7.772-2.08-.61-.077-2.884-.294-3.292-.086-.486.248-.225.789-.268,1.014ZM64.03,6.454c-.57.096-.77.723-1.141,1.086-.977.955-2.102,1.752-3.046,2.757-.331.352-2.307,2.704-2.27,2.948.424.726,1.13,1.295,1.599,1.981.797,1.166,1.463,2.721,2.294,3.914l1.483,4.318,1.121-3.266c.995-3.307,1.145-6.001,1.04-9.42-.021-.687.048-1.413,0-2.091-.072-.987-.38-1.934-.54-2.902-.324-.063-.552.427-.539.674ZM66.054,36.145c.246-.702.497-.671-.279-1.273-1.296-1.005-3.334-1.54-3.733-3.285-.396-1.735-.38-3.796-.804-5.675-3.019-13.401-15.177-20.23-28.318-19.46-14.675.86-23.319,8.896-25.691,23.3-.242,1.47.116,2.676-1.189,3.67-.614.468-2.518,1.305-2.838,1.681-.293.344-.085,1.139.23,1.446.084.91,1.343,1.826,2.16,2.091.889.289,2.015-.078,2.262,1.111.157.754.016.637-.327,1.032-.067.077-.032.204-.047.22-.014.015-.165-.019-.221.044-.204.233-.607.68-.591.956.011.192.64,1.537.786,1.792,1.24,2.169,4.717,5.323,6.867,6.629,11.753,7.135,27.032,7.455,39.136.994,3.203-1.71,8.372-5.687,9.267-9.366.11-.452.005-1.02-.586-.915.052-.45-.261-.683-.284-1.143-.069-1.388,1.048-1.257,1.995-1.667,1.297-.561,1.74-.865,2.202-2.184ZM4.378,15.227c.008,1.199.512,3.288.848,4.483.117.416,1.042,3.232,1.178,3.344.232.19.226-.046.281-.189.473-1.232.925-2.839,1.472-3.995.516-1.091,1.374-2.632,2.024-3.644.008-.012.177.03.269-.097.474-.655.994-1.252,1.466-1.886-1.757-2.484-4.251-5.018-6.863-6.654-.042-.026-.015-.21-.269-.134-.454,2.899-.669,5.837-.405,8.772ZM54.178,61.923c-.155,1.065-.155,2.015-.135,3.104.02,1.075.161,2.136.163,3.212.046.08,1.384.694,1.636.859.99.65,2.847,2.691,3.33,3.756.28.618.646,1.979.776,2.666.053.28.04.561.035.843.312.086.327-.198.45-.421,1.826-3.317.687-5.588.629-8.89-.037-2.15.363-3.902,2.095-5.26.401-.315,1.362-.684,1.552-.882.186-.194.09-.388.132-.471.487-.946.601-1.492.162-2.53-.081-.191-.269-.256-.297-.304-.037-.064.018-.276-.127-.475-2.28-3.111-7.206-1.85-9.106,1.026-.737,1.115-1.103,2.456-1.294,3.767ZM22.867,59.089c-1.164,3.055-1.682,6.722-1.889,9.987-.084,1.325-.093,2.722,0,4.049.173,2.462.649,5.235,1.389,7.586.564,1.791.95,2.81,2.255,4.155,1.156,1.192,2.234,1.672,3.967,1.471,1.041-.121,1.4-.304,1.836-1.201.129-.265.199-.353.27-.675.186-.844-.041-1.001-.135-1.754-.372-2.991-.859-6.407-1.62-9.312.086-.995-.256-1.699-.27-2.699-.008-.557-.125-1.333.412-1.679.58-.373,1.353-.315,1.689.32.901,1.706,1.053,6.217,1.408,8.377.348,2.121,1.047,4.356,1.065,6.54.003.354-.126.82-.255,1.152,1.206.186,2.426.136,3.644.137.083-.441-.144-.86-.141-1.277.011-1.681.545-4.78.816-6.551.344-2.255.812-4.903,1.254-7.181.152-.781.346-1.556,1.278-1.7,1.529-.238,1.354,1.686,1.247,2.673-.729,1.259-1.733,9.505-1.889,11.472-.04.507-.197.93-.135,1.485.059.527.225.722.54,1.08,1.282,1.458,3.923.943,5.263-.27,2.467-2.233,3.4-7.247,3.778-10.46.175-1.491.387-3.218.136-4.655.004-1.904-.131-3.82-.447-5.694-.209-1.243-.587-3.096-.999-4.264-.13-.368-.281-.709-.578-.974-.119-.788-.433-1.564-.754-2.303-.555.147-1.089.372-1.647.509-5.552,1.363-11.318,1.525-16.982.46-1.239-.018-2.408-.553-3.611-.817-.139.039-.778,1.709-.894,2.015ZM51.209,71.235c-.216,3.253-.442,7.172-1.485,10.257-.302.893-.986,2.372-1.458,3.198-.233.407-.69.563-.567,1.12h2.227c.29,0,1.907-.527,2.298-.671,3.702-1.366,5.409-4.087,5.327-7.966-.026-1.233.013-1.795-.474-2.967-.997-2.398-3.353-3.946-5.868-4.321-.023.446.029.905,0,1.35ZM12.34,77.713c.009,3.092,1.387,5.363,4.09,6.91.79.452,2.655,1.188,3.536,1.188h2.227c-.005-.524-.541-.781-.788-1.169-.817-1.285-1.55-3.543-1.911-5.039-.614-2.541-.959-5.62-.81-8.233.02-.352.265-.895.135-1.35-1.812-.114-3.727,1.007-4.836,2.385-1.359,1.689-1.649,3.179-1.643,5.308Z"/>
  <path class="cls-4" d="M11.665,84.191c.178-.015.361.01.54,0,2.532,2.998,6.218,4.551,10.188,4.182.539-.05,1.358-.44,1.743-.403.453.044,1.255.598,1.831.747,1.263.325,2.963.321,4.187-.141.453-.171,1.158-.72,1.552-.753.508-.042,1.106.242,1.622.28,1.077.079,3.027.104,4.04-.14.194-.047.378-.26.548-.262.125-.001,1.207.734,1.554.874,1.252.505,3.222.497,4.488.039.497-.179.991-.603,1.514-.651.701-.063,1.871.393,2.694.417,3.364.099,7.298-1.525,9.386-4.189,1.08.413,2.276.374,3.403.579,2.012.365,5.406.903,7.23,1.543.697.245,1.32.505,1.244,1.388-.195.173-.229.478-.576.706-1.695,1.117-8.815,2.014-11.098,2.262-13.882,1.508-30.091,1.366-43.996.134-3.109-.275-9.302-.773-12.038-1.862-1.147-.457-2.447-1.618-.851-2.456,1.532-.804,3.987-.794,5.697-1.119,1.252-.238,2.471-.645,3.751-.906.275-.056.536-.088.81-.135.131-.022.241-.131.27-.135.086-.012.182.007.27,0Z"/>
  <path class="cls-6" d="M11.8,83.786c.075.094.266.24.405.405"/>
  <path class="cls-6" d="M10.721,81.897c-.005-.016-.088-.107-.135-.27l.135.27Z"/>
  <path class="cls-6" d="M11.396,84.191c-.029.004-.139.113-.27.135l.27-.135Z"/>
  <path class="cls-7" d="M62.545,34.121c.462.443,1.623,1.198,2.202,1.509.365.196.749.363,1.172.38.024.057.083.102.135.135-.462,1.319-.905,1.623-2.202,2.184-.947.41-2.065.279-1.995,1.667.023.46.336.693.284,1.143-.503.089-1.54,1.597-1.955,2.027-11.642,12.054-35.513,12.429-48.448,2.287-1.697-1.331-2.447-2.453-3.766-4.062-.144-.175-.183-.41-.491-.387.015-.016-.021-.143.047-.22.343-.395.484-.278.327-1.032-.248-1.188-1.374-.822-2.262-1.111-.817-.265-2.076-1.181-2.16-2.091-.083-.896.256-.646.945-1.08,1.011-.291,1.859-1.007,2.821-1.508,0-.062-.124-.104-.121-.111.075-.199.294-.391.389-.624.731-1.784.85-3.726,1.297-5.586,1.997-8.304,7.357-14.862,15.37-17.699,13.001-4.603,29.05-.534,34.928,12.75.907,2.049,1.359,4.218,1.826,6.406.392,1.833.199,3.62,1.658,5.022ZM22.557,20.248c-.426.129-.704.883-.984,1.174-.781.812-2.783.747-3.169,1.284-.504.7.137,1.971,1.032,2.099,1.311.188,4.636-1.623,4.776-3.049.094-.959-.703-1.796-1.654-1.509ZM45.709,20.39c-.554.522-.325,1.747.102,2.327.658.895,2.634,1.998,3.726,2.088.574.047,1.511-.457,1.643-1.036.393-1.726-1.743-1.462-2.66-2.006-.485-.288-1.109-1.356-1.485-1.483-.316-.106-1.08-.12-1.325.11ZM52.237,28.645c-.598-.472-.848-.904-1.582-1.326-6.047-3.475-10.325,5.558-5.074,8.853,3.732,2.342,8.005-1.119,7.652-5.155,1.314.239,3.583-2.134,2.1-3.114-.626-.413-2.132.747-2.869.939l-.155-.005c-.024-.058-.028-.157-.072-.192ZM16.376,31.165c-.264,1.753.554,3.413,1.901,4.51,4.612,3.759,10.592-1.919,7.345-6.805-1.585-2.385-4.809-3.125-7.2-1.421-.332.237-1.071,1.192-1.317,1.255-.764.194-2.772-1.664-3.479-.114-.6,1.315,1.607,2.616,2.751,2.575ZM32.115,35.128c.368.45,1.193,1.014,1.695,1.344.248.163.919.646,1.13.626.696-.608,1.656-1.136,2.305-1.759.955-.917.671-2.081-.602-2.375-.805-.186-3.612-.09-4.362.245-.732.327-.579,1.412-.165,1.918ZM51.249,37.267c-.54.489-.343,1.397.22,1.79,1.021.712,5.905.518,4.739-1.501-.704-1.219-4.09-1.074-4.959-.288ZM18.637,38.933c.838-.877-.207-1.915-1.132-2.082-.54-.097-2.381-.108-2.907,0-.657.134-1.33.964-1.015,1.62.521,1.089,2.362,1.124,3.397,1.032.512-.046,1.297-.191,1.658-.569ZM39.101,43.527c.375.306,1.098.136,1.39-.217.864-1.044-.939-3.244-1.769-3.923-2.538-2.076-6.035-1.922-8.351.416-.39.394-1.497,1.866-1.549,2.361-.093.879.187,1.748,1.236,1.512.548-.123.804-.997,1.121-1.445,1.587-2.244,4.701-2.633,6.655-.605.481.499.837,1.551,1.267,1.902Z"/>
  <path class="cls-7" d="M48.779,70.155c.251,1.438.04,3.164-.136,4.655-.378,3.214-1.311,8.227-3.778,10.46l-.135-.675c.074-.016.182.003.27,0,.135-.005.27.005.404,0-.102-.79-.405-1.92-1.349-2.024-.047-.043-.091-.103-.135-.135-.718-.776-2.393-1.074-3.333-.631-.049.023-.061.183-.135.224-.349.196-.736.11-.85.676-.087.061-.141.323-.405.27.156-1.967,1.161-10.213,1.889-11.472,1.114-1.924.348-3.47-.947-5.058-3.336-4.089-8.875-3.787-11.18,1.096-.555,1.175-.772,1.878-.694,3.152.073,1.189.407,1.676.675,2.699.76,2.906,1.248,6.322,1.62,9.312-.44-.099-.715-.511-1.124-.698-2.03-.928-4.556.466-4.545,2.723-.106.024-.24-.009-.27.135-1.305-1.345-1.691-2.364-2.255-4.155-.74-2.351-1.216-5.124-1.389-7.586.289-.704.079-1.599.136-2.36.04-.527.199-1.133.268-1.688.339-2.715.956-5.412,1.382-8.132.04-.253.239-.521.237-.775.828.138,1.516.724,2.297,1.01,3.529,1.29,9.56,1.472,13.29,1.149,2.845-.246,5.632-.987,8.166-2.294.575,3.375,1.444,6.798,2.024,10.122Z"/>
  <path class="cls-4" d="M7.482,41.004c.307-.024.347.211.491.387,1.318,1.609,2.069,2.731,3.766,4.062,12.935,10.142,36.806,9.767,48.448-2.287.415-.429,1.452-1.937,1.955-2.027.591-.105.696.463.586.915-.895,3.679-6.064,7.656-9.267,9.366-12.104,6.461-27.383,6.141-39.136-.994-2.15-1.305-5.628-4.46-6.867-6.629-.146-.256-.776-1.6-.786-1.792-.015-.276.387-.723.591-.956.056-.064.207-.029.221-.044Z"/>
  <path class="cls-6" d="M66.054,36.145c-.052-.033-.111-.078-.135-.135-.039-.09.006-.257-.134-.333l-3.24-1.556c-1.459-1.402-1.267-3.189-1.658-5.022-.468-2.188-.92-4.357-1.826-6.406-5.878-13.284-21.927-17.353-34.928-12.75-8.013,2.837-13.373,9.395-15.37,17.699-.447,1.859-.565,3.802-1.297,5.586-.095.233-.315.425-.389.624-.867.6-1.806,1.057-2.699,1.62-.689.434-1.028.183-.945,1.08-.315-.308-.523-1.103-.23-1.446.321-.376,2.224-1.213,2.838-1.681,1.305-.994.947-2.2,1.189-3.67,2.372-14.403,11.016-22.439,25.691-23.3,13.141-.77,25.299,6.059,28.318,19.46.423,1.879.407,3.94.804,5.675.399,1.745,2.437,2.28,3.733,3.285.776.602.525.571.279,1.273Z"/>
  <path class="cls-6" d="M41.087,71.505c.107-.987.282-2.91-1.247-2.673-.931.145-1.126.92-1.278,1.7-.442,2.277-.91,4.926-1.254,7.181-1.317.5-2.493.858-3.887.446-.433-.128-.774-.452-1.241-.446-.355-2.16-.506-6.671-1.408-8.377-.336-.636-1.109-.694-1.689-.32-.538.346-.42,1.122-.412,1.679h-.405c-.078-1.275.139-1.977.694-3.152,2.304-4.883,7.844-5.185,11.18-1.096,1.296,1.588,2.061,3.134.947,5.058Z"/>
  <path class="cls-7" d="M64.57,57.739c.579.766.407,1.824.27,2.699-.042.082.054.277-.132.471-.19.198-1.151.567-1.552.882-1.732,1.358-2.132,3.11-2.095,5.26-.459-.098-.445.139-.501.507-.265,1.73-.127,3.934-1.388,5.297-.483-1.065-2.34-3.105-3.33-3.756-.252-.166-1.59-.78-1.636-.859-.002-1.076-.142-2.137-.163-3.212.288-.86.41-1.978.521-2.907.012-.097-.118-.183-.116-.197.373-2.836,3.884-5.682,6.81-5.535.884.044,2.768.633,3.312,1.352Z"/>
  <path class="cls-4" d="M22.867,59.089c.117-.306.755-1.976.894-2.015,1.203.264,2.372.799,3.611.817,5.664,1.065,11.43.904,16.982-.46.558-.137,1.092-.362,1.647-.509.321.739.634,1.515.754,2.303.038.249-.041.566,0,.81-2.534,1.307-5.32,2.047-8.166,2.294-3.73.323-9.761.141-13.29-1.149-.781-.285-1.468-.872-2.297-1.01-.002-.22-.265-.614-.028-1.001l-.107-.078Z"/>
  <path class="cls-7" d="M57.282,77.038c-1.158.776-2.032,2.069-3.195,2.811-1.234.786-2.941,1.311-4.363,1.643,1.043-3.085,1.268-7.004,1.485-10.257,2.769.313,4.511,1.997,5.599,4.456.17.385.263,1.043.474,1.347Z"/>
  <path class="cls-7" d="M18.683,71.37c-.149,2.613.196,5.691.81,8.233-.835.192-.368.964-.707,1.317-.434.451-2.187-.699-2.656-.991-.959-.597-1.788-1.343-2.585-2.001-.314-.26-.361-.868-.8-.889.111-.362.107-.848.265-1.287.811-2.254,3.134-4.533,5.674-4.381Z"/>
  <path class="cls-7" d="M19.493,7.534c-1.871.954-3.603,2.14-5.137,3.57-.357.332-.175.791-.736.212-.397-.41-.892-1.1-1.145-1.622.03-.002.106-.143.188-.144.03,0,.232.522.487.278.058-.056-.167-.398-.134-.538.08-.083.889.57.673.068-.146-.341-2.295-2.072-2.711-2.283-.386-.196-.569-.15-.932-.216-.85-.155-.834-.423-1.496-.866-1.062-.711-2.041-1.464-3.363-1.566-.087-.124.245-.675.271-.808,3.631.114,7.153,1.087,10.525,2.364l3.511,1.55Z"/>
  <path class="cls-4" d="M12.745,77.038c.439.021.486.63.8.889.797.659,1.626,1.405,2.585,2.001.469.292,2.222,1.443,2.656.991.34-.353-.128-1.126.707-1.317.361,1.496,1.095,3.754,1.911,5.039.247.388.783.645.788,1.169h-2.227c-.881,0-2.745-.736-3.536-1.188-2.703-1.547-4.081-3.817-4.09-6.91.069-.163.375-.576.405-.675Z"/>
  <path class="cls-7" d="M64.03,3.62c.024.137.256.396.133.672-1.23.17-2.693,1.229-3.642,2.027-.28-.039-.443.098-.664.213-.868.451-4.337,3.088-4.804,3.834-.072.115-.133.269.004.274.499-.199.926.013,1.415-.137-.094.265-.363.805-.53.993-.342.386-.482-.222-.676-.392-1.453-1.272-3.437-2.507-5.137-3.435,1.16-.577,2.31-1.192,3.513-1.683,3.211-1.311,6.912-2.325,10.388-2.366Z"/>
  <path class="cls-4" d="M57.552,77.173c.082,3.879-1.626,6.6-5.327,7.966-.391.144-2.008.671-2.298.671h-2.227c-.123-.557.334-.713.567-1.12.472-.826,1.156-2.305,1.458-3.198,1.422-.332,3.129-.857,4.363-1.643,1.164-.742,2.037-2.034,3.195-2.811.077.11.13.147.27.135Z"/>
  <path class="cls-5" d="M37.308,77.713c-.271,1.772-.805,4.87-.816,6.551-.003.416.224.835.141,1.277-1.219,0-2.439.05-3.644-.137.129-.332.258-.797.255-1.152-.017-2.184-.716-4.419-1.065-6.54.468-.006.809.318,1.241.446,1.394.412,2.57.054,3.887-.446Z"/>
  <path class="cls-7" d="M5.052,6.589c-.26,1.153.526,1.682.998,2.578.254.483.436,1.13.703,1.592.93,1.612,2.014,3.251,3.428,4.467-.65,1.012-1.508,2.553-2.024,3.644-.363-.035-.592-.497-.785-.767-.226-.316-.91-1.314-.952-1.628-.046-.339.622-1.404.654-1.727.1-1.004-.825-1.518-1.7-1.535-1.189-.023-.825.836-.856,1.686-.007.18-.141.308-.141.326-.264-2.935-.049-5.873.405-8.772.254-.076.228.108.269.134Z"/>
  <path class="cls-7" d="M64.03,6.454c-.013-.248.215-.737.539-.674.16.968.468,1.914.54,2.902.049.678-.021,1.404,0,2.091-.489-.046-.335-.032-.425.312-.352,1.347-.472,2.747-1.034,4.101-.557,1.341-1.726,2.56-2.185,3.955-.831-1.193-1.497-2.747-2.294-3.914.229.052.467.183.712.116.457-.125,1.952-2.819,2.28-3.399,1.141-2.014,1.987-3.135,1.866-5.489Z"/>
  <path class="cls-4" d="M64.03,6.454c.121,2.355-.725,3.475-1.866,5.489-.329.58-1.823,3.274-2.28,3.399-.245.067-.483-.063-.712-.116-.469-.686-1.174-1.255-1.599-1.981-.037-.244,1.939-2.596,2.27-2.948.944-1.004,2.069-1.802,3.046-2.757.371-.362.571-.99,1.141-1.086Z"/>
  <path class="cls-6" d="M64.03,3.62c-3.476.041-7.177,1.055-10.388,2.366-1.202.491-2.353,1.107-3.513,1.683-.079-.043-.352-.029-.583-.155-.132-.072-.842-.546-.766-.652,2.995-1.894,6.36-3.148,9.826-3.874,1.688-.354,3.428-.721,5.162-.522.2.142.216.891.262,1.155Z"/>
  <path class="cls-4" d="M5.052,6.589c2.612,1.636,5.107,4.17,6.863,6.654-.472.634-.991,1.231-1.466,1.886-.092.128-.262.085-.269.097-1.414-1.216-2.498-2.855-3.428-4.467-.266-.462-.448-1.109-.703-1.592-.472-.897-1.258-1.425-.998-2.578Z"/>
  <path class="cls-6" d="M19.493,7.534l-3.511-1.55c-3.372-1.277-6.894-2.25-10.525-2.364.043-.225-.218-.766.268-1.014.408-.209,2.682.009,3.292.086,2.438.307,5.498,1.148,7.772,2.08.565.232,3.925,1.746,3.916,2.155-.297.408-.866.431-1.212.607Z"/>
  <path class="cls-4" d="M8.156,18.871c-.547,1.155-.999,2.763-1.472,3.995-.055.142-.049.379-.281.189-.137-.113-1.061-2.928-1.178-3.344-.336-1.195-.84-3.284-.848-4.483,0-.018.134-.146.141-.326.031-.85-.333-1.709.856-1.686.875.017,1.8.531,1.7,1.535-.032.322-.7,1.388-.654,1.727.042.314.726,1.312.952,1.628.193.27.422.733.785.767Z"/>
  <path class="cls-4" d="M65.109,10.773c.106,3.419-.045,6.113-1.04,9.42l-1.121,3.266-1.483-4.318c.46-1.395,1.628-2.615,2.185-3.955.562-1.354.682-2.754,1.034-4.101.09-.343-.064-.357.425-.312Z"/>
  <path class="cls-6" d="M64.705,57.604l-.135.135c-.544-.719-2.428-1.307-3.312-1.352-2.926-.146-6.438,2.699-6.81,5.535h-.27c.191-1.311.557-2.652,1.294-3.767,1.9-2.876,6.825-4.138,9.106-1.026.145.198.09.411.127.475Z"/>
  <path class="cls-4" d="M61.061,67.051c.057,3.302,1.196,5.573-.629,8.89-.123.223-.137.507-.45.421.005-.281.018-.563-.035-.843-.13-.687-.495-2.048-.776-2.666,1.261-1.363,1.123-3.567,1.388-5.297.056-.368.042-.605.501-.507Z"/>
  <path class="cls-7" d="M44.596,84.596c-.043.041-.145.517-.309.636-.254.184-2.196.455-2.586.449-.499-.007-1.192-.264-1.693-.358-.314-.059-.238-.042-.405.218-.315-.358-.481-.553-.54-1.08,1.573-1.785,4.098-1.799,5.533.135Z"/>
  <path class="cls-6" d="M57.552,77.173c-.14.012-.193-.025-.27-.135-.212-.304-.304-.963-.474-1.347-1.087-2.459-2.83-4.143-5.599-4.456.03-.445-.022-.904,0-1.35,2.515.375,4.871,1.923,5.868,4.321.487,1.172.448,1.734.474,2.967Z"/>
  <path class="cls-6" d="M12.34,77.713c-.006-2.129.284-3.619,1.643-5.308,1.109-1.378,3.024-2.5,4.836-2.385.129.455-.115.998-.135,1.35-2.54-.152-4.863,2.127-5.674,4.381-.158.439-.154.925-.265,1.287-.03.099-.336.511-.405.675Z"/>
  <path class="cls-7" d="M30.695,84.461c-.071.322-.141.409-.27.675-.334-.048-.582.221-.884.264-.714.101-2.267.222-2.95.129-.37-.05-.858-.345-1.208-.527-.205-.107.115-.339-.086-.406.187-.153.26-.359.581-.566,1.567-1.011,3.677-1.319,4.817.431Z"/>
  <path class="cls-6" d="M30.56,82.706c.094.753.321.91.135,1.754-1.14-1.751-3.25-1.443-4.817-.431-.321.208-.395.413-.581.566-.215.176-.216.093-.405.135-.011-2.257,2.515-3.651,4.545-2.723.409.187.684.599,1.124.698Z"/>
  <path class="cls-6" d="M43.921,82.437c.044.032.088.092.135.135.512.466,1.081,1.303.945,2.024-.088.003-.196-.016-.27,0-.048.01-.117-.017-.135,0-1.435-1.934-3.96-1.92-5.533-.135-.062-.555.095-.977.135-1.485.264.053.318-.209.405-.27.43-.303,1.035-.755,1.549-.813.877-.099,2.042.008,2.77.543Z"/>
  <path class="cls-6" d="M48.779,70.155c-.58-3.324-1.449-6.747-2.024-10.122-.041-.243.038-.561,0-.81.297.265.448.605.578.974.412,1.168.79,3.021.999,4.264.316,1.874.451,3.789.447,5.694Z"/>
  <path class="cls-6" d="M23.002,60.168c.002.254-.198.522-.237.775-.426,2.72-1.043,5.417-1.382,8.132h-.405c.207-3.265.725-6.932,1.889-9.987l.107.078c-.237.387.027.782.028,1.001Z"/>
  <path class="cls-7" d="M60.521,6.319c-.611.514-1.685,1.567-2.23,2.156-.509.549-.984,1.217-1.407,1.837-.108.146-.261.144-.412.191-.489.15-.916-.062-1.415.137-.137-.005-.076-.159-.004-.274.467-.747,3.936-3.383,4.804-3.834.221-.115.384-.252.664-.213Z"/>
  <path class="cls-7" d="M25.296,84.596c.201.067-.119.299.086.406.349.181.838.476,1.208.527.683.093,2.236-.028,2.95-.129.303-.043.55-.311.884-.264-.436.897-.795,1.08-1.836,1.201-1.733.201-2.812-.279-3.967-1.471.03-.144.164-.111.27-.135.189-.042.19.041.405-.135Z"/>
  <path class="cls-7" d="M44.866,85.271c-1.34,1.213-3.982,1.728-5.263.27.167-.26.091-.276.405-.218.501.094,1.194.351,1.693.358.391.006,2.333-.265,2.586-.449.164-.119.265-.595.309-.636.018-.017.087.01.135,0l.135.675Z"/>
  <path class="cls-7" d="M10.046,6.859c.363.066.546.02.932.216.416.211,2.564,1.942,2.711,2.283.215.502-.594-.152-.673-.068-.033.14.192.482.134.538-.255.244-.457-.278-.487-.278-.082,0-.158.142-.188.144-.155.008-1.95-1.958-2.164-2.222-.162-.2-.319-.302-.265-.612Z"/>
  <path class="cls-3" d="M54.448,61.923c-.002.014.128.1.116.197-.111.929-.233,2.047-.521,2.907-.02-1.089-.02-2.039.135-3.104h.27Z"/>
  <path class="cls-3" d="M28.67,70.695c.014,1.001.356,1.704.27,2.699-.268-1.023-.602-1.51-.675-2.699h.405Z"/>
  <path class="cls-1" d="M21.383,69.076c-.069.556-.229,1.161-.268,1.688-.057.761.153,1.656-.136,2.36-.093-1.327-.084-2.724,0-4.049h.405Z"/>
  <path class="cls-5" d="M64.84,60.438c.138-.875.309-1.933-.27-2.699l.135-.135c.028.049.216.114.297.304.439,1.038.324,1.584-.162,2.53Z"/>
  <path class="cls-2" d="M64.128,82.602c1.803-.367,2.007,1.97.854,2.338-1.713.548-2.492-2.004-.854-2.338Z"/>
  <path class="cls-2" d="M16.376,31.165c-1.144.041-3.351-1.26-2.751-2.575.707-1.551,2.716.308,3.479.114.246-.063.985-1.018,1.317-1.255,2.392-1.704,5.615-.964,7.2,1.421,3.247,4.886-2.733,10.564-7.345,6.805-1.346-1.097-2.165-2.757-1.901-4.51ZM20.07,29.025c-.315.755.085,1.973.982,2.119,2.664.433,2.064-3.492-.216-2.766-.117.037-.747.601-.766.647Z"/>
  <path class="cls-2" d="M52.237,28.645c.043.034.048.133.072.192l.155.005c.737-.191,2.244-1.352,2.869-.939,1.483.98-.786,3.353-2.1,3.114.352,4.036-3.92,7.497-7.652,5.155-5.251-3.295-.973-12.328,5.074-8.853.734.422.984.853,1.582,1.326ZM47.521,28.226c-1.72.049-2.021,2.548-.262,2.894,2.279.449,1.966-2.943.262-2.894Z"/>
  <path class="cls-2" d="M39.101,43.527c-.43-.351-.786-1.403-1.267-1.902-1.954-2.028-5.068-1.639-6.655.605-.317.449-.573,1.322-1.121,1.445-1.05.237-1.33-.633-1.236-1.512.053-.495,1.159-1.967,1.549-2.361,2.316-2.337,5.813-2.492,8.351-.416.83.679,2.633,2.879,1.769,3.923-.292.353-1.015.523-1.39.217Z"/>
  <path class="cls-2" d="M32.115,35.128c-.414-.506-.567-1.591.165-1.918.75-.335,3.557-.431,4.362-.245,1.273.294,1.556,1.458.602,2.375-.648.623-1.608,1.151-2.305,1.759-.211.02-.881-.463-1.13-.626-.502-.33-1.326-.894-1.695-1.344Z"/>
  <path class="cls-2" d="M45.709,20.39c.244-.23,1.008-.216,1.325-.11.377.126,1.001,1.195,1.485,1.483.918.544,3.054.28,2.66,2.006-.132.579-1.069,1.084-1.643,1.036-1.092-.09-3.068-1.193-3.726-2.088-.426-.58-.656-1.805-.102-2.327Z"/>
  <path class="cls-2" d="M22.557,20.248c.951-.287,1.748.55,1.654,1.509-.14,1.426-3.465,3.237-4.776,3.049-.894-.129-1.536-1.399-1.032-2.099.386-.536,2.388-.472,3.169-1.284.28-.291.559-1.046.984-1.174Z"/>
  <path class="cls-8" d="M18.637,38.933c-.361.378-1.145.524-1.658.569-1.036.092-2.876.058-3.397-1.032-.314-.657.358-1.487,1.015-1.62.526-.107,2.367-.097,2.907,0,.926.167,1.97,1.205,1.132,2.082Z"/>
  <path class="cls-8" d="M51.249,37.267c.869-.786,4.256-.931,4.959.288,1.166,2.019-3.718,2.213-4.739,1.501-.564-.393-.76-1.301-.22-1.79Z"/>
  <path class="cls-9" d="M7.077,33.851c-.003.008.122.049.121.111-.962.501-1.809,1.217-2.821,1.508.894-.563,1.832-1.02,2.699-1.62Z"/>
  <path class="cls-7" d="M44.056,82.571c.944.104,1.247,1.234,1.349,2.024-.134.006-.27-.004-.404,0,.137-.721-.433-1.558-.945-2.024Z"/>
  <path class="cls-7" d="M43.921,82.437c-.728-.536-1.893-.642-2.77-.543-.513.058-1.119.511-1.549.813.114-.566.501-.48.85-.676.074-.041.087-.201.135-.224.94-.443,2.615-.145,3.333.631Z"/>
  <path class="cls-6" d="M20.07,29.025c.019-.046.649-.61.766-.647,2.28-.727,2.88,3.199.216,2.766-.898-.146-1.298-1.364-.982-2.119Z"/>
  <path class="cls-6" d="M47.521,28.226c1.704-.049,2.017,3.343-.262,2.894-1.759-.346-1.458-2.845.262-2.894Z"/>
</svg>