<?xml version="1.0" encoding="UTF-8"?>
<svg id="Camada_1" data-name="Camada 1" xmlns="http://www.w3.org/2000/svg" viewBox="0 0 96 96">
  <defs>
    <style>
      .cls-1 {
        fill: #763ad6;
      }

      .cls-2 {
        fill: #fdfdfe;
      }

      .cls-2, .cls-3, .cls-4, .cls-5, .cls-6 {
        stroke: #260259;
        stroke-miterlimit: 10;
        stroke-width: .5px;
      }

      .cls-3 {
        fill: #d96a93;
      }

      .cls-4 {
        fill: #040305;
      }

      .cls-5 {
        fill: #583bbf;
      }

      .cls-6 {
        fill: #260259;
      }
    </style>
  </defs>
  <rect class="cls-1" x="0" y="0" width="96" height="96" rx="48" ry="48"/>
  <g>
    <path class="cls-6" d="M48.69,65.68c.17,1.24-.41,3.62.38,4.51,1.64,1.87,7.76,1.09,9.89.19,2.4-1.02,6.52-4.33,7.26-7.09.24-.9-2.37.17-1.54-1.23.68-1.15,4.44.61,4.17,2.07s-1.64-1.14-1.83-.98c-.47,2.08-2.25,4.28-3.8,5.6-.91.78-2.22,1.28-3.01,2.1-.68.71-.89,1.93-1.24,2.59-6.08,11.41-15.45,11.37-21.56,0-.39-.73-.6-2.07-1.14-2.7-.93-1.07-2.97-1.89-4.31-3.51-.55-.67-1.97-3.35-2.14-3.45-.98-.61-1.08.59-1.39.78-.81.48-.36-1.65.99-2.31.85-.41,3.21-.82,2.81.62-.2.22-2.05-.44-1.83.41.33,1.25,2.57,3.72,3.52,4.65,3.04,2.94,7.13,3.93,11.24,3.34,3.36-.49,2.8-2.65,2.77-5.59.24.02.56.03.79,0ZM54.67,78.55c.77-1.43-3.16-2.19-4.01-2.22-2.06-.07-6.63-.15-8.39.56-1.07.43-1.58.57-.62,1.54,2.39,2.4,6.46,3.17,9.55,2.14.5-.17,3.33-1.74,3.48-2.02Z"/>
    <path class="cls-4" d="M48.69,65.68c-.23.03-.55.02-.79,0-2.96-.23-7.73-4.32-5.87-7.83,2.1-3.96,17.55-3.17,11.76,4.47-.91,1.2-3.7,3.17-5.11,3.36ZM51.8,59.21c1.27-2.12-5.1-2.56-6.01-1.22-.1,2.29,5.52,2.04,6.01,1.22Z"/>
    <path class="cls-3" d="M54.97,55.58c-1.39-.65-2.62-2.06-4.17-2.4-3.28-.72-7.05.1-9.44,2.68.64-7.83,10.53-9.95,13.21-2.24.28.8.24,1.29.4,1.96Z"/>
    <path class="cls-5" d="M63.87,55.02c.12.18.28.3.26.56-1.68,0-3.31.08-4.97.28v-.84c1.31.27,3.3-.2,4.71,0Z"/>
    <path class="cls-5" d="M65.18,55.58c-.09,0-.17,0-.26,0l.13-.27.13.27Z"/>
    <path class="cls-2" d="M32.46,23.32c4.08,3.08,6.29,5.29,7.66,10.72,1.19,4.74,1.44,14.62-1.16,18.83-.27.44-1.81,2.15-2.18,2.15h-4.84c1.26-1.45,2.34-2.96,3.14-4.77v-.28c.07-.19.2-.37.26-.56.33-1.03.7-1.97.79-3.09.59-8.23-5.49-14.62-13.1-13.34-4.52.76-8.22,5.78-8.62,10.54-.22,2.58.07,4.41,1.05,6.73,1.02,2.42,2.34,3.91,4.19,5.61-3.63-.13-7.68.04-10.08-3.36-2.04-2.88-1.9-7.54-1.43-10.95.79-5.82,3.7-11.74,8.03-15.38,4.73-3.98,10.63-4.52,16.31-2.85Z"/>
    <path class="cls-2" d="M86.64,52.22c-.06.1-.18.18-.26.28-2.32,3.06-5.96,3.22-9.42,3.37-.15-.06-.53.14-.52-.14,2.07-1.77,3.53-3.61,4.45-6.31.76-2.26.86-3.47.79-5.89,0-.31.08-.7-.26-.84,0-.19,0-.38,0-.56-.19-3.98-4.8-8.53-8.36-9.13-7.14-1.2-12.18,3.36-12.84,10.82-.21,2.45-.32,2.36.26,4.77.83,3.41,1.64,3.8,3.4,6.45-1.41-.2-3.4.27-4.71,0-1.45-.3-2.66-3.06-3.07-4.43-2.24-7.5-1.11-20,4.9-25.31,5.5-4.86,14.69-3.14,19.76,1.68,5.33,5.05,10.13,18.45,5.88,25.26Z"/>
    <path class="cls-4" d="M14.41,43.52c.4-4.75,4.1-9.77,8.62-10.54,7.61-1.28,13.69,5.11,13.1,13.34-1.07.06-.24-1.69-.66-2.52-.28-.55-1.62-1.01-2.22-.85-.1,1.68.24,3.72-.26,5.33-.85,2.74-4.23,5.6-6.93,5.89-3.05.33-7.1-2.05-8.25-5.05-.23-.61-.66-2.55-.76-3.26-.26-1.85.73-4.27-1.85-2.47-.37.26-.16,1.33-.79.12ZM22.71,36.01c-5.2,1.14-4.54,9.46,1.12,7.09,4.3-1.81,3.17-8.03-1.12-7.09Z"/>
    <path class="cls-4" d="M60.2,43.8c.65-7.46,5.7-12.02,12.84-10.82,3.56.6,8.17,5.16,8.36,9.13l-2.88-.28c.06,1.66.57,4,.26,5.61-.08.41-1.2,2.53-1.51,3.01-2.83,4.35-8.47,4.96-12.17,1.49-.08-.08-1.36-1.67-1.42-1.77-.07-.11-.83-2.32-.86-2.45-.25-1.15-.25-2.73-.26-3.93h-2.36ZM71.37,36.88c-2.65-2.84-8.38,1.47-6.31,5.22,2.33,4.24,9.78-1.5,6.31-5.22Z"/>
    <path class="cls-6" d="M86.64,52.22c4.25-6.8-.55-20.2-5.88-25.26-5.08-4.82-14.27-6.53-19.76-1.68,4.73-5.59,12.01-5.63,17.88-1.91,7.18,4.56,10.3,15.37,9.6,23.93-.13,1.62-.57,3.87-1.83,4.91Z"/>
    <path class="cls-6" d="M8.13,41.56c-.7-2.91.74-7.18,1.96-9.83,3.01-6.55,10.01-11.68,16.99-10.9,2.67.3,3.43,1.01,5.4,2.49-5.69-1.66-11.58-1.12-16.31,2.85-4.33,3.64-7.23,9.56-8.03,15.38Z"/>
    <path class="cls-6" d="M17.81,49.13c-1.02.49-2.06-.25-2.36,1.12-.98-2.33-1.26-4.15-1.05-6.73.63,1.22.42.14.79-.12,2.58-1.79,1.59.63,1.85,2.47.1.71.52,2.65.76,3.26Z"/>
    <path class="cls-6" d="M81.4,42.12c0,.18,0,.38,0,.56s-.81.99.26.84c.08,2.42-.02,3.63-.79,5.89-.36-1.12-.85-1.92-2.09-1.96.31-1.61-.21-3.95-.26-5.61l2.88.28Z"/>
    <path class="cls-6" d="M81.92,19.95c-.16.17-2.54-1.76-2.96-2.01-3.78-2.21-7.69-2.76-11.95-2.9,3.5-2.28,8.92-.4,12.12,1.88.35.25,3.24,2.57,2.8,3.03Z"/>
    <path class="cls-6" d="M29.32,14.91s.1.59-.13.56c-3.44-.72-7.55.11-10.69,1.72-1.26.65-2.28,1.65-3.57,2.2-.5-.52,2.42-2.59,2.74-2.81,2.65-1.79,5.72-2.87,8.9-2.52.44.05,2.58.64,2.75.84Z"/>
    <path class="cls-6" d="M32.99,48.29c.5-1.61.16-3.65.26-5.33.6-.17,1.94.3,2.22.85.42.83-.41,2.58.66,2.52-.08,1.11-.46,2.05-.79,3.09l-2.36-1.12Z"/>
    <path class="cls-6" d="M60.2,43.8h2.36c.01,1.2.01,2.78.26,3.93-.88-.04-1.88-.11-2.36.84-.59-2.41-.48-2.32-.26-4.77Z"/>
    <path class="cls-6" d="M86.37,52.5c-1.25,3.01-6.89,4.33-9.42,3.37,3.46-.14,7.1-.31,9.42-3.37Z"/>
    <path class="cls-6" d="M35.08,50.25s-.11,0,0-.28v.28Z"/>
    <path class="cls-3" d="M54.67,78.55c-.15.28-2.98,1.85-3.48,2.02-3.09,1.03-7.15.26-9.55-2.14-.96-.97-.45-1.1.62-1.54,1.76-.71,6.34-.63,8.39-.56.85.03,4.78.79,4.01,2.22Z"/>
    <path class="cls-2" d="M51.8,59.21c-.49.82-6.11,1.06-6.01-1.22.9-1.33,7.27-.89,6.01,1.22Z"/>
    <path class="cls-4" d="M81.66,43.52c-1.07.15-.27-.66-.26-.84.34.14.25.53.26.84Z"/>
    <path class="cls-2" d="M22.71,36.01c4.28-.94,5.41,5.28,1.12,7.09-5.65,2.37-6.31-5.94-1.12-7.09Z"/>
    <path class="cls-2" d="M71.37,36.88c3.46,3.72-3.98,9.46-6.31,5.22-2.07-3.75,3.66-8.07,6.31-5.22Z"/>
  </g>
</svg>