<?xml version="1.0" encoding="UTF-8"?>
<svg id="Camada_1" data-name="Camada 1" xmlns="http://www.w3.org/2000/svg" viewBox="0 0 96 96">
  <defs>
    <style>
      .cls-1 {
        fill: #763ad6;
      }

      .cls-2 {
        fill: #fdfdfe;
      }

      .cls-2, .cls-3, .cls-4, .cls-5, .cls-6 {
        stroke: #260259;
        stroke-miterlimit: 10;
        stroke-width: .5px;
      }

      .cls-3 {
        fill: #d96a93;
      }

      .cls-4 {
        fill: #040305;
      }

      .cls-5 {
        fill: #583bbf;
      }

      .cls-6 {
        fill: #260259;
      }
    </style>
  </defs>
  <rect class="cls-1" width="96" height="96" rx="16.62" ry="16.62"/>
  <g>
    <path class="cls-6" d="M48.79,69.29c.2,1.42-.47,4.15.43,5.17,1.89,2.14,8.91,1.25,11.34.21,2.76-1.17,7.48-4.97,8.33-8.13.28-1.03-2.72.19-1.77-1.41.78-1.32,5.1.7,4.78,2.38s-1.88-1.31-2.1-1.12c-.54,2.39-2.59,4.91-4.36,6.43-1.05.89-2.55,1.46-3.45,2.41-.78.82-1.02,2.22-1.43,2.97-6.98,13.09-17.72,13.05-24.73,0-.45-.84-.68-2.37-1.31-3.1-1.06-1.23-3.4-2.17-4.95-4.03-.63-.77-2.26-3.84-2.45-3.96-1.12-.7-1.24.68-1.6.89-.93.55-.42-1.89,1.13-2.65.98-.47,3.68-.95,3.22.72-.23.26-2.36-.51-2.09.47.38,1.43,2.94,4.27,4.04,5.33,3.48,3.37,8.18,4.51,12.89,3.83,3.86-.56,3.22-3.04,3.18-6.41.27.02.64.04.9,0ZM55.65,84.05c.88-1.65-3.62-2.51-4.6-2.55-2.36-.08-7.61-.18-9.63.64-1.22.5-1.82.65-.71,1.76,2.75,2.76,7.41,3.64,10.95,2.46.57-.19,3.82-2,3.99-2.31Z"/>
    <path class="cls-4" d="M48.79,69.29c-.26.04-.63.02-.9,0-3.4-.27-8.86-4.96-6.73-8.98,2.41-4.54,20.13-3.64,13.48,5.12-1.04,1.38-4.25,3.64-5.86,3.86ZM52.36,61.85c1.46-2.43-5.85-2.93-6.89-1.4-.12,2.63,6.33,2.34,6.89,1.4Z"/>
    <path class="cls-3" d="M56,57.7c-1.59-.75-3.01-2.37-4.79-2.75-3.76-.82-8.09.11-10.82,3.08.74-8.98,12.08-11.41,15.15-2.57.32.91.28,1.47.46,2.25Z"/>
    <path class="cls-5" d="M66.2,57.06c.14.21.32.35.3.64-1.92,0-3.8.09-5.7.32v-.97c1.51.31,3.79-.23,5.4,0Z"/>
    <path class="cls-5" d="M67.7,57.7c-.1,0-.2,0-.3,0l.15-.32.15.32Z"/>
    <path class="cls-2" d="M30.18,20.69c4.68,3.53,7.22,6.07,8.79,12.3,1.37,5.43,1.65,16.77-1.34,21.6-.31.51-2.08,2.47-2.5,2.47h-5.55c1.45-1.66,2.69-3.4,3.6-5.47v-.32c.08-.22.23-.43.3-.64.37-1.18.81-2.26.9-3.54.68-9.44-6.29-16.78-15.02-15.3-5.19.88-9.43,6.63-9.89,12.08-.25,2.96.08,5.05,1.2,7.72,1.17,2.77,2.69,4.49,4.8,6.43-4.16-.15-8.81.04-11.56-3.85-2.34-3.31-2.18-8.65-1.64-12.56.91-6.67,4.24-13.47,9.21-17.64,5.43-4.56,12.19-5.18,18.71-3.27Z"/>
    <path class="cls-2" d="M92.32,53.84c-.07.11-.21.2-.3.32-2.67,3.51-6.84,3.7-10.81,3.86-.17-.07-.61.16-.6-.16,2.37-2.04,4.05-4.14,5.1-7.24.88-2.59.99-3.98.9-6.76-.01-.35.09-.81-.3-.97,0-.21.01-.43,0-.64-.22-4.56-5.51-9.79-9.59-10.48-8.19-1.38-13.97,3.85-14.72,12.41-.25,2.8-.37,2.7.3,5.47.95,3.91,1.88,4.36,3.9,7.4-1.61-.23-3.9.31-5.4,0-1.67-.34-3.05-3.52-3.52-5.08-2.57-8.6-1.28-22.94,5.62-29.03,6.31-5.57,16.85-3.61,22.67,1.92,6.11,5.8,11.62,21.17,6.75,28.97Z"/>
    <path class="cls-4" d="M9.47,43.86c.46-5.45,4.7-11.21,9.89-12.08,8.73-1.47,15.7,5.87,15.02,15.3-1.22.07-.27-1.94-.75-2.89-.32-.63-1.86-1.16-2.55-.97-.12,1.93.27,4.27-.3,6.12-.98,3.15-4.85,6.43-7.95,6.76-3.5.37-8.14-2.36-9.46-5.79-.27-.7-.75-2.93-.87-3.74-.3-2.12.84-4.89-2.12-2.84-.43.3-.19,1.53-.91.14ZM18.99,35.25c-5.96,1.31-5.2,10.85,1.28,8.13,4.93-2.07,3.63-9.21-1.28-8.13Z"/>
    <path class="cls-4" d="M62,44.18c.75-8.55,6.54-13.79,14.72-12.41,4.08.69,9.37,5.91,9.59,10.48l-3.3-.32c.07,1.91.65,4.59.3,6.44-.09.47-1.38,2.9-1.73,3.45-3.24,4.99-9.71,5.69-13.96,1.71-.1-.09-1.56-1.92-1.63-2.03-.08-.13-.95-2.66-.98-2.81-.29-1.32-.28-3.13-.3-4.51h-2.7ZM74.81,36.25c-3.04-3.26-9.61,1.68-7.24,5.99,2.68,4.87,11.21-1.73,7.24-5.99Z"/>
    <path class="cls-6" d="M92.32,53.84c4.87-7.8-.64-23.17-6.75-28.97-5.83-5.53-16.37-7.49-22.67-1.92,5.42-6.41,13.78-6.46,20.5-2.19,8.24,5.23,11.82,17.63,11.01,27.45-.15,1.86-.66,4.44-2.1,5.64Z"/>
    <path class="cls-6" d="M2.26,41.61c-.81-3.34.84-8.24,2.24-11.27,3.46-7.51,11.48-13.4,19.48-12.5,3.06.34,3.94,1.15,6.19,2.86-6.52-1.91-13.28-1.29-18.71,3.27-4.96,4.17-8.3,10.97-9.21,17.64Z"/>
    <path class="cls-6" d="M13.37,50.3c-1.17.57-2.36-.28-2.7,1.29-1.13-2.67-1.45-4.76-1.2-7.72.72,1.39.48.16.91-.14,2.96-2.06,1.83.72,2.12,2.84.11.81.6,3.03.87,3.74Z"/>
    <path class="cls-6" d="M86.31,42.25c.01.21,0,.43,0,.64s-.93,1.14.3.97c.09,2.77-.02,4.17-.9,6.76-.42-1.29-.97-2.21-2.4-2.25.35-1.85-.24-4.53-.3-6.44l3.3.32Z"/>
    <path class="cls-6" d="M86.91,16.83c-.19.2-2.91-2.02-3.4-2.31-4.34-2.54-8.82-3.17-13.71-3.32,4.02-2.61,10.23-.46,13.9,2.15.4.29,3.71,2.95,3.21,3.48Z"/>
    <path class="cls-6" d="M26.58,11.04s.11.68-.15.64c-3.95-.83-8.66.13-12.26,1.97-1.45.74-2.61,1.89-4.09,2.53-.58-.6,2.78-2.98,3.14-3.22,3.04-2.05,6.56-3.29,10.21-2.89.5.06,2.95.73,3.15.97Z"/>
    <path class="cls-6" d="M30.78,49.33c.57-1.85.19-4.18.3-6.12.68-.19,2.23.34,2.55.97.48.95-.47,2.96.75,2.89-.09,1.28-.53,2.36-.9,3.54l-2.7-1.29Z"/>
    <path class="cls-6" d="M62,44.18h2.7c.02,1.37.01,3.18.3,4.51-1.01-.05-2.16-.12-2.7.97-.67-2.77-.55-2.67-.3-5.47Z"/>
    <path class="cls-6" d="M92.02,54.16c-1.44,3.46-7.9,4.97-10.81,3.86,3.97-.16,8.14-.36,10.81-3.86Z"/>
    <path class="cls-6" d="M33.18,51.59s-.13,0,0-.32v.32Z"/>
    <path class="cls-3" d="M55.65,84.05c-.17.32-3.42,2.12-3.99,2.31-3.54,1.18-8.2.3-10.95-2.46-1.11-1.11-.51-1.27.71-1.76,2.02-.82,7.27-.73,9.63-.64.98.03,5.48.9,4.6,2.55Z"/>
    <path class="cls-2" d="M52.36,61.85c-.56.94-7.01,1.22-6.89-1.4,1.04-1.53,8.34-1.02,6.89,1.4Z"/>
    <path class="cls-4" d="M86.61,43.86c-1.23.17-.3-.75-.3-.97.39.16.29.61.3.97Z"/>
    <path class="cls-2" d="M18.99,35.25c4.91-1.08,6.21,6.06,1.28,8.13-6.48,2.72-7.24-6.82-1.28-8.13Z"/>
    <path class="cls-2" d="M74.81,36.25c3.97,4.26-4.56,10.86-7.24,5.99-2.37-4.31,4.2-9.25,7.24-5.99Z"/>
  </g>
</svg>