<svg width="24" height="24" viewBox="0 0 24 24" fill="none" xmlns="http://www.w3.org/2000/svg">
<path d="M23.1455 5.74223C23.4172 4.86578 23.5044 3.94255 23.4015 3.03074C23.2986 2.11893 23.0079 1.23833 22.5478 0.444459C22.4697 0.309301 22.3575 0.197071 22.2223 0.119053C22.0872 0.0410352 21.9338 -2.05037e-05 21.7778 1.45459e-05C20.7424 -0.00215259 19.7209 0.237863 18.7949 0.700886C17.8688 1.16391 17.0639 1.8371 16.4444 2.66668H13.7778C13.1583 1.8371 12.3534 1.16391 11.4273 0.700886C10.5013 0.237863 9.47979 -0.00215259 8.44444 1.45459e-05C8.28837 -2.05037e-05 8.13505 0.0410352 7.99988 0.119053C7.86472 0.197071 7.75247 0.309301 7.67444 0.444459C7.21427 1.23833 6.92358 2.11893 6.82069 3.03074C6.71781 3.94255 6.80496 4.86578 7.07666 5.74223C6.52747 6.70081 6.23329 7.7842 6.22222 8.8889V9.77779C6.22409 11.2818 6.77007 12.7343 7.75935 13.8672C8.74863 15 10.1144 15.7367 11.6044 15.9411C10.9962 16.7194 10.6661 17.6789 10.6667 18.6667V19.5556H7.99999C7.29275 19.5556 6.61447 19.2746 6.11438 18.7745C5.61428 18.2744 5.33333 17.5961 5.33333 16.8889C5.33333 16.3052 5.21837 15.7273 4.99502 15.1881C4.77166 14.6489 4.44429 14.1589 4.03158 13.7462C3.61888 13.3335 3.12893 13.0061 2.5897 12.7828C2.05048 12.5594 1.47254 12.4445 0.888888 12.4445C0.65314 12.4445 0.427048 12.5381 0.260349 12.7048C0.0936505 12.8715 0 13.0976 0 13.3333C0 13.5691 0.0936505 13.7952 0.260349 13.9619C0.427048 14.1286 0.65314 14.2222 0.888888 14.2222C1.59613 14.2222 2.27441 14.5032 2.77451 15.0033C3.2746 15.5034 3.55555 16.1817 3.55555 16.8889C3.55555 18.0676 4.02381 19.1981 4.8573 20.0316C5.69079 20.8651 6.82126 21.3333 7.99999 21.3333H10.6667V23.1111C10.6667 23.3469 10.7603 23.573 10.927 23.7397C11.0937 23.9063 11.3198 24 11.5555 24C11.7913 24 12.0174 23.9063 12.1841 23.7397C12.3508 23.573 12.4444 23.3469 12.4444 23.1111V18.6667C12.4444 17.9594 12.7254 17.2811 13.2255 16.7811C13.7256 16.281 14.4039 16 15.1111 16C15.8183 16 16.4966 16.281 16.9967 16.7811C17.4968 17.2811 17.7778 17.9594 17.7778 18.6667V23.1111C17.7778 23.3469 17.8714 23.573 18.0381 23.7397C18.2048 23.9063 18.4309 24 18.6667 24C18.9024 24 19.1285 23.9063 19.2952 23.7397C19.4619 23.573 19.5555 23.3469 19.5555 23.1111V18.6667C19.5561 17.6789 19.226 16.7194 18.6178 15.9411C20.1078 15.7367 21.4736 15 22.4629 13.8672C23.4521 12.7343 23.9981 11.2818 24 9.77779V8.8889C23.9889 7.7842 23.6947 6.70081 23.1455 5.74223ZM22.2222 9.77779C22.2222 10.9565 21.754 12.087 20.9205 12.9205C20.087 13.754 18.9565 14.2222 17.7778 14.2222H12.4444C11.2657 14.2222 10.1352 13.754 9.30174 12.9205C8.46825 12.087 7.99999 10.9565 7.99999 9.77779V8.8889C8.01089 8.00004 8.27701 7.13303 8.76666 6.39112C8.85794 6.27081 8.91706 6.12923 8.93844 5.97973C8.95983 5.83023 8.94277 5.67775 8.88888 5.53668C8.65735 4.93956 8.54593 4.30263 8.56099 3.66238C8.57605 3.02212 8.71731 2.39113 8.97666 1.80557C9.70412 1.88383 10.4046 2.12481 11.0263 2.51065C11.6479 2.89649 12.1748 3.41729 12.5678 4.03446C12.6479 4.15968 12.7581 4.26283 12.8883 4.33446C13.0186 4.40608 13.1647 4.4439 13.3133 4.44446H16.9078C17.057 4.44446 17.2038 4.40691 17.3347 4.33525C17.4655 4.2636 17.5763 4.16016 17.6567 4.03446C18.0496 3.41724 18.5764 2.89639 19.1981 2.51054C19.8197 2.1247 20.5203 1.88375 21.2478 1.80557C21.5068 2.39128 21.6476 3.02235 21.6623 3.6626C21.677 4.30285 21.5652 4.93971 21.3333 5.53668C21.2796 5.67641 21.2616 5.82734 21.281 5.97578C21.3004 6.12421 21.3566 6.26545 21.4444 6.38668C21.9389 7.12859 22.209 7.99738 22.2222 8.8889V9.77779Z" fill="#E0E0E0" fill-opacity="0.63"/>
</svg>
