<svg width="49" height="43" viewBox="0 0 49 43" fill="none" xmlns="http://www.w3.org/2000/svg">
<rect x="18.2182" width="20.3636" height="20" rx="4" fill="#EB9F4A"/>
<path d="M29.6114 17.38C29.0914 17.38 28.5114 17.2933 27.8714 17.12C27.2314 16.96 26.5847 16.7 25.9314 16.34C25.2914 15.98 24.6981 15.5133 24.1514 14.94C23.6181 14.3667 23.1847 13.68 22.8514 12.88C22.5314 12.08 22.3714 11.1533 22.3714 10.1C22.3714 9.08667 22.5314 8.19333 22.8514 7.42C23.1847 6.64667 23.6181 5.98 24.1514 5.42C24.6847 4.86 25.2714 4.40667 25.9114 4.06C26.5647 3.71333 27.2181 3.46 27.8714 3.3C28.5247 3.12667 29.1247 3.04 29.6714 3.04C30.3514 3.04 30.9514 3.12667 31.4714 3.3C31.9914 3.46 32.4114 3.63333 32.7314 3.82C33.0647 3.99333 33.2714 4.10667 33.3514 4.16C33.6181 4.33333 33.8647 4.52667 34.0914 4.74C34.3314 4.94 34.4514 5.21333 34.4514 5.56C34.4514 5.73333 34.4114 5.91333 34.3314 6.1C34.2647 6.28667 34.1581 6.48 34.0114 6.68C33.7447 7.05333 33.4914 7.32667 33.2514 7.5C33.0247 7.67333 32.7981 7.76 32.5714 7.76C32.3981 7.76 32.2314 7.72 32.0714 7.64C31.9114 7.56 31.7181 7.44667 31.4914 7.3C31.3981 7.23333 31.2781 7.16 31.1314 7.08C30.9847 6.98667 30.7847 6.90667 30.5314 6.84C30.2781 6.76 29.9447 6.72 29.5314 6.72C29.1847 6.72 28.8047 6.78667 28.3914 6.92C27.9914 7.04 27.6114 7.24 27.2514 7.52C26.8914 7.78667 26.5981 8.14667 26.3714 8.6C26.1447 9.04 26.0314 9.57333 26.0314 10.2C26.0314 10.84 26.1447 11.38 26.3714 11.82C26.6114 12.26 26.9114 12.62 27.2714 12.9C27.6314 13.1667 28.0114 13.3667 28.4114 13.5C28.8247 13.62 29.1981 13.68 29.5314 13.68C29.8781 13.68 30.1714 13.6533 30.4114 13.6C30.6514 13.5333 30.8647 13.4467 31.0514 13.34C31.2514 13.2333 31.4314 13.1267 31.5914 13.02C31.7381 12.9133 31.8981 12.82 32.0714 12.74C32.2447 12.66 32.4181 12.62 32.5914 12.62C32.8181 12.62 33.0447 12.7133 33.2714 12.9C33.4981 13.0867 33.7381 13.3733 33.9914 13.76C34.1381 13.9867 34.2447 14.2 34.3114 14.4C34.3914 14.5867 34.4314 14.76 34.4314 14.92C34.4314 15.2533 34.3114 15.52 34.0714 15.72C33.8447 15.92 33.5981 16.1 33.3314 16.26C33.2381 16.3133 33.0381 16.4333 32.7314 16.62C32.4247 16.8067 32.0114 16.98 31.4914 17.14C30.9714 17.3 30.3447 17.38 29.6114 17.38Z" fill="white"/>
<rect x="28" y="21" width="20.3636" height="19.1667" rx="4" fill="#3BBF8B"/>
<path d="M34.5081 38.16C33.9081 38.16 33.4814 38.0733 33.2281 37.9C32.9747 37.7133 32.8214 37.48 32.7681 37.2C32.7147 36.9067 32.6881 36.6067 32.6881 36.3V25.98C32.6881 25.6867 32.7147 25.4 32.7681 25.12C32.8214 24.84 32.9747 24.6133 33.2281 24.44C33.4814 24.2533 33.9147 24.16 34.5281 24.16H39.2081C40.0214 24.16 40.7481 24.36 41.3881 24.76C42.0281 25.1467 42.5347 25.6667 42.9081 26.32C43.2814 26.9733 43.4681 27.68 43.4681 28.44C43.4681 28.6933 43.4414 28.9533 43.3881 29.22C43.3481 29.4733 43.2747 29.7267 43.1681 29.98C43.0747 30.22 42.9547 30.4533 42.8081 30.68C43.0347 30.96 43.2281 31.2667 43.3881 31.6C43.5481 31.92 43.6681 32.2533 43.7481 32.6C43.8281 32.9333 43.8681 33.2733 43.8681 33.62C43.8547 34.26 43.7281 34.86 43.4881 35.42C43.2614 35.9667 42.9414 36.4467 42.5281 36.86C42.1147 37.26 41.6414 37.58 41.1081 37.82C40.5747 38.0467 40.0081 38.16 39.4081 38.16H34.5081ZM36.3481 34.5H39.2081C39.3014 34.5 39.4281 34.4867 39.5881 34.46C39.7481 34.42 39.8881 34.3267 40.0081 34.18C40.1414 34.02 40.2081 33.76 40.2081 33.4C40.2081 33.2133 40.1881 33.06 40.1481 32.94C40.1214 32.8067 40.0747 32.7067 40.0081 32.64C39.9414 32.56 39.8614 32.5067 39.7681 32.48C39.6881 32.44 39.5881 32.4133 39.4681 32.4C39.3614 32.3867 39.2414 32.38 39.1081 32.38H38.8481C38.3147 32.38 37.9347 32.2667 37.7081 32.04C37.4814 31.8133 37.3681 31.4133 37.3681 30.84C37.3681 30.2933 37.4881 29.9133 37.7281 29.7C37.9814 29.4733 38.3881 29.36 38.9481 29.36H39.1881C39.2947 29.36 39.3881 29.3533 39.4681 29.34C39.5481 29.3267 39.6081 29.2933 39.6481 29.24C39.7014 29.1867 39.7414 29.1133 39.7681 29.02C39.7947 28.9133 39.8081 28.7733 39.8081 28.6C39.8081 28.2933 39.7347 28.0867 39.5881 27.98C39.4547 27.8733 39.1814 27.82 38.7681 27.82H36.3481V34.5Z" fill="white"/>
<rect x="0.951237" y="30.1138" width="20.3636" height="19.1667" rx="4" transform="rotate(-48 0.951237 30.1138)" fill="#583BBF"/>
<path d="M23.1207 27.3712C23.5518 27.4903 23.8759 27.6385 24.0929 27.8159C24.3099 27.9934 24.4352 28.2229 24.4688 28.5043C24.5025 28.7858 24.4603 29.1515 24.3422 29.6014C24.1419 30.2822 23.8811 30.7113 23.56 30.8886C23.2488 31.0749 22.7478 31.0633 22.0571 30.8541L14.6097 28.7236L17.5486 35.8911C17.8002 36.5483 17.8496 37.0413 17.6969 37.3703C17.5541 37.7082 17.1591 38.0074 16.5119 38.2679C16.0867 38.4413 15.7279 38.5309 15.4356 38.5368C15.1521 38.5328 14.9108 38.4321 14.7117 38.2348C14.5125 38.0376 14.3312 37.7308 14.1678 37.3145L9.79811 26.625C9.66736 26.2919 9.63523 25.949 9.70171 25.5962C9.7672 25.2246 9.91147 24.9149 10.1345 24.6672C10.2951 24.4889 10.477 24.3566 10.6802 24.2704C10.8824 24.1654 11.1009 24.102 11.3358 24.0803C11.5707 24.0585 11.808 24.0839 12.0479 24.1563L23.1207 27.3712ZM16.2556 34.4578L14.9541 31.2405L17.1622 28.7881L20.4979 29.7462L16.2556 34.4578Z" fill="white"/>
</svg>
