<svg width="44" height="44" viewBox="0 0 44 44" fill="none" xmlns="http://www.w3.org/2000/svg">
<rect x="24" y="24" width="20" height="19.1667" rx="2" fill="#583BBF"/>
<path d="M33.9657 41.42C33.2457 41.42 32.5657 41.3 31.9257 41.06C31.2857 40.82 30.7124 40.4933 30.2057 40.08C29.7124 39.6533 29.3257 39.1733 29.0457 38.64C28.7657 38.0933 28.6257 37.5267 28.6257 36.94C28.6257 36.1 29.2924 35.68 30.6257 35.68C30.999 35.68 31.279 35.7133 31.4657 35.78C31.6657 35.8467 31.8257 35.9667 31.9457 36.14C32.0657 36.3 32.1857 36.5333 32.3057 36.84C32.3057 36.84 32.3457 36.9267 32.4257 37.1C32.519 37.26 32.6857 37.4267 32.9257 37.6C33.1657 37.76 33.519 37.84 33.9857 37.84C34.3457 37.84 34.6524 37.7933 34.9057 37.7C35.159 37.6067 35.3524 37.4733 35.4857 37.3C35.6324 37.1267 35.7057 36.9267 35.7057 36.7C35.7057 36.4333 35.639 36.2133 35.5057 36.04C35.3724 35.8667 35.1924 35.74 34.9657 35.66C34.739 35.58 34.4724 35.54 34.1657 35.54C33.8724 35.54 33.5857 35.52 33.3057 35.48C33.0257 35.44 32.7924 35.3 32.6057 35.06C32.4324 34.82 32.3457 34.4 32.3457 33.8C32.3457 33.1867 32.4324 32.7667 32.6057 32.54C32.7924 32.3 33.0257 32.1667 33.3057 32.14C33.599 32.1 33.8924 32.08 34.1857 32.08C34.4524 32.08 34.6724 32.0667 34.8457 32.04C35.0324 32 35.1724 31.9333 35.2657 31.84C35.359 31.7467 35.4057 31.6133 35.4057 31.44C35.4057 31.24 35.3524 31.0733 35.2457 30.94C35.1524 30.7933 35.0124 30.6867 34.8257 30.62C34.639 30.54 34.419 30.5 34.1657 30.5C33.8457 30.5 33.5924 30.54 33.4057 30.62C33.219 30.7 33.0724 30.8067 32.9657 30.94C32.8724 31.06 32.7924 31.18 32.7257 31.3C32.4724 31.86 32.1324 32.2 31.7057 32.32C31.2924 32.4267 30.7924 32.32 30.2057 32C29.6324 31.6533 29.3057 31.2867 29.2257 30.9C29.1457 30.5133 29.239 30.0533 29.5057 29.52C29.5057 29.5333 29.539 29.46 29.6057 29.3C29.6857 29.1267 29.8257 28.9133 30.0257 28.66C30.2257 28.4067 30.4924 28.1533 30.8257 27.9C31.159 27.6333 31.5857 27.4133 32.1057 27.24C32.6257 27.0667 33.2457 26.98 33.9657 26.98C34.8057 26.98 35.539 27.1133 36.1657 27.38C36.8057 27.6467 37.339 27.9933 37.7657 28.42C38.2057 28.8467 38.5324 29.32 38.7457 29.84C38.9724 30.3467 39.0857 30.8533 39.0857 31.36C39.0857 31.8533 38.999 32.2733 38.8257 32.62C38.6657 32.9533 38.4724 33.22 38.2457 33.42C38.0324 33.6067 37.8524 33.74 37.7057 33.82C37.8257 33.9 37.979 34.02 38.1657 34.18C38.3524 34.3267 38.5324 34.52 38.7057 34.76C38.8924 35 39.0457 35.28 39.1657 35.6C39.299 35.9067 39.3657 36.26 39.3657 36.66C39.3657 37.58 39.1324 38.4 38.6657 39.12C38.199 39.8267 37.559 40.3867 36.7457 40.8C35.9324 41.2133 35.0057 41.42 33.9657 41.42Z" fill="white"/>
<rect y="24" width="20" height="19.1667" rx="2" fill="#EB9F4A"/>
<path d="M6.43594 41.22C5.9426 41.22 5.51594 41.0333 5.15594 40.66C4.79594 40.2867 4.61594 39.8533 4.61594 39.36C4.61594 39.1067 4.6426 38.8667 4.69594 38.64C4.7626 38.4133 4.84927 38.2 4.95594 38C5.0626 37.7867 5.18927 37.5933 5.33594 37.42C5.6826 36.98 6.10927 36.58 6.61594 36.22C7.1226 35.86 7.64927 35.52 8.19594 35.2C8.7426 34.88 9.25594 34.56 9.73594 34.24C10.2159 33.92 10.6026 33.5733 10.8959 33.2C11.2026 32.8267 11.3559 32.4133 11.3559 31.96C11.3559 31.8267 11.3226 31.66 11.2559 31.46C11.2026 31.2467 11.0693 31.06 10.8559 30.9C10.6426 30.7267 10.3026 30.64 9.83594 30.64C9.55594 30.64 9.31594 30.68 9.11594 30.76C8.91594 30.8267 8.75594 30.9333 8.63594 31.08C8.51594 31.2133 8.4226 31.3867 8.35594 31.6C8.3026 31.8 8.27594 32.0333 8.27594 32.3C8.27594 32.58 8.24927 32.8533 8.19594 33.12C8.1426 33.3733 7.98927 33.5867 7.73594 33.76C7.4826 33.92 7.04927 34 6.43594 34C5.83594 34 5.40927 33.9133 5.15594 33.74C4.9026 33.5533 4.74927 33.32 4.69594 33.04C4.6426 32.7467 4.61594 32.4533 4.61594 32.16C4.61594 31.5467 4.72927 30.9333 4.95594 30.32C5.19594 29.7067 5.5426 29.1533 5.99594 28.66C6.44927 28.1533 6.99594 27.7467 7.63594 27.44C8.27594 27.1333 9.0026 26.98 9.81594 26.98C10.7893 26.98 11.6693 27.22 12.4559 27.7C13.2426 28.1667 13.8693 28.8 14.3359 29.6C14.8026 30.3867 15.0359 31.2733 15.0359 32.26C15.0359 32.9133 14.9293 33.5067 14.7159 34.04C14.5026 34.5733 14.2226 35.0533 13.8759 35.48C13.5426 35.8933 13.1826 36.2533 12.7959 36.56C12.4093 36.8533 12.0359 37.1 11.6759 37.3C11.3159 37.4867 11.0159 37.6267 10.7759 37.72C10.5359 37.8133 10.3893 37.86 10.3359 37.86L10.5359 37.54H13.6959C14.0026 37.54 14.2959 37.5667 14.5759 37.62C14.8559 37.6733 15.0826 37.8333 15.2559 38.1C15.4293 38.3533 15.5159 38.7867 15.5159 39.4C15.5159 39.9867 15.4226 40.4133 15.2359 40.68C15.0626 40.9333 14.8293 41.0867 14.5359 41.14C14.2559 41.1933 13.9626 41.22 13.6559 41.22H6.43594Z" fill="white"/>
<rect x="12" width="20" height="20" rx="2" fill="#3BBF8B"/>
<path d="M23.3909 17.22C22.7243 17.22 22.2576 17.0867 21.9909 16.82C21.7243 16.5533 21.5909 16.08 21.5909 15.4V4.98C21.5909 4.31333 21.7243 3.84667 21.9909 3.58C22.2576 3.31333 22.7309 3.18 23.4109 3.18C24.0776 3.18 24.5443 3.32 24.8109 3.6C25.0776 3.86667 25.2109 4.34 25.2109 5.02V15.42C25.2109 16.0867 25.0776 16.5533 24.8109 16.82C24.5443 17.0867 24.0709 17.22 23.3909 17.22ZM21.3909 8.82C20.9376 9.22 20.5243 9.41333 20.1509 9.4C19.7909 9.38667 19.3976 9.15333 18.9709 8.7C18.5309 8.23333 18.3243 7.79333 18.3509 7.38C18.3776 6.96667 18.6576 6.52667 19.1909 6.06L21.7309 3.78C22.1709 3.38 22.5776 3.2 22.9509 3.24C23.3376 3.26667 23.7376 3.50667 24.1509 3.96C24.5776 4.41333 24.7709 4.84667 24.7309 5.26C24.7043 5.66 24.4243 6.1 23.8909 6.58L21.3909 8.82Z" fill="white"/>
</svg>
