<svg width="47" height="36" viewBox="0 0 47 36" fill="none" xmlns="http://www.w3.org/2000/svg">
<g clip-path="url(#clip0_17_73)">
<path d="M24.8697 33.5262C24.8697 24.6755 24.8697 16.4791 24.8697 8.28986C24.8697 6.67933 25.7325 5.62963 26.775 4.62305C28.3133 3.12632 30.1324 1.94858 32.1277 1.15763C34.123 0.366686 36.2549 -0.0218721 38.4009 0.0143411C40.8311 0.0143411 41.8808 1.02813 41.8665 3.40797C41.8665 10.5547 41.8665 17.6942 41.8665 24.8337C41.8665 26.9906 41.0756 28.6731 38.6454 28.6587C33.7204 28.6371 29.4424 30.4993 24.8697 33.5262Z" fill="#3BBF8B"/>
<path d="M22.0872 33.5838C17.4929 30.4634 13.3444 28.6444 8.5775 28.6875C6.36303 28.6875 5.52899 27.5012 5.54336 25.3658C5.5865 17.9027 5.5865 10.4421 5.54336 2.98382C5.54336 0.690256 6.61465 -0.0574609 8.77879 5.78028e-05C11.9753 -0.000304098 15.1073 0.899171 17.8164 2.59558C20.563 4.39304 22.3388 6.63626 22.1807 10.4037C21.9003 17.838 22.0872 25.3011 22.0872 33.5838Z" fill="#EB9F4A"/>
<path d="M17.7229 34.8132C12.841 33.936 8.16047 34.6622 3.58773 35.7335C0.891537 36.359 0.0287559 35.4028 -0.00719329 33.0229C-0.0359527 24.7978 -0.0359527 16.575 -0.00719329 8.35459C-0.00719329 7.22578 0.107821 5.90282 1.63207 6.03224C3.15631 6.16166 2.86875 7.6212 2.87594 8.64935C2.87594 14.0274 2.87594 19.4341 2.87594 24.7762C2.87594 29.5934 3.43672 29.9601 8.05979 30.9091C11.4965 31.6353 15.3503 31.398 17.7229 34.8132Z" fill="#583BBF"/>
<path d="M28.7809 35.3453C29.7659 32.8432 31.7 32.5341 33.2674 32.0236C35.0917 31.5105 36.9555 31.1497 38.8395 30.9451C43.4626 30.2261 44.0234 29.6653 44.0594 24.8769C44.1025 19.4989 44.0593 14.0921 44.0953 8.73567C44.0953 7.7219 43.6783 6.19048 45.2385 6.06107C47.0863 5.90289 46.9784 7.49904 46.9856 8.75726C46.9856 16.8243 46.9856 24.8913 46.9856 32.9654C46.9856 35.6041 45.8281 36.0643 43.3907 35.6329C38.7604 34.8133 34.0799 33.9792 28.7809 35.3453Z" fill="#06B6D4"/>
</g>
<defs>
<clipPath id="clip0_17_73">
<rect width="47" height="35.9492" fill="white"/>
</clipPath>
</defs>
</svg>
