<svg width="28" height="40" viewBox="0 0 28 40" fill="none" xmlns="http://www.w3.org/2000/svg">
<path d="M20 30C20.75 27.5078 22.3047 25.3828 23.8438 23.2656C24.25 22.7109 24.6562 22.1562 25.0469 21.5938C26.5938 19.3672 27.5 16.6719 27.5 13.7578C27.5 6.15625 21.3438 0 13.75 0C6.15625 0 0 6.15625 0 13.75C0 16.6641 0.90625 19.3672 2.45312 21.5859C2.84375 22.1484 3.25 22.7031 3.65625 23.2578C5.20312 25.375 6.75781 27.5078 7.5 29.9922H20V30ZM13.75 40C17.2031 40 20 37.2031 20 33.75V32.5H7.5V33.75C7.5 37.2031 10.2969 40 13.75 40ZM7.5 13.75C7.5 14.4375 6.9375 15 6.25 15C5.5625 15 5 14.4375 5 13.75C5 8.91406 8.91406 5 13.75 5C14.4375 5 15 5.5625 15 6.25C15 6.9375 14.4375 7.5 13.75 7.5C10.2969 7.5 7.5 10.2969 7.5 13.75Z" fill="#FFD43B"/>
</svg>
