<?xml version="1.0" encoding="UTF-8"?>
<svg id="Camada_1" data-name="Camada 1" xmlns="http://www.w3.org/2000/svg" viewBox="0 0 374.22314 165.62777">
  <defs>
    <style>
      .cls-1 {
        fill: #fdfdfe;
      }

      .cls-1, .cls-2, .cls-3, .cls-4, .cls-5 {
        stroke: #260259;
        stroke-miterlimit: 10;
        stroke-width: .5px;
      }

      .cls-2 {
        fill: #d96a93;
      }

      .cls-3 {
        fill: #040305;
      }

      .cls-4, .cls-6 {
        fill: #583bbf;
      }

      .cls-5 {
        fill: #260259;
      }
    </style>
  </defs>
  <g>
    <path class="cls-4" d="M107.14827,20.99529c-.58799.37655-2.3999,3.11623-2.80053,3.88318-.54953,1.05201-1.20489,2.3011-1.1508,3.53095.25853.28938,5.0801-2.6582,5.79397-3.00226,4.47219-2.15542,10.72205-3.72977,15.3588-1.34893,2.18776,1.12335,3.87811,3.66307,6.11785,4.66998,4.73091,2.12685,8.0644-1.71133,4.64626-6.25229-.21741-.28883-1.46523-1.61251-1.68204-1.69248,7.84795-6.70813,16.28754-14.13351,25.55715-18.46929.80957-.37867,4.61021-2.07719,5.17758-2.01472.56163.06184,1.80717,4.02653,2.01461,4.75985,3.82311,13.5151,1.85425,27.24586-4.72675,39.30455-.60876,1.11545-3.51605,5.392-3.50603,6.16098.01273.97691,1.34145,4.45986,1.79484,5.50395,2.00703,4.62191,5.70136,8.31494,10.6434,8.6127-1.31615,1.87947-3.54047,3.05688-5.73209,3.17643-.70566.75963,2.12694,2.35837,2.65937,2.55206,1.04736.38102,2.17325.46184,3.2705.41537-3.70195,7.57038-11.88207,11.37745-19.16784,13.76806.78779-6.20452-3.37383-12.05737-8.11953-15.13039-2.98832-1.93504-6.38576-2.91707-9.8652-3.08898l-.09881-.20753-.09881.20753c-.19716-.00636-.39548.00093-.59286,0,.01007-.19414-.10799-.28864-.19762-.42373-1.32819-2.00177-1.94417-2.2975-2.56906-4.87285.35771-.71561,1.11347-.66718,1.77858-.63559.02114.09763.5957,1.7658.64649,1.84993.04606.07628,1.0116,1.27941,1.07545,1.33918,2.79928,2.6205,7.05911,2.15924,9.19243-1.12789.23464-.36154,1.08108-1.96103,1.14047-2.27309.94026.03131,1.30543.63638,1.58096,1.48304-.6904,2.04033-1.79659,3.42808-3.35854,4.768-.00702.21113.28066.06171.39423.10486,1.91198.72639,6.16846-.26618,7.11433-2.54236.0587-.07716.15256-.1397.19762-.21186.94839-.79038,1.27885-2.48447,1.37994-3.71126.53246-6.46228-1.82283-14.62507-7.24826-18.06935-4.42796-2.81104-9.92884-2.77632-13.49847,1.44174-4.54047,4.01081-5.3893,13.45205-3.69858,19.11336.30751,1.0297,1.21739,3.11703,2.31524,3.34414v.63559c-1.05479.12829-1.94006.19949-2.96185.63639-.04384-.2882-.13549-.56475-.20008-.84825-.11591-.5088-.09133-.87809-.30063-1.47949-2.02542-5.81969-9.49175-4.22323-9.97563,1.69135-.23337.25256-.09959.71957-.48725.65669-.87928-.04137-1.74785-.52211-2.59704-.63399-2.59511-.34191-6.36-.2423-8.8986.37225-7.25078,1.75527-14.79968,9.1083-14.30169,17.6127-6.1094-1.92749-14.83267-6.1131-18.06442-12.30535-.20737-.39734-.91024-1.33972-.21493-1.46038.6898-.1197,1.35595-.10865,2.07969-.318.75621-.21873,3.4764-1.61446,3.7488-2.33802.16912-.44923-.28579-.27501-.48378-.32026-1.50068-.34298-2.60709-.57919-3.92546-1.51543-.30352-.21554-1.90922-1.46155-1.51663-1.86776,4.59697.04511,8.3425-4.20459,9.97544-8.47934.35829-.93794,1.51641-4.59259,1.49493-5.40874-.015-.5701-2.97319-4.77951-3.52841-5.75114-3.03924-5.31864-5.60265-12.02841-6.52796-18.21328-1.29985-8.68825-.20359-18.07863,3.03688-26.14033l.18527-.15411c11.53055,3.87124,20.96191,12.19184,30.362,19.95049.402.3318.81045.8119,1.36309.76341ZM77.90045,8.07164c-3.79772,12.65556-2.34276,26.59549,5.82984,36.85985.40948-.00582.7418-2.05559.88925-2.32615,2.63717-4.83916,6.4295-10.57387,10.47388-14.4067.05156-.04887.32832-.05121.49379-.20426,2.06968-1.91441,4.21967-3.80186,6.7017-5.08499.23268-.05199.14301-.28671.02317-.4368-.34765-.4354-4.99855-2.75055-5.968-3.34776-4.39395-2.70681-9.9424-6.68744-13.31078-10.72974-.56932-.68322-2.87762-4.31917-3.15864-4.4507-2.37441-1.11134-2.55823,2.43039-1.97421,4.12725ZM145.09138,27.98678c4.07421,3.73124,7.4093,9.03021,9.91684,14.06136.14764.29623.07894.66936.55704.5572-.0537.35572.00748.71576.09292,1.06074.06217.25103.43804,1.14004.6947,1.26824,7.10954-10.35373,9.13314-21.81317,6.26846-34.3638-.17398-.76222-.37565-2.00471-.92985-2.49888.42994-1.20192.99077-3.347-.4747-4.04643-1.7743-.84682-3.01154,2.43881-3.96943,3.62519-4.01482,4.97249-10.04328,9.14371-15.38277,12.32196-.62351.37114-4.48233,2.23466-4.47637,2.61197,1.40917,1.05896,2.98186,1.86794,4.40493,2.90028.91931.66689,2.50957,1.7799,3.29823,2.50216ZM106.3569,35.61728c-.13172-.15571-1.74607-.59983-2.07679-.63631-2.40011-.26477-4.72199.54996-6.7204,1.89981-.24021.16225-2.44937,1.72758-2.07001,2.12178.976-.41702,1.74131-1.17379,2.69514-1.66346,2.36897-1.21618,5.47269-1.84477,8.07168-1.29858.17469.02387.11843-.40189.10038-.42324ZM146.07845,39.42628c.33184-.34746-1.84708-2.10061-2.11187-2.28877-2.41719-1.71758-6.50381-3.13665-9.15046-1.41667,3.21932.10266,6.16991.51577,9.02452,2.18728.32239.18878,2.11463,1.64714,2.23781,1.51816ZM94.9966,39.43172l-.29438.31559c-.00262.22197.49368-.12629.29438-.31559ZM146.67131,39.64146c-.2775-.15223-.52727.13389-.39318.20745.2775.15223.52727-.13389.39318-.20745ZM90.35054,55.74085c-.35052,2.57236-.45704,6.08952,1.08253,8.26737,1.81238,2.56377,4.87282,2.43825,7.61271,2.53549-1.39402-1.27916-2.39253-2.41096-3.16187-4.2351.22395-1.0344,1.0097-.47527,1.77858-.84745.867,2.26306,3.92488,4.05934,6.22685,3.81375,2.03921-.21755,4.59288-2.37731,5.23513-4.44934l1.77858.84745c-.04461.14113-.14273.27995-.19762.42373-.08307.21757.00422.20228,0,.21186-.60206,1.36645-1.41899,2.50622-2.37144,3.60167h3.65598c.27946,0,1.43957-1.28988,1.64667-1.62446,1.96575-3.17576,1.78074-10.64256.87927-14.21904-1.03417-4.10292-2.70438-5.77052-5.78667-8.09704-1.48469-1.12065-2.06189-1.65374-4.0759-1.88048-5.26866-.59315-10.54981,3.28764-12.82633,8.23028-.92026,1.99802-2.00679,5.22407-1.47647,7.42131ZM85.5666,67.87482c-6.27705.64577-4.45703,9.44681,1.42708,7.46632,4.60212-1.549,3.51208-7.97445-1.42708-7.46632ZM154.13392,67.87331c-2.934.42863-4.44167,3.85137-2.23145,6.30696,2.62174,2.91279,8.37937.99123,7.22913-3.30205-.60335-2.25202-2.95992-3.3026-4.99767-3.0049Z"/>
    <path class="cls-5" d="M133.43178,20.78343c.21681.07998,1.46463,1.40366,1.68204,1.69248,3.41814,4.54096.08465,8.37914-4.64626,6.25229-2.23974-1.00691-3.93009-3.54662-6.11785-4.66998-4.63675-2.38084-10.88661-.80648-15.3588,1.34893-.71387.34406-5.53544,3.29164-5.79397,3.00226-.05409-1.22985.60126-2.47894,1.1508-3.53095.40063-.76696,2.21254-3.50663,2.80053-3.88318.36559-.23413,3.08038-.87013,3.70999-1.00141,4.54149-.94691,9.97006-1.17011,14.56837-.69187,1.95121.20293,6.25302.83508,8.00514,1.48141Z"/>
    <path class="cls-5" d="M120.98169,73.96109c.12956.9341-.30767,2.73059.28417,3.40296,1.24154,1.41048,5.86333.82347,7.46806.14107,1.81465-.77167,4.9242-3.27269,5.48313-5.35199.18181-.67637-1.79152.12471-1.16656-.92837.51522-.86817,3.35519.46236,3.14855,1.56658-.20442,1.09232-1.23544-.8623-1.38148-.73651-.35537,1.57409-1.70207,3.23254-2.87287,4.23147-.68928.5881-1.67916.96399-2.27357,1.58867-.51111.53714-.6743,1.4587-.93875,1.95479-4.59315,8.61634-11.66815,8.58968-16.28324-.00502-.29651-.55218-.44943-1.55983-.86397-2.03985-.69911-.80953-2.2401-1.42599-3.25636-2.65299-.41791-.50458-1.48838-2.52896-1.61452-2.60773-.73921-.4616-.81651.44896-1.05031.58813-.60919.36261-.2746-1.24622.74599-1.74228.64246-.31227,2.4258-.6222,2.12274.4715-.15002.16936-1.55121-.33529-1.37844.31061.25186.94154,1.93742,2.81143,2.65746,3.50863,2.29393,2.2212,5.38771,2.9713,8.48468,2.51889,2.54021-.37108,2.11688-2.00188,2.09245-4.21857.17865.0141.42074.0239.59286,0ZM125.49757,83.67819c.58017-1.08341-2.38602-1.65352-3.02928-1.67624-1.55366-.05488-5.00749-.11673-6.33867.42257-.80595.32651-1.19595.42886-.46782,1.15948,1.80804,1.81422,4.8786,2.39365,7.20869,1.61807.37678-.12541,2.51438-1.31342,2.62708-1.52387Z"/>
    <path class="cls-3" d="M120.98169,73.96109c-.17212.0239-.41421.0141-.59286,0-2.23619-.17651-5.83592-3.26294-4.42905-5.91448,1.58475-2.98678,13.25334-2.39758,8.877,3.37373-.68643.90523-2.79552,2.39361-3.85509,2.54075ZM123.3333,69.06848c.95809-1.59752-3.85211-1.9309-4.53509-.9246-.07826,1.72861,4.16574,1.54047,4.53509.9246Z"/>
    <path class="cls-2" d="M125.72458,66.33401c-1.04785-.49424-1.97929-1.55788-3.15042-1.81317-2.47802-.54016-5.32367.07461-7.12584,2.02503.48388-5.91458,7.9502-7.51104,9.97563-1.69135.2093.6014.18472.97069.30063,1.47949Z"/>
    <path class="cls-4" d="M132.44368,65.91029c.08963.13509.2077.22959.19762.42373-1.26632-.00597-2.50012.05927-3.75479.21186v-.63559c.99199.20521,2.49455-.14845,3.55717,0Z"/>
    <path class="cls-4" d="M133.43178,66.33401c-.06569-.00325-.13182.00212-.19762,0l.09881-.20753.09881.20753Z"/>
    <path class="cls-1" d="M108.72923,41.96975c3.08229,2.32652,4.75251,3.99412,5.78667,8.09704.90148,3.57648,1.08648,11.04328-.87927,14.21904-.2071.33458-1.36721,1.62446-1.64667,1.62446h-3.65598c.95245-1.09545,1.76938-2.23522,2.37144-3.60167v-.21186c.05489-.14378.15301-.2826.19762-.42373.24657-.78007.53236-1.49044.59286-2.3305.44747-6.2127-4.14313-11.04374-9.8911-10.0743-3.41632.57619-6.20841,4.36783-6.51139,7.95567-.1645,1.94794.04945,3.3277.79048,5.08472.76933,1.82414,1.76785,2.95594,3.16187,4.2351-2.73989-.09724-5.80033.02828-7.61271-2.53549-1.53956-2.17785-1.43305-5.695-1.08253-8.26737.59874-4.39393,2.79308-8.86801,6.06131-11.61614,3.57309-3.00448,8.02348-3.41012,12.31738-2.15497Z"/>
    <path class="cls-1" d="M149.63665,63.79165c-.04506.07216-.13892.1347-.19762.21186-1.7556,2.30771-4.50384,2.43375-7.11433,2.54236-.11357-.04315-.40125.10627-.39423-.10486,1.56195-1.33991,2.66814-2.72767,3.35854-4.768.5773-1.70608.64974-2.6231.59286-4.44913-.00726-.2332.05832-.53103-.19762-.63559.00286-.14.0068-.28414,0-.42373-.14633-3.00255-3.62799-6.44325-6.31377-6.89635-5.38993-.9093-9.20007,2.53712-9.69348,8.16753-.16181,1.84644-.24439,1.78006.19762,3.60167.6249,2.57536,1.24087,2.87108,2.56906,4.87285-1.06262-.14845-2.56518.20521-3.55717,0-1.09785-.22711-2.00772-2.31443-2.31524-3.34414-1.69071-5.66131-.84189-15.10255,3.69858-19.11336,4.15126-3.667,11.09-2.37368,14.92541,1.26574,4.02274,3.81719,7.64974,13.93503,4.44139,19.07312Z"/>
    <path class="cls-2" d="M95.09343,28.19864c-4.04438,3.83282-7.83671,9.56753-10.47388,14.4067-4.19504-5.62877-7.15284-13.97337-6.71671-21.28972.09451-1.5855.66906-5.63201,2.0615-6.47634.63302-.38384,1.19217.02863,1.69091-.41174,3.70258,5.39894,8.4721,9.76332,13.43819,13.77111Z"/>
    <path class="cls-2" d="M155.56526,42.60534c-.4781.11216-.4094-.26097-.55704-.5572-2.50754-5.03114-5.84263-10.33012-9.91684-14.06136,2.60525-2.28033,5.42223-4.43806,7.81533-6.98149,1.74651-1.85622,3.78172-4.24462,5.22761-6.36589,2.59832-.54035,3.24371,2.66221,3.53392,4.79184.90066,6.60924-1.07283,13.14436-3.82618,18.94131-.41258.86864-2.18682,3.63664-2.27681,4.23279Z"/>
    <path class="cls-5" d="M161.69149,8.07164c-.6134,1.71478-2.52308,5.05065-3.55717,6.56776-1.44589,2.12127-3.4811,4.50967-5.22761,6.36589-2.39311,2.54343-5.21008,4.70116-7.81533,6.98149-.78866-.72227-2.37892-1.83527-3.29823-2.50216-1.42307-1.03234-2.99576-1.84132-4.40493-2.90028-.00596-.37731,3.85285-2.24084,4.47637-2.61197,5.33949-3.17825,11.36795-7.34947,15.38277-12.32196.95789-1.18638,2.19514-4.47201,3.96943-3.62519,1.46547.69943.90464,2.84451.4747,4.04643Z"/>
    <path class="cls-5" d="M77.90045,8.07164c-.58402-1.69686-.4002-5.23859,1.97421-4.12725.28102.13153,2.58933,3.76748,3.15864,4.4507,3.36838,4.0423,8.91683,8.02293,13.31078,10.72974.96945.59721,5.62034,2.91236,5.968,3.34776.11984.15009.2095.38481-.02317.4368-2.48203,1.28313-4.63202,3.17058-6.7017,5.08499-.16547.15305-.44222.15539-.49379.20426-4.96608-4.00779-9.7356-8.37217-13.43819-13.77111-.96179-1.40244-3.2438-4.87123-3.75479-6.3559Z"/>
    <path class="cls-3" d="M95.09343,57.2239c.30298-3.58784,3.09507-7.37948,6.51139-7.95567,5.74798-.96944,10.33857,3.8616,9.8911,10.0743-.80435.04681-.17753-1.2768-.4966-1.90406-.2114-.41558-1.22656-.76538-1.67685-.63919-.07574,1.27241.17856,2.81148-.19799,4.0263-.64225,2.07203-3.19592,4.23179-5.23513,4.44934-2.30197.24558-5.35985-1.55069-6.22685-3.81375-.17682-.46154-.49645-1.92609-.57129-2.45952-.19552-1.39372.5534-3.22141-1.39843-1.86704-.28112.19507-.1226,1.00686-.59935.0893ZM101.36287,51.55245c-3.92473.86274-3.42503,7.14328.84229,5.35051,3.24622-1.36379,2.39051-6.06115-.84229-5.35051Z"/>
    <path class="cls-3" d="M129.67699,57.43576c.49341-5.63041,4.30355-9.07683,9.69348-8.16753,2.68578.4531,6.16744,3.8938,6.31377,6.89635l-2.17445-.21168c.0428,1.25539.42975,3.02077.19825,4.23708-.05939.31205-.90584,1.91154-1.14047,2.27309-2.13332,3.28713-6.39315,3.74839-9.19243,1.12789-.06384-.05977-1.02939-1.26289-1.07545-1.33918-.0508-.08414-.62536-1.75231-.64649-1.84993-.18838-.87004-.18607-2.06267-.19664-2.96711l-1.77957.00103ZM138.10802,52.21064c-2.00191-2.148-6.32579,1.10792-4.76541,3.94344,1.76298,3.20369,7.38159-1.13635,4.76541-3.94344Z"/>
    <path class="cls-1" d="M81.65524,14.42753c-.49874.44037-1.05789.02789-1.69091.41174-1.39243.84433-1.96698,4.89085-2.0615,6.47634-.43613,7.31635,2.52167,15.66095,6.71671,21.28972-.14745.27056-.47977,2.32033-.88925,2.32615-8.17261-10.26436-9.62757-24.20429-5.82984-36.85985.51099,1.48467,2.79299,4.95345,3.75479,6.3559Z"/>
    <path class="cls-1" d="M161.69149,8.07164c.55421.49417.75588,1.73666.92985,2.49888,2.86468,12.55063.84108,24.01007-6.26846,34.3638-.25666-.1282-.63253-1.01721-.6947-1.26824-.08544-.34498-.14661-.70502-.09292-1.06074.08999-.59615,1.86423-3.36415,2.27681-4.23279,2.75335-5.79694,4.72684-12.33207,3.82618-18.94131-.29021-2.12963-.9356-5.33219-3.53392-4.79184,1.03408-1.51711,2.94377-4.85298,3.55717-6.56776Z"/>
    <path class="cls-2" d="M154.13392,67.87331c2.03775-.2977,4.39432.75289,4.99767,3.0049,1.15024,4.29328-4.60739,6.21485-7.22913,3.30205-2.21021-2.45559-.70254-5.87833,2.23145-6.30696Z"/>
    <path class="cls-2" d="M85.5666,67.87482c4.93916-.50813,6.0292,5.91733,1.42708,7.46632-5.8841,1.98049-7.70413-6.82056-1.42708-7.46632Z"/>
    <path class="cls-5" d="M149.63665,63.79165c3.20835-5.13809-.41864-15.25594-4.44139-19.07312-3.8354-3.63942-10.77415-4.93274-14.92541-1.26574,3.56963-4.21806,9.07051-4.25278,13.49847-1.44174,5.42543,3.44428,7.78072,11.60707,7.24826,18.06935-.10108,1.22679-.43154,2.92088-1.37994,3.71126Z"/>
    <path class="cls-5" d="M90.35054,55.74085c-.53032-2.19723.5562-5.42329,1.47647-7.42131,2.27652-4.94264,7.55767-8.82343,12.82633-8.23028,2.01402.22674,2.59121.75983,4.0759,1.88048-4.2939-1.25515-8.74429-.84952-12.31738,2.15497-3.26823,2.74813-5.46257,7.22221-6.06131,11.61614Z"/>
    <path class="cls-5" d="M97.66249,61.46116c-.76888.37219-1.55463-.18695-1.77858.84745-.74103-1.75702-.95498-3.13677-.79048-5.08472.47675.91756.31823.10577.59935-.0893,1.95183-1.35436,1.20291.47332,1.39843,1.86704.07483.53342.39447,1.99797.57129,2.45952Z"/>
    <path class="cls-5" d="M145.68424,56.16458c.0068.13958.00286.28372,0,.42373-.00286.1403-.61356.74854.19762.63559.05687,1.82603-.01556,2.74305-.59286,4.44913-.27553-.84666-.6407-1.45173-1.58096-1.48304.2315-1.2163-.15545-2.98168-.19825-4.23708l2.17445.21168Z"/>
    <path class="cls-5" d="M146.07845,39.42628c-.12318.12898-1.91542-1.32938-2.23781-1.51816-2.85461-1.67151-5.8052-2.08462-9.02452-2.18728,2.64665-1.71997,6.73327-.30091,9.15046,1.41667.26479.18815,2.44371,1.9413,2.11187,2.28877Z"/>
    <path class="cls-5" d="M106.3569,35.61728c.01806.02135.07431.44711-.10038.42324-2.59899-.54619-5.70271.0824-8.07168,1.29858-.95383.48968-1.71914,1.24644-2.69514,1.66346-.37936-.3942,1.8298-1.95953,2.07001-2.12178,1.99841-1.34985,4.32029-2.16458,6.7204-1.89981.33071.03648,1.94507.4806,2.07679.63631Z"/>
    <path class="cls-5" d="M109.12447,60.82557c.37655-1.21482.12225-2.75389.19799-4.0263.45029-.12619,1.46546.22361,1.67685.63919.31907.62726-.30774,1.95087.4966,1.90406-.0605.84006-.34629,1.55043-.59286,2.3305l-1.77858-.84745Z"/>
    <path class="cls-5" d="M129.67699,57.43576l1.77957-.00103c.01056.90445.00826,2.09707.19664,2.96711-.66512-.03159-1.42088-.08002-1.77858.63559-.44201-1.82161-.35943-1.75523-.19762-3.60167Z"/>
    <path class="cls-5" d="M149.43903,64.00352c-.94588,2.27618-5.20235,3.26875-7.11433,2.54236,2.61049-.10861,5.35874-.23464,7.11433-2.54236Z"/>
    <path class="cls-5" d="M146.67131,39.64146c.13409.07356-.11568.35968-.39318.20745-.13409-.07356.11568-.35968.39318-.20745Z"/>
    <path class="cls-5" d="M94.9966,39.43172c.19931.1893-.297.53756-.29438.31559l.29438-.31559Z"/>
    <path class="cls-5" d="M110.70543,62.30861c.00422-.00958-.08307.00571,0-.21186v.21186Z"/>
    <path class="cls-2" d="M125.49757,83.67819c-.1127.21045-2.2503,1.39845-2.62708,1.52387-2.33009.77558-5.40065.19616-7.20869-1.61807-.72813-.73062-.33813-.83297.46782-1.15948,1.33118-.53929,4.78501-.47745,6.33867-.42257.64326.02272,3.60945.59283,3.02928,1.67624Z"/>
    <path class="cls-1" d="M123.3333,69.06848c-.36936.61587-4.61335.80401-4.53509-.9246.68299-1.0063,5.49318-.67293,4.53509.9246Z"/>
    <path class="cls-3" d="M145.88186,57.2239c-.81118.11295-.20048-.49529-.19762-.63559.25594.10456.19036.40239.19762.63559Z"/>
    <path class="cls-1" d="M101.36287,51.55245c3.23281-.71064,4.08852,3.98672.84229,5.35051-4.26732,1.79277-4.76703-4.48777-.84229-5.35051Z"/>
    <path class="cls-1" d="M138.10802,52.21064c2.61618,2.80709-3.00243,7.14713-4.76541,3.94344-1.56038-2.83551,2.7635-6.09143,4.76541-3.94344Z"/>
  </g>
  <g>
    <path class="cls-6" d="M171.86201,152.96742h-48.17011c-13.08929-.24512-48.42261.30145-61.37628-.36066-10.26825-.52478-19.69354-4.66742-24.76172-13.97894-4.47516-8.22205-6.60669-16.92529-12.03333-25.20282,0,0-1.4129-2.38179-2.40724-3.61908-.26822-.33376-.23784-.81174.0689-1.1105l11.37783-11.08158c1.3916-1.39062,2.07568-2.65137,2.05176-3.7793-.0249-1.12695-.85254-2.43555-2.48389-3.92383-.96094-.95996-1.86084-1.55957-2.7002-1.80078-.84033-.23926-1.65576-.16797-2.44775.2168s-1.66846,1.05566-2.62793,2.01562l-13.97826,14.63119c-.51707.54122-1.42995.17524-1.42995-.57328v-10.38604c0-.95898-.08447-1.84766-.25195-2.66406-.16895-.81543-.62451-1.4873-1.36816-2.01562-.74463-.52734-2.02832-.79297-3.85205-.79297-1.77637,0-3.04834.25195-3.81592.75684-.76807.50391-1.23633,1.17676-1.40381,2.01562-.16895.84082-.25195,1.7168-.25195,2.62793v39.45605c0,.91309.08301,1.7998.25195,2.66406.16748.86426.63574,1.54785,1.40381,2.05176.76758.50488,2.01611.75684,3.74414.75684,1.82373,0,3.11963-.25195,3.88818-.75684.76709-.50391,1.23486-1.1748,1.40381-2.01562.16748-.83984.25195-1.71582.25195-2.62793v-12.3281c0-.22011.08744-.43121.24309-.58684l2.92258-2.92235c.36678-.36675.98698-.31817,1.27566.11274,6.75943,10.08969,6.73243,24.83329,14.40144,33.9151,15.10034,17.88208,39.34631,13.59937,59.98596,13.32703,4.56482-.06024,30.43286-.32391,34.91931-.36066h47.17011c3.21976,0,5.82989-2.61013,5.82989-5.82989h0c0-3.21977-2.61013-5.8299-5.82989-5.8299Z"/>
    <path class="cls-6" d="M47.06299,96.89412c.76709.52832,2.06299.79199,3.8877.79199,1.82373,0,3.11963-.25195,3.88818-.75586.76709-.50391,1.23535-1.1875,1.40381-2.05273.16748-.86328.25195-1.77441.25195-2.73535,0-.95996-.08447-1.87207-.25195-2.73535-.16846-.86523-.63672-1.56055-1.40381-2.08789-.76855-.52832-2.04102-.79297-3.81592-.79297-1.82471,0-3.12109.25195-3.88818.75586-.76855.50391-1.24854,1.17773-1.43994,2.0166-.19238.84082-.28809,1.76367-.28809,2.77246,0,.95996.0835,1.87109.25195,2.73535.16748.86426.63574,1.56055,1.4043,2.08789Z"/>
    <path class="cls-6" d="M54.73096,103.73494c-.74512-.52832-1.97998-.79297-3.70801-.79297-1.77637,0-3.04883.25195-3.81641.75586-.76807.50391-1.23633,1.16406-1.40381,1.98047-.16895.81641-.25195,1.7041-.25195,2.66406v25.12793c0,.91211.08301,1.78809.25195,2.62793.16748.84082.62305,1.51172,1.36816,2.01562.74365.50488,2.00342.75684,3.77979.75684,1.77539,0,3.03516-.24121,3.78027-.7207.74365-.47852,1.19922-1.13965,1.36768-1.97949.16797-.83984.25195-1.71582.25195-2.62891v-25.05469c0-1.00879-.08398-1.91992-.25195-2.73633-.16846-.81641-.62402-1.48828-1.36768-2.01562Z"/>
    <path class="cls-6" d="M66.50195,133.47029c1.53564,1.68066,3.2998,2.98828,5.29199,3.92383,1.99121.93652,4.06836,1.4043,6.22803,1.4043,2.3999,0,4.47559-.49316,6.22803-1.47656.93213-.52271,1.78027-1.15198,2.55615-1.87256v.18115c.23975,1.10449.76709,1.91992,1.58398,2.44824.81543.52734,2.03955.79199,3.67188.79199,1.72803,0,2.96338-.26465,3.70801-.79199.74365-.52832,1.19922-1.21191,1.36816-2.05273.16748-.83887.25195-1.71484.25195-2.62793v-41.47168c0-.95996-.08447-1.84766-.25195-2.66406-.16895-.81543-.62451-1.47656-1.36816-1.98047-.74463-.50391-2.00488-.75586-3.77979-.75586-1.77637,0-3.02393.26465-3.74414.79297-.72021.52734-1.14062,1.21191-1.25977,2.05078-.12061.84082-.18018,1.7168-.18018,2.62891v14.28491c-.815-.75311-1.70825-1.40759-2.7002-1.93726-1.75244-.93555-3.77979-1.4043-6.08398-1.4043-2.15967,0-4.22412.48047-6.19189,1.44043-1.96875.95996-3.73291,2.26855-5.29199,3.92383-1.56055,1.65625-2.78418,3.55273-3.67188,5.68848-.88867,2.13574-1.33203,4.38086-1.33203,6.73145,0,2.44824.44336,4.76465,1.33203,6.94824.8877,2.18457,2.09912,4.11621,3.63574,5.7959ZM73.30615,117.16267c.59961-1.08008,1.43994-1.93164,2.52002-2.55664,1.08008-.62305,2.26807-.93555,3.56396-.93555,1.34326,0,2.54346.3125,3.6001.93555,1.05518.625,1.89551,1.47656,2.52002,2.55664.62305,1.08008.93604,2.31641.93604,3.70703,0,1.34473-.32422,2.56836-.97217,3.67188-.64795,1.10547-1.48828,1.98047-2.52002,2.62891-1.03271.64844-2.1958.97168-3.49219.97168-1.24854,0-2.42432-.32324-3.52783-.97168-1.10449-.64844-1.96875-1.52344-2.5918-2.62891-.62451-1.10352-.93604-2.32715-.93604-3.67188,0-1.39062.29932-2.62695.8999-3.70703Z"/>
    <path class="cls-6" d="M107.18115,133.47029c1.53564,1.68066,3.2998,2.98828,5.29199,3.92383,1.99121.93652,4.06836,1.4043,6.22803,1.4043,2.3999,0,4.47559-.49316,6.22803-1.47656.93213-.52271,1.78027-1.15198,2.55615-1.87256v.18115c.23975,1.10449.76709,1.91992,1.58398,2.44824.81543.52734,2.03955.79199,3.67188.79199,1.72803,0,2.96338-.26465,3.70801-.79199.74365-.52832,1.19922-1.21191,1.36816-2.05273.16748-.83887.25195-1.71484.25195-2.62793v-41.47168c0-.95996-.08447-1.84766-.25195-2.66406-.16895-.81543-.62451-1.47656-1.36816-1.98047-.74463-.50391-2.00488-.75586-3.77979-.75586-1.77637,0-3.02393.26465-3.74414.79297-.72021.52734-1.14062,1.21191-1.25977,2.05078-.12061.84082-.18018,1.7168-.18018,2.62891v14.28491c-.815-.75311-1.70825-1.40759-2.7002-1.93726-1.75244-.93555-3.77979-1.4043-6.08398-1.4043-2.15967,0-4.22412.48047-6.19189,1.44043-1.96875.95996-3.73291,2.26855-5.29199,3.92383-1.56055,1.65625-2.78418,3.55273-3.67188,5.68848-.88867,2.13574-1.33203,4.38086-1.33203,6.73145,0,2.44824.44336,4.76465,1.33203,6.94824.8877,2.18457,2.09912,4.11621,3.63574,5.7959ZM113.98535,117.16267c.59961-1.08008,1.43994-1.93164,2.52002-2.55664,1.08008-.62305,2.26807-.93555,3.56396-.93555,1.34326,0,2.54346.3125,3.6001.93555,1.05518.625,1.89551,1.47656,2.52002,2.55664.62305,1.08008.93604,2.31641.93604,3.70703,0,1.34473-.32422,2.56836-.97217,3.67188-.64795,1.10547-1.48828,1.98047-2.52002,2.62891-1.03271.64844-2.1958.97168-3.49219.97168-1.24854,0-2.42432-.32324-3.52783-.97168-1.10449-.64844-1.96875-1.52344-2.5918-2.62891-.62451-1.10352-.93604-2.32715-.93604-3.67188,0-1.39062.29932-2.62695.8999-3.70703Z"/>
    <path class="cls-6" d="M145.84424,96.89412c.76709.52832,2.06299.79199,3.8877.79199,1.82373,0,3.11963-.25195,3.88818-.75586.76709-.50391,1.23535-1.1875,1.40381-2.05273.16748-.86328.25195-1.77441.25195-2.73535,0-.95996-.08447-1.87207-.25195-2.73535-.16846-.86523-.63672-1.56055-1.40381-2.08789-.76855-.52832-2.04102-.79297-3.81592-.79297-1.82471,0-3.12109.25195-3.88818.75586-.76855.50391-1.24854,1.17773-1.43994,2.0166-.19238.84082-.28809,1.76367-.28809,2.77246,0,.95996.0835,1.87109.25195,2.73535.16748.86426.63574,1.56055,1.4043,2.08789Z"/>
    <path class="cls-6" d="M153.51221,103.73494c-.74512-.52832-1.97998-.79297-3.70801-.79297-1.77637,0-3.04883.25195-3.81641.75586-.76807.50391-1.23633,1.16406-1.40381,1.98047-.16895.81641-.25195,1.7041-.25195,2.66406v25.12793c0,.91211.08301,1.78809.25195,2.62793.16748.84082.62305,1.51172,1.36816,2.01562.74365.50488,2.00342.75684,3.77979.75684,1.77539,0,3.03516-.24121,3.78027-.7207.74365-.47852,1.19922-1.13965,1.36768-1.97949.16797-.83984.25195-1.71582.25195-2.62891v-25.05469c0-1.00879-.08398-1.91992-.25195-2.73633-.16846-.81641-.62402-1.48828-1.36768-2.01562Z"/>
    <path class="cls-6" d="M193.54346,122.20173c1.27148-1.27051,1.9082-3.22656,1.9082-5.86719,0-1.48828-.32422-3.04785-.97266-4.67969s-1.63281-3.15625-2.95117-4.57227c-1.32031-1.41602-3-2.56738-5.04102-3.45703-2.04102-.88672-4.45215-1.33203-7.23535-1.33203-3.74414,0-7.05615.80469-9.93604,2.41211-2.87988,1.60938-5.13672,3.80469-6.76807,6.58789-1.63232,2.78516-2.44824,5.97656-2.44824,9.57617,0,2.20898.37158,4.41797,1.11621,6.625.74365,2.20801,1.8833,4.21094,3.41992,6.01172,1.53564,1.7998,3.51562,3.25195,5.93994,4.35547,2.42334,1.10352,5.31592,1.65625,8.67627,1.65625,3.02393,0,5.60449-.26465,7.73926-.79199,2.13672-.52734,3.79102-1.24707,4.96875-2.16016,1.17578-.91113,1.76367-1.94434,1.76367-3.0957,0-.47949-.06055-.95996-.17969-1.44043-.12109-.47852-.34961-.98242-.68359-1.51172-.48047-.91113-1.02148-1.5957-1.62109-2.05176s-1.25977-.65918-1.97852-.6123c-.38477.04883-.78125.14453-1.18945.28809s-.875.32422-1.4043.54004c-.52734.21582-1.10352.43164-1.72656.64844-.625.21582-1.36914.38477-2.23242.50391-.86426.12012-1.87207.17969-3.02393.17969-1.34473,0-2.61719-.24023-3.81641-.7207-1.2002-.47852-2.1958-1.15137-2.98779-2.01562-.79199-.86328-1.23633-1.91895-1.33203-3.16797h17.13672c1.9668,0,3.58594-.63477,4.85938-1.9082ZM184.61572,117.81013c-.36133.26465-.92578.39551-1.69238.39551h-11.37598c0-1.10352.32422-2.13477.97217-3.0957.64795-.95898,1.54785-1.72754,2.69971-2.30371,1.15234-.57617,2.47168-.86426,3.95996-.86426,1.15234,0,2.17139.17969,3.06006.54004.88818.36035,1.59521.86426,2.12451,1.5127.52734.64746.79102,1.40332.79102,2.26758,0,.76855-.17969,1.28516-.53906,1.54785Z"/>
    <path class="cls-6" d="M234.04248,129.58259c-.71973-.14453-1.48828-.2168-2.30371-.2168h-17.34826c-1.31404,0-2.37928-1.06524-2.37928-2.37928v-32.97228l-.00005-10.76489c0-1.10734.75743-2.07562,1.83777-2.31868,3.27408-.73661,8.65148-1.16984,9.95574-1.00805l4.32318.39105c15.36298.56476,36.22723,8.56555,49.5744-2.36798,3.4718-2.84399,5.98352-8.50372,6.98718-12.50372.28778-.86023.40503-1.80426.43842-2.70538,0,0,1.06612-6.31599-1.37045-8.53493-.88268-.80384-2.25606-.74709-3.1699.02114h0c-.01428.03998-.04071.07044-.06378.10364-1.77161,1.37677-3.48883,3.09833-5.58893,3.94897-10.6864,4.32788-29.19043-.63055-40.70563-1.57947-12.23621-1.00842-28.25416-1.15008-32.90612,11.9892-.4477,1.26451-.62531,2.60987-.62573,3.9513l-.00544,17.3247.02148,3.14148c-.01349.10431-.02148.21625-.02148.33936l.375,39.95605c0,.91309.0957,1.7998.28809,2.66406.19141.86426.67188,1.54785,1.44043,2.05176.7666.50488,2.01562.75684,3.74316.75684h25.2002c.81543,0,1.57227-.07227,2.26855-.2168.69531-.14355,1.2832-.56348,1.76367-1.25977.47949-.69531.71973-1.78809.71973-3.27637,0-1.53516-.22852-2.63867-.68359-3.31152-.45703-.6709-1.04395-1.08008-1.76465-1.22363Z"/>
    <path class="cls-6" d="M250.27783,103.73494c-.74512-.52832-1.98047-.79297-3.70801-.79297-1.77637,0-3.04883.25195-3.81641.75586-.76855.50391-1.23633,1.16406-1.40332,1.98047-.16895.81641-.25293,1.7041-.25293,2.66406v25.12793c0,.91211.08398,1.78809.25293,2.62793.16699.84082.62305,1.51172,1.36719,2.01562.74414.50488,2.00391.75684,3.78027.75684,1.77539,0,3.03516-.24121,3.78027-.7207.74316-.47852,1.19922-1.13965,1.36816-1.97949.16699-.83984.25195-1.71582.25195-2.62891v-25.05469c0-1.00879-.08496-1.91992-.25195-2.73633-.16895-.81641-.625-1.48828-1.36816-2.01562Z"/>
    <path class="cls-6" d="M250.38525,87.31892c-.76758-.52832-2.04004-.79297-3.81543-.79297-1.8252,0-3.12109.25195-3.8877.75586-.76855.50391-1.24902,1.17773-1.44043,2.0166-.19238.84082-.28809,1.76367-.28809,2.77246,0,.95996.08301,1.87109.25195,2.73535.16797.86426.63574,1.56055,1.4043,2.08789.7666.52832,2.06348.79199,3.8877.79199,1.82324,0,3.12012-.25195,3.8877-.75586s1.23535-1.1875,1.4043-2.05273c.16797-.86328.25195-1.77441.25195-2.73535,0-.95996-.08398-1.87207-.25195-2.73535-.16895-.86523-.63672-1.56055-1.4043-2.08789Z"/>
    <path class="cls-6" d="M289.26416,107.76619c-1.24805-1.58398-2.77148-2.79492-4.57129-3.63574-1.80078-.83887-3.85254-1.26074-6.15625-1.26074-1.10449,0-2.2207.16992-3.34766.50391-1.12891.33691-2.18555.80469-3.16895,1.4043-.98438.60156-1.7998,1.27344-2.44727,2.01562-.34631.39844-.60773.79211-.79633,1.18256l.11176-.35443c-.09668-.19043-.14355-.53906-.14355-1.04297s-.1084-1.04492-.32422-1.62109c-.21582-.5752-.68359-1.06641-1.4043-1.47559-.71973-.40723-1.84766-.6123-3.38379-.6123-1.77637,0-3.03613.24121-3.78027.7207-.74414.48047-1.21191,1.11523-1.40332,1.9082-.19238.79102-.28809,1.64453-.28809,2.55566v25.34375c0,.91309.08301,1.78906.25195,2.62793.16797.84082.62305,1.5127,1.36816,2.0166.74316.50391,2.00293.75586,3.7793.75586,1.77539,0,3.03613-.24121,3.78027-.71973.74414-.47949,1.19922-1.13965,1.36816-1.98047.16797-.83984.25195-1.71582.25195-2.62793v-13.10449c0-1.39062.27539-2.5918.82812-3.59961.55078-1.00781,1.33203-1.7998,2.33984-2.37598s2.20703-.86426,3.59961-.86426,2.56738.27734,3.52832.82812c.95996.55273,1.67969,1.33203,2.16016,2.33984.47949,1.00781.71973,2.23242.71973,3.67188v13.03223c0,.91309.0957,1.78906.28809,2.62793.19141.84082.65918,1.5127,1.4043,2.0166.74316.50391,2.02734.75586,3.85156.75586,1.77539,0,3.03516-.24121,3.78027-.71973.74414-.47949,1.19922-1.13965,1.36816-1.98047.16797-.83984.25195-1.71582.25195-2.62793v-13.10449c0-2.54297-.32422-4.88281-.97168-7.01953-.64844-2.13477-1.59668-3.99609-2.84473-5.58008Z"/>
    <path class="cls-6" d="M330.91553,103.48201c-.69629-.50391-1.9082-.75586-3.63574-.75586-1.72852,0-3.0127.27637-3.85254.82812s-1.33203,1.45215-1.47559,2.7002v.54797c-.8205-1.07983-1.80212-1.95056-2.95215-2.60071-1.48828-.83887-3.28809-1.25977-5.39941-1.25977-2.16016,0-4.21289.46875-6.15625,1.4043-1.94434.93555-3.67188,2.20898-5.18457,3.81641-1.51172,1.6084-2.69922,3.45508-3.56348,5.54297s-1.2959,4.30957-1.2959,6.66016c0,2.35352.43164,4.58496,1.2959,6.69629.86426,2.1123,2.05176,3.98535,3.56348,5.61621,1.5127,1.63281,3.24023,2.91602,5.18457,3.85156,1.94336.93652,3.99609,1.4043,6.15625,1.4043,2.83105,0,5.11133-.70801,6.83984-2.12402.56067-.45929,1.05206-1.00537,1.51172-1.59119v1.84314c0,1.15234-.16895,2.19629-.50391,3.13184-.33691.93652-.81641,1.75195-1.44043,2.44824-.62402.69531-1.34375,1.22363-2.16016,1.58398s-1.72754.54004-2.73535.54004c-1.39258,0-2.54492-.17969-3.45605-.54004-.91211-.36035-1.66895-.75586-2.26855-1.1875-.60059-.43262-1.16406-.82812-1.69141-1.18848-.5293-.36035-1.12891-.54004-1.7998-.54004-.67285,0-1.24902.19141-1.72852.57617-.48047.38379-1.05664.93555-1.72754,1.65625-.57617.62305-1.00781,1.25977-1.2959,1.90723-.28809.64844-.43262,1.35645-.43262,2.12402,0,.81641.40723,1.63184,1.22461,2.44824.81543.81543,1.91895,1.58398,3.31152,2.30371,1.3916.7207,2.92773,1.29688,4.6084,1.72852,1.67969.43164,3.35938.64844,5.04004.64844,2.20703,0,4.34375-.38477,6.40723-1.15234,2.06348-.76855,3.93555-1.88477,5.61621-3.34766,1.67969-1.46484,3.02441-3.26562,4.03223-5.40039,1.00781-2.13672,1.51172-4.57227,1.51172-7.30762v-28.44043c0-.91113-.08398-1.77539-.25195-2.5918-.16895-.81543-.60059-1.47559-1.2959-1.98047ZM320.69189,123.96638c-.60059,1.05566-1.4043,1.90723-2.41211,2.55566s-2.13672.97266-3.38379.97266c-1.2959,0-2.46094-.32422-3.49219-.97266-1.0332-.64844-1.86133-1.5-2.48438-2.55566-.62402-1.05566-.93555-2.23145-.93555-3.52832,0-1.34375.29883-2.55566.89941-3.63574.59961-1.08008,1.4043-1.93164,2.41211-2.55566,1.00781-.62305,2.16016-.93652,3.45605-.93652s2.45898.31348,3.49219.93652c1.03125.62402,1.84766,1.46484,2.44824,2.51953.59961,1.05664.89941,2.25684.89941,3.59961,0,1.34473-.2998,2.54492-.89941,3.60059Z"/>
    <path class="cls-6" d="M371.70264,111.3658c-1.68066-2.83105-3.92383-5.07617-6.73145-6.73145-2.80859-1.65625-5.94043-2.4834-9.39648-2.4834-2.54492,0-4.93164.49219-7.16406,1.47461-2.23145.98438-4.21191,2.34082-5.93945,4.06836-1.72852,1.72852-3.07227,3.70898-4.03223,5.94043-.96094,2.23145-1.44043,4.64355-1.44043,7.23535,0,2.78516.52832,5.31738,1.58398,7.59668,1.05566,2.28027,2.49512,4.2373,4.32031,5.86816,1.82324,1.63184,3.85156,2.8916,6.08398,3.7793s4.47559,1.33203,6.73242,1.33203c2.20703,0,4.40234-.41992,6.58789-1.25977,2.18359-.83887,4.17578-2.07617,5.97559-3.70801s3.24023-3.58691,4.32031-5.86816c1.08008-2.2793,1.62012-4.88281,1.62012-7.81152,0-3.45605-.84082-6.59961-2.52051-9.43262ZM362.12646,125.11775c-.81641,1.15234-1.82422,2.0166-3.02344,2.5918-1.2002.57617-2.37598.86523-3.52832.86523s-2.3291-.27637-3.52832-.82812c-1.2002-.55176-2.19531-1.41602-2.9873-2.5918s-1.18848-2.62891-1.18848-4.35645c0-1.4873.34766-2.81934,1.04395-3.99609.69531-1.17578,1.60742-2.09863,2.73633-2.77246,1.12695-.67188,2.41211-1.00781,3.85156-1.00781,1.53613,0,2.8916.32422,4.06836.97266,1.17578.64746,2.09961,1.54688,2.77246,2.69922.6709,1.15234,1.00781,2.49609,1.00781,4.03223,0,1.77637-.4082,3.24023-1.22461,4.3916Z"/>
  </g>
</svg>