<svg width="272" height="244" viewBox="0 0 272 244" fill="none" xmlns="http://www.w3.org/2000/svg">
<path d="M0 35C0 26.1634 7.16344 19 16 19H256C264.837 19 272 26.1634 272 35V244H0V35Z" fill="#D96A93"/>
<g clip-path="url(#clip0_257_172)">
<path d="M52.7263 122.529C6.75236 149.088 6.75236 192.15 52.7263 218.704C98.7003 245.258 173.316 245.263 219.316 218.704C265.316 192.145 265.322 149.083 219.316 122.529C173.31 95.9746 98.7267 95.9694 52.7263 122.529Z" fill="#F5F5F5"/>
<path d="M209.719 201.731C229.816 201.731 246.108 192.324 246.108 180.72C246.108 169.116 229.816 159.709 209.719 159.709C189.623 159.709 173.331 169.116 173.331 180.72C173.331 192.324 189.623 201.731 209.719 201.731Z" fill="#E0E0E0"/>
<path d="M62.5446 198.745C82.6412 198.745 98.9328 189.338 98.9328 177.734C98.9328 166.13 82.6412 156.724 62.5446 156.724C42.448 156.724 26.1565 166.13 26.1565 177.734C26.1565 189.338 42.448 198.745 62.5446 198.745Z" fill="#E0E0E0"/>
<path d="M67.2794 153.685L85.6849 143.058L207.188 213.208L188.513 223.994L67.2794 153.685Z" fill="#E0E0E0"/>
<path d="M79.0266 203.453L97.4373 192.826L130.702 212.03L112.022 222.815L79.0266 203.453Z" fill="#E0E0E0"/>
<path d="M125.064 205.319L138.296 197.677L159.539 209.948L146.112 217.705L125.064 205.319Z" fill="#E0E0E0"/>
<path d="M255.26 98.7067L253.786 98.8071L207.225 71.8991L207.96 71.3654L255.26 98.7067Z" fill="#E0E0E0"/>
<path d="M207.96 71.3653L253.786 97.8559V32.7683L207.96 6.27782V71.3653Z" fill="#FAFAFA"/>
<path d="M205.751 72.7551L255.265 101.365V31.9176L205.751 3.32915V72.7551ZM207.22 5.86564L253.786 32.7683V98.8229L207.22 71.9202V5.86564Z" fill="#F0F0F0"/>
<path d="M207.225 71.8991L207.96 71.3653V6.27783L207.225 5.86565V71.8991Z" fill="#E0E0E0"/>
<path d="M205.746 3.30801L206.486 2.87997L256 31.4895L255.26 31.9176L205.746 3.30801Z" fill="#FAFAFA"/>
<path d="M256 31.4895L255.26 31.9176V101.359L256 100.937V31.4895Z" fill="#E0E0E0"/>
<path d="M253.786 65.2355L207.96 38.7344L207.22 39.173L253.786 66.081V65.2355Z" fill="#E0E0E0"/>
<path d="M207.22 39.173L207.225 40.8217L253.786 67.7297V66.081L207.22 39.173Z" fill="#F0F0F0"/>
<path d="M16.7345 98.7067L18.2141 98.8071L64.7747 71.8991L64.0401 71.3654L16.7345 98.7067Z" fill="#E0E0E0"/>
<path d="M64.0401 71.3653L18.2141 97.8559V32.7683L64.0401 6.27782V71.3653Z" fill="#FAFAFA"/>
<path d="M66.2437 3.32915L16.7345 31.9176V101.365L66.2437 72.7551V3.32915ZM64.7694 71.9255L18.2088 98.807V32.7525L64.7747 5.86564L64.7694 71.9255Z" fill="#F0F0F0"/>
<path d="M64.7747 71.8991L64.0402 71.3653V6.27783L64.7747 5.86565V71.8991Z" fill="#E0E0E0"/>
<path d="M66.2543 3.30801L65.5145 2.87997L16 31.4895L16.7345 31.9176L66.2543 3.30801Z" fill="#FAFAFA"/>
<path d="M16 31.4895L16.7345 31.9176V101.359L16 100.937V31.4895Z" fill="#E0E0E0"/>
<path d="M18.2141 65.2355L64.0401 38.7344L64.7799 39.173L18.2141 66.081V65.2355Z" fill="#E0E0E0"/>
<path d="M64.78 39.173L64.7747 40.8217L18.2089 67.7297L18.2141 66.081L64.78 39.173Z" fill="#F0F0F0"/>
<path d="M203.912 165.712C203.747 166.573 203.724 167.455 203.843 168.323C204.023 169.248 204.197 170.172 204.372 171.102C204.541 171.856 204.641 172.624 204.673 173.396C204.707 174.173 204.536 174.946 204.176 175.636C203.51 176.633 202.53 177.377 201.391 177.75C200.176 178.247 198.855 178.575 197.756 179.304C196.551 180.096 195.457 181.053 194.284 181.888C193.016 182.871 191.533 183.537 189.956 183.832C188.889 183.938 187.813 183.906 186.754 183.737C184.476 183.473 182.077 183.13 180.307 181.676C180.099 181.536 179.943 181.332 179.863 181.095C179.827 180.886 179.854 180.67 179.942 180.477C180.387 179.578 181.095 178.835 181.971 178.347C185.142 176.234 188.841 174.765 191.483 171.974C192.272 171.197 192.854 170.234 193.174 169.174C193.412 168.244 193.148 167.097 193.111 166.14C193.084 165.29 192.868 163.789 192.799 162.938C196.477 164.273 200.489 164.373 204.229 163.223C204.166 163.974 204.034 164.772 203.912 165.712Z" fill="#FFBDA7"/>
<path d="M179.25 181.412C179.081 181.412 178.832 183.262 179.778 184.054C180.835 184.958 183.974 186.438 188.096 185.893C192.218 185.349 193.38 184.525 195.003 183.151C196.625 181.777 198.173 180.34 200.017 179.922C201.745 179.536 204.382 178.839 204.932 178.305C205.481 177.771 205.397 175.414 205.397 175.414L179.25 181.412Z" fill="#263238"/>
<path d="M204.071 165.221C204.071 165.221 204.335 165.221 204.44 165.776C204.573 166.426 204.366 168.016 204.842 169.956C205.46 172.471 205.598 174.886 205.37 176.096C205.143 177.306 201.497 178.21 199.695 178.902C197.893 179.594 196.524 180.546 194.664 182.073C192.501 183.807 189.831 184.786 187.06 184.863C183.89 184.863 180.296 183.848 179.467 182.395C178.441 180.593 178.288 178.86 182.986 176.677C183.879 176.265 185.929 174.363 186.997 173.692C188.064 173.002 189.065 172.215 189.988 171.34C190.538 170.875 191.039 170.354 191.483 169.787C191.927 169.215 192.193 168.526 192.249 167.805C192.249 167.451 192.212 167.102 192.223 166.748C192.212 166.392 192.328 166.044 192.551 165.765C192.725 165.609 192.932 165.493 193.157 165.426C193.382 165.36 193.619 165.344 193.851 165.379C195.279 165.506 196.687 165.809 198.041 166.283C198.457 166.385 198.829 166.621 199.098 166.954C199.248 167.22 199.321 167.522 199.309 167.826C199.299 168.128 199.309 168.43 199.341 168.73C199.35 168.839 199.392 168.942 199.463 169.026C199.626 169.184 199.88 169.052 200.017 168.931C200.479 168.461 200.902 167.953 201.28 167.414C201.502 167.139 202.501 166.965 202.781 166.748C203.061 166.531 203.69 166.457 203.912 166.22C204.134 165.982 204.06 165.596 204.071 165.221Z" fill="#37474F"/>
<path d="M194.654 182.083C195.346 181.484 196.073 180.927 196.831 180.413C196.831 180.413 191.821 182.4 189.57 180.894C188.122 179.922 188.804 178.733 188.836 178.353C188.867 177.972 185.301 176.366 183.9 176.207C183.509 176.424 183.155 176.207 182.949 176.323C178.251 178.506 178.431 180.609 179.456 182.411C180.286 183.864 182.886 184.995 186.992 184.979C189.789 184.856 192.474 183.842 194.654 182.083Z" fill="#455A64"/>
<path d="M189.232 177.243C186.31 178.416 187.562 178.955 188.381 179.066C189.2 179.177 193.328 176.804 196.308 174.432C199.431 171.958 202.152 169.348 203.315 168.444C203.748 168.106 204.076 167.81 204.493 167.419C204.543 166.846 204.564 166.271 204.557 165.697C204.535 165.549 204.47 165.411 204.369 165.3C204.268 165.19 204.137 165.113 203.991 165.078L203.838 166.077C203.426 166.314 202.983 166.492 202.522 166.605C202.037 166.757 201.602 167.039 201.265 167.419C200.886 167.959 200.464 168.466 200.002 168.936C197.481 172.17 192.16 176.07 189.232 177.243Z" fill="#263238"/>
<path d="M188.455 178.638C188.525 178.639 188.592 178.614 188.645 178.569C188.705 178.517 188.742 178.444 188.749 178.365C188.756 178.287 188.732 178.208 188.682 178.147C187.837 177.09 185.411 175.732 183.229 175.985C183.15 175.996 183.079 176.036 183.03 176.098C182.981 176.16 182.957 176.239 182.965 176.318C182.969 176.357 182.98 176.395 182.999 176.429C183.018 176.464 183.043 176.494 183.073 176.519C183.104 176.543 183.139 176.561 183.177 176.572C183.214 176.583 183.253 176.587 183.292 176.582C185.332 176.35 187.562 177.703 188.228 178.527C188.255 178.562 188.289 178.59 188.329 178.609C188.368 178.628 188.411 178.638 188.455 178.638Z" fill="#F0F0F0"/>
<path d="M190.389 177.127C190.458 177.126 190.524 177.104 190.58 177.063C190.641 177.013 190.68 176.94 190.689 176.861C190.697 176.783 190.675 176.703 190.627 176.64C189.937 175.89 189.094 175.297 188.155 174.902C187.216 174.506 186.203 174.317 185.184 174.347C185.106 174.356 185.034 174.396 184.984 174.457C184.933 174.518 184.909 174.596 184.915 174.675C184.918 174.714 184.929 174.751 184.947 174.786C184.965 174.821 184.99 174.852 185.02 174.877C185.05 174.902 185.084 174.92 185.122 174.932C185.159 174.944 185.198 174.948 185.237 174.944C187.298 174.765 189.507 176.17 190.162 177.01C190.19 177.045 190.224 177.073 190.263 177.093C190.302 177.113 190.345 177.124 190.389 177.127Z" fill="#F0F0F0"/>
<path d="M192.984 175.425C193.058 175.426 193.131 175.402 193.19 175.356C193.222 175.333 193.249 175.302 193.269 175.268C193.289 175.233 193.302 175.194 193.306 175.154C193.31 175.115 193.305 175.074 193.293 175.036C193.28 174.998 193.259 174.963 193.232 174.934C192.432 174.19 191.491 173.614 190.465 173.241C189.438 172.868 188.347 172.705 187.256 172.762C187.174 172.768 187.098 172.807 187.045 172.87C186.991 172.932 186.965 173.013 186.97 173.095C186.983 173.177 187.028 173.251 187.096 173.301C187.163 173.35 187.247 173.371 187.33 173.359C189.326 173.267 191.277 173.97 192.757 175.314C192.785 175.347 192.82 175.374 192.859 175.393C192.898 175.412 192.941 175.423 192.984 175.425Z" fill="#F0F0F0"/>
<path d="M195.299 173.887C195.372 173.892 195.445 173.872 195.505 173.829C195.538 173.808 195.567 173.779 195.589 173.746C195.611 173.712 195.625 173.674 195.631 173.635C195.637 173.595 195.635 173.555 195.624 173.516C195.613 173.478 195.594 173.442 195.568 173.412C194.8 172.632 193.882 172.016 192.869 171.602C191.857 171.187 190.77 170.983 189.676 171.002C189.636 171.003 189.596 171.011 189.559 171.028C189.522 171.044 189.488 171.068 189.461 171.098C189.433 171.127 189.412 171.162 189.398 171.2C189.384 171.238 189.378 171.279 189.38 171.319C189.383 171.36 189.395 171.401 189.414 171.437C189.433 171.474 189.46 171.506 189.492 171.533C189.524 171.559 189.561 171.578 189.601 171.59C189.641 171.601 189.682 171.604 189.724 171.599C190.712 171.592 191.691 171.78 192.606 172.153C193.521 172.526 194.354 173.076 195.055 173.771C195.085 173.807 195.122 173.836 195.164 173.856C195.206 173.876 195.252 173.887 195.299 173.887Z" fill="#F0F0F0"/>
<path d="M197.793 172.08C197.864 172.082 197.934 172.062 197.994 172.022C198.027 172 198.056 171.972 198.078 171.939C198.099 171.905 198.114 171.868 198.121 171.828C198.127 171.789 198.125 171.749 198.115 171.71C198.105 171.672 198.087 171.636 198.062 171.604C196.847 170.077 194.014 169.01 191.61 169.174C191.569 169.174 191.529 169.183 191.492 169.199C191.455 169.216 191.421 169.239 191.393 169.269C191.365 169.299 191.343 169.333 191.329 169.371C191.314 169.409 191.307 169.45 191.309 169.491C191.32 169.573 191.362 169.649 191.427 169.701C191.492 169.753 191.575 169.778 191.658 169.771C193.824 169.623 196.461 170.606 197.544 171.959C197.575 171.995 197.613 172.024 197.656 172.045C197.699 172.066 197.745 172.078 197.793 172.08Z" fill="#F0F0F0"/>
<path d="M231 163.937C231 165.29 231.068 165.792 231.068 167.144C231.635 168.715 232.04 170.338 232.279 171.99C232.77 174.918 233.896 178.242 234.392 181.18C234.831 183.69 235.222 186.358 233.98 188.662C232.131 192.081 227.565 193.476 224.732 190.85C222.545 188.826 221.979 185.878 222.154 183.23C222.423 180.012 222.245 176.771 221.625 173.602C221.305 171.963 221.074 170.309 220.933 168.645C220.933 168.645 220.457 166.695 220.198 165.792C223.485 167.144 227.734 166.029 231 163.937Z" fill="#FFBDA7"/>
<path d="M221.874 186.475C222.132 189.191 222.703 190.982 223.945 192.541C225.187 194.1 227.48 194.523 229.758 193.978C232.035 193.434 234.477 192.166 235.507 189.555C236.416 187.262 236.036 185.73 235.444 183.214L221.874 186.475Z" fill="#263238"/>
<path d="M231.068 167.144C231.882 167.324 232.611 170.933 233.246 174.58C233.922 178.49 234.831 179.647 235.412 182.85C236.094 186.512 235.803 187.748 234.244 190.031C232.685 192.314 227.042 194.681 224.162 191.59C221.81 189.069 221.742 186.601 221.863 182.918C221.995 179.999 221.917 177.075 221.631 174.167C221.382 171.419 220.125 168.978 220.944 168.645C221.018 169.047 221.953 171.995 222.587 171.636C222.872 171.583 222.915 171.192 222.83 170.479C222.799 170.321 222.805 170.157 222.847 170.002C222.89 169.846 222.967 169.702 223.073 169.581C223.38 169.347 223.746 169.204 224.13 169.168C225.06 168.989 226.344 168.714 227.301 168.613C227.856 168.555 227.544 168.561 228.099 168.518C228.653 168.476 229.684 168.312 230.186 168.518C230.482 168.629 230.514 168.862 230.593 169.121C230.672 169.38 230.757 169.728 230.862 169.982C230.905 170.083 231.09 170.289 231.222 170.278C231.438 170.278 231.491 169.781 231.47 169.575C231.449 169.369 231.47 169.047 231.444 168.783C231.417 168.518 231.174 167.784 231.068 167.144Z" fill="#37474F"/>
<path d="M235.19 181.597C235.291 182.126 235.83 185.423 234.662 186.094C233.388 186.823 232.611 184.086 232.611 184.086C232.611 184.086 229.562 183.441 225.187 185.143C225.425 185.708 224.785 187.611 223.57 187.257C222.355 186.903 221.879 183.299 221.874 183.246C221.768 186.776 221.874 189.149 224.178 191.6C227.058 194.692 232.701 192.319 234.26 190.042C235.819 187.764 236.11 186.522 235.428 182.86C235.343 182.469 235.28 181.941 235.19 181.597Z" fill="#455A64"/>
<path d="M232.257 184.334C232.305 185.661 233.779 185.159 233.964 183.278C234.239 180.461 233.304 177.814 233.246 174.58C232.611 170.933 232.02 167.181 231.068 167.144C231.121 167.779 231.28 168.957 231.28 168.957C231.317 169.226 231.459 170.199 231.459 170.199C231.819 172.931 232.791 176.107 232.717 178.934C232.654 181.412 232.204 182.998 232.257 184.334Z" fill="#263238"/>
<path d="M225.684 185.111C225.34 183.817 224.801 183.463 224.415 180.995C224.03 178.527 222.65 174.236 221.942 171.578C221.63 170.553 220.949 168.698 220.944 168.672C220.352 168.92 220.373 170.32 220.875 171.964C221.338 173.352 221.732 174.763 222.053 176.191C222.941 179.33 223.11 182.691 223.718 184.498C224.326 186.306 226.022 186.38 225.684 185.111Z" fill="#263238"/>
<path d="M225.303 185.164C225.347 185.157 225.389 185.144 225.43 185.127C227.742 184.185 230.267 183.891 232.733 184.276C232.818 184.296 232.908 184.285 232.986 184.245C233.064 184.206 233.126 184.14 233.161 184.06C233.209 183.906 233.092 183.758 232.902 183.721C230.264 183.295 227.56 183.612 225.092 184.636C225.054 184.647 225.019 184.668 224.99 184.695C224.961 184.722 224.939 184.756 224.925 184.793C224.911 184.831 224.906 184.871 224.91 184.91C224.915 184.95 224.928 184.988 224.949 185.021C224.99 185.075 225.044 185.116 225.107 185.141C225.169 185.166 225.237 185.174 225.303 185.164Z" fill="#F0F0F0"/>
<path d="M224.289 182.554C224.328 182.548 224.368 182.537 224.405 182.522C224.442 182.522 228.632 180.81 232.928 181.465C233.014 181.482 233.102 181.469 233.179 181.427C233.255 181.386 233.314 181.319 233.346 181.238C233.388 181.085 233.261 180.937 233.071 180.91C230.031 180.547 226.947 180.93 224.088 182.025C224.05 182.037 224.014 182.057 223.985 182.084C223.955 182.111 223.932 182.144 223.917 182.181C223.902 182.217 223.895 182.257 223.897 182.297C223.899 182.337 223.91 182.376 223.929 182.411C223.971 182.464 224.027 182.506 224.09 182.531C224.153 182.556 224.221 182.564 224.289 182.554Z" fill="#F0F0F0"/>
<path d="M233.362 179.298C233.424 179.295 233.484 179.275 233.536 179.24C233.588 179.206 233.63 179.159 233.658 179.103C233.671 179.065 233.675 179.024 233.67 178.984C233.665 178.944 233.651 178.905 233.629 178.871C233.607 178.837 233.578 178.809 233.544 178.788C233.509 178.766 233.471 178.753 233.431 178.749C229.145 177.734 223.58 179.52 223.39 179.6C223.353 179.612 223.318 179.633 223.29 179.66C223.262 179.688 223.24 179.722 223.227 179.759C223.214 179.796 223.209 179.836 223.214 179.875C223.218 179.914 223.231 179.952 223.253 179.985C223.309 180.053 223.386 180.101 223.472 180.12C223.559 180.139 223.649 180.129 223.728 180.091C223.771 180.091 229.214 178.342 233.203 179.293C233.255 179.304 233.309 179.306 233.362 179.298Z" fill="#F0F0F0"/>
<path d="M232.622 176.926C232.683 176.92 232.742 176.899 232.792 176.865C232.843 176.831 232.885 176.785 232.913 176.73C232.927 176.692 232.932 176.652 232.927 176.612C232.923 176.572 232.91 176.533 232.889 176.499C232.867 176.465 232.838 176.436 232.804 176.415C232.77 176.393 232.731 176.38 232.691 176.376C227.977 175.187 223.211 177.401 223.047 177.491C223.009 177.504 222.975 177.526 222.948 177.555C222.921 177.584 222.901 177.62 222.89 177.658C222.879 177.696 222.877 177.737 222.885 177.776C222.893 177.815 222.911 177.851 222.936 177.882C222.997 177.947 223.078 177.99 223.166 178.004C223.253 178.018 223.343 178.003 223.422 177.962C223.459 177.962 228.077 175.811 232.464 176.905C232.515 176.92 232.568 176.927 232.622 176.926Z" fill="#F0F0F0"/>
<path d="M232.263 174.014C232.323 174.009 232.381 173.989 232.432 173.956C232.483 173.923 232.524 173.877 232.553 173.824C232.567 173.786 232.572 173.746 232.569 173.707C232.565 173.667 232.553 173.629 232.533 173.594C232.512 173.56 232.485 173.53 232.452 173.508C232.419 173.486 232.381 173.471 232.342 173.465C227.919 172.297 222.83 174.569 222.635 174.659C222.597 174.673 222.564 174.695 222.537 174.724C222.51 174.752 222.49 174.787 222.478 174.825C222.466 174.862 222.463 174.902 222.469 174.941C222.475 174.98 222.49 175.017 222.513 175.05C222.572 175.116 222.651 175.162 222.738 175.178C222.825 175.194 222.915 175.181 222.994 175.14C223.036 175.14 227.998 172.915 232.104 174.004C232.156 174.015 232.21 174.019 232.263 174.014Z" fill="#EBEBEB"/>
<path d="M189.977 102.427L228.5 101.772C229.179 106.598 229.515 111.467 229.504 116.341C229.504 125.261 229.351 128.938 229.584 136.537C229.584 136.537 231.169 144.242 231.322 148.993C231.454 153.12 231.322 163.858 231.322 165.221C228.801 167.123 222.576 168.18 219.57 166.78C219.189 165.379 215.073 153.342 213.503 146.942C211.722 139.692 210.951 135.248 208.858 126.73L206.808 138.72C206.808 138.72 207.553 143.021 206.649 151.302C206.332 154.214 204.948 161.131 204.625 163.414C201.455 164.735 196.012 165.078 192.561 163.414C192.212 158.689 191.177 149.88 190.215 141.663C188.804 129.372 189.734 112.118 189.977 102.427Z" fill="#37474F"/>
<path d="M208.874 126.73C207.653 122.074 206.168 116.959 206.168 116.959C206.168 116.959 201.233 117.012 198.686 113.735C200.139 117.239 204.805 118.629 204.805 118.629L207.299 128.833L206.808 138.72L208.874 126.73Z" fill="#263238"/>
<path d="M178.426 97.3327C175.683 97.1213 166.541 95.1186 165.046 94.8491C162.493 94.3893 160.353 95.2718 157.943 95.4673C156.499 95.466 155.059 95.2886 153.658 94.9389C152.88 94.8135 152.14 94.5176 151.491 94.0723C150.963 93.5967 150.963 92.4024 151.491 92.4869C151.283 92.4384 151.094 92.3278 150.95 92.1698C150.806 92.0118 150.713 91.8138 150.684 91.602C150.655 91.3902 150.691 91.1745 150.787 90.9834C150.883 90.7923 151.034 90.6348 151.222 90.5317C151.002 90.3786 150.819 90.1789 150.686 89.9469C150.552 89.7148 150.472 89.4562 150.45 89.1895C150.423 88.9601 150.477 88.7284 150.604 88.5351C150.73 88.3418 150.921 88.1993 151.142 88.1326C150.996 87.9074 150.905 87.6504 150.877 87.3829C150.849 87.1155 150.886 86.8453 150.984 86.5949C151.512 85.2368 152.733 85.8392 153.837 85.8603C155.354 85.8921 156.628 85.5697 156.48 85.0254C156.332 84.4811 154.038 82.5788 154.297 81.7703C154.699 80.5073 157.188 81.6593 159.375 82.8853C160.992 83.7942 162.129 84.999 164.427 85.3425C166.726 85.686 179.002 85.3742 179.002 85.3742L187.097 78.9907C187.097 78.9907 195.811 72.2795 199.922 72.084C202.723 77.2416 202.295 81.2999 195.985 87.5091C193.063 90.3785 190.939 92.0589 186.511 95.0921C182.595 97.7872 180.693 97.5071 178.426 97.3327Z" fill="#FFBDA7"/>
<path d="M198.818 70.3507C202.591 74.4514 203.246 79.8626 199.214 84.6661C196.144 88.2964 190.548 92.5609 190.548 92.5609C190.548 92.5609 183.44 87.7469 182.621 82.2987C182.621 82.2987 189.026 76.433 191.552 74.203C194.654 71.4974 196.202 71.0007 198.818 70.3507Z" fill="#455A64"/>
<path d="M208.573 110.227C199.695 110.227 193.005 107.648 189.729 102.955C189.813 102.036 190.854 91.4723 193.29 84.6396V84.6079V84.5762C193.169 80.3487 192.942 72.4962 198.86 70.5145C201.661 69.5792 205.793 69.0191 209.915 69.0191C211.275 69.012 212.634 69.0879 213.984 69.2463L222.883 73.1197C224.645 76.6454 225.828 80.4316 226.386 84.3331C226.656 86.003 226.915 87.546 227.179 89.0309C228.209 94.5121 228.915 100.049 229.293 105.613C223.464 108.488 215.717 110.227 208.573 110.227Z" fill="#FAFAFA"/>
<path d="M209.926 68.8553V69.2093C211.262 69.202 212.598 69.2743 213.926 69.426L222.761 73.2624C224.498 76.7536 225.667 80.4999 226.223 84.3596C226.492 86.0347 226.751 87.5725 227.015 89.068C228.041 94.5018 228.747 99.9911 229.129 105.508C223.316 108.356 215.643 110.052 208.568 110.052C199.785 110.052 193.164 107.516 189.903 102.908C190.025 101.645 191.071 91.3772 193.449 84.6978V84.6344V84.571C193.327 80.3963 193.105 72.623 198.902 70.6837C201.682 69.7536 205.772 69.1987 209.899 69.1987V68.8553M209.899 68.8553C206.158 68.8553 201.841 69.3361 198.802 70.3613C192.804 72.3641 192.989 80.1374 193.105 84.5921C190.537 91.8053 189.528 103.013 189.528 103.013C193.169 108.298 200.588 110.412 208.552 110.412C215.908 110.412 223.728 108.588 229.483 105.73C228.896 96.7831 227.771 91.8423 226.55 84.3067C225.982 80.3688 224.787 76.5473 223.01 72.9876L214 69.0772C212.641 68.9167 211.273 68.8408 209.904 68.85L209.899 68.8553Z" fill="#E0E0E0"/>
<path d="M214.327 64.5009C214.793 65.4099 215.337 66.5724 215.162 66.6887C217.762 64.9554 220.346 63.1376 222.439 60.8125C224.149 59.0503 225.352 56.8596 225.921 54.4712C226.182 53.2691 226.274 52.0367 226.196 50.8092C226.17 50.3441 226.032 47.6967 225.557 47.517C226.097 47.7699 226.688 47.8981 227.285 47.8922C227.584 47.881 227.871 47.7713 228.101 47.5801C228.331 47.389 228.492 47.1272 228.558 46.8353C228.575 46.4589 228.467 46.0874 228.252 45.7784C227.731 44.9277 227.008 44.2192 226.147 43.7166C225.285 43.214 224.313 42.9329 223.316 42.8985C223.125 41.2127 222.522 39.5999 221.56 38.2026C220.598 36.8053 219.306 35.6667 217.799 34.8874C214.206 33.0537 209.978 32.8899 206.005 33.45C202.734 33.8939 198.289 35.4581 195.563 32.7102C195.015 33.3801 194.694 34.2066 194.645 35.0707C194.597 35.9348 194.824 36.792 195.293 37.519C194.496 37.3353 193.66 37.4438 192.936 37.8249C192.212 38.2059 191.65 38.8341 191.35 39.5952C191.05 40.3562 191.034 41.1995 191.304 41.9716C191.574 42.7437 192.112 43.3933 192.82 43.8021C192.936 43.8708 193.074 43.95 193.111 44.0874C193.126 44.2232 193.088 44.3595 193.005 44.4679C192.612 45.1764 192.449 45.9899 192.539 46.7952C192.63 47.6005 192.969 48.3576 193.509 48.9614C194.05 49.5652 194.765 49.9857 195.555 50.1643C196.345 50.343 197.172 50.271 197.92 49.9584C197.248 51.9453 198.184 54.1859 199.706 55.6444C201.228 57.1028 203.236 57.8902 205.212 58.5983C206.353 59.0105 207.505 59.4015 208.605 59.9141C209.704 60.4267 210.66 61.1718 211.807 61.5945C212.806 61.9697 213.197 62.5087 213.751 63.4494C213.815 63.5286 214.058 63.9725 214.327 64.5009Z" fill="#263238"/>
<path d="M216.452 55.8557C216.494 55.9148 216.544 55.9681 216.6 56.0143C217.445 56.6907 217.493 54.4289 218.428 53.4196C218.736 53.0713 219.126 52.8042 219.562 52.642C219.997 52.4798 220.467 52.4275 220.928 52.4896C221.548 52.5853 222.13 52.8535 222.605 53.2637C223.081 53.6739 223.432 54.2095 223.617 54.8094C224.325 56.828 222.724 60.4743 220.103 61.119C217.604 61.7319 216.663 59.8718 216.663 59.8718L216.135 70.5198C216.135 70.5198 214.946 73.6905 210.158 74.6047C203.896 75.7989 202.385 72.8819 204.377 70.5463V68.0626C202.538 68.048 200.716 67.7136 198.992 67.0744C197.162 66.4246 195.581 65.219 194.469 63.6263C193.358 62.0336 192.772 60.1334 192.794 58.1914C192.952 54.6562 193.851 54.3127 194.104 51.9929C194.448 48.5263 194.923 43.0094 199.087 42.0688C200.127 41.8532 201.205 41.9023 202.221 42.2115C203.058 42.5298 203.918 42.7825 204.794 42.9672C205.758 42.9977 206.722 42.9411 207.674 42.7981C209.121 42.6901 210.565 43.0394 211.802 43.7968C212.524 44.2632 213.122 44.8979 213.545 45.6463C214.047 46.5341 213.942 47.1999 214.021 48.1511C214.164 49.8527 214.829 51.5807 216.357 52.479C216.081 53.3167 216.009 54.2078 216.145 55.0789C216.182 55.3591 216.287 55.6258 216.452 55.8557Z" fill="#FFBDA7"/>
<path d="M207.114 58.2443C206.263 57.3406 205.439 58.4292 203.505 58.6987C201.571 58.9682 200.477 57.9378 200.076 59.1479C199.737 60.1625 200.884 62.3608 204.092 62.123C206.834 61.9169 207.865 59.0528 207.114 58.2443Z" fill="#B16668"/>
<path d="M203.505 58.6987C204.763 58.5191 205.55 58.0065 206.179 57.9113L206.205 58.7886C206.071 58.9271 205.903 59.0279 205.717 59.0807C205.532 59.1336 205.336 59.1367 205.149 59.0898C205.08 59.0562 205.002 59.0451 204.927 59.0581C204.89 59.0779 204.856 59.1028 204.826 59.132C204.639 59.3262 204.406 59.4714 204.15 59.5548C203.822 59.6623 203.48 59.721 203.135 59.7292C202.767 59.7266 202.399 59.6948 202.036 59.6341C201.659 59.5798 201.286 59.4985 200.921 59.391L200.81 58.5455C201.407 58.5138 202.3 58.8625 203.505 58.6987Z" fill="#FAFAFA"/>
<path d="M204.092 62.123C203.509 62.1714 202.921 62.125 202.353 61.9856C202.69 61.2791 203.24 60.6957 203.925 60.3167C204.61 59.9378 205.396 59.7822 206.174 59.8718C206.484 59.9126 206.787 59.9925 207.077 60.1096C206.806 60.6819 206.385 61.1708 205.86 61.5249C205.335 61.8791 204.724 62.0857 204.092 62.123Z" fill="#F28F8F"/>
<path d="M213.117 55.9086C213.038 56.7065 211.981 57.2561 210.755 57.1292C209.529 57.0024 208.61 56.252 208.689 55.4541C208.768 54.6562 209.831 54.1066 211.051 54.2334C212.272 54.3602 213.197 55.1159 213.117 55.9086Z" fill="#FFA8A7"/>
<path d="M196.842 54.2916C196.81 55.0948 195.785 55.7078 194.564 55.6602C193.343 55.6127 192.366 54.9204 192.397 54.1172C192.429 53.314 193.454 52.701 194.675 52.7485C195.896 52.7961 196.873 53.4883 196.842 54.2916Z" fill="#FFA8A7"/>
<path d="M208.768 49.6096L211.765 51.5014C212.009 51.085 212.085 50.5909 211.977 50.1203C211.869 49.6497 211.585 49.2382 211.183 48.9702C210.985 48.8468 210.763 48.7654 210.531 48.7308C210.3 48.6962 210.064 48.7093 209.838 48.7691C209.612 48.829 209.4 48.9344 209.216 49.079C209.032 49.2235 208.88 49.4041 208.768 49.6096Z" fill="#263238"/>
<path d="M210.433 54.2281C210.364 54.5673 210.197 54.8786 209.952 55.123C209.707 55.3673 209.395 55.5337 209.056 55.6014C208.717 55.669 208.365 55.6348 208.045 55.503C207.725 55.3712 207.451 55.1478 207.258 54.8608C207.065 54.5738 206.961 54.2361 206.959 53.8901C206.957 53.5441 207.058 53.2053 207.248 52.9162C207.438 52.6272 207.709 52.4009 208.028 52.2658C208.346 52.1306 208.698 52.0926 209.038 52.1567C209.266 52.201 209.482 52.2897 209.676 52.4178C209.869 52.5459 210.035 52.7109 210.165 52.9032C210.294 53.0956 210.385 53.3117 210.431 53.539C210.477 53.7663 210.477 54.0005 210.433 54.2281Z" fill="#263238"/>
<path d="M199.04 53.2188C198.971 53.5592 198.803 53.8716 198.557 54.1168C198.311 54.3619 197.998 54.5289 197.658 54.5965C197.317 54.6642 196.964 54.6296 196.643 54.4971C196.322 54.3646 196.048 54.1401 195.854 53.8518C195.661 53.5636 195.557 53.2245 195.555 52.8773C195.554 52.5301 195.655 52.1902 195.847 51.9005C196.038 51.6108 196.311 51.3842 196.631 51.2492C196.951 51.1143 197.304 51.077 197.645 51.1421C198.105 51.2328 198.51 51.5024 198.772 51.8918C199.034 52.2812 199.13 52.7585 199.04 53.2188Z" fill="#263238"/>
<path d="M195.446 49.9108L198.786 48.6373C198.718 48.4144 198.604 48.2081 198.452 48.031C198.301 47.8539 198.114 47.7098 197.905 47.6078C197.695 47.5057 197.467 47.4478 197.234 47.4376C197.001 47.4275 196.769 47.4653 196.551 47.5487C196.102 47.7298 195.739 48.0741 195.534 48.5124C195.329 48.9507 195.298 49.4504 195.446 49.9108Z" fill="#263238"/>
<path d="M203.912 51.7392L202.818 56.6642L199.394 54.783L203.912 51.7392Z" fill="#F0997A"/>
<path d="M204.403 68.0626C206.76 67.9675 209.635 67.6082 212.383 65.6371C213.757 64.4944 214.784 62.9897 215.347 61.2933C215.347 61.2933 215.231 64.464 213.329 66.3769C209.984 69.743 204.403 69.5475 204.403 69.5475V68.0626Z" fill="#F0997A"/>
<path d="M174.467 95.5624V67.4708L159.455 76.1424V104.276L174.467 95.5624Z" fill="#5D04D9"/>
<path d="M167.207 63.238L152.194 71.9043L181.723 89.0468L196.736 80.3752L167.207 63.238Z" fill="#5D04D9"/>
<path opacity="0.35" d="M167.207 63.238L152.194 71.9043L181.723 89.0468L196.736 80.3752L167.207 63.238Z" fill="white"/>
<path d="M196.736 80.3752L196.741 108.536L181.723 117.207V89.0468L196.736 80.3752Z" fill="#5D04D9"/>
<path d="M181.723 89.0468V117.202L174.462 112.974V100.498C174.464 98.2106 173.863 95.9631 172.719 93.9822C171.575 92.0014 169.929 90.3573 167.947 89.2159C167.091 88.7138 166.117 88.4476 165.125 88.4444C164.38 88.4437 163.642 88.5899 162.953 88.8745C162.265 89.1591 161.639 89.5767 161.112 90.1033C160.585 90.6299 160.167 91.2552 159.881 91.9435C159.596 92.6317 159.449 93.3695 159.449 94.1145V104.261L152.189 100.033V71.9096L181.723 89.0468Z" fill="#5D04D9"/>
<path opacity="0.2" d="M181.723 89.0468V117.202L174.462 112.974V100.498C174.464 98.2106 173.863 95.9631 172.719 93.9822C171.575 92.0014 169.929 90.3573 167.947 89.2159C167.091 88.7138 166.117 88.4476 165.125 88.4444C164.38 88.4437 163.642 88.5899 162.953 88.8745C162.265 89.1591 161.639 89.5767 161.112 90.1033C160.585 90.6299 160.167 91.2552 159.881 91.9435C159.596 92.6317 159.449 93.3695 159.449 94.1145V104.261L152.189 100.033V71.9096L181.723 89.0468Z" fill="white"/>
<path d="M210.93 104.937C208.287 105.629 198.971 106.707 197.47 106.94C194.913 107.331 193.174 108.868 190.96 109.836C189.593 110.308 188.173 110.611 186.733 110.739C185.465 110.841 184.192 110.854 182.922 110.776C182.441 110.743 181.964 110.668 181.496 110.554C181.228 110.499 180.987 110.357 180.808 110.151C180.63 109.945 180.524 109.685 180.508 109.413C179.982 109.314 179.471 109.151 178.986 108.927C178.751 108.815 178.54 108.658 178.366 108.465C178.192 108.272 178.058 108.046 177.971 107.801C177.89 107.444 177.672 107.132 177.363 106.934C177.112 106.776 176.91 106.549 176.781 106.281C176.652 106.013 176.601 105.714 176.634 105.418C176.703 105.213 176.827 105.03 176.992 104.89C177.156 104.749 177.356 104.656 177.569 104.62C177.503 104.351 177.535 104.067 177.66 103.82C177.785 103.572 177.995 103.378 178.251 103.272C178.779 103.056 179.34 102.934 179.91 102.913C181.271 102.754 182.619 102.496 183.942 102.141C185.385 101.671 186.479 100.952 186.146 100.498C185.813 100.044 183.028 98.9761 183.028 98.1306C183.002 96.8043 185.728 97.0738 188.191 97.5335C190.019 97.8611 191.488 98.6327 193.771 98.2099C196.054 97.7872 207.563 93.4963 207.563 93.4963L213.149 84.8299C213.149 84.8299 219.205 75.6457 223.031 74.1238C227.359 78.0871 228.273 82.0503 224.325 89.9769C222.497 93.6442 221.039 95.9271 217.831 100.234C215.025 104.007 213.149 104.361 210.93 104.937Z" fill="#FFBDA7"/>
<path d="M184.36 105.085C184.989 104.962 185.587 104.714 186.119 104.356C186.178 104.308 186.045 104.229 185.998 104.234C185.406 104.381 184.823 104.557 184.249 104.763C183.647 104.926 183.034 105.044 182.415 105.117C181.602 105.192 180.785 105.221 179.968 105.201C179.657 105.201 179.345 105.164 179.033 105.143C178.629 105.11 178.231 105.023 177.849 104.884C177.842 104.88 177.834 104.878 177.826 104.878C177.817 104.878 177.809 104.88 177.802 104.884C177.802 104.884 177.802 104.921 177.802 104.932C177.883 105.032 177.982 105.118 178.093 105.185C178.718 105.457 179.399 105.574 180.079 105.529C180.859 105.553 181.639 105.531 182.415 105.46C183.072 105.383 183.722 105.258 184.36 105.085ZM178.272 107.384C178.341 107.447 178.425 107.492 178.515 107.516C178.806 107.594 179.101 107.658 179.398 107.706C179.747 107.77 180.1 107.809 180.455 107.822C181.234 107.849 182.014 107.827 182.79 107.753C183.444 107.673 184.091 107.542 184.724 107.362C185.353 107.236 185.951 106.988 186.484 106.633C186.542 106.58 186.41 106.501 186.363 106.512C185.77 106.655 185.186 106.831 184.613 107.04C184.012 107.206 183.399 107.324 182.78 107.394C181.967 107.473 181.15 107.501 180.333 107.479C179.979 107.474 179.626 107.442 179.276 107.384L178.642 107.262C178.595 107.262 178.114 107.151 178.272 107.384ZM180.914 109.365C180.987 109.421 181.072 109.459 181.163 109.476C181.527 109.529 181.691 109.545 182.072 109.571C182.423 109.598 182.777 109.598 183.129 109.571C183.906 109.536 184.681 109.453 185.448 109.323C185.781 109.244 186.109 109.154 186.437 109.053C186.669 108.979 187.044 108.927 187.187 108.705C187.202 108.683 187.211 108.657 187.211 108.631C187.211 108.604 187.202 108.578 187.187 108.557C187.044 108.403 186.505 108.684 186.341 108.731C186.035 108.826 185.718 108.905 185.406 108.974C184.602 109.115 183.79 109.209 182.975 109.254C182.624 109.283 182.27 109.283 181.918 109.254L181.279 109.201C181.221 109.217 180.729 109.154 180.914 109.365Z" fill="#F0997A"/>
<path d="M223.031 72.9824C227.935 75.6245 228.727 80.3805 226.466 86.1933C224.748 90.6269 220.843 96.4819 220.843 96.4819C220.843 96.4819 212.557 94.2361 210.026 89.348L215.839 78.7793C219.316 72.9824 223.031 72.9824 223.031 72.9824Z" fill="#455A64"/>
<path d="M212.219 87.4404C211.971 87.192 211.728 86.9384 211.495 86.6847L210.967 87.6148L211.083 87.7522C211.975 88.7041 212.947 89.5775 213.989 90.3626C216.067 91.9342 218.387 93.1551 220.859 93.9771C221.297 94.1198 221.741 94.2466 222.185 94.3682C222.365 94.0775 222.555 93.7711 222.751 93.4434C218.771 92.4089 215.137 90.3374 212.219 87.4404Z" fill="#5D04D9"/>
<path d="M152.194 86.225C152.226 86.6953 154.112 86.9489 154.625 87.9952C154.702 88.1174 154.751 88.2553 154.768 88.399C154.786 88.5426 154.77 88.6882 154.724 88.8251C154.677 88.962 154.6 89.0867 154.499 89.19C154.398 89.2933 154.275 89.3726 154.139 89.422C154.139 89.422 155.058 89.8236 155.058 90.4789C155.059 90.6266 155.026 90.7726 154.962 90.9059C154.898 91.0392 154.805 91.1564 154.69 91.2488C154.575 91.3412 154.44 91.4064 154.296 91.4397C154.152 91.4729 154.003 91.4732 153.859 91.4406C154.445 91.8528 154.033 92.804 153.187 92.9256C152.876 92.9579 152.56 92.9328 152.257 92.8516C152.257 92.8516 153.029 93.4276 152.939 94.0406C152.849 94.6535 151.882 94.4263 151.354 93.9349L152.194 86.225Z" fill="#FFBDA7"/>
<path d="M153.964 89.4326C153.475 89.3886 152.998 89.2599 152.553 89.0521C152.346 88.9545 152.145 88.8451 151.951 88.7245C151.845 88.6611 151.75 88.5924 151.655 88.5237C151.542 88.4151 151.411 88.3258 151.269 88.2595C151.2 88.2595 151.179 88.3757 151.2 88.4127C151.346 88.6316 151.542 88.8127 151.771 88.9411C151.983 89.082 152.212 89.1956 152.453 89.2793C152.94 89.4393 153.453 89.5021 153.964 89.4643C153.964 89.4643 154.001 89.4114 153.964 89.4114V89.4326Z" fill="#F0997A"/>
<path d="M153.864 91.4354C153.369 91.3839 152.887 91.2499 152.437 91.039L151.808 90.7484C151.708 90.7008 151.607 90.6427 151.502 90.6004C151.427 90.553 151.341 90.5274 151.253 90.5265C151.185 90.5265 151.179 90.6533 151.211 90.6956C151.362 90.8434 151.542 90.9585 151.739 91.0338C151.953 91.1389 152.174 91.229 152.4 91.3033C152.869 91.4515 153.362 91.5142 153.853 91.4882C153.853 91.4882 153.89 91.4354 153.853 91.4354H153.864Z" fill="#F0997A"/>
<path d="M102.542 125.916V154.076L87.5292 162.748V134.582L102.542 125.916Z" fill="#5D04D9"/>
<path opacity="0.2" d="M102.542 125.916V154.076L87.5292 162.748V134.582L102.542 125.916Z" fill="black"/>
<path d="M70.1224 152.649L87.5291 162.748V134.582L70.1224 152.649Z" fill="#5D04D9"/>
<path opacity="0.1" d="M87.5291 134.582L70.1224 152.649L87.5291 162.748V134.582Z" fill="black"/>
<path d="M103.905 126.93L88.8925 135.597L97.1149 140.347L112.133 131.681L103.905 126.93Z" fill="#5D04D9"/>
<path opacity="0.35" d="M103.905 126.93L88.8925 135.597L97.1149 140.347L112.133 131.681L103.905 126.93Z" fill="white"/>
<path d="M112.133 131.681V159.841L97.115 168.508V140.347L112.133 131.681Z" fill="#5D04D9"/>
<path d="M88.8925 135.597V163.762L97.1149 168.508V140.347L88.8925 135.597Z" fill="#5D04D9"/>
<path opacity="0.2" d="M88.8925 135.597V163.762L97.1149 168.508V140.347L88.8925 135.597Z" fill="white"/>
<path d="M112.91 142.921L97.8971 151.587L112.91 160.254L127.923 151.587L112.91 142.921Z" fill="#5D04D9"/>
<path opacity="0.7" d="M112.91 142.921L97.8971 151.587L112.91 160.254L127.923 151.587L112.91 142.921Z" fill="white"/>
<path d="M127.923 151.587V168.925L112.91 177.592V160.254L127.923 151.587Z" fill="#5D04D9"/>
<path opacity="0.45" d="M127.923 151.587V168.925L112.91 177.592V160.254L127.923 151.587Z" fill="white"/>
<path d="M97.8971 151.587V168.925L112.91 177.592V160.254L97.8971 151.587Z" fill="#5D04D9"/>
<path opacity="0.55" d="M97.8971 151.587V168.925L112.91 177.592V160.254L97.8971 151.587Z" fill="white"/>
<path d="M112.91 125.033L97.8971 133.705L112.91 142.371L127.923 133.705L112.91 125.033Z" fill="#455A64"/>
<path d="M127.923 133.705V151.038L112.91 159.709V142.371L127.923 133.705Z" fill="#263238"/>
<path d="M97.8971 133.705V151.038L112.91 159.709V142.371L97.8971 133.705Z" fill="#37474F"/>
<path d="M121.259 114.829C121.259 113.593 120.445 112.361 118.813 111.416C115.552 109.534 110.262 109.534 107.002 111.416C105.369 112.361 104.555 113.593 104.555 114.829V134.202C104.555 135.433 105.369 136.67 107.002 137.61C110.262 139.491 115.552 139.491 118.818 137.61C120.445 136.67 121.259 135.433 121.259 134.202V114.829Z" fill="#5D04D9"/>
<path opacity="0.2" d="M121.259 114.829C121.259 113.593 120.445 112.361 118.813 111.416C115.552 109.534 110.262 109.534 107.002 111.416C105.369 112.361 104.555 113.593 104.555 114.829V134.202C104.555 135.433 105.369 136.67 107.002 137.61C110.262 139.491 115.552 139.491 118.818 137.61C120.445 136.67 121.259 135.433 121.259 134.202V114.829Z" fill="white"/>
<path d="M107.002 111.394C105.369 112.335 104.555 113.566 104.555 114.803C104.555 116.039 105.369 117.271 107.002 118.211C110.262 120.098 115.552 120.098 118.818 118.211C120.445 117.271 121.264 116.034 121.264 114.803C121.264 113.572 120.445 112.335 118.813 111.394C115.552 109.508 110.262 109.508 107.002 111.394Z" fill="#5D04D9"/>
<path opacity="0.35" d="M107.002 111.394C105.369 112.335 104.555 113.566 104.555 114.803C104.555 116.039 105.369 117.271 107.002 118.211C110.262 120.098 115.552 120.098 118.818 118.211C120.445 117.271 121.264 116.034 121.264 114.803C121.264 113.572 120.445 112.335 118.813 111.394C115.552 109.508 110.262 109.508 107.002 111.394Z" fill="white"/>
<path d="M136.288 173.623V145.531L121.275 154.203V182.337L136.288 173.623Z" fill="#5D04D9"/>
<path d="M129.033 141.299L114.02 149.97L143.549 167.107L158.562 158.436L129.033 141.299Z" fill="#5D04D9"/>
<path opacity="0.35" d="M129.033 141.299L114.02 149.97L143.549 167.107L158.562 158.436L129.033 141.299Z" fill="white"/>
<path d="M158.562 158.436V186.601L143.549 195.268V167.107L158.562 158.436Z" fill="#5D04D9"/>
<path d="M143.549 167.107V195.268L136.288 191.04V178.564C136.289 176.276 135.687 174.028 134.543 172.047C133.4 170.065 131.754 168.42 129.772 167.277C128.912 166.774 127.934 166.508 126.938 166.506C125.942 166.503 124.963 166.764 124.1 167.262C123.238 167.76 122.522 168.477 122.026 169.341C121.53 170.205 121.271 171.184 121.275 172.18V182.342L114.014 178.115V149.97L143.549 167.107Z" fill="#5D04D9"/>
<path opacity="0.2" d="M143.549 167.107V195.268L136.288 191.04V178.564C136.289 176.276 135.687 174.028 134.543 172.047C133.4 170.065 131.754 168.42 129.772 167.277C128.912 166.774 127.934 166.508 126.938 166.506C125.942 166.503 124.963 166.764 124.1 167.262C123.238 167.76 122.522 168.477 122.026 169.341C121.53 170.205 121.271 171.184 121.275 172.18V182.342L114.014 178.115V149.97L143.549 167.107Z" fill="white"/>
<path d="M158.562 157.522V136.537L143.538 145.241V166.225L158.562 157.522Z" fill="#5D04D9"/>
<path opacity="0.45" d="M158.562 157.522V136.537L143.538 145.241V166.225L158.562 157.522Z" fill="white"/>
<path d="M143.538 166.225L114.02 149.183V128.199L143.538 145.241V166.225Z" fill="#5D04D9"/>
<path opacity="0.55" d="M143.538 166.225L114.02 149.183V128.199L143.538 145.241V166.225Z" fill="white"/>
<path d="M158.562 136.537L129.043 119.495L114.02 128.199L143.538 145.241L158.562 136.537Z" fill="#5D04D9"/>
<path opacity="0.15" d="M158.562 136.537L129.043 119.495L114.02 128.199L143.538 145.241L158.562 136.537Z" fill="black"/>
<path d="M158.562 135.671V114.681L143.538 123.385V144.374L158.562 135.671Z" fill="#5D04D9"/>
<path opacity="0.25" d="M158.562 135.671V114.681L143.538 123.385V144.374L158.562 135.671Z" fill="black"/>
<path d="M143.538 144.374L114.02 127.327V106.343L143.538 123.385V144.374Z" fill="#5D04D9"/>
<path d="M158.562 114.681L129.043 97.6392L114.02 106.343L143.538 123.385L158.562 114.681Z" fill="#5D04D9"/>
<path opacity="0.15" d="M158.562 114.681L129.043 97.6392L114.02 106.343L143.538 123.385L158.562 114.681Z" fill="black"/>
<path d="M159.222 169.729L144.209 178.395L159.222 187.061L174.235 178.395L159.222 169.729Z" fill="#455A64"/>
<path d="M174.235 178.395V195.733L159.222 204.399V187.061L174.235 178.395Z" fill="#263238"/>
<path d="M144.209 178.395V195.733L159.222 204.399V187.061L144.209 178.395Z" fill="#37474F"/>
<path d="M159.222 151.762L144.209 160.433L159.222 169.1L174.235 160.433L159.222 151.762Z" fill="#5D04D9"/>
<path opacity="0.7" d="M159.222 151.762L144.209 160.433L159.222 169.1L174.235 160.433L159.222 151.762Z" fill="white"/>
<path d="M174.235 160.433V177.766L159.222 186.438V169.1L174.235 160.433Z" fill="#5D04D9"/>
<path opacity="0.45" d="M174.235 160.433V177.766L159.222 186.438V169.1L174.235 160.433Z" fill="white"/>
<path d="M144.209 160.433V177.766L159.222 186.438V169.1L144.209 160.433Z" fill="#5D04D9"/>
<path opacity="0.55" d="M144.209 160.433V177.766L159.222 186.438V169.1L144.209 160.433Z" fill="white"/>
<path d="M97.041 193.392L82.2765 203.237L111.806 220.374L97.041 193.392Z" fill="#37474F"/>
<path d="M97.041 193.392L111.806 220.374L126.818 211.702L112.054 184.72L97.041 193.392Z" fill="#455A64"/>
<path d="M167.571 140.078C167.571 138.841 166.758 137.605 165.125 136.664C161.864 134.783 156.575 134.783 153.314 136.664C151.681 137.605 150.868 138.841 150.868 140.078V159.445C150.868 160.682 151.681 161.913 153.314 162.859C156.575 164.74 161.864 164.74 165.125 162.859C166.758 161.913 167.571 160.682 167.571 159.445V140.078Z" fill="#37474F"/>
<path d="M153.314 136.664C151.681 137.605 150.868 138.841 150.868 140.078C150.868 141.314 151.681 142.546 153.314 143.486C156.575 145.368 161.864 145.368 165.125 143.486C166.758 142.546 167.571 141.309 167.571 140.078C167.571 138.847 166.758 137.605 165.125 136.664C161.891 134.783 156.575 134.783 153.314 136.664Z" fill="#455A64"/>
<path d="M175.355 168.37L160.342 177.037L168.57 181.787L183.583 173.121L175.355 168.37Z" fill="#5D04D9"/>
<path opacity="0.35" d="M175.355 168.37L160.342 177.037L168.57 181.787L183.583 173.121L175.355 168.37Z" fill="white"/>
<path d="M183.583 173.121V201.281L168.57 209.948V181.787L183.583 173.121Z" fill="#5D04D9"/>
<path opacity="0.2" d="M183.583 173.121V201.281L168.57 209.948V181.787L183.583 173.121Z" fill="black"/>
<path d="M160.342 177.037V205.202L168.57 209.948V181.787L160.342 177.037Z" fill="#5D04D9"/>
<path opacity="0.2" d="M160.342 177.037V205.202L168.57 209.948V181.787L160.342 177.037Z" fill="white"/>
<path d="M185.306 173.914L202.718 212.173L187.7 220.839L170.293 182.58L185.306 173.914Z" fill="#5D04D9"/>
<path d="M170.293 182.58V210.74L187.7 220.839L170.293 182.58Z" fill="#5D04D9"/>
<path opacity="0.1" d="M170.293 182.58V210.74L187.7 220.839L170.293 182.58Z" fill="black"/>
<path d="M130.549 199.807C128.927 200.748 127.907 202.756 127.907 205.62L145.874 215.977L156.929 209.594C156.929 203.876 152.913 196.911 147.945 194.058C145.467 192.626 143.226 192.472 141.604 193.429L130.549 199.807Z" fill="#5D04D9"/>
<path opacity="0.7" d="M130.549 199.807C128.927 200.748 127.907 202.756 127.907 205.62L145.874 215.977L156.929 209.594C156.929 203.876 152.913 196.911 147.945 194.058C145.467 192.626 143.226 192.472 141.604 193.429L130.549 199.807Z" fill="white"/>
<path d="M145.863 215.972C145.863 210.254 141.847 203.289 136.88 200.436C134.407 199.004 132.161 198.851 130.539 199.807C128.916 200.764 127.896 202.756 127.896 205.62L145.863 215.972Z" fill="#5D04D9"/>
<path opacity="0.55" d="M145.863 215.972C145.863 210.254 141.847 203.289 136.88 200.436C134.407 199.004 132.161 198.851 130.539 199.807C128.916 200.764 127.896 202.756 127.896 205.62L145.863 215.972Z" fill="white"/>
<path d="M71.0473 160.993C71.2143 161.854 71.2393 162.736 71.1213 163.604C70.9416 164.53 70.7655 165.455 70.5928 166.378C70.4253 167.134 70.3227 167.903 70.2864 168.677C70.2626 169.457 70.4449 170.23 70.8148 170.917C71.4806 171.914 72.4611 172.658 73.5996 173.031C74.8098 173.528 76.1361 173.85 77.2353 174.58C78.4401 175.377 79.5287 176.334 80.7071 177.169C81.9721 178.153 83.4543 178.82 85.0297 179.114C86.0986 179.219 87.1766 179.187 88.2373 179.018C90.5096 178.754 92.914 178.405 94.6843 176.958C94.8894 176.815 95.0446 176.612 95.1282 176.376C95.1639 176.165 95.1344 175.947 95.0436 175.753C94.5968 174.846 93.8856 174.096 93.0038 173.602C89.8332 171.488 86.1077 170.019 83.492 167.234C82.7022 166.457 82.1207 165.494 81.801 164.434C81.5579 163.504 81.801 162.357 81.8591 161.4C81.8908 160.55 82.1075 159.049 82.1762 158.198C78.4979 159.53 74.4863 159.63 70.7461 158.483C70.8148 159.218 70.931 160.048 71.0473 160.993Z" fill="#FFA8A7"/>
<path d="M95.7146 176.709C95.8837 176.709 96.1321 178.564 95.1862 179.351C94.1293 180.255 90.9904 181.735 86.8686 181.185C82.7468 180.635 81.5842 179.822 79.9567 178.448C78.3291 177.074 76.786 175.631 74.9471 175.219C73.2138 174.833 70.5822 174.162 70.0273 173.602C69.4725 173.042 69.5676 170.711 69.5676 170.711L95.7146 176.709Z" fill="#263238"/>
<path d="M70.8888 160.502C70.8888 160.502 70.6299 160.502 70.5189 161.03C70.3921 161.68 70.5982 163.276 70.1226 165.216C69.5043 167.731 69.3669 170.146 69.5941 171.356C69.8214 172.566 73.4623 173.47 75.2643 174.157C77.0662 174.844 78.4349 175.806 80.3003 177.327C82.4599 179.076 85.1325 180.069 87.9097 180.155C91.0804 180.155 94.6737 179.14 95.4981 177.681C96.5233 175.879 96.6818 174.146 91.9787 171.964C91.0909 171.552 89.0406 169.649 87.9732 168.983C86.9049 168.295 85.9035 167.507 84.9822 166.632C84.4373 166.164 83.9415 165.642 83.5026 165.073C83.0589 164.502 82.7925 163.813 82.7364 163.091C82.7364 162.743 82.7733 162.388 82.7628 162.034C82.7737 161.678 82.6576 161.33 82.4351 161.052C82.2605 160.895 82.0533 160.779 81.8285 160.713C81.6037 160.646 81.3669 160.63 81.1352 160.666C79.7058 160.789 78.2978 161.093 76.9447 161.569C76.5269 161.668 76.1546 161.904 75.8878 162.241C75.7385 162.504 75.6654 162.804 75.6764 163.107C75.6845 163.409 75.6739 163.711 75.6447 164.011C75.6353 164.122 75.591 164.228 75.5179 164.312C75.3594 164.471 75.1057 164.338 74.9895 164.217C74.5276 163.747 74.1052 163.24 73.7265 162.7C73.5046 162.425 72.5058 162.246 72.2258 162.029C71.9457 161.813 71.3168 161.739 71.0896 161.501C70.8624 161.263 70.9047 160.877 70.8888 160.502Z" fill="#37474F"/>
<path d="M80.2949 177.359C79.5991 176.762 78.8705 176.205 78.1124 175.689C78.1124 175.689 83.1273 177.676 85.3731 176.17C86.8263 175.203 86.1447 174.014 86.113 173.634C86.0812 173.253 89.6482 171.647 91.0485 171.488C91.4396 171.705 91.7936 171.488 91.9944 171.599C96.6975 173.782 96.5126 175.885 95.4874 177.687C94.663 179.145 92.0631 180.276 87.9519 180.255C85.156 180.131 82.4731 179.116 80.2949 177.359Z" fill="#455A64"/>
<path d="M85.7272 172.524C88.6547 173.697 87.4023 174.231 86.578 174.347C85.7536 174.463 81.6318 172.08 78.6514 169.713C75.5284 167.24 72.8017 164.629 71.6444 163.72C71.2111 163.382 70.8781 163.086 70.466 162.7C70.416 162.126 70.3948 161.549 70.4026 160.972C70.4235 160.825 70.4889 160.687 70.5898 160.578C70.6908 160.468 70.8227 160.392 70.968 160.359L71.1212 161.358C71.5314 161.598 71.9748 161.776 72.437 161.886C72.9224 162.041 73.3569 162.324 73.6947 162.706C74.0734 163.245 74.4958 163.752 74.9577 164.222C77.4836 167.451 82.805 171.372 85.7272 172.524Z" fill="#263238"/>
<path d="M86.5041 173.919C86.4368 173.916 86.3721 173.892 86.3191 173.85C86.2584 173.799 86.2205 173.726 86.2135 173.647C86.2066 173.567 86.2313 173.489 86.2821 173.428C87.1276 172.371 89.5532 171.013 91.7356 171.266C91.7744 171.27 91.8119 171.282 91.8461 171.301C91.8803 171.319 91.9103 171.345 91.9345 171.375C91.9586 171.406 91.9764 171.441 91.9867 171.478C91.997 171.516 91.9997 171.555 91.9945 171.594C91.992 171.633 91.9815 171.671 91.9636 171.706C91.9457 171.74 91.9209 171.771 91.8907 171.796C91.8605 171.821 91.8255 171.839 91.7879 171.85C91.7503 171.86 91.7109 171.863 91.6722 171.858C89.6324 171.626 87.4024 172.984 86.7366 173.808C86.709 173.843 86.6736 173.871 86.6333 173.891C86.593 173.91 86.5488 173.92 86.5041 173.919Z" fill="#F0F0F0"/>
<path d="M84.5753 172.429C84.541 172.431 84.5065 172.427 84.4738 172.416C84.4411 172.405 84.411 172.388 84.3851 172.365C84.3243 172.316 84.2854 172.244 84.2765 172.166C84.2676 172.088 84.2895 172.01 84.3375 171.948C85.0258 171.197 85.8679 170.604 86.8062 170.208C87.7446 169.812 88.7572 169.624 89.7751 169.655C89.8482 169.668 89.9136 169.709 89.9588 169.768C90.0039 169.827 90.0257 169.9 90.0198 169.974C90.0139 170.049 89.9807 170.118 89.9268 170.169C89.8729 170.22 89.8019 170.25 89.7276 170.252C88.8078 170.232 87.8941 170.406 87.0457 170.762C86.1974 171.118 85.4332 171.648 84.8025 172.318C84.7757 172.353 84.7413 172.381 84.7019 172.4C84.6625 172.419 84.6192 172.429 84.5753 172.429Z" fill="#F0F0F0"/>
<path d="M81.9806 170.706C81.9065 170.705 81.8345 170.681 81.7745 170.637C81.7421 170.614 81.7151 170.584 81.6952 170.549C81.6753 170.514 81.663 170.475 81.659 170.435C81.655 170.396 81.6595 170.355 81.6721 170.317C81.6847 170.279 81.7052 170.244 81.7322 170.215C82.5336 169.467 83.4782 168.889 84.509 168.515C85.5397 168.142 86.6354 167.981 87.73 168.043C87.7701 168.045 87.8092 168.056 87.8451 168.074C87.881 168.092 87.9129 168.117 87.939 168.148C87.9651 168.178 87.9848 168.214 87.997 168.252C88.0092 168.29 88.0137 168.33 88.0101 168.37C88.0049 168.411 87.9916 168.451 87.9708 168.486C87.9501 168.522 87.9223 168.553 87.8893 168.578C87.8562 168.603 87.8185 168.62 87.7784 168.63C87.7383 168.64 87.6967 168.641 87.656 168.635C86.6668 168.588 85.6782 168.737 84.7468 169.073C83.8154 169.41 82.9598 169.927 82.229 170.595C82.1979 170.63 82.1597 170.659 82.1168 170.678C82.074 170.697 82.0275 170.706 81.9806 170.706Z" fill="#F0F0F0"/>
<path d="M79.6608 169.168C79.5879 169.17 79.5162 169.149 79.4547 169.11C79.4212 169.088 79.3928 169.059 79.3714 169.024C79.35 168.99 79.3362 168.952 79.3307 168.912C79.3252 168.872 79.3282 168.831 79.3396 168.793C79.3509 168.754 79.3704 168.718 79.3966 168.687C80.1619 167.911 81.0768 167.297 82.0858 166.884C83.0949 166.471 84.1772 166.266 85.2675 166.283C85.3082 166.284 85.3484 166.293 85.3857 166.309C85.4229 166.325 85.4566 166.349 85.4846 166.378C85.5127 166.408 85.5345 166.443 85.549 166.481C85.5634 166.519 85.5701 166.559 85.5687 166.6C85.5648 166.641 85.5527 166.681 85.5333 166.717C85.5138 166.754 85.4873 166.786 85.4554 166.812C85.4235 166.838 85.3867 166.857 85.3472 166.869C85.3077 166.881 85.2662 166.885 85.2252 166.88C84.2375 166.872 83.2579 167.059 82.3428 167.431C81.4277 167.803 80.5952 168.352 79.8933 169.047C79.8346 169.116 79.7512 169.16 79.6608 169.168Z" fill="#F0F0F0"/>
<path d="M77.1719 167.356C77.1002 167.361 77.0291 167.34 76.9711 167.298C76.9369 167.277 76.9077 167.249 76.8853 167.215C76.8629 167.182 76.848 167.144 76.8415 167.105C76.835 167.065 76.837 167.025 76.8475 166.986C76.8581 166.947 76.8767 166.911 76.9024 166.88C78.1178 165.358 80.9449 164.286 83.3546 164.449C83.3953 164.451 83.4354 164.46 83.4724 164.477C83.5094 164.494 83.5427 164.518 83.5702 164.548C83.5978 164.578 83.6191 164.614 83.6329 164.652C83.6466 164.69 83.6526 164.731 83.6505 164.772C83.6399 164.853 83.5982 164.927 83.5342 164.978C83.4701 165.03 83.3887 165.054 83.307 165.047C81.1404 164.904 78.4983 165.887 77.4202 167.234C77.3913 167.273 77.3537 167.304 77.3105 167.325C77.2674 167.346 77.2199 167.356 77.1719 167.356Z" fill="#F0F0F0"/>
<path d="M40.0228 158.901C39.8907 160.248 39.7956 160.745 39.6793 162.071C38.9947 163.591 38.4636 165.176 38.094 166.801C37.3542 169.676 35.9538 172.894 35.1982 175.784C34.5376 178.242 33.9035 180.884 34.9498 183.283C36.5034 186.845 40.937 188.625 43.9808 186.242C46.327 184.408 47.1514 181.523 47.1884 178.87C47.1948 175.641 47.6483 172.427 48.5359 169.322C48.9927 167.715 49.3631 166.085 49.6456 164.439C49.6456 164.439 50.285 162.536 50.6179 161.659C47.2201 162.748 43.0983 161.258 40.0228 158.901Z" fill="#FFA8A7"/>
<path d="M47.2201 182.126C46.7286 184.815 46.01 186.549 44.6413 187.997C43.2727 189.444 40.9423 189.677 38.7123 188.937C36.4823 188.197 34.1624 186.734 33.3539 184.044C32.6458 181.682 33.169 180.192 33.9563 177.74L47.2201 182.126Z" fill="#263238"/>
<path d="M39.6793 162.087C38.8602 162.198 37.8245 165.739 36.8891 169.316C35.8798 173.158 34.8969 174.231 34.0303 177.375C33.0368 180.963 33.2271 182.226 34.5904 184.625C35.9538 187.024 41.3756 189.867 44.5039 187.03C47.0563 184.715 47.3363 182.274 47.5213 178.575C47.6396 175.654 47.9645 172.746 48.4936 169.871C48.9745 167.155 50.433 164.83 49.6456 164.428C49.5346 164.825 48.3562 167.683 47.7538 167.271C47.479 167.192 47.4684 166.801 47.6058 166.098C47.65 165.943 47.6581 165.781 47.6297 165.622C47.6013 165.464 47.5371 165.314 47.442 165.184C47.1612 164.926 46.813 164.754 46.438 164.687C45.5238 164.428 44.2714 164.048 43.3308 163.868C42.8024 163.762 43.093 163.789 42.5434 163.699C41.9938 163.609 40.9581 163.361 40.4719 163.509C40.1655 163.599 40.1126 163.826 40.0122 164.074C39.9118 164.323 39.7955 164.671 39.6687 164.909C39.6159 165.01 39.4204 165.2 39.2882 165.173C39.0716 165.131 39.061 164.645 39.1033 164.455C39.1456 164.264 39.1561 163.926 39.1931 163.667C39.2301 163.408 39.5208 162.721 39.6793 162.087Z" fill="#37474F"/>
<path d="M34.358 176.128C34.21 176.656 33.3962 179.885 34.5165 180.657C35.7266 181.492 36.7307 178.828 36.7307 178.828C36.7307 178.828 39.822 178.458 44.0495 180.519C43.7589 181.048 44.2345 183.008 45.4816 182.754C46.7287 182.501 47.5002 178.955 47.5108 178.902C47.3153 182.427 46.9823 184.784 44.5093 187.03C41.3809 189.867 35.9539 187.03 34.5958 184.625C33.2377 182.221 33.0422 180.963 34.0356 177.375C34.1308 177.016 34.2417 176.466 34.358 176.128Z" fill="#455A64"/>
<path d="M37.0477 179.119C36.8839 180.44 35.4624 179.811 35.4624 177.925C35.4254 175.097 36.5774 172.534 36.9156 169.316C37.851 165.739 38.7546 162.034 39.7058 162.087C39.6054 162.716 39.3464 163.879 39.3464 163.879C39.2883 164.143 39.0611 165.099 39.0611 165.099C38.4745 167.789 37.238 170.875 37.0741 173.702C36.8998 176.191 37.2115 177.798 37.0477 179.119Z" fill="#263238"/>
<path d="M43.521 180.419C43.9702 179.161 44.5356 178.833 45.1064 176.429C45.6771 174.025 47.4368 169.845 48.3668 167.255C48.7684 166.257 49.5981 164.465 49.6086 164.439C50.1741 164.735 50.0367 166.13 49.3973 167.726C48.8171 169.071 48.3056 170.445 47.8648 171.842C46.7181 174.891 46.2372 178.22 45.508 179.98C44.7787 181.74 43.0877 181.682 43.521 180.419Z" fill="#263238"/>
<path d="M43.9067 180.53C43.8623 180.52 43.8195 180.504 43.7799 180.482C41.5539 179.351 39.0628 178.845 36.572 179.018C36.4859 179.031 36.3983 179.012 36.3241 178.967C36.2498 178.922 36.1937 178.852 36.1651 178.77C36.1334 178.612 36.2603 178.474 36.4505 178.453C39.1178 178.255 41.7876 178.804 44.1604 180.038C44.1969 180.054 44.2295 180.077 44.2556 180.107C44.2816 180.137 44.3005 180.172 44.3107 180.21C44.3209 180.249 44.3222 180.289 44.3144 180.328C44.3067 180.367 44.2902 180.403 44.2661 180.435C44.2193 180.48 44.1617 180.512 44.0988 180.529C44.0359 180.546 43.9698 180.546 43.9067 180.53Z" fill="#F0F0F0"/>
<path d="M45.138 178.014C45.0996 178.007 45.0623 177.994 45.027 177.977C44.99 177.977 40.9581 175.911 36.6196 176.197C36.5337 176.207 36.447 176.186 36.3746 176.139C36.3022 176.091 36.2486 176.02 36.2233 175.938C36.2233 175.784 36.3342 175.647 36.5245 175.631C39.5868 175.529 42.628 176.173 45.3864 177.507C45.4234 177.521 45.4568 177.543 45.4839 177.572C45.5111 177.6 45.5313 177.635 45.543 177.673C45.5548 177.711 45.5577 177.75 45.5516 177.79C45.5455 177.829 45.5306 177.866 45.5079 177.898C45.463 177.95 45.4047 177.988 45.3394 178.009C45.2741 178.029 45.2044 178.031 45.138 178.014Z" fill="#F0F0F0"/>
<path d="M36.3713 174.014C36.3094 174.004 36.2512 173.979 36.2022 173.94C36.1531 173.901 36.1149 173.85 36.0912 173.792C36.0836 173.753 36.0845 173.713 36.0937 173.674C36.103 173.635 36.1205 173.598 36.1451 173.567C36.1696 173.535 36.2006 173.509 36.2359 173.491C36.2713 173.472 36.3102 173.462 36.3501 173.459C40.7097 172.809 46.0998 175.045 46.2689 175.156C46.3052 175.171 46.3375 175.195 46.3635 175.224C46.3895 175.254 46.4086 175.289 46.4192 175.327C46.4298 175.365 46.4318 175.405 46.425 175.444C46.4182 175.483 46.4028 175.52 46.3798 175.552C46.3163 175.613 46.2347 175.652 46.1472 175.664C46.0597 175.675 45.9708 175.658 45.8937 175.615C45.8567 175.615 40.5723 173.412 36.5192 174.03C36.4694 174.033 36.4194 174.027 36.3713 174.014Z" fill="#F0F0F0"/>
<path d="M37.3119 171.705C37.2518 171.694 37.1952 171.669 37.1473 171.631C37.0993 171.593 37.0615 171.544 37.0371 171.488C37.0278 171.449 37.0271 171.409 37.035 171.37C37.0429 171.331 37.0592 171.294 37.0828 171.262C37.1065 171.229 37.1369 171.203 37.1719 171.183C37.2069 171.164 37.2456 171.153 37.2855 171.15C42.089 170.368 46.6494 172.978 46.7973 173.079C46.8334 173.095 46.865 173.12 46.8897 173.151C46.9143 173.181 46.9312 173.218 46.9389 173.257C46.9467 173.295 46.9451 173.335 46.9342 173.373C46.9234 173.411 46.9036 173.446 46.8766 173.475C46.8104 173.535 46.7262 173.571 46.6372 173.578C46.5482 173.585 46.4595 173.561 46.3852 173.512C46.3482 173.512 41.9304 170.976 37.4599 171.71C37.4106 171.716 37.3607 171.714 37.3119 171.705Z" fill="#F0F0F0"/>
<path d="M37.909 168.851C37.8492 168.842 37.7928 168.817 37.7455 168.779C37.6983 168.741 37.6617 168.691 37.6395 168.635C37.6283 168.596 37.6259 168.556 37.6327 168.516C37.6394 168.476 37.6551 168.439 37.6786 168.406C37.702 168.374 37.7326 168.347 37.7679 168.328C37.8033 168.309 37.8425 168.298 37.8826 168.296C42.3849 167.504 47.2835 170.204 47.4526 170.31C47.4886 170.326 47.5205 170.35 47.5455 170.381C47.5705 170.411 47.5881 170.447 47.5968 170.485C47.6055 170.524 47.6052 170.564 47.5957 170.602C47.5863 170.641 47.568 170.676 47.5424 170.706C47.4775 170.768 47.3939 170.806 47.3049 170.814C47.2159 170.823 47.1265 170.802 47.051 170.754C47.0087 170.727 42.2528 168.111 38.0676 168.851C38.0153 168.862 37.9614 168.862 37.909 168.851Z" fill="#EBEBEB"/>
<path d="M84.9874 97.7079L46.4644 97.0526C45.7721 101.809 45.3018 106.485 45.0429 111.32C44.8421 115.141 44.6149 124.151 43.7429 131.702C43.7429 131.702 41.5077 139.243 40.9581 143.967C40.4825 148.068 39.6898 158.763 39.5789 160.137C41.9251 162.251 48.0338 163.836 51.1569 162.679C51.6483 161.316 56.7689 149.669 58.8721 143.428C61.2606 136.352 63.2898 130.302 66.0852 121.995L68.1356 133.98C68.1356 133.98 67.3905 138.281 68.2888 146.562C68.6059 149.474 69.9957 156.396 70.3127 158.674C73.4833 160 78.9262 160.343 82.3822 158.674C82.731 153.955 83.7667 145.14 84.7285 136.928C86.1605 124.653 85.2305 107.399 84.9874 97.7079Z" fill="#455A64"/>
<path d="M49.1119 106.607C48.8583 111.764 48.7156 116.314 48.2294 121.007C47.6657 125.917 46.8277 130.791 45.7194 135.607C44.6625 140.501 43.4735 145.368 42.5857 150.298C41.9072 153.927 41.4729 157.597 41.2858 161.284C41.55 161.421 41.8142 161.548 42.1207 161.675C42.2482 158.452 42.5765 155.24 43.1036 152.058C43.9068 147.164 45.0377 142.34 46.121 137.504C47.2043 132.669 48.2347 127.829 48.8213 122.914C49.2176 119.633 49.5135 116.045 49.6562 112.874C50.8951 112.731 52.079 112.283 53.1016 111.569C54.1585 110.803 54.6869 109.614 55.1044 108.398C56.0429 105.523 56.7914 102.589 57.345 99.6156C57.4929 98.8282 57.625 98.0302 57.7466 97.2429H57.0015C56.7003 99.1452 56.3356 101.037 55.8865 102.913C55.5342 104.322 55.1537 105.731 54.745 107.14C54.3804 108.345 54.0475 109.709 53.1597 110.655C52.2091 111.548 50.9746 112.079 49.6721 112.155C49.6721 110.982 49.7672 109.799 49.7936 108.631C49.8516 104.769 50.3138 100.924 51.1728 97.1583H50.5281C49.7225 100.249 49.2477 103.416 49.1119 106.607Z" fill="#37474F"/>
<path d="M66.0852 122.011C67.3059 117.35 68.7961 112.24 68.7961 112.24C68.7961 112.24 73.7264 112.293 76.2787 109.011C74.8255 112.52 70.1595 113.904 70.1595 113.904L67.6599 124.109L68.1355 133.996L66.0852 122.011Z" fill="#37474F"/>
<path d="M116.001 89.7391C117.613 89.2106 119.093 88.5078 119.072 86.5368C119.072 85.8181 118.147 85.0466 117.893 85.4799C117.992 85.2896 118.031 85.0738 118.004 84.8611C117.977 84.6483 117.887 84.4487 117.744 84.2888C117.601 84.1288 117.413 84.016 117.205 83.9655C116.996 83.9149 116.778 83.9289 116.577 84.0055C116.601 83.7386 116.566 83.4697 116.475 83.2177C116.384 82.9657 116.238 82.7368 116.049 82.5471C115.893 82.3838 115.684 82.2798 115.46 82.2529C115.235 82.2259 115.008 82.2776 114.818 82.3991C114.741 82.1438 114.605 81.91 114.421 81.7164C114.238 81.5228 114.012 81.3748 113.761 81.2841C113.037 81.0304 112.271 81.469 111.647 81.8125C111.305 81.9955 110.975 82.2002 110.659 82.4255C109.824 83.1019 109.956 81.7385 110.019 81.2365C110.13 80.3646 110.389 79.4134 109.623 78.7582C109.554 78.69 109.465 78.644 109.37 78.6261C108.941 78.5574 108.376 79.6829 108.186 79.9841C107.811 80.576 107.472 81.189 107.129 81.7808C106.871 82.2606 106.529 82.6901 106.12 83.0491C104.962 83.9474 102.516 83.2657 101.337 82.8377C98.2037 81.6963 94.5363 80.1955 94.5363 80.1955C85.5529 71.3706 81.0348 66.081 76.1626 65.6001C74.963 67.7561 73.8216 73.7486 75.3224 78.124C75.3224 78.124 77.0556 80.0793 79.7189 82.5418C82.0594 84.7456 84.6139 86.7105 87.3443 88.4074C91.5718 91.1236 93.4055 91.9955 94.5363 92.1487C101.993 93.2056 111.991 91.1077 116.001 89.7391Z" fill="#FFA8A7"/>
<path d="M66.3865 105.508C59.2421 105.508 51.5005 103.785 45.6454 100.894C46.0257 95.3304 46.7315 89.7935 47.7591 84.312C48.0181 82.8218 48.2876 81.2788 48.5518 79.6089C49.117 75.7089 50.2997 71.9237 52.0553 68.3955L61.0018 64.5115C62.3389 64.3655 63.6833 64.2949 65.0284 64.3001C69.1502 64.3001 73.2826 64.8603 76.0833 65.7956C82.0018 67.7772 81.7746 75.6351 81.653 79.852V79.889V79.9207C84.0891 86.7481 85.1249 97.3116 85.2147 98.2363C81.9384 102.924 75.2484 105.508 66.3707 105.508H66.3865Z" fill="#FAFAFA"/>
<path d="M65.039 64.4745C69.1396 64.4745 73.2509 65.0347 76.0357 65.9647C81.8485 67.9041 81.6054 75.6721 81.4892 79.8467V79.9154V79.9789C83.8724 86.6583 84.9135 96.9205 85.035 98.1888C81.7957 102.797 75.1744 105.317 66.3865 105.317C59.3107 105.317 51.6484 103.621 45.8303 100.778C46.216 95.2602 46.9217 89.7693 47.944 84.3332C48.203 82.843 48.4725 81.2999 48.742 79.6301C49.2984 75.7712 50.465 72.0254 52.198 68.5329L61.0387 64.6965C62.3665 64.5429 63.7023 64.4688 65.039 64.4745ZM65.039 64.1205C63.6705 64.114 62.3029 64.1899 60.9436 64.3477L51.9602 68.2634C50.1804 71.8225 48.9832 75.6441 48.4144 79.5825C47.1937 87.1127 46.0734 92.0589 45.4868 101C51.2362 103.864 59.0623 105.682 66.4129 105.682C74.387 105.682 81.8063 103.568 85.4366 98.2839C85.4366 98.2839 84.4326 87.0758 81.8644 79.8573C81.9912 75.4026 82.1603 67.6346 76.1678 65.6265C73.1135 64.6278 68.7803 64.0993 65.039 64.0993V64.1205Z" fill="#E0E0E0"/>
<path d="M82.0176 46.941C82.3347 48.6954 83.6029 50.1116 84.274 51.7815C85.0679 53.648 85.1409 55.7427 84.479 57.6599C83.8172 59.5772 82.4675 61.1807 80.6912 62.16C81.0707 61.5251 81.2042 60.773 81.0664 60.0462C80.3583 61.7742 77.9328 63.2591 76.1731 63.8933C73.1927 64.9501 68.775 65.0083 63.887 65.0083C58.9989 65.0083 56.8905 64.8339 54.9352 63.4916C54.1853 62.9089 53.632 62.1104 53.3499 61.2035C53.2672 61.7551 53.3102 62.3182 53.4759 62.8508C53.6415 63.3834 53.9254 63.8717 54.3064 64.279C51.8756 64.4164 49.9362 63.7506 48.6363 62.5035C47.9956 61.8711 47.5134 61.0964 47.2287 60.2424C46.9441 59.3884 46.8651 58.4793 46.9981 57.589C47.2518 54.9468 48.3826 53.5782 48.8318 50.9836C49.2176 48.743 48.3034 45.6992 48.4989 43.4481C48.701 40.8015 49.5858 38.2525 51.0671 36.0499C54.2007 31.4208 58.3172 30.6176 62.8882 29.751C65.7206 29.2225 69.3933 29.0165 72.2257 29.7193C75.0581 30.4221 77.658 31.4843 79.6238 33.5769C81.9542 36.0658 82.7152 39.6327 82.3083 42.946C82.1497 44.246 81.8062 45.5512 82.0071 46.8459C82.0018 46.867 82.0123 46.904 82.0176 46.941Z" fill="#263238"/>
<path d="M56.0556 48.2832C54.3117 41.2445 61.1814 29.6347 72.2257 29.7034C59.0148 25.8511 49.5029 37.2125 54.8507 47.7759C55.0779 48.2463 55.6751 48.5633 56.0556 48.2832Z" fill="#5D04D9"/>
<path d="M58.3436 50.7246C58.1979 50.785 58.0365 50.7961 57.8839 50.7563C57.1599 50.5397 57.0119 49.2186 56.5364 48.7007C56.2284 48.3518 55.8393 48.084 55.4034 47.9209C54.9675 47.7578 54.4982 47.7044 54.0369 47.7654C53.4157 47.8621 52.8343 48.1313 52.3587 48.5424C51.8832 48.9535 51.5327 49.4899 51.3471 50.0905C50.639 52.1091 51.1146 55.7923 54.375 56.5744C57.4875 57.3195 58.3013 55.1476 58.3013 55.1476L58.8298 65.7956C58.8298 65.7956 60.0188 68.9662 64.8064 69.8857C71.0684 71.08 72.5797 68.163 70.5875 65.8273V63.3437C72.4266 63.3291 74.249 62.9929 75.9722 62.3502C77.8021 61.7009 79.3836 60.4964 80.4958 58.9048C81.608 57.3132 82.1954 55.4141 82.1761 53.4725C82.0176 49.932 81.0928 49.5938 80.8656 47.2739C80.5221 43.8074 80.0465 38.2905 75.8824 37.3499C74.8427 37.1301 73.7642 37.1792 72.7488 37.4926C71.911 37.8123 71.0486 38.0633 70.17 38.2429C69.207 38.2779 68.2429 38.223 67.29 38.0791C66.0535 38.0052 64.8117 38.3645 63.591 38.6076C63.5296 38.6183 63.4705 38.6397 63.4166 38.671C63.3634 38.7247 63.3268 38.7926 63.3109 38.8665C63.2158 39.1941 63.1629 39.5271 63.089 39.8547C62.8652 40.7875 62.5629 41.6996 62.1853 42.5814C61.5195 44.2354 60.7269 45.9845 59.1891 46.8776C59.4959 47.8629 59.4586 48.9231 59.0834 49.8844C58.9953 50.1417 58.8488 50.375 58.6554 50.5661C58.5638 50.6404 58.4576 50.6944 58.3436 50.7246Z" fill="#FFA8A7"/>
<path d="M62.1643 45.1338C62.1643 45.2553 62.122 45.4085 62.2277 45.472C62.2656 45.4902 62.3072 45.4997 62.3493 45.4997C62.3913 45.4997 62.4329 45.4902 62.4708 45.472C63.6382 45.0543 64.6907 44.3673 65.5428 43.4665C66.3949 42.5658 67.0225 41.4768 67.3747 40.288C68.1274 41.3653 68.4567 42.6823 68.2994 43.987C68.2704 44.0691 68.2704 44.1586 68.2994 44.2407C68.3391 44.2879 68.39 44.3242 68.4474 44.3464C68.7245 44.4509 69.0223 44.4892 69.3169 44.458C69.6114 44.4268 69.8946 44.327 70.1437 44.1667C70.64 43.8443 71.0631 43.4212 71.3855 42.9249C72.0317 42.0886 72.4585 41.104 72.6273 40.0608C73.1356 41.1129 73.3718 42.2757 73.3143 43.4428C74.0581 43.4812 74.8008 43.3475 75.4844 43.052C76.1681 42.7565 76.7744 42.3072 77.2561 41.7391C77.7377 41.171 78.0818 40.4995 78.2615 39.7767C78.4412 39.0539 78.4517 38.2993 78.2922 37.5718C78.0896 36.7915 77.7297 36.0608 77.2344 35.4247C76.7392 34.7886 76.1191 34.2605 75.4122 33.8728C73.9911 33.0991 72.406 32.6752 70.7884 32.6362C68.4685 32.52 65.9796 32.9639 64.0984 34.4012C63.2311 35.0046 62.5414 35.8294 62.1009 36.7897C61.7416 37.8096 62.2066 39.1254 62.3175 40.1559C62.5418 41.8122 62.49 43.4943 62.1643 45.1338Z" fill="#263238"/>
<path d="M67.8291 53.9322C68.6799 53.0286 69.499 54.1119 71.4384 54.3814C73.3777 54.6509 74.4663 53.6257 74.8679 54.8359C75.2008 55.8452 74.0594 58.0487 70.8518 57.811C68.1251 57.6049 67.0893 54.7354 67.8291 53.9322Z" fill="#B16668"/>
<path d="M71.4594 54.3814C70.2017 54.207 69.4144 53.6891 68.7855 53.594V54.4765C68.9191 54.616 69.0874 54.7173 69.2732 54.7703C69.4589 54.8232 69.6553 54.8258 69.8424 54.7777C69.9123 54.7414 69.9925 54.7302 70.0696 54.746C70.1054 54.7627 70.1377 54.786 70.1647 54.8147C70.3549 55.0094 70.5885 55.1561 70.8464 55.2428C71.1751 55.3461 71.5166 55.403 71.861 55.4118C72.2276 55.4094 72.5934 55.3776 72.9549 55.3167C73.334 55.267 73.7086 55.1875 74.0752 55.0789L74.1861 54.2334C73.5573 54.2017 72.6642 54.5505 71.4594 54.3814Z" fill="#FAFAFA"/>
<path d="M67.6917 55.2586C67.8913 55.9597 68.3035 56.5816 68.8713 57.0387C69.4391 57.4958 70.1347 57.7656 70.8623 57.811H71.3907C71.1475 57.0762 70.6836 56.4344 70.0623 55.9729C69.441 55.5114 68.6925 55.2528 67.9189 55.2322L67.6917 55.2586Z" fill="#F28F8F"/>
<path d="M61.7151 52.1461C61.8842 52.9335 62.9939 53.3562 64.1988 53.0973C65.4036 52.8384 66.2333 51.9823 66.0642 51.1949C65.8951 50.4076 64.78 49.9848 63.5805 50.249C62.3809 50.5132 61.546 51.3587 61.7151 52.1461Z" fill="#F28F8F"/>
<path d="M78.1178 49.8316C78.1442 50.6348 79.1746 51.2531 80.39 51.2161C81.6054 51.1791 82.5936 50.4921 82.5672 49.6889C82.5408 48.8857 81.5103 48.2621 80.2949 48.3044C79.0795 48.3467 78.0966 49.0072 78.1178 49.8316Z" fill="#F28F8F"/>
<path d="M66.1962 44.8907L63.1999 46.7772C62.9545 46.3619 62.878 45.8682 62.9862 45.3982C63.0943 44.9281 63.379 44.5175 63.7812 44.2513C63.9799 44.1279 64.2018 44.0464 64.4331 44.0118C64.6645 43.9773 64.9005 43.9903 65.1266 44.0502C65.3527 44.1101 65.5642 44.2155 65.7481 44.36C65.9321 44.5045 66.0845 44.6851 66.1962 44.8907Z" fill="#263238"/>
<path d="M64.5264 49.5092C64.5949 49.8495 64.7625 50.1618 65.008 50.4071C65.2536 50.6523 65.5662 50.8195 65.9065 50.8875C66.2469 50.9555 66.5997 50.9214 66.9207 50.7894C67.2417 50.6574 67.5164 50.4335 67.7105 50.1457C67.9045 49.858 68.0091 49.5193 68.0111 49.1722C68.0132 48.8252 67.9125 48.4853 67.7219 48.1953C67.5312 47.9053 67.2591 47.6781 66.9397 47.5424C66.6203 47.4067 66.2678 47.3684 65.9268 47.4325C65.6984 47.4768 65.481 47.5657 65.287 47.694C65.093 47.8224 64.9262 47.9878 64.7962 48.1806C64.6661 48.3735 64.5753 48.5901 64.5291 48.8181C64.4828 49.0461 64.4819 49.2809 64.5264 49.5092Z" fill="#263238"/>
<path d="M75.9247 48.4999C75.9935 48.8403 76.1613 49.1527 76.4072 49.3979C76.6531 49.643 76.9661 49.8099 77.3067 49.8776C77.6472 49.9453 78.0002 49.9107 78.3212 49.7782C78.6421 49.6457 78.9167 49.4211 79.1103 49.1329C79.304 48.8447 79.408 48.5056 79.4093 48.1584C79.4106 47.8111 79.3092 47.4713 79.1178 47.1816C78.9263 46.8919 78.6535 46.6653 78.3335 46.5303C78.0136 46.3954 77.6609 46.3581 77.3198 46.4232C77.0916 46.4674 76.8744 46.5563 76.6806 46.6848C76.4868 46.8132 76.3204 46.9787 76.1907 47.1717C76.0611 47.3646 75.9709 47.5813 75.9252 47.8092C75.8796 48.0372 75.8794 48.2719 75.9247 48.4999Z" fill="#263238"/>
<path d="M79.5181 45.1919L76.1731 43.9184C76.241 43.6951 76.3542 43.4882 76.5056 43.3107C76.6571 43.1332 76.8436 42.9888 77.0534 42.8867C77.2632 42.7845 77.4918 42.7267 77.7249 42.7169C77.9581 42.7071 78.1908 42.7456 78.4084 42.8298C78.8589 43.0088 79.2243 43.3527 79.4304 43.7914C79.6365 44.2301 79.6679 44.7309 79.5181 45.1919Z" fill="#263238"/>
<path d="M71.1371 47.8658L72.231 52.7961L75.6499 50.9096L71.1371 47.8658Z" fill="#F28F8F"/>
<path d="M70.5558 63.3437C68.199 63.2486 65.3296 62.8839 62.5817 60.9181C61.2069 59.7759 60.1798 58.271 59.6172 56.5744C59.6172 56.5744 59.7334 59.745 61.6358 61.658C64.9808 65.0241 70.5611 64.8286 70.5611 64.8286L70.5558 63.3437Z" fill="#F28F8F"/>
<path d="M105.433 78.6842L120.197 88.5289L90.6682 105.666L105.433 78.6842Z" fill="#5D04D9"/>
<path opacity="0.25" d="M105.433 78.6842L120.197 88.5289L90.6682 105.666L105.433 78.6842Z" fill="black"/>
<path d="M105.433 78.6842L90.6682 105.666L75.65 96.9998L90.4198 70.0125L105.433 78.6842Z" fill="#5D04D9"/>
<path d="M64.035 100.213C66.6771 100.905 75.9882 101.988 77.489 102.221C80.0519 102.612 81.7904 104.144 84.0046 105.117C85.3717 105.589 86.7913 105.892 88.2321 106.02C89.5014 106.123 90.7765 106.134 92.0474 106.052C92.529 106.024 93.0067 105.949 93.4742 105.83C93.7406 105.775 93.9816 105.634 94.1601 105.429C94.3386 105.223 94.4448 104.965 94.4623 104.694C94.9871 104.597 95.4969 104.431 95.979 104.202C96.2159 104.093 96.4284 103.937 96.6037 103.744C96.7789 103.55 96.9133 103.323 96.9988 103.077C97.0797 102.719 97.298 102.408 97.6065 102.21C97.8582 102.051 98.06 101.825 98.189 101.557C98.318 101.288 98.3688 100.989 98.3358 100.694C98.2644 100.49 98.1402 100.308 97.9759 100.168C97.8116 100.028 97.613 99.934 97.4004 99.8956C97.4648 99.6267 97.4315 99.3436 97.3067 99.0969C97.1819 98.8501 96.9735 98.6557 96.7188 98.5481C96.1911 98.3318 95.6294 98.2102 95.0595 98.1888C93.6976 98.0357 92.3496 97.7777 91.0275 97.4173C89.5849 96.9522 88.4857 96.2336 88.8239 95.7738C89.1621 95.3141 91.9258 94.2572 91.947 93.4117C91.947 92.0801 89.2467 92.3548 86.7789 92.8093C84.9558 93.1422 83.4867 93.9137 81.2039 93.491C78.921 93.0682 67.4117 88.772 67.4117 88.772L60.5737 77.3684C60.5737 77.3684 57.0649 69.3362 51.9443 68.2634C46.8766 70.9585 46.0681 77.7753 50.2533 84.9039C52.3209 88.5834 54.6152 92.1307 57.123 95.5255C59.9396 99.2879 61.8314 99.642 64.035 100.213Z" fill="#FFA8A7"/>
<path d="M92.5388 100.762C93.3136 100.831 94.0918 100.852 94.8692 100.826C95.5508 100.876 96.2344 100.76 96.8614 100.487C96.9723 100.42 97.0706 100.335 97.152 100.234C97.152 100.234 97.152 100.197 97.152 100.186C97.152 100.176 97.1203 100.186 97.1045 100.186C96.7217 100.32 96.3243 100.407 95.9208 100.445C95.609 100.445 95.2972 100.493 94.9854 100.498C94.169 100.519 93.3521 100.493 92.5388 100.419C91.9179 100.344 91.3032 100.224 90.6998 100.059C90.1281 99.853 89.5461 99.6766 88.956 99.531C88.9084 99.531 88.7763 99.5997 88.8344 99.6525C89.3671 100.009 89.9652 100.257 90.5941 100.382C91.232 100.557 91.882 100.684 92.5388 100.762ZM96.3012 102.554L95.6724 102.67C95.3236 102.733 94.97 102.767 94.6155 102.77C93.799 102.79 92.9821 102.762 92.1689 102.686C91.5481 102.613 90.9335 102.494 90.3299 102.332C89.7582 102.125 89.1761 101.949 88.5861 101.803C88.5385 101.803 88.4064 101.877 88.4645 101.925C88.9959 102.284 89.5945 102.532 90.2242 102.654C90.8583 102.834 91.5047 102.966 92.1583 103.05C92.9347 103.121 93.7148 103.144 94.494 103.119C94.8487 103.104 95.2019 103.063 95.5509 102.998C95.8498 102.951 96.1461 102.889 96.4386 102.813C96.5286 102.789 96.6107 102.741 96.6764 102.675C96.8508 102.432 96.3647 102.543 96.3012 102.554ZM93.6591 104.498L93.0144 104.556C92.6626 104.583 92.3093 104.583 91.9575 104.556C91.1424 104.511 90.3307 104.417 89.5267 104.276C89.2096 104.208 88.8978 104.123 88.5861 104.033C88.4275 103.986 87.8885 103.706 87.7459 103.859C87.7304 103.88 87.722 103.906 87.722 103.933C87.722 103.959 87.7304 103.985 87.7459 104.007C87.8833 104.224 88.2743 104.282 88.4962 104.356C88.8186 104.456 89.1515 104.546 89.4844 104.62C90.2514 104.754 91.0263 104.839 91.8042 104.873C92.1561 104.897 92.5092 104.897 92.8611 104.873C93.1639 104.856 93.4655 104.822 93.7647 104.773C93.8563 104.758 93.9431 104.722 94.0184 104.667C94.2509 104.435 93.7225 104.493 93.6802 104.498H93.6591Z" fill="#F28F8F"/>
<path d="M112.567 82.5946C112.889 82.9328 111.821 84.5076 112.26 85.5909C112.3 85.7296 112.371 85.8575 112.467 85.9654C112.563 86.0733 112.682 86.1585 112.815 86.2146C112.949 86.2708 113.092 86.2966 113.237 86.2902C113.381 86.2837 113.522 86.2452 113.65 86.1774C113.65 86.1774 113.333 87.1286 113.835 87.5831C113.945 87.6819 114.075 87.7547 114.217 87.796C114.359 87.8373 114.508 87.8461 114.654 87.8217C114.8 87.7974 114.938 87.7404 115.059 87.6552C115.18 87.57 115.28 87.4586 115.351 87.3294C115.272 88.0428 116.255 88.3863 116.905 87.8209C117.136 87.6102 117.328 87.3596 117.47 87.0811C117.47 87.0811 117.386 88.0375 117.904 88.381C118.422 88.7245 118.892 87.8526 118.871 87.1392L112.567 82.5946Z" fill="#FFA8A7"/>
<path d="M113.803 86.0612C114.16 85.6947 114.442 85.2621 114.633 84.7876C114.727 84.5587 114.792 84.3191 114.828 84.0743C114.897 83.7966 114.897 83.5064 114.828 83.2288C114.802 83.1601 114.738 83.2288 114.722 83.2552C114.693 83.371 114.677 83.4898 114.675 83.6092C114.675 83.7149 114.675 83.8206 114.643 83.9316C114.611 84.1618 114.564 84.3896 114.501 84.6133C114.359 85.1275 114.115 85.6076 113.782 86.0242C113.782 86.0242 113.782 86.0929 113.782 86.0612H113.803Z" fill="#F28F8F"/>
<path d="M115.388 87.3505C115.723 86.9981 115.995 86.5905 116.192 86.1457C116.286 85.9415 116.362 85.7293 116.419 85.5116C116.45 85.4059 116.477 85.3002 116.503 85.1945C116.546 85.0633 116.562 84.9251 116.551 84.7876C116.551 84.7559 116.509 84.7137 116.472 84.7454C116.417 84.8063 116.38 84.8813 116.366 84.962C116.329 85.0642 116.297 85.1682 116.271 85.2738L116.096 85.8551C115.948 86.3822 115.703 86.8768 115.372 87.3136C115.372 87.3136 115.372 87.377 115.372 87.3505H115.388Z" fill="#F28F8F"/>
<path d="M158.361 23.8959C158.371 29.4961 156.249 34.8903 152.426 38.9828L150.603 40.7213C146.395 44.3538 140.971 46.263 135.415 46.0667C129.86 45.8704 124.583 43.5831 120.642 39.6627C116.701 35.7423 114.386 30.478 114.16 24.9235C113.935 19.3691 115.815 13.9345 119.426 9.70738L121.169 7.87899C124.3 4.92531 128.227 2.95264 132.466 2.20432C136.704 1.456 141.069 1.96475 145.022 3.66783C148.975 5.3709 152.343 8.1938 154.71 11.7883C157.078 15.3828 158.341 19.5918 158.345 23.8959H158.361Z" fill="white"/>
<path d="M136.235 -8.97795e-07C130.234 0.0170651 124.457 2.28734 120.05 6.3612C115.643 10.4351 112.927 16.0154 112.439 21.9971C111.951 27.9788 113.728 33.9255 117.416 38.6597C121.105 43.3938 126.437 46.57 132.356 47.5593L135.057 54.4871C135.158 54.7494 135.335 54.975 135.567 55.1341C135.799 55.2932 136.073 55.3784 136.354 55.3784C136.635 55.3784 136.909 55.2932 137.141 55.1341C137.373 54.975 137.551 54.7494 137.651 54.4871L140.325 47.5434C146.276 46.5666 151.639 43.3798 155.342 38.6201C159.045 33.8604 160.815 27.8785 160.298 21.8703C159.781 15.862 157.016 10.2701 152.555 6.21254C148.094 2.15493 142.265 -0.0694242 136.235 -0.0158544V-8.97795e-07ZM158.361 23.8959C158.371 29.4961 156.249 34.8903 152.426 38.9828L150.603 40.7213C146.395 44.3538 140.971 46.263 135.415 46.0667C129.86 45.8704 124.583 43.5831 120.642 39.6627C116.701 35.7423 114.386 30.478 114.16 24.9235C113.935 19.3691 115.815 13.9345 119.426 9.70738L121.201 7.87899C124.333 4.92602 128.26 2.95399 132.498 2.20604C136.737 1.45809 141.102 1.96691 145.055 3.66978C149.008 5.37265 152.376 8.19511 154.744 11.7892C157.112 15.3832 158.377 19.5918 158.382 23.8959H158.361Z" fill="#455A64"/>
<path d="M134.005 35.4105C133.596 35.4109 133.192 35.3276 132.817 35.1659C132.441 35.0041 132.103 34.7673 131.823 34.4699L125.064 27.2462C124.559 26.6629 124.299 25.9066 124.339 25.136C124.379 24.3653 124.716 23.6402 125.279 23.1125C125.843 22.5849 126.588 22.2959 127.36 22.3059C128.131 22.316 128.869 22.6245 129.418 23.1667L133.81 27.8592L144.204 14.6958C144.447 14.3884 144.748 14.1318 145.09 13.9408C145.432 13.7497 145.808 13.6279 146.197 13.5822C146.587 13.5366 146.981 13.568 147.358 13.6748C147.735 13.7815 148.087 13.9615 148.394 14.2044C148.702 14.4473 148.958 14.7483 149.15 15.0904C149.341 15.4324 149.462 15.8087 149.508 16.1979C149.554 16.587 149.522 16.9813 149.416 17.3582C149.309 17.7352 149.129 18.0875 148.886 18.3949L136.346 34.2744C136.08 34.6131 135.744 34.89 135.361 35.0862C134.978 35.2823 134.557 35.393 134.127 35.4105H134.005Z" fill="#5D04D9"/>
</g>
<defs>
<clipPath id="clip0_257_172">
<rect width="240" height="238.626" fill="white" transform="translate(16)"/>
</clipPath>
</defs>
</svg>
