<svg width="320" height="76" viewBox="0 0 320 76" fill="none" xmlns="http://www.w3.org/2000/svg">
<path d="M119.422 48.5232C116.277 44.775 113.277 41.1987 108.223 38.8613C100.646 35.3552 95.0213 35.0213 89.8957 34.7057C84.5847 34.3851 79.8114 34.098 73.9612 30.3531C67.4932 26.2142 64.8869 22.294 62.1989 18.2636C60.1119 15.1298 57.9799 11.9292 53.9562 8.50819C46.5131 2.18212 38.7796 -0.00671387 29.5802 -0.00671387H-1V75.4153H320V-2.8993e-05H289.418C280.219 -2.8993e-05 272.489 2.18212 265.042 8.51487C261.017 11.9359 258.886 15.1365 256.799 18.2703C254.115 22.3007 251.503 26.2208 245.035 30.3598C239.192 34.1046 234.414 34.3918 229.101 34.7124C223.977 35.0229 218.352 35.3618 210.776 38.868C205.722 41.2054 202.721 44.7817 199.576 48.5299C193.131 56.21 186.074 64.6214 159.497 64.6214C132.921 64.6214 125.867 56.205 119.422 48.5232Z" fill="#583BBF"/>
</svg>
